<svg xmlns="http://www.w3.org/2000/svg" xmlns:xlink="http://www.w3.org/1999/xlink" version="1.1" width="132" height="132" viewBox="0 0 132 132">
<defs>
<path id="font_1_82" d="M.55400088 0V.04399109H.5039978C.397995 .04399109 .397995 .054977418 .397995 .08596802V.6358185C.397995 .6660156 .394989 .6660156 .3619995 .6660156 .29100038 .6016083 .17999268 .6016083 .1599884 .6016083H.14299011V.5576172H.1599884C.18299866 .5576172 .24798584 .5606079 .30599977 .58561709V.08596802C.30599977 .054977418 .30599977 .04399109 .19999695 .04399109H.1499939V0C.20498657 .0039978029 .2939911 .0039978029 .35198976 .0039978029 .4099884 .0039978029 .49899293 .0039978029 .55400088 0Z"/>
<path id="font_1_107" d="M.58898928 .19299317H.5469971C.5439911 .17399597 .5339966 .11199951 .5179901 .101989749 .5099945 .09599304 .42599488 .09599304 .41099549 .09599304H.21499634C.2809906 .14498902 .35499574 .20098877 .4149933 .24099732 .5049896 .30300904 .58898928 .3610077 .58898928 .4670105 .58898928 .5950012 .46798707 .6660156 .32499696 .6660156 .18998719 .6660156 .09098816 .58795168 .09098816 .48986817 .09098816 .4378662 .1349945 .42886354 .14898682 .42886354 .17599488 .42886354 .20799256 .4468689 .20799256 .48786927 .20799256 .52386477 .18199158 .543869 .15098572 .546875 .1789856 .59194949 .23699951 .6220093 .3039856 .6220093 .40098573 .6220093 .48199464 .5639038 .48199464 .4658661 .48199464 .3818817 .42399598 .31791688 .34700013 .2529297L.102996829 .04598999C.09298706 .036987306 .09199524 .036987306 .09098816 .02999878V0H.55599978L.58898928 .19299317Z"/>
<path id="font_1_106" d="M.59999087 .17382813C.59999087 .25582887 .5269928 .32583619 .41299439 .35183717 .5329895 .39083863 .5649872 .46684266 .5649872 .5228424 .5649872 .60491946 .46299745 .6660156 .33699037 .6660156 .21398926 .6660156 .114990238 .61395266 .114990238 .5238342 .114990238 .47683717 .15299988 .46484376 .17199707 .46484376 .20098877 .46484376 .22898865 .48583985 .22898865 .5218353 .22898865 .5448303 .21699524 .5728302 .18099976 .57884219 .22399903 .625 .31298829 .628006 .33399964 .628006 .40699769 .628006 .45899964 .5908661 .45899964 .5228424 .45899964 .46484376 .42099 .37384034 .31599427 .36782838 .28799439 .36683656 .28399659 .36582948 .2579956 .36483766 .24699402 .36383058 .23599243 .36283876 .23599243 .34783937 .23599243 .3310547 .24598694 .3310547 .2639923 .3310547H.32998658C.42199708 .3310547 .48298646 .2737732 .48298646 .17437744 .48298646 .07237244 .41999818 .01852417 .33099366 .01852417 .31999208 .01852417 .20098877 .01852417 .1499939 .070373538 .19099427 .07637024 .20298767 .1073761 .20298767 .13137818 .20298767 .16838074 .1749878 .19238281 .14199829 .19238281 .10998535 .19238281 .07998657 .17137146 .07998657 .12937927 .07998657 .025512696 .19799805-.022460938 .33399964-.022460938 .49798585-.022460938 .59999087 .07637024 .59999087 .17337036V.17382813Z"/>
<path id="font_2_78" d="M.45700074 .32888795C.45700074 .598114 .34199525 .6660156 .25299073 .6660156 .19799805 .6660156 .14898682 .64801028 .10598755 .6031189 .06498718 .5580902 .041992189 .5160217 .041992189 .44091798 .041992189 .3158722 .12998963 .21777344 .24198914 .21777344 .30299378 .21777344 .34399415 .25979615 .36698915 .3178711V.28582765C.36698915 .05178833 .2630005 .0055389406 .20498657 .0055389406 .18798828 .0055389406 .13398743 .007537842 .10699463 .041778566 .15098572 .041778566 .15899658 .07078552 .15899658 .08778381 .15899658 .118774417 .1349945 .13378906 .11299133 .13378906 .09700012 .13378906 .066986087 .12478638 .066986087 .08578491 .066986087 .018615723 .12098694-.022460938 .20599365-.022460938 .33499146-.022460938 .45700074 .11378479 .45700074 .32888795M.36499024 .42089845C.36499024 .33789063 .33099366 .24076844 .24299622 .24076844 .22698975 .2407074 .18099976 .2407074 .1499939 .30371095 .13198853 .34072877 .13198853 .3908081 .13198853 .43988038 .13198853 .49397279 .13198853 .5410614 .15299988 .578125 .17999268 .62805178 .21798706 .64100649 .25299073 .64100649 .29899598 .64100649 .33198548 .60710147 .34899903 .562088 .36099244 .52989199 .36499024 .46688844 .36499024 .42089845Z"/>
<path id="font_2_82" d="M.4189911 0V.0309906H.3869934C.29699708 .0309906 .2939911 .041992189 .2939911 .07902527V.64012148C.2939911 .6640167 .2939911 .6660156 .2709961 .6660156 .20899964 .60227969 .12098694 .60227969 .08898926 .60227969V.57128909C.10899353 .57128909 .16799927 .57128909 .21998596 .5972748V.07902527C.21998596 .042999269 .21699524 .0309906 .1269989 .0309906H.09498596V0C.12998963 .0029907227 .21699524 .0029907227 .25698854 .0029907227 .29699708 .0029907227 .38398744 .0029907227 .4189911 0Z"/>
</defs>
<path transform="matrix(1.0001,0,0,-1.00002,2.4943543,129.75928)" stroke-width=".3985" stroke-linecap="butt" stroke-miterlimit="10" stroke-linejoin="miter" fill="none" stroke="#000000" d="M0 0H127.56062M0 14.17339H127.56062M0 28.3468H127.56062M0 42.5202H127.56062M0 56.69362H127.56062M0 70.867H127.56062M0 85.04042H127.56062M0 99.21382H127.56062M0 113.38724H127.56062M0 127.55566H127.56062M0 0V127.56062M14.17339 0V127.56062M28.3468 0V127.56062M42.5202 0V127.56062M56.69362 0V127.56062M70.867 0V127.56062M85.04042 0V127.56062M99.21382 0V127.56062M113.38724 0V127.56062M127.55566 0V127.56062M127.56062 127.56062"/>
<path transform="matrix(1.0001,0,0,-1.00002,2.4943543,129.75928)" stroke-width="1.19553" stroke-linecap="butt" stroke-miterlimit="10" stroke-linejoin="miter" fill="none" stroke="#000000" d="M0 0V42.5202H42.5202V0ZM42.5202 42.5202"/>
<path transform="matrix(1.0001,0,0,-1.00002,2.4943543,129.75928)" stroke-width="1.19553" stroke-linecap="butt" stroke-miterlimit="10" stroke-linejoin="miter" fill="none" stroke="#000000" d="M0 42.5202V85.04042H42.5202V42.5202ZM42.5202 85.04042"/>
<path transform="matrix(1.0001,0,0,-1.00002,2.4943543,129.75928)" stroke-width="1.19553" stroke-linecap="butt" stroke-miterlimit="10" stroke-linejoin="miter" fill="none" stroke="#000000" d="M0 85.04042V127.56062H42.5202V85.04042ZM42.5202 127.56062"/>
<path transform="matrix(1.0001,0,0,-1.00002,2.4943543,129.75928)" stroke-width="1.19553" stroke-linecap="butt" stroke-miterlimit="10" stroke-linejoin="miter" fill="none" stroke="#000000" d="M42.5202 0V42.5202H85.04042V0ZM85.04042 42.5202"/>
<path transform="matrix(1.0001,0,0,-1.00002,2.4943543,129.75928)" stroke-width="1.19553" stroke-linecap="butt" stroke-miterlimit="10" stroke-linejoin="miter" fill="none" stroke="#000000" d="M42.5202 42.5202V85.04042H85.04042V42.5202ZM85.04042 85.04042"/>
<path transform="matrix(1.0001,0,0,-1.00002,2.4943543,129.75928)" stroke-width="1.19553" stroke-linecap="butt" stroke-miterlimit="10" stroke-linejoin="miter" fill="none" stroke="#000000" d="M42.5202 85.04042V127.56062H85.04042V85.04042ZM85.04042 127.56062"/>
<path transform="matrix(1.0001,0,0,-1.00002,2.4943543,129.75928)" stroke-width="1.19553" stroke-linecap="butt" stroke-miterlimit="10" stroke-linejoin="miter" fill="none" stroke="#000000" d="M85.04042 0V42.5202H127.56062V0ZM127.56062 42.5202"/>
<path transform="matrix(1.0001,0,0,-1.00002,2.4943543,129.75928)" stroke-width="1.19553" stroke-linecap="butt" stroke-miterlimit="10" stroke-linejoin="miter" fill="none" stroke="#000000" d="M85.04042 42.5202V85.04042H127.56062V42.5202ZM127.56062 85.04042"/>
<path transform="matrix(1.0001,0,0,-1.00002,2.4943543,129.75928)" stroke-width="1.19553" stroke-linecap="butt" stroke-miterlimit="10" stroke-linejoin="miter" fill="none" stroke="#000000" d="M85.04042 85.04042V127.56062H127.56062V85.04042ZM127.56062 127.56062"/>
<path transform="matrix(1.0001,0,0,-1.00002,2.4943543,129.75928)" stroke-width=".3985" stroke-linecap="butt" stroke-miterlimit="10" stroke-linejoin="miter" fill="none" stroke="#000000" d="M7.08669 120.47392"/>
<path transform="matrix(1.0001,0,0,-1.00002,2.4943543,129.75928)" stroke-width=".3985" stroke-linecap="butt" stroke-miterlimit="10" stroke-linejoin="miter" fill="none" stroke="#000000" d="M21.2601 120.47392"/>
<path transform="matrix(1.0001,0,0,-1.00002,2.4943543,129.75928)" stroke-width=".3985" stroke-linecap="butt" stroke-miterlimit="10" stroke-linejoin="miter" fill="none" stroke="#000000" d="M35.43349 120.47392"/>
<path transform="matrix(1.0001,0,0,-1.00002,2.4943543,129.75928)" stroke-width=".3985" stroke-linecap="butt" stroke-miterlimit="10" stroke-linejoin="miter" fill="none" stroke="#000000" d="M49.6069 120.47392"/>
<path transform="matrix(1.0001,0,0,-1.00002,2.4943543,129.75928)" stroke-width=".3985" stroke-linecap="butt" stroke-miterlimit="10" stroke-linejoin="miter" fill="none" stroke="#000000" d="M63.7803 120.47392"/>
<path transform="matrix(1.0001,0,0,-1.00002,2.4943543,129.75928)" stroke-width=".3985" stroke-linecap="butt" stroke-miterlimit="10" stroke-linejoin="miter" fill="none" stroke="#000000" d="M77.95372 120.47392"/>
<path transform="matrix(1.0001,0,0,-1.00002,2.4943543,129.75928)" stroke-width=".3985" stroke-linecap="butt" stroke-miterlimit="10" stroke-linejoin="miter" fill="none" stroke="#000000" d="M92.1271 120.47392"/>
<use data-text="1" xlink:href="#font_1_82" transform="matrix(4.981798,0,0,-4.9813997,89.54206,10.886894)"/>
<use data-text="2" xlink:href="#font_1_107" transform="matrix(4.981798,0,0,-4.9813997,92.93466,10.886894)"/>
<use data-text="3" xlink:href="#font_1_106" transform="matrix(4.981798,0,0,-4.9813997,96.32726,10.886894)"/>
<path transform="matrix(1.0001,0,0,-1.00002,2.4943543,129.75928)" stroke-width=".3985" stroke-linecap="butt" stroke-miterlimit="10" stroke-linejoin="miter" fill="none" stroke="#000000" d="M106.30052 120.47392"/>
<use data-text="1" xlink:href="#font_1_82" transform="matrix(4.981798,0,0,-4.9813997,103.71648,10.886894)"/>
<use data-text="2" xlink:href="#font_1_107" transform="matrix(4.981798,0,0,-4.9813997,107.10908,10.886894)"/>
<use data-text="3" xlink:href="#font_1_106" transform="matrix(4.981798,0,0,-4.9813997,110.50168,10.886894)"/>
<path transform="matrix(1.0001,0,0,-1.00002,2.4943543,129.75928)" stroke-width=".3985" stroke-linecap="butt" stroke-miterlimit="10" stroke-linejoin="miter" fill="none" stroke="#000000" d="M120.47392 120.47392"/>
<use data-text="1" xlink:href="#font_1_82" transform="matrix(4.981798,0,0,-4.9813997,117.8909,10.886894)"/>
<use data-text="2" xlink:href="#font_1_107" transform="matrix(4.981798,0,0,-4.9813997,121.2835,10.886894)"/>
<use data-text="3" xlink:href="#font_1_106" transform="matrix(4.981798,0,0,-4.9813997,124.6761,10.886894)"/>
<path transform="matrix(1.0001,0,0,-1.00002,2.4943543,129.75928)" stroke-width=".3985" stroke-linecap="butt" stroke-miterlimit="10" stroke-linejoin="miter" fill="none" stroke="#000000" d="M49.6069 106.30052"/>
<use data-text="1" xlink:href="#font_1_82" transform="matrix(4.981798,0,0,-4.9813997,48.713979,25.115181)"/>
<use data-text="2" xlink:href="#font_1_107" transform="matrix(4.981798,0,0,-4.9813997,52.10658,25.115181)"/>
<path transform="matrix(1.0001,0,0,-1.00002,2.4943543,129.75928)" stroke-width=".3985" stroke-linecap="butt" stroke-miterlimit="10" stroke-linejoin="miter" fill="none" stroke="#000000" d="M63.7803 106.30052"/>
<use data-text="1" xlink:href="#font_1_82" transform="matrix(4.981798,0,0,-4.9813997,62.888395,25.115181)"/>
<use data-text="2" xlink:href="#font_1_107" transform="matrix(4.981798,0,0,-4.9813997,66.28099,25.115181)"/>
<path transform="matrix(1.0001,0,0,-1.00002,2.4943543,129.75928)" stroke-width=".3985" stroke-linecap="butt" stroke-miterlimit="10" stroke-linejoin="miter" fill="none" stroke="#000000" d="M7.08669 92.1271"/>
<use data-text="9" xlink:href="#font_2_78" transform="matrix(9.963596,0,0,-9.962799,7.0908129,40.8385)"/>
<path transform="matrix(1.0001,0,0,-1.00002,2.4943543,129.75928)" stroke-width=".3985" stroke-linecap="butt" stroke-miterlimit="10" stroke-linejoin="miter" fill="none" stroke="#000000" d="M35.43349 77.95372"/>
<use data-text="1" xlink:href="#font_2_82" transform="matrix(9.963596,0,0,-9.962799,35.44065,55.12178)"/>
</svg>
