<svg xmlns="http://www.w3.org/2000/svg" xmlns:xlink="http://www.w3.org/1999/xlink" version="1.1" width="132" height="132" viewBox="0 0 132 132">
<defs>
<path id="font_1_100" d="M.4850006 .6435547H.24198914C.11999512 .6435547 .117996219 .6566467 .11399841 .67578127H.08898926L.055999757 .46954347H.08099365C.083999637 .48554994 .09298706 .54855349 .10598755 .5605469 .11299133 .5665436 .19099427 .5665436 .20399475 .5665436H.41099549L.29899598 .40853883C.20899964 .2735443 .17599488 .13453675 .17599488 .03253174 .17599488 .022537232 .17599488-.022460938 .22200012-.022460938 .2679901-.022460938 .2679901 .022537232 .2679901 .03253174V.08354187C.2679901 .13853455 .2709961 .19354248 .2789917 .24754334 .2829895 .27053834 .29699708 .35653688 .34098817 .41854859L.47599793 .608551C.4850006 .62054446 .4850006 .62254336 .4850006 .6435547Z"/>
<path id="font_1_57" d="M.47099305 .16503906V.19602967H.37098695V.6507721C.37098695 .6707611 .37098695 .6767578 .35499574 .6767578 .34599305 .6767578 .34298707 .6767578 .33499146 .6647644L.027999878 .19602967V.16503906H.2939911V.07800293C.2939911 .041992189 .2919922 .0309906 .21798706 .0309906H.19699097V0C.23799134 .0029907227 .2899933 .0029907227 .33198548 .0029907227 .37399293 .0029907227 .4269867 .0029907227 .46798707 0V.0309906H.44699098C.37298585 .0309906 .37098695 .041992189 .37098695 .07800293V.16503906H.47099305M.2999878 .19602967H.055999757L.2999878 .56881716V.19602967Z"/>
<path id="font_2_51" d="M.59999087 .17100525C.59999087 .28001405 .49598695 .3310089 .42900086 .3610077 .5319977 .40400697 .5649872 .45700074 .5649872 .51400759 .5649872 .6180115 .44999696 .6660156 .34098817 .6660156 .21699524 .6660156 .114990238 .5960083 .114990238 .4960022 .114990238 .40382386 .19400025 .36279298 .24598694 .3357849 .13999939 .29473878 .07998657 .23570252 .07998657 .15364075 .07998657 .03353882 .21299744-.022460938 .33898927-.022460938 .47898866-.022460938 .59999087 .05255127 .59999087 .1706543V.17100525M.5029907 .51290896C.5029907 .42485047 .3880005 .38381959 .3880005 .38381959 .3880005 .38381959 .38598634 .38381959 .3769989 .38882447L.23298645 .46287538C.18998719 .4848938 .1769867 .51091006 .1769867 .53492739 .1769867 .59898379 .25898744 .628006 .33898927 .628006 .4189911 .62753298 .5029907 .5885315 .5029907 .51252749V.51290896M.5309906 .13453675C.5309906 .053527833 .42999269 .01852417 .34098817 .01852417 .25 .01852417 .14898682 .0635376 .14898682 .15452576 .14898682 .25352479 .25698854 .29953004 .2889862 .3135376L.44400025 .23452759C.47999574 .21598816 .5309906 .18899536 .5309906 .1349945V.13453675Z"/>
<path id="font_2_78" d="M.59999087 .3279724C.59999087 .56999209 .48199464 .6660156 .34399415 .6660156 .24398804 .6660156 .19499207 .63101199 .15499878 .5970001 .09298706 .54599 .07998657 .4909973 .07998657 .43998719 .07998657 .38298036 .09700012 .3319702 .15098572 .28497315 .19799805 .2427826 .24398804 .21679688 .32899476 .21679688 .36999513 .21679688 .44198609 .23078919 .49398805 .3177948 .49398805 .25479127 .48999024 .17874146 .45599366 .119659427 .4229889 .061584474 .3639984 .01852417 .2829895 .01852417 .27198792 .01852417 .21099854 .01852417 .1769867 .042556764 .20199585 .049453737 .21699524 .06845093 .21699524 .094451908 .21699524 .12644959 .19299317 .14746094 .1639862 .14746094 .14698792 .14746094 .11099243 .13845825 .11099243 .09144592 .11099243-.022460938 .2579956-.022460938 .2849884-.022460938 .45298768-.022460938 .59999087 .12045288 .59999087 .3279724M.4909973 .41996766C.4909973 .3369751 .43199159 .25097657 .33099366 .25097657 .29100038 .25097657 .25299073 .2579651 .21699524 .30296327 .18699646 .3400116 .18598938 .38101197 .18598938 .44000245 .18598938 .51200869 .18899536 .54200747 .22698975 .58200076 .24198914 .5990143 .27198792 .628006 .34399415 .628006 .4909973 .628006 .4909973 .4630127 .4909973 .42001344V.41996766Z"/>
<path id="font_1_106" d="M.45700074 .17037964C.45700074 .252594 .3939972 .33088685 .2899933 .35191346 .37199403 .37893678 .42999269 .4490509 .42999269 .52809146 .42999269 .6100464 .34199525 .6660156 .24598694 .6660156 .14498902 .6660156 .068984989 .60606387 .068984989 .53009036 .068984989 .49710084 .09098816 .47808839 .11999512 .47808839 .15098572 .47808839 .17098999 .50009158 .17098999 .5290985 .17098999 .57910159 .12399292 .57910159 .10899353 .57910159 .13999939 .62802127 .20599365 .64100649 .24198914 .64100649 .2829895 .64100649 .33799745 .6190338 .33799745 .5290985 .33799745 .51708987 .33599855 .45906068 .30999757 .4149933 .27999879 .36691285 .24598694 .36390687 .22099304 .36291505 .21299744 .36190797 .18899536 .35990907 .18199158 .35990907 .17399597 .35890199 .16699219 .35791017 .16699219 .3479004 .16699219 .33691407 .17399597 .33691407 .19099427 .33691407H.23498535C.31698609 .33691407 .35398866 .2686615 .35398866 .17037964 .35398866 .034469606 .2849884 .0055389406 .24099732 .0055389406 .19799805 .0055389406 .12298584 .022491456 .08799744 .08137512 .12298584 .07637024 .1539917 .09837341 .1539917 .1363678 .1539917 .17237854 .1269989 .19238281 .09799194 .19238281 .07398987 .19238281 .041992189 .17837525 .041992189 .1343689 .041992189 .043441774 .1349945-.022460938 .24398804-.022460938 .3659973-.022460938 .45700074 .06838989 .45700074 .17037964Z"/>
<path id="font_1_101" d="M.45700074 .2036438C.45700074 .33070375 .36799623 .4267578 .25698854 .4267578 .18899536 .4267578 .1519928 .37573243 .13198853 .327713V.35173036C.13198853 .6047821 .2559967 .64100649 .30699159 .64100649 .33099366 .64100649 .37298585 .634964 .394989 .6007538 .37998963 .6007538 .33999635 .6007538 .33999635 .5557556 .33999635 .524765 .3639984 .5097656 .38598634 .5097656 .4019928 .5097656 .43199159 .51875308 .43199159 .5577545 .43199159 .6178589 .3880005 .6660156 .30499269 .6660156 .1769867 .6660156 .041992189 .5367584 .041992189 .31570436 .041992189 .048553468 .1579895-.022460938 .25099183-.022460938 .3619995-.022460938 .45700074 .07156372 .45700074 .2036438M.36698915 .20463562C.36698915 .15661621 .36698915 .10658264 .34999085 .0705719 .31999208 .010528564 .27398683 .0055389406 .25099183 .0055389406 .18798828 .0055389406 .1579895 .06556702 .1519928 .080566409 .13398743 .127594 .13398743 .2076416 .13398743 .22564698 .13398743 .30369569 .1659851 .40374757 .2559967 .40374757 .27198792 .40374757 .31799317 .40374757 .34899903 .34172059 .36698915 .30470277 .36698915 .2536621 .36698915 .20463562Z"/>
<path id="font_2_82" d="M.55400088 0V.04399109H.5039978C.397995 .04399109 .397995 .054977418 .397995 .08596802V.6358185C.397995 .6660156 .394989 .6660156 .3619995 .6660156 .29100038 .6016083 .17999268 .6016083 .1599884 .6016083H.14299011V.5576172H.1599884C.18299866 .5576172 .24798584 .5606079 .30599977 .58561709V.08596802C.30599977 .054977418 .30599977 .04399109 .19999695 .04399109H.1499939V0C.20498657 .0039978029 .2939911 .0039978029 .35198976 .0039978029 .4099884 .0039978029 .49899293 .0039978029 .55400088 0Z"/>
<path id="font_2_107" d="M.58898928 .19299317H.5469971C.5439911 .17399597 .5339966 .11199951 .5179901 .101989749 .5099945 .09599304 .42599488 .09599304 .41099549 .09599304H.21499634C.2809906 .14498902 .35499574 .20098877 .4149933 .24099732 .5049896 .30300904 .58898928 .3610077 .58898928 .4670105 .58898928 .5950012 .46798707 .6660156 .32499696 .6660156 .18998719 .6660156 .09098816 .58795168 .09098816 .48986817 .09098816 .4378662 .1349945 .42886354 .14898682 .42886354 .17599488 .42886354 .20799256 .4468689 .20799256 .48786927 .20799256 .52386477 .18199158 .543869 .15098572 .546875 .1789856 .59194949 .23699951 .6220093 .3039856 .6220093 .40098573 .6220093 .48199464 .5639038 .48199464 .4658661 .48199464 .3818817 .42399598 .31791688 .34700013 .2529297L.102996829 .04598999C.09298706 .036987306 .09199524 .036987306 .09098816 .02999878V0H.55599978L.58898928 .19299317Z"/>
</defs>
<path transform="matrix(1.00005,0,0,-1.00002,2.4941788,129.75928)" stroke-width=".3985" stroke-linecap="butt" stroke-miterlimit="10" stroke-linejoin="miter" fill="none" stroke="#000000" d="M0 0H127.56062M0 14.17339H127.56062M0 28.3468H127.56062M0 42.5202H127.56062M0 56.69362H127.56062M0 70.867H127.56062M0 85.04042H127.56062M0 99.21382H127.56062M0 113.38724H127.56062M0 127.55566H127.56062M0 0V127.56062M14.17339 0V127.56062M28.3468 0V127.56062M42.5202 0V127.56062M56.69362 0V127.56062M70.867 0V127.56062M85.04042 0V127.56062M99.21382 0V127.56062M113.38724 0V127.56062M127.55566 0V127.56062M127.56062 127.56062"/>
<path transform="matrix(1.00005,0,0,-1.00002,2.4941788,129.75928)" stroke-width="1.19553" stroke-linecap="butt" stroke-miterlimit="10" stroke-linejoin="miter" fill="none" stroke="#000000" d="M0 0V42.5202H42.5202V0ZM42.5202 42.5202"/>
<path transform="matrix(1.00005,0,0,-1.00002,2.4941788,129.75928)" stroke-width="1.19553" stroke-linecap="butt" stroke-miterlimit="10" stroke-linejoin="miter" fill="none" stroke="#000000" d="M0 42.5202V85.04042H42.5202V42.5202ZM42.5202 85.04042"/>
<path transform="matrix(1.00005,0,0,-1.00002,2.4941788,129.75928)" stroke-width="1.19553" stroke-linecap="butt" stroke-miterlimit="10" stroke-linejoin="miter" fill="none" stroke="#000000" d="M0 85.04042V127.56062H42.5202V85.04042ZM42.5202 127.56062"/>
<path transform="matrix(1.00005,0,0,-1.00002,2.4941788,129.75928)" stroke-width="1.19553" stroke-linecap="butt" stroke-miterlimit="10" stroke-linejoin="miter" fill="none" stroke="#000000" d="M42.5202 0V42.5202H85.04042V0ZM85.04042 42.5202"/>
<path transform="matrix(1.00005,0,0,-1.00002,2.4941788,129.75928)" stroke-width="1.19553" stroke-linecap="butt" stroke-miterlimit="10" stroke-linejoin="miter" fill="none" stroke="#000000" d="M42.5202 42.5202V85.04042H85.04042V42.5202ZM85.04042 85.04042"/>
<path transform="matrix(1.00005,0,0,-1.00002,2.4941788,129.75928)" stroke-width="1.19553" stroke-linecap="butt" stroke-miterlimit="10" stroke-linejoin="miter" fill="none" stroke="#000000" d="M42.5202 85.04042V127.56062H85.04042V85.04042ZM85.04042 127.56062"/>
<path transform="matrix(1.00005,0,0,-1.00002,2.4941788,129.75928)" stroke-width="1.19553" stroke-linecap="butt" stroke-miterlimit="10" stroke-linejoin="miter" fill="none" stroke="#000000" d="M85.04042 0V42.5202H127.56062V0ZM127.56062 42.5202"/>
<path transform="matrix(1.00005,0,0,-1.00002,2.4941788,129.75928)" stroke-width="1.19553" stroke-linecap="butt" stroke-miterlimit="10" stroke-linejoin="miter" fill="none" stroke="#000000" d="M85.04042 42.5202V85.04042H127.56062V42.5202ZM127.56062 85.04042"/>
<path transform="matrix(1.00005,0,0,-1.00002,2.4941788,129.75928)" stroke-width="1.19553" stroke-linecap="butt" stroke-miterlimit="10" stroke-linejoin="miter" fill="none" stroke="#000000" d="M85.04042 85.04042V127.56062H127.56062V85.04042ZM127.56062 127.56062"/>
<path transform="matrix(1.00005,0,0,-1.00002,2.4941788,129.75928)" stroke-width=".3985" stroke-linecap="butt" stroke-miterlimit="10" stroke-linejoin="miter" fill="none" stroke="#000000" d="M7.08669 120.47392"/>
<path transform="matrix(1.00005,0,0,-1.00002,2.4941788,129.75928)" stroke-width=".3985" stroke-linecap="butt" stroke-miterlimit="10" stroke-linejoin="miter" fill="none" stroke="#000000" d="M21.2601 120.47392"/>
<path transform="matrix(1.00005,0,0,-1.00002,2.4941788,129.75928)" stroke-width=".3985" stroke-linecap="butt" stroke-miterlimit="10" stroke-linejoin="miter" fill="none" stroke="#000000" d="M35.43349 120.47392"/>
<path transform="matrix(1.00005,0,0,-1.00002,2.4941788,129.75928)" stroke-width=".3985" stroke-linecap="butt" stroke-miterlimit="10" stroke-linejoin="miter" fill="none" stroke="#000000" d="M49.6069 120.47392"/>
<use data-text="7" xlink:href="#font_1_100" transform="matrix(9.963098,0,0,-9.962799,49.612535,12.540924)"/>
<path transform="matrix(1.00005,0,0,-1.00002,2.4941788,129.75928)" stroke-width=".3985" stroke-linecap="butt" stroke-miterlimit="10" stroke-linejoin="miter" fill="none" stroke="#000000" d="M63.7803 120.47392"/>
<path transform="matrix(1.00005,0,0,-1.00002,2.4941788,129.75928)" stroke-width=".3985" stroke-linecap="butt" stroke-miterlimit="10" stroke-linejoin="miter" fill="none" stroke="#000000" d="M77.95372 120.47392"/>
<path transform="matrix(1.00005,0,0,-1.00002,2.4941788,129.75928)" stroke-width=".3985" stroke-linecap="butt" stroke-miterlimit="10" stroke-linejoin="miter" fill="none" stroke="#000000" d="M92.1271 120.47392"/>
<use data-text="4" xlink:href="#font_1_57" transform="matrix(9.963098,0,0,-9.962799,92.13466,12.654938)"/>
<path transform="matrix(1.00005,0,0,-1.00002,2.4941788,129.75928)" stroke-width=".3985" stroke-linecap="butt" stroke-miterlimit="10" stroke-linejoin="miter" fill="none" stroke="#000000" d="M106.30052 120.47392"/>
<use data-text="8" xlink:href="#font_2_51" transform="matrix(4.981549,0,0,-4.9813997,105.40732,10.886894)"/>
<use data-text="9" xlink:href="#font_2_78" transform="matrix(4.981549,0,0,-4.9813997,108.79975,10.886894)"/>
<path transform="matrix(1.00005,0,0,-1.00002,2.4941788,129.75928)" stroke-width=".3985" stroke-linecap="butt" stroke-miterlimit="10" stroke-linejoin="miter" fill="none" stroke="#000000" d="M120.47392 120.47392"/>
<use data-text="8" xlink:href="#font_2_51" transform="matrix(4.981549,0,0,-4.9813997,119.58203,10.886894)"/>
<use data-text="9" xlink:href="#font_2_78" transform="matrix(4.981549,0,0,-4.9813997,122.974468,10.886894)"/>
<path transform="matrix(1.00005,0,0,-1.00002,2.4941788,129.75928)" stroke-width=".3985" stroke-linecap="butt" stroke-miterlimit="10" stroke-linejoin="miter" fill="none" stroke="#000000" d="M7.08669 106.30052"/>
<path transform="matrix(1.00005,0,0,-1.00002,2.4941788,129.75928)" stroke-width=".3985" stroke-linecap="butt" stroke-miterlimit="10" stroke-linejoin="miter" fill="none" stroke="#000000" d="M7.08669 92.1271"/>
<path transform="matrix(1.00005,0,0,-1.00002,2.4941788,129.75928)" stroke-width=".3985" stroke-linecap="butt" stroke-miterlimit="10" stroke-linejoin="miter" fill="none" stroke="#000000" d="M7.08669 77.95372"/>
<use data-text="3" xlink:href="#font_1_106" transform="matrix(9.963098,0,0,-9.962799,7.0904085,55.01178)"/>
<path transform="matrix(1.00005,0,0,-1.00002,2.4941788,129.75928)" stroke-width=".3985" stroke-linecap="butt" stroke-miterlimit="10" stroke-linejoin="miter" fill="none" stroke="#000000" d="M7.08669 63.7803"/>
<path transform="matrix(1.00005,0,0,-1.00002,2.4941788,129.75928)" stroke-width=".3985" stroke-linecap="butt" stroke-miterlimit="10" stroke-linejoin="miter" fill="none" stroke="#000000" d="M7.08669 49.6069"/>
<path transform="matrix(1.00005,0,0,-1.00002,2.4941788,129.75928)" stroke-width=".3985" stroke-linecap="butt" stroke-miterlimit="10" stroke-linejoin="miter" fill="none" stroke="#000000" d="M7.08669 35.43349"/>
<path transform="matrix(1.00005,0,0,-1.00002,2.4941788,129.75928)" stroke-width=".3985" stroke-linecap="butt" stroke-miterlimit="10" stroke-linejoin="miter" fill="none" stroke="#000000" d="M7.08669 21.2601"/>
<use data-text="6" xlink:href="#font_1_101" transform="matrix(9.963098,0,0,-9.962799,7.0904085,111.70692)"/>
<path transform="matrix(1.00005,0,0,-1.00002,2.4941788,129.75928)" stroke-width=".3985" stroke-linecap="butt" stroke-miterlimit="10" stroke-linejoin="miter" fill="none" stroke="#000000" d="M7.08669 7.08669"/>
<path transform="matrix(1.00005,0,0,-1.00002,2.4941788,129.75928)" stroke-width=".3985" stroke-linecap="butt" stroke-miterlimit="10" stroke-linejoin="miter" fill="none" stroke="#000000" d="M21.2601 106.30052"/>
<use data-text="1" xlink:href="#font_2_82" transform="matrix(4.981549,0,0,-4.9813997,20.363072,25.115181)"/>
<use data-text="2" xlink:href="#font_2_107" transform="matrix(4.981549,0,0,-4.9813997,23.755505,25.115181)"/>
<path transform="matrix(1.00005,0,0,-1.00002,2.4941788,129.75928)" stroke-width=".3985" stroke-linecap="butt" stroke-miterlimit="10" stroke-linejoin="miter" fill="none" stroke="#000000" d="M35.43349 92.1271"/>
<use data-text="1" xlink:href="#font_2_82" transform="matrix(4.981549,0,0,-4.9813997,34.53678,39.289468)"/>
<use data-text="2" xlink:href="#font_2_107" transform="matrix(4.981549,0,0,-4.9813997,37.929216,39.289468)"/>
</svg>
