<svg xmlns="http://www.w3.org/2000/svg" xmlns:xlink="http://www.w3.org/1999/xlink" version="1.1" width="448" height="36" viewBox="0 0 448 36">
<defs>
<path id="font_1_121" d="M.47299195 .31976319C.47299195 .38682557 .46998597 .47288514 .43499757 .5479431 .3909912 .64201357 .31498719 .6660156 .25698854 .6660156 .19699097 .6660156 .12098694 .64201357 .07699585 .5459442 .04499817 .47688294 .039993287 .39582826 .039993287 .31976319 .039993287 .25471498 .041992189 .15765381 .084991458 .07858276 .13198853-.0064697267 .20999146-.022460938 .2559967-.022460938 .32099916-.022460938 .394989 .0055389406 .43699647 .097595218 .46699525 .1646576 .47299195 .23971558 .47299195 .31976319M.3869934 .33177186C.3869934 .2697296 .3869934 .18566895 .3769989 .12661743 .35598756 .012542725 .28199769 .002532959 .25698854 .002532959 .22698975 .002532959 .15499878 .016540528 .13598633 .12962342 .12599182 .18867493 .12599182 .2747345 .12599182 .33177186 .12599182 .39982606 .12599182 .47888185 .13798523 .53393557 .1579895 .6230011 .22200012 .64100649 .2559967 .64100649 .2939911 .64100649 .35699464 .62098696 .37599183 .5279236 .3869934 .47288514 .3869934 .39482118 .3869934 .33177186Z"/>
<path id="font_1_82" d="M.43199159 0V.0309906H.3999939C.30699159 .0309906 .3039856 .042999269 .3039856 .08001709V.63912966C.3039856 .6640167 .30299378 .6660156 .27799989 .6660156 .21598816 .60227969 .12399292 .60227969 .09298706 .60227969V.57128909C.11199951 .57128909 .17298889 .57128909 .22698975 .5972748V.08001709C.22698975 .042999269 .22399903 .0309906 .1309967 .0309906H.09899902V0C.1349945 .0029907227 .22399903 .0029907227 .2649994 .0029907227 .30599977 .0029907227 .3959961 .0029907227 .43199159 0Z"/>
<path id="font_1_107" d="M.46199037 .17704773H.43399049C.43199159 .16404724 .42399598 .10501099 .41099549 .08900452 .40499879 .07998657 .33599855 .07998657 .31599427 .07998657H.13798523L.23699951 .17404175C.40098573 .3161316 .46199037 .36915589 .46199037 .4711914 .46199037 .5860901 .36698915 .6660156 .24398804 .6660156 .1289978 .6660156 .050994874 .575119 .050994874 .4841919 .050994874 .43418885 .09399414 .42919923 .102996829 .42919923 .125 .42919923 .15499878 .44519044 .15499878 .48120118 .15499878 .51119998 .13398743 .5332031 .102996829 .5332031 .09799194 .5332031 .09498596 .5332031 .09098816 .53219607 .114990238 .6030731 .1789856 .63500979 .23298645 .63500979 .33499146 .63500979 .36999513 .5401764 .36999513 .4711914 .36999513 .36915589 .29299928 .28611756 .24499512 .23408509L.06199646 .035995485C.050994874 .024993897 .050994874 .022994996 .050994874 0H.43399049L.46199037 .17704773Z"/>
<path id="font_1_106" d="M.46998597 .17008972C.46998597 .25709535 .40098573 .33110047 .30499269 .35209657 .397995 .38710023 .44198609 .46009828 .44198609 .5290985 .44198609 .60606387 .35699464 .6660156 .25299073 .6660156 .14898682 .6660156 .070999149 .60705569 .070999149 .5310974 .070999149 .49809266 .09298706 .47909547 .12199402 .47909547 .15098572 .47909547 .17199707 .50009158 .17199707 .5290985 .17199707 .5640869 .147995 .57910159 .11399841 .57910159 .13999939 .6210327 .20098877 .64100649 .25 .64100649 .33299256 .64100649 .34899903 .5750885 .34899903 .52809146 .34899903 .49809266 .34298707 .45005799 .31799317 .41201783 .2869873 .36695863 .2519989 .36495973 .22299195 .36296083 .19799805 .36094667 .19599915 .36094667 .18798828 .36094667 .1789856 .35995484 .17098999 .35894776 .17098999 .34794618 .17098999 .33496095 .1789856 .33496095 .19599915 .33496095H.24299622C.32998658 .33496095 .36799623 .2646637 .36799623 .16937256 .36799623 .04145813 .2999878 .0055389406 .24899292 .0055389406 .22999573 .0055389406 .1329956 .010528564 .08799744 .0843811 .12399292 .07939148 .1519928 .10437012 .1519928 .13838196 .1519928 .17137146 .1269989 .19238281 .09799194 .19238281 .07299805 .19238281 .042999269 .17736817 .042999269 .13537598 .042999269 .046447755 .13598633-.022460938 .2519989-.022460938 .3769989-.022460938 .46998597 .06741333 .46998597 .16937256V.17008972Z"/>
<path id="font_1_57" d="M.48399354 .16503906V.19602967H.38198854V.649765C.38198854 .669754 .38198854 .6767578 .36299134 .6767578 .35099793 .6767578 .34999085 .67575076 .34098817 .6617584L.0289917 .19602967V.16503906H.3019867V.07901001C.3019867 .041992189 .29899598 .0309906 .22399903 .0309906H.20199585V0C.2649994 .0029907227 .33499146 .0029907227 .34199525 .0029907227 .34700013 .0029907227 .4189911 .0029907227 .48199464 0V.0309906H.45999146C.3849945 .0309906 .38198854 .041992189 .38198854 .07901001V.16503906H.48399354M.30799867 .19602967H.06098938L.30799867 .56581118V.19602967Z"/>
<path id="font_1_56" d="M.46199037 .19992066C.46199037 .3209076 .37599183 .41992188 .2669983 .41992188 .21899414 .41992188 .16999817 .4039154 .1349945 .36791993V.5647888C.16499329 .55578616 .19599915 .55078127 .22698975 .55078127 .34999085 .55078127 .42199708 .63983157 .42199708 .6529236 .42199708 .6619873 .41600038 .6660156 .41099549 .6660156 .41099549 .6660156 .40699769 .6660156 .397995 .6609802 .35099793 .6418457 .30499269 .63378909 .2630005 .63378909 .21998596 .63378909 .1749878 .6418457 .1289978 .6609802 .11898804 .6660156 .115997318 .6660156 .115997318 .6660156 .10398865 .6660156 .10398865 .6559448 .10398865 .63882449V.34490968C.10398865 .32699586 .10398865 .31599427 .117996219 .31599427 .12599182 .31562806 .1289978 .3196411 .1349945 .32867433 .16499329 .37083436 .21299744 .39491273 .2649994 .39491273 .37199403 .39491273 .37199403 .24035645 .37199403 .20422364 .37199403 .17321778 .37199403 .11122131 .34399415 .06636047 .31698609 .024475098 .2749939 .0055389406 .23599243 .0055389406 .1769867 .0055389406 .10998535 .042419435 .085998538 .11621094 .085998538 .116882327 .09298706 .11488342 .099990848 .11488342 .11999512 .11488342 .14898682 .12788391 .14898682 .1638794 .14898682 .19488526 .1269989 .21289063 .099990848 .21289063 .07899475 .21289063 .050994874 .20088196 .050994874 .16088867 .050994874 .069732669 .1269989-.022460938 .23799134-.022460938 .35899354-.02279663 .46199037 .07521057 .46199037 .19921875V.19992066Z"/>
<path id="font_1_101" d="M.46998597 .20277405C.46998597 .32977296 .37799073 .42578126 .2649994 .42578126 .20498657 .42578126 .1619873 .3907776 .13398743 .33078004 .13398743 .43276979 .14498902 .4897766 .17199707 .54177859 .19198609 .58277896 .24099732 .64100649 .31498719 .64100649 .33499146 .64100649 .3809967 .63697817 .4039917 .6007843 .36698915 .6007843 .35099793 .5817871 .35099793 .55477908 .35099793 .5287781 .36898805 .50878909 .39698792 .50878909 .4249878 .50878909 .44400025 .5267792 .44400025 .55677798 .44400025 .61299136 .4039917 .6660156 .31298829 .6660156 .18399048 .6660156 .042999269 .5389252 .042999269 .31576539 .042999269 .044555665 .16499329-.022460938 .25898744-.022460938 .36999513-.022460938 .46998597 .07052612 .46998597 .2025299V.20277405M.3789978 .20353699C.3789978 .15553284 .3789978 .106536868 .3600006 .0695343 .32899476 .012527466 .2849884 .0055389406 .2579956 .0055389406 .20098877 .0055389406 .16799927 .05253601 .1559906 .08152771 .13699341 .12652588 .13598633 .20953369 .13598633 .2255249 .13598633 .2927704 .16699219 .4007721 .2630005 .4007721 .2789917 .4007721 .32798768 .4007721 .3600006 .33877564 .3789978 .300766 .3789978 .25177003 .3789978 .20376587V.20353699Z"/>
<path id="font_1_100" d="M.49899293 .6435547H.25C.12399292 .6435547 .12098694 .6566467 .117996219 .67578127H.08999634L.056991579 .46655274H.084991458C.08898926 .48954774 .09700012 .5455475 .10998535 .55755618 .116989139 .56355288 .19599915 .56355288 .20999146 .56355288H.41999818L.32398988 .4325409C.19400025 .25354005 .18199158 .090530399 .18199158 .03353882 .18199158 .022537232 .18199158-.022460938 .22799683-.022460938 .2749939-.022460938 .2749939 .021530152 .2749939 .03453064V.08354187C.2749939 .23054505 .29699708 .34654237 .34999085 .41854859L.48999024 .60954287C.49899293 .62054446 .49899293 .62254336 .49899293 .6435547Z"/>
<path id="font_1_51" d="M.46998597 .16764832C.46998597 .26472474 .3959961 .3127594 .37098695 .32876588 .3600006 .33677674 .33099366 .35479737 .31900025 .36180116 .36898805 .38581849 .44198609 .43585206 .44198609 .51690676 .44198609 .6109772 .34799195 .6660156 .2579956 .6660156 .15299988 .6660156 .070999149 .5909729 .070999149 .49890138 .070999149 .46087647 .084991458 .42485047 .10899353 .39582826 .12599182 .3768158 .13198853 .37280274 .18998719 .3357849 .101989749 .29374696 .042999269 .23269654 .042999269 .15063477 .042999269 .044555665 .147995-.022460938 .2559967-.022460938 .37199403-.022460938 .46998597 .059570314 .46998597 .16764832M.3939972 .51690676C.3939972 .44685365 .33399964 .40083314 .2939911 .37780763L.17199707 .45387269C.14199829 .47288514 .11898804 .4998932 .11898804 .53692629 .11898804 .6019745 .18899536 .64100649 .25498963 .64100649 .33198548 .64100649 .3939972 .58695986 .3939972 .51690676M.41600038 .1326294C.41600038 .05357361 .33599855 .0055389406 .25698854 .0055389406 .16999817 .0055389406 .09700012 .06758118 .09700012 .15063477 .09700012 .22268677 .14698792 .28274537 .21699524 .31877137L.34298707 .2407074C.3659973 .22569275 .41600038 .19366455 .41600038 .1326294Z"/>
<path id="font_1_78" d="M.46998597 .3287964C.46998597 .5999756 .34999085 .6660156 .2599945 .6660156 .14498902 .6660156 .042999269 .5729675 .042999269 .44187928 .042999269 .31478883 .1349945 .21875 .24798584 .21875 .32099916 .21875 .36099244 .27175904 .3789978 .31478883V.2927704C.3789978 .04875183 .2679901 .0055389406 .21099854 .0055389406 .18798828 .0055389406 .13699341 .009552002 .11099243 .042755128H.114990238C.12298584 .040740968 .1619873 .04875183 .1619873 .088760379 .1619873 .11476135 .14399719 .13476563 .115997318 .13476563 .08799744 .13476563 .068984989 .116760257 .068984989 .086761478 .068984989 .020629883 .12199402-.022460938 .21199036-.022460938 .34098817-.022460938 .46998597 .10975647 .46998597 .32888795V.3287964M.3769989 .42089845C.3769989 .34788514 .34399415 .2437439 .25 .2437439 .23399353 .2437439 .18499756 .2437439 .15299988 .30584718 .13398743 .34388734 .13398743 .3928833 .13398743 .4409027 .13398743 .48892213 .13398743 .5389557 .15499878 .5769806 .18499756 .628006 .22399903 .64100649 .2599945 .64100649 .32798768 .64100649 .35499574 .5719757 .35899354 .56196597 .37298585 .5249481 .3769989 .46391297 .3769989 .42089845Z"/>
</defs>
<path transform="matrix(1.00005,0,0,-1.00008,437.51487,23.947037)" stroke-width=".3985" stroke-linecap="butt" stroke-miterlimit="10" stroke-linejoin="miter" fill="none" stroke="#000000" d="M0 0"/>
<path transform="matrix(1.00005,0,0,-1.00008,437.51487,23.947037)" stroke-width=".3985" stroke-linecap="butt" stroke-miterlimit="10" stroke-linejoin="miter" fill="none" stroke="#000000" d="M8.49559 0C8.49559 4.69203 4.69203 8.49559 0 8.49559-4.69203 8.49559-8.49559 4.69203-8.49559 0-8.49559-4.69203-4.69203-8.49559 0-8.49559 4.69203-8.49559 8.49559-4.69203 8.49559 0ZM0 0"/>
<use data-text="0" xlink:href="#font_1_121" transform="matrix(8.966848,0,0,-8.967117,435.21076,26.834267)"/>
<path transform="matrix(1.00005,0,0,-1.00008,437.51487,23.947037)" stroke-width=".3985" stroke-linecap="butt" stroke-miterlimit="10" stroke-linejoin="miter" fill="none" stroke="#000000" d="M-28.3468 0"/>
<path transform="matrix(1.00005,0,0,-1.00008,437.51487,23.947037)" stroke-width=".3985" stroke-linecap="butt" stroke-miterlimit="10" stroke-linejoin="miter" fill="none" stroke="#000000" d="M-19.89426 0C-19.89426 4.66826-23.67853 8.45253-28.3468 8.45253-33.01508 8.45253-36.79935 4.66826-36.79935 0-36.79935-4.66826-33.01508-8.45253-28.3468-8.45253-23.67853-8.45253-19.89426-4.66826-19.89426 0ZM-28.3468 0"/>
<use data-text="1" xlink:href="#font_1_82" transform="matrix(8.966848,0,0,-8.967117,406.86235,26.933276)"/>
<path transform="matrix(1.00005,0,0,-1.00008,437.51487,23.947037)" stroke-width=".3985" stroke-linecap="butt" stroke-miterlimit="10" stroke-linejoin="miter" fill="none" stroke="#000000" d="M-56.69362 0"/>
<path transform="matrix(1.00005,0,0,-1.00008,437.51487,23.947037)" stroke-width=".3985" stroke-linecap="butt" stroke-miterlimit="10" stroke-linejoin="miter" fill="none" stroke="#000000" d="M-48.24107 0C-48.24107 4.66826-52.02534 8.45253-56.69362 8.45253-61.36188 8.45253-65.14615 4.66826-65.14615 0-65.14615-4.66826-61.36188-8.45253-56.69362-8.45253-52.02534-8.45253-48.24107-4.66826-48.24107 0ZM-56.69362 0"/>
<use data-text="2" xlink:href="#font_1_107" transform="matrix(8.966848,0,0,-8.967117,378.51393,26.933276)"/>
<path transform="matrix(1.00005,0,0,-1.00008,437.51487,23.947037)" stroke-width=".3985" stroke-linecap="butt" stroke-miterlimit="10" stroke-linejoin="miter" fill="none" stroke="#000000" d="M-85.04042 0"/>
<path transform="matrix(1.00005,0,0,-1.00008,437.51487,23.947037)" stroke-width=".3985" stroke-linecap="butt" stroke-miterlimit="10" stroke-linejoin="miter" fill="none" stroke="#000000" d="M-76.54483 0C-76.54483 4.69203-80.34837 8.49559-85.04042 8.49559-89.73247 8.49559-93.53601 4.69203-93.53601 0-93.53601-4.69203-89.73247-8.49559-85.04042-8.49559-80.34837-8.49559-76.54483-4.69203-76.54483 0ZM-85.04042 0"/>
<use data-text="3" xlink:href="#font_1_106" transform="matrix(8.966848,0,0,-8.967117,350.1655,26.834267)"/>
<path transform="matrix(1.00005,0,0,-1.00008,437.51487,23.947037)" stroke-width=".3985" stroke-linecap="butt" stroke-miterlimit="10" stroke-linejoin="miter" fill="none" stroke="#000000" d="M-113.38724 0"/>
<path transform="matrix(1.00005,0,0,-1.00008,437.51487,23.947037)" stroke-width=".3985" stroke-linecap="butt" stroke-miterlimit="10" stroke-linejoin="miter" fill="none" stroke="#000000" d="M-104.91304 0C-104.91304 4.6802-108.70702 8.47418-113.38724 8.47418-118.06744 8.47418-121.86142 4.6802-121.86142 0-121.86142-4.6802-118.06744-8.47418-113.38724-8.47418-108.70702-8.47418-104.91304-4.6802-104.91304 0ZM-113.38724 0"/>
<use data-text="4" xlink:href="#font_1_57" transform="matrix(8.966848,0,0,-8.967117,321.81709,26.98228)"/>
<path transform="matrix(1.00005,0,0,-1.00008,437.51487,23.947037)" stroke-width=".3985" stroke-linecap="butt" stroke-miterlimit="10" stroke-linejoin="miter" fill="none" stroke="#000000" d="M-141.73404 0"/>
<path transform="matrix(1.00005,0,0,-1.00008,437.51487,23.947037)" stroke-width=".3985" stroke-linecap="butt" stroke-miterlimit="10" stroke-linejoin="miter" fill="none" stroke="#000000" d="M-133.23845 0C-133.23845 4.69203-137.04199 8.49559-141.73404 8.49559-146.42609 8.49559-150.22963 4.69203-150.22963 0-150.22963-4.69203-146.42609-8.49559-141.73404-8.49559-137.04199-8.49559-133.23845-4.69203-133.23845 0ZM-141.73404 0"/>
<use data-text="5" xlink:href="#font_1_56" transform="matrix(8.966848,0,0,-8.967117,293.46968,26.834267)"/>
<path transform="matrix(1.00005,0,0,-1.00008,437.51487,23.947037)" stroke-width=".3985" stroke-linecap="butt" stroke-miterlimit="10" stroke-linejoin="miter" fill="none" stroke="#000000" d="M-170.08086 0"/>
<path transform="matrix(1.00005,0,0,-1.00008,437.51487,23.947037)" stroke-width=".3985" stroke-linecap="butt" stroke-miterlimit="10" stroke-linejoin="miter" fill="none" stroke="#000000" d="M-161.58525 0C-161.58525 4.69203-165.38881 8.49559-170.08086 8.49559-174.7729 8.49559-178.57645 4.69203-178.57645 0-178.57645-4.69203-174.7729-8.49559-170.08086-8.49559-165.38881-8.49559-161.58525-4.69203-161.58525 0ZM-170.08086 0"/>
<use data-text="6" xlink:href="#font_1_101" transform="matrix(8.966848,0,0,-8.967117,265.12129,26.834267)"/>
<path transform="matrix(1.00005,0,0,-1.00008,437.51487,23.947037)" stroke-width=".3985" stroke-linecap="butt" stroke-miterlimit="10" stroke-linejoin="miter" fill="none" stroke="#000000" d="M-198.42766 0"/>
<path transform="matrix(1.00005,0,0,-1.00008,437.51487,23.947037)" stroke-width=".3985" stroke-linecap="butt" stroke-miterlimit="10" stroke-linejoin="miter" fill="none" stroke="#000000" d="M-189.87247 0C-189.87247 4.72495-193.7027 8.55518-198.42766 8.55518-203.15262 8.55518-206.98285 4.72495-206.98285 0-206.98285-4.72495-203.15262-8.55518-198.42766-8.55518-193.7027-8.55518-189.87247-4.72495-189.87247 0ZM-198.42766 0"/>
<use data-text="7" xlink:href="#font_1_100" transform="matrix(8.966848,0,0,-8.967117,236.77283,26.879273)"/>
<path transform="matrix(1.00005,0,0,-1.00008,437.51487,23.947037)" stroke-width=".3985" stroke-linecap="butt" stroke-miterlimit="10" stroke-linejoin="miter" fill="none" stroke="#000000" d="M-226.77448 0"/>
<path transform="matrix(1.00005,0,0,-1.00008,437.51487,23.947037)" stroke-width=".3985" stroke-linecap="butt" stroke-miterlimit="10" stroke-linejoin="miter" fill="none" stroke="#000000" d="M-218.27887 0C-218.27887 4.69203-222.08243 8.49559-226.77448 8.49559-231.46652 8.49559-235.27007 4.69203-235.27007 0-235.27007-4.69203-231.46652-8.49559-226.77448-8.49559-222.08243-8.49559-218.27887-4.69203-218.27887 0ZM-226.77448 0"/>
<use data-text="8" xlink:href="#font_1_51" transform="matrix(8.966848,0,0,-8.967117,208.42444,26.834267)"/>
<path transform="matrix(1.00005,0,0,-1.00008,437.51487,23.947037)" stroke-width=".3985" stroke-linecap="butt" stroke-miterlimit="10" stroke-linejoin="miter" fill="none" stroke="#000000" d="M-255.12128 0"/>
<path transform="matrix(1.00005,0,0,-1.00008,437.51487,23.947037)" stroke-width=".3985" stroke-linecap="butt" stroke-miterlimit="10" stroke-linejoin="miter" fill="none" stroke="#000000" d="M-246.62569 0C-246.62569 4.69203-250.42923 8.49559-255.12128 8.49559-259.81333 8.49559-263.61689 4.69203-263.61689 0-263.61689-4.69203-259.81333-8.49559-255.12128-8.49559-250.42923-8.49559-246.62569-4.69203-246.62569 0ZM-255.12128 0"/>
<use data-text="9" xlink:href="#font_1_78" transform="matrix(8.966848,0,0,-8.967117,180.07602,26.834267)"/>
<path transform="matrix(1.00005,0,0,-1.00008,437.51487,23.947037)" stroke-width=".3985" stroke-linecap="butt" stroke-miterlimit="10" stroke-linejoin="miter" fill="none" stroke="#000000" d="M-283.4681 0"/>
<path transform="matrix(1.00005,0,0,-1.00008,437.51487,23.947037)" stroke-width=".3985" stroke-linecap="butt" stroke-miterlimit="10" stroke-linejoin="miter" fill="none" stroke="#000000" d="M-273.26768 0C-273.26768 5.63359-277.8345 10.2004-283.4681 10.2004-289.10169 10.2004-293.6685 5.63359-293.6685 0-293.6685-5.63359-289.10169-10.2004-283.4681-10.2004-277.8345-10.2004-273.26768-5.63359-273.26768 0ZM-283.4681 0"/>
<use data-text="1" xlink:href="#font_1_82" transform="matrix(8.966848,0,0,-8.967117,149.42346,26.834267)"/>
<use data-text="0" xlink:href="#font_1_121" transform="matrix(8.966848,0,0,-8.967117,154.03241,26.834267)"/>
<path transform="matrix(1.00005,0,0,-1.00008,437.51487,23.947037)" stroke-width=".3985" stroke-linecap="butt" stroke-miterlimit="10" stroke-linejoin="miter" fill="none" stroke="#000000" d="M-311.8149 0"/>
<path transform="matrix(1.00005,0,0,-1.00008,437.51487,23.947037)" stroke-width=".3985" stroke-linecap="butt" stroke-miterlimit="10" stroke-linejoin="miter" fill="none" stroke="#000000" d="M-301.71595 0C-301.71595 5.57756-306.23735 10.09897-311.8149 10.09897-317.39247 10.09897-321.91389 5.57756-321.91389 0-321.91389-5.57756-317.39247-10.09897-311.8149-10.09897-306.23735-10.09897-301.71595-5.57756-301.71595 0ZM-311.8149 0"/>
<use data-text="1" xlink:href="#font_1_82" transform="matrix(8.966848,0,0,-8.967117,121.07504,26.933276)"/>
<use data-text="1" xlink:href="#font_1_82" transform="matrix(8.966848,0,0,-8.967117,125.68399,26.933276)"/>
<path transform="matrix(1.00005,0,0,-1.00008,437.51487,23.947037)" stroke-width=".3985" stroke-linecap="butt" stroke-miterlimit="10" stroke-linejoin="miter" fill="none" stroke="#000000" d="M-340.1617 0"/>
<path transform="matrix(1.00005,0,0,-1.00008,437.51487,23.947037)" stroke-width=".3985" stroke-linecap="butt" stroke-miterlimit="10" stroke-linejoin="miter" fill="none" stroke="#000000" d="M-330.06275 0C-330.06275 5.57756-334.58415 10.09897-340.1617 10.09897-345.7393 10.09897-350.2607 5.57756-350.2607 0-350.2607-5.57756-345.7393-10.09897-340.1617-10.09897-334.58415-10.09897-330.06275-5.57756-330.06275 0ZM-340.1617 0"/>
<use data-text="1" xlink:href="#font_1_82" transform="matrix(8.966848,0,0,-8.967117,92.72766,26.933276)"/>
<use data-text="2" xlink:href="#font_1_107" transform="matrix(8.966848,0,0,-8.967117,97.33661,26.933276)"/>
<path transform="matrix(1.00005,0,0,-1.00008,437.51487,23.947037)" stroke-width=".3985" stroke-linecap="butt" stroke-miterlimit="10" stroke-linejoin="miter" fill="none" stroke="#000000" d="M-368.5085 0"/>
<path transform="matrix(1.00005,0,0,-1.00008,437.51487,23.947037)" stroke-width=".3985" stroke-linecap="butt" stroke-miterlimit="10" stroke-linejoin="miter" fill="none" stroke="#000000" d="M-358.3081 0C-358.3081 5.63359-362.8749 10.2004-368.5085 10.2004-374.14213 10.2004-378.70893 5.63359-378.70893 0-378.70893-5.63359-374.14213-10.2004-368.5085-10.2004-362.8749-10.2004-358.3081-5.63359-358.3081 0ZM-368.5085 0"/>
<use data-text="1" xlink:href="#font_1_82" transform="matrix(8.966848,0,0,-8.967117,64.37921,26.834267)"/>
<use data-text="3" xlink:href="#font_1_106" transform="matrix(8.966848,0,0,-8.967117,68.98816,26.834267)"/>
<path transform="matrix(1.00005,0,0,-1.00008,437.51487,23.947037)" stroke-width=".3985" stroke-linecap="butt" stroke-miterlimit="10" stroke-linejoin="miter" fill="none" stroke="#000000" d="M-396.85533 0"/>
<path transform="matrix(1.00005,0,0,-1.00008,437.51487,23.947037)" stroke-width=".3985" stroke-linecap="butt" stroke-miterlimit="10" stroke-linejoin="miter" fill="none" stroke="#000000" d="M-386.70603 0C-386.70603 5.60538-391.24995 10.14932-396.85533 10.14932-402.46073 10.14932-407.00465 5.60538-407.00465 0-407.00465-5.60538-402.46073-10.14932-396.85533-10.14932-391.24995-10.14932-386.70603-5.60538-386.70603 0ZM-396.85533 0"/>
<use data-text="1" xlink:href="#font_1_82" transform="matrix(8.966848,0,0,-8.967117,36.030824,26.98228)"/>
<use data-text="4" xlink:href="#font_1_57" transform="matrix(8.966848,0,0,-8.967117,40.63977,26.98228)"/>
<path transform="matrix(1.00005,0,0,-1.00008,437.51487,23.947037)" stroke-width=".3985" stroke-linecap="butt" stroke-miterlimit="10" stroke-linejoin="miter" fill="none" stroke="#000000" d="M-425.20213 0"/>
<path transform="matrix(1.00005,0,0,-1.00008,437.51487,23.947037)" stroke-width=".3985" stroke-linecap="butt" stroke-miterlimit="10" stroke-linejoin="miter" fill="none" stroke="#000000" d="M-415.00175 0C-415.00175 5.63359-419.56855 10.2004-425.20213 10.2004-430.83576 10.2004-435.40254 5.63359-435.40254 0-435.40254-5.63359-430.83576-10.2004-425.20213-10.2004-419.56855-10.2004-415.00175-5.63359-415.00175 0ZM-425.20213 0"/>
<use data-text="1" xlink:href="#font_1_82" transform="matrix(8.966848,0,0,-8.967117,7.6824038,26.834267)"/>
<use data-text="5" xlink:href="#font_1_56" transform="matrix(8.966848,0,0,-8.967117,12.291351,26.834267)"/>
<path transform="matrix(1.00005,0,0,-1.00008,437.51487,23.947037)" stroke-width=".3985" stroke-linecap="butt" stroke-miterlimit="10" stroke-linejoin="miter" fill="none" stroke="#000000" d="M-414.80247 0H-410.79045"/>
<path transform="matrix(1.00005,0,0,-1.00008,26.703919,23.947037)" d="M3.58653 0C2.52383 .19925 .797 .797-.3985 1.49438V-1.49438C.797-.797 2.52383-.19925 3.58653 0"/>
<path transform="matrix(1.00005,0,0,-1.00008,437.51487,23.947037)" stroke-width=".3985" stroke-linecap="butt" stroke-miterlimit="10" stroke-linejoin="miter" fill="none" stroke="#000000" d="M-386.50675 0H-382.49473"/>
<path transform="matrix(1.00005,0,0,-1.00008,55.001039,23.947037)" d="M3.58653 0C2.52383 .19925 .797 .797-.3985 1.49438V-1.49438C.797-.797 2.52383-.19925 3.58653 0"/>
<path transform="matrix(1.00005,0,0,-1.00008,437.51487,23.947037)" stroke-width=".3985" stroke-linecap="butt" stroke-miterlimit="10" stroke-linejoin="miter" fill="none" stroke="#000000" d="M-358.10887 0H-354.04649"/>
<path transform="matrix(1.00005,0,0,-1.00008,83.450717,23.947037)" d="M3.58653 0C2.52383 .19925 .797 .797-.3985 1.49438V-1.49438C.797-.797 2.52383-.19925 3.58653 0"/>
<path transform="matrix(1.00005,0,0,-1.00008,437.51487,23.947037)" stroke-width=".3985" stroke-linecap="butt" stroke-miterlimit="10" stroke-linejoin="miter" fill="none" stroke="#000000" d="M-329.8635 0H-325.69969"/>
<path transform="matrix(1.00005,0,0,-1.00008,111.79892,23.947037)" d="M3.58653 0C2.52383 .19925 .797 .797-.3985 1.49438V-1.49438C.797-.797 2.52383-.19925 3.58653 0"/>
<path transform="matrix(1.00005,0,0,-1.00008,437.51487,23.947037)" stroke-width=".3985" stroke-linecap="butt" stroke-miterlimit="10" stroke-linejoin="miter" fill="none" stroke="#000000" d="M-301.51667 0H-297.45429"/>
<path transform="matrix(1.00005,0,0,-1.00008,140.04572,23.947037)" d="M3.58653 0C2.52383 .19925 .797 .797-.3985 1.49438V-1.49438C.797-.797 2.52383-.19925 3.58653 0"/>
<path transform="matrix(1.00005,0,0,-1.00008,437.51487,23.947037)" stroke-width=".3985" stroke-linecap="butt" stroke-miterlimit="10" stroke-linejoin="miter" fill="none" stroke="#000000" d="M-273.06846 0H-267.40266"/>
<path transform="matrix(1.00005,0,0,-1.00008,170.09885,23.947037)" d="M3.58653 0C2.52383 .19925 .797 .797-.3985 1.49438V-1.49438C.797-.797 2.52383-.19925 3.58653 0"/>
<path transform="matrix(1.00005,0,0,-1.00008,437.51487,23.947037)" stroke-width=".3985" stroke-linecap="butt" stroke-miterlimit="10" stroke-linejoin="miter" fill="none" stroke="#000000" d="M-246.42644 0H-239.05587"/>
<path transform="matrix(1.00005,0,0,-1.00008,198.44705,23.947037)" d="M3.58653 0C2.52383 .19925 .797 .797-.3985 1.49438V-1.49438C.797-.797 2.52383-.19925 3.58653 0"/>
<path transform="matrix(1.00005,0,0,-1.00008,437.51487,23.947037)" stroke-width=".3985" stroke-linecap="butt" stroke-miterlimit="10" stroke-linejoin="miter" fill="none" stroke="#000000" d="M-218.07962 0H-210.76865"/>
<path transform="matrix(1.00005,0,0,-1.00008,226.73569,23.947037)" d="M3.58653 0C2.52383 .19925 .797 .797-.3985 1.49438V-1.49438C.797-.797 2.52383-.19925 3.58653 0"/>
<path transform="matrix(1.00005,0,0,-1.00008,437.51487,23.947037)" stroke-width=".3985" stroke-linecap="butt" stroke-miterlimit="10" stroke-linejoin="miter" fill="none" stroke="#000000" d="M-189.67322 0H-182.36225"/>
<path transform="matrix(1.00005,0,0,-1.00008,255.14351,23.947037)" d="M3.58653 0C2.52383 .19925 .797 .797-.3985 1.49438V-1.49438C.797-.797 2.52383-.19925 3.58653 0"/>
<path transform="matrix(1.00005,0,0,-1.00008,437.51487,23.947037)" stroke-width=".3985" stroke-linecap="butt" stroke-miterlimit="10" stroke-linejoin="miter" fill="none" stroke="#000000" d="M-161.386 0H-154.01543"/>
<path transform="matrix(1.00005,0,0,-1.00008,283.49177,23.947037)" d="M3.58653 0C2.52383 .19925 .797 .797-.3985 1.49438V-1.49438C.797-.797 2.52383-.19925 3.58653 0"/>
<path transform="matrix(1.00005,0,0,-1.00008,437.51487,23.947037)" stroke-width=".3985" stroke-linecap="butt" stroke-miterlimit="10" stroke-linejoin="miter" fill="none" stroke="#000000" d="M-133.0392 0H-125.64722"/>
<path transform="matrix(1.00005,0,0,-1.00008,311.86137,23.947037)" d="M3.58653 0C2.52383 .19925 .797 .797-.3985 1.49438V-1.49438C.797-.797 2.52383-.19925 3.58653 0"/>
<path transform="matrix(1.00005,0,0,-1.00008,437.51487,23.947037)" stroke-width=".3985" stroke-linecap="butt" stroke-miterlimit="10" stroke-linejoin="miter" fill="none" stroke="#000000" d="M-104.71379 0H-97.32181"/>
<path transform="matrix(1.00005,0,0,-1.00008,340.1882,23.947037)" d="M3.58653 0C2.52383 .19925 .797 .797-.3985 1.49438V-1.49438C.797-.797 2.52383-.19925 3.58653 0"/>
<path transform="matrix(1.00005,0,0,-1.00008,437.51487,23.947037)" stroke-width=".3985" stroke-linecap="butt" stroke-miterlimit="10" stroke-linejoin="miter" fill="none" stroke="#000000" d="M-76.34558 0H-68.93195"/>
<path transform="matrix(1.00005,0,0,-1.00008,368.57948,23.947037)" d="M3.58653 0C2.52383 .19925 .797 .797-.3985 1.49438V-1.49438C.797-.797 2.52383-.19925 3.58653 0"/>
<path transform="matrix(1.00005,0,0,-1.00008,437.51487,23.947037)" stroke-width=".3985" stroke-linecap="butt" stroke-miterlimit="10" stroke-linejoin="miter" fill="none" stroke="#000000" d="M-48.04181 0H-40.58514"/>
<path transform="matrix(1.00005,0,0,-1.00008,396.9277,23.947037)" d="M3.58653 0C2.52383 .19925 .797 .797-.3985 1.49438V-1.49438C.797-.797 2.52383-.19925 3.58653 0"/>
<path transform="matrix(1.00005,0,0,-1.00008,437.51487,23.947037)" stroke-width=".3985" stroke-linecap="butt" stroke-miterlimit="10" stroke-linejoin="miter" fill="none" stroke="#000000" d="M-19.695 0H-12.28139"/>
<path transform="matrix(1.00005,0,0,-1.00008,425.23286,23.947037)" d="M3.58653 0C2.52383 .19925 .797 .797-.3985 1.49438V-1.49438C.797-.797 2.52383-.19925 3.58653 0"/>
<path transform="matrix(1.00005,0,0,-1.00008,437.51487,23.947037)" stroke-width=".3985" stroke-linecap="butt" stroke-miterlimit="10" stroke-linejoin="miter" fill="none" stroke="#000000" d="M-416.6834 5.96484C-404.0154 14.8348-389.69526 14.8348-379.96513 8.02194"/>
<path transform="matrix(.8191809,.5736059,.57358869,-.8192055,57.53073,15.924455)" d="M3.58653 0C2.52383 .19925 .797 .797-.3985 1.49438V-1.49438C.797-.797 2.52383-.19925 3.58653 0"/>
<path transform="matrix(1.00005,0,0,-1.00008,437.51487,23.947037)" stroke-width=".3985" stroke-linecap="butt" stroke-miterlimit="10" stroke-linejoin="miter" fill="none" stroke="#000000" d="M-388.37843 5.93555C-375.6705 14.83348-361.3053 14.8046-351.53523 7.96376"/>
<path transform="matrix(.8191809,.5736059,.57358869,-.8192055,85.9621,15.982639)" d="M3.58653 0C2.52383 .19925 .797 .797-.3985 1.49438V-1.49438C.797-.797 2.52383-.19925 3.58653 0"/>
<path transform="matrix(1.00005,0,0,-1.00008,437.51487,23.947037)" stroke-width=".3985" stroke-linecap="butt" stroke-miterlimit="10" stroke-linejoin="miter" fill="none" stroke="#000000" d="M-359.98979 5.96484C-347.2952 14.85342-332.94514 14.79524-323.18843 7.96376"/>
<path transform="matrix(.8191809,.5736059,.57358869,-.8192055,114.3103,15.982639)" d="M3.58653 0C2.52383 .19925 .797 .797-.3985 1.49438V-1.49438C.797-.797 2.52383-.19925 3.58653 0"/>
<path transform="matrix(1.00005,0,0,-1.00008,437.51487,23.947037)" stroke-width=".3985" stroke-linecap="butt" stroke-miterlimit="10" stroke-linejoin="miter" fill="none" stroke="#000000" d="M-331.72608 5.90666C-319.0315 14.79524-304.6814 14.85342-294.9247 8.02194"/>
<path transform="matrix(.8191809,.5736059,.57358869,-.8192055,142.57541,15.924455)" d="M3.58653 0C2.52383 .19925 .797 .797-.3985 1.49438V-1.49438C.797-.797 2.52383-.19925 3.58653 0"/>
<path transform="matrix(1.00005,0,0,-1.00008,437.51487,23.947037)" stroke-width=".3985" stroke-linecap="butt" stroke-miterlimit="10" stroke-linejoin="miter" fill="none" stroke="#000000" d="M-303.37925 5.90666C-290.18724 15.14355-275.43553 14.22394-265.18147 7.04407"/>
<path transform="matrix(.81919088,.5735959,.57357868,-.8192155,172.32016,16.902394)" d="M3.58653 0C2.52383 .19925 .797 .797-.3985 1.49438V-1.49438C.797-.797 2.52383-.19925 3.58653 0"/>
<path transform="matrix(1.00005,0,0,-1.00008,437.51487,23.947037)" stroke-width=".3985" stroke-linecap="butt" stroke-miterlimit="10" stroke-linejoin="miter" fill="none" stroke="#000000" d="M-274.94935 5.96484C-261.784 15.18304-247.06204 14.20525-236.83466 7.04407"/>
<path transform="matrix(.81919088,.5735959,.57357868,-.8192155,200.66838,16.902394)" d="M3.58653 0C2.52383 .19925 .797 .797-.3985 1.49438V-1.49438C.797-.797 2.52383-.19925 3.58653 0"/>
<path transform="matrix(1.00005,0,0,-1.00008,437.51487,23.947037)" stroke-width=".3985" stroke-linecap="butt" stroke-miterlimit="10" stroke-linejoin="miter" fill="none" stroke="#000000" d="M-247.99903 4.98703C-234.45439 14.47086-219.14337 14.50504-208.53665 7.07825"/>
<path transform="matrix(.81919088,.5735959,.57357868,-.8192155,228.96779,16.86821)" d="M3.58653 0C2.52383 .19925 .797 .797-.3985 1.49438V-1.49438C.797-.797 2.52383-.19925 3.58653 0"/>
<path transform="matrix(1.00005,0,0,-1.00008,437.51487,23.947037)" stroke-width=".3985" stroke-linecap="butt" stroke-miterlimit="10" stroke-linejoin="miter" fill="none" stroke="#000000" d="M-219.6522 4.98703C-206.09198 14.4818-190.76334 14.4818-180.14098 7.04413"/>
<path transform="matrix(.8191809,.5736059,.57358869,-.8192055,257.36488,16.902344)" d="M3.58653 0C2.52383 .19925 .797 .797-.3985 1.49438V-1.49438C.797-.797 2.52383-.19925 3.58653 0"/>
<path transform="matrix(1.00005,0,0,-1.00008,437.51487,23.947037)" stroke-width=".3985" stroke-linecap="butt" stroke-miterlimit="10" stroke-linejoin="miter" fill="none" stroke="#000000" d="M-191.25658 5.02121C-177.71196 14.50504-162.40094 14.47086-151.79422 7.04407"/>
<path transform="matrix(.81919088,.5735959,.57357868,-.8192155,285.71308,16.902394)" d="M3.58653 0C2.52383 .19925 .797 .797-.3985 1.49438V-1.49438C.797-.797 2.52383-.19925 3.58653 0"/>
<path transform="matrix(1.00005,0,0,-1.00008,437.51487,23.947037)" stroke-width=".3985" stroke-linecap="butt" stroke-miterlimit="10" stroke-linejoin="miter" fill="none" stroke="#000000" d="M-162.95859 4.98703C-149.3928 14.48567-134.05774 14.47339-123.42982 7.03185"/>
<path transform="matrix(.8191809,.5736059,.57358869,-.8192055,314.07887,16.914624)" d="M3.58653 0C2.52383 .19925 .797 .797-.3985 1.49438V-1.49438C.797-.797 2.52383-.19925 3.58653 0"/>
<path transform="matrix(1.00005,0,0,-1.00008,437.51487,23.947037)" stroke-width=".3985" stroke-linecap="butt" stroke-miterlimit="10" stroke-linejoin="miter" fill="none" stroke="#000000" d="M-134.61177 4.98703C-121.05156 14.4818-105.72292 14.4818-95.10054 7.04413"/>
<path transform="matrix(.8191809,.5736059,.57358869,-.8192055,342.40956,16.902344)" d="M3.58653 0C2.52383 .19925 .797 .797-.3985 1.49438V-1.49438C.797-.797 2.52383-.19925 3.58653 0"/>
<path transform="matrix(1.00005,0,0,-1.00008,437.51487,23.947037)" stroke-width=".3985" stroke-linecap="butt" stroke-miterlimit="10" stroke-linejoin="miter" fill="none" stroke="#000000" d="M-106.2825 4.97475C-92.70541 14.48131-77.3577 14.46889-66.71848 7.01942"/>
<path transform="matrix(.8191809,.5736059,.57358869,-.8192055,370.79304,16.927056)" d="M3.58653 0C2.52383 .19925 .797 .797-.3985 1.49438V-1.49438C.797-.797 2.52383-.19925 3.58653 0"/>
<path transform="matrix(1.00005,0,0,-1.00008,437.51487,23.947037)" stroke-width=".3985" stroke-linecap="butt" stroke-miterlimit="10" stroke-linejoin="miter" fill="none" stroke="#000000" d="M-77.91815 4.98703C-64.3467 14.48965-49.00526 14.46495-38.37167 7.01942"/>
<path transform="matrix(.8191809,.5736059,.57358869,-.8192055,399.14128,16.927056)" d="M3.58653 0C2.52383 .19925 .797 .797-.3985 1.49438V-1.49438C.797-.797 2.52383-.19925 3.58653 0"/>
<path transform="matrix(1.00005,0,0,-1.00008,437.51487,23.947037)" stroke-width=".3985" stroke-linecap="butt" stroke-miterlimit="10" stroke-linejoin="miter" fill="none" stroke="#000000" d="M-49.6066 4.96233C-36.03516 14.46495-20.69371 14.48965-10.06012 7.04413"/>
<path transform="matrix(.8191809,.5736059,.57358869,-.8192055,427.45423,16.902344)" d="M3.58653 0C2.52383 .19925 .797 .797-.3985 1.49438V-1.49438C.797-.797 2.52383-.19925 3.58653 0"/>
<path transform="matrix(1.00005,0,0,-1.00008,437.51487,23.947037)" stroke-width=".3985" stroke-linecap="butt" stroke-miterlimit="10" stroke-linejoin="miter" fill="none" stroke="#000000" d="M-417.84846 7.35365C-398.43428 26.76787-366.85786 26.69614-349.9797 9.81801"/>
<path transform="matrix(.7071353,.70715656,.7071353,-.70715656,87.51767,14.128242)" d="M3.58653 0C2.52383 .19925 .797 .797-.3985 1.49438V-1.49438C.797-.797 2.52383-.19925 3.58653 0"/>
<path transform="matrix(1.00005,0,0,-1.00008,437.51487,23.947037)" stroke-width=".3985" stroke-linecap="butt" stroke-miterlimit="10" stroke-linejoin="miter" fill="none" stroke="#000000" d="M-389.53779 7.31754C-370.11363 26.7417-338.521 26.7061-321.63294 9.81801"/>
<path transform="matrix(.7071353,.70715656,.7071353,-.70715656,115.865879,14.128242)" d="M3.58653 0C2.52383 .19925 .797 .797-.3985 1.49438V-1.49438C.797-.797 2.52383-.19925 3.58653 0"/>
<path transform="matrix(1.00005,0,0,-1.00008,437.51487,23.947037)" stroke-width=".3985" stroke-linecap="butt" stroke-miterlimit="10" stroke-linejoin="miter" fill="none" stroke="#000000" d="M-361.15486 7.35365C-341.76045 26.74808-310.21617 26.74808-293.35783 9.88972"/>
<path transform="matrix(.7071353,.70715656,.7071353,-.70715656,144.1424,14.056525)" d="M3.58653 0C2.52383 .19925 .797 .797-.3985 1.49438V-1.49438C.797-.797 2.52383-.19925 3.58653 0"/>
<path transform="matrix(1.00005,0,0,-1.00008,437.51487,23.947037)" stroke-width=".3985" stroke-linecap="butt" stroke-miterlimit="10" stroke-linejoin="miter" fill="none" stroke="#000000" d="M-332.87977 7.28194C-313.05607 27.10565-281.09318 25.9719-263.80555 8.68425"/>
<path transform="matrix(.7071353,.70715656,.7071353,-.70715656,173.69614,15.262093)" d="M3.58653 0C2.52383 .19925 .797 .797-.3985 1.49438V-1.49438C.797-.797 2.52383-.19925 3.58653 0"/>
<path transform="matrix(1.00005,0,0,-1.00008,437.51487,23.947037)" stroke-width=".3985" stroke-linecap="butt" stroke-miterlimit="10" stroke-linejoin="miter" fill="none" stroke="#000000" d="M-304.53297 7.28194C-284.70924 27.10565-252.74637 25.9719-235.45873 8.68425"/>
<path transform="matrix(.7071353,.70715656,.7071353,-.70715656,202.04438,15.262093)" d="M3.58653 0C2.52383 .19925 .797 .797-.3985 1.49438V-1.49438C.797-.797 2.52383-.19925 3.58653 0"/>
<path transform="matrix(1.00005,0,0,-1.00008,437.51487,23.947037)" stroke-width=".3985" stroke-linecap="butt" stroke-miterlimit="10" stroke-linejoin="miter" fill="none" stroke="#000000" d="M-276.11445 7.35365C-256.3222 27.14587-224.4102 25.98253-207.15406 8.72638"/>
<path transform="matrix(.7071353,.70715656,.7071353,-.70715656,230.35047,15.219958)" d="M3.58653 0C2.52383 .19925 .797 .797-.3985 1.49438V-1.49438C.797-.797 2.52383-.19925 3.58653 0"/>
<path transform="matrix(1.00005,0,0,-1.00008,437.51487,23.947037)" stroke-width=".3985" stroke-linecap="butt" stroke-miterlimit="10" stroke-linejoin="miter" fill="none" stroke="#000000" d="M-248.9731 6.14818C-228.91385 26.20743-196.28829 26.20743-178.7651 8.68425"/>
<path transform="matrix(.7071353,.70715656,.7071353,-.70715656,258.74085,15.262093)" d="M3.58653 0C2.52383 .19925 .797 .797-.3985 1.49438V-1.49438C.797-.797 2.52383-.19925 3.58653 0"/>
<path transform="matrix(1.00005,0,0,-1.00008,437.51487,23.947037)" stroke-width=".3985" stroke-linecap="butt" stroke-miterlimit="10" stroke-linejoin="miter" fill="none" stroke="#000000" d="M-220.6263 6.14818C-200.56703 26.20743-167.94149 26.20743-150.41829 8.68425"/>
<path transform="matrix(.7071353,.70715656,.7071353,-.70715656,287.08906,15.262093)" d="M3.58653 0C2.52383 .19925 .797 .797-.3985 1.49438V-1.49438C.797-.797 2.52383-.19925 3.58653 0"/>
<path transform="matrix(1.00005,0,0,-1.00008,437.51487,23.947037)" stroke-width=".3985" stroke-linecap="butt" stroke-miterlimit="10" stroke-linejoin="miter" fill="none" stroke="#000000" d="M-192.23734 6.1903C-172.18556 26.24208-139.57207 26.18483-122.05635 8.66911"/>
<path transform="matrix(.7071353,.70715656,.7071353,-.70715656,315.45243,15.277233)" d="M3.58653 0C2.52383 .19925 .797 .797-.3985 1.49438V-1.49438C.797-.797 2.52383-.19925 3.58653 0"/>
<path transform="matrix(1.00005,0,0,-1.00008,437.51487,23.947037)" stroke-width=".3985" stroke-linecap="butt" stroke-miterlimit="10" stroke-linejoin="miter" fill="none" stroke="#000000" d="M-163.93267 6.14818C-143.87342 26.20743-111.24786 26.20743-93.72467 8.68425"/>
<path transform="matrix(.7071353,.70715656,.7071353,-.70715656,343.78553,15.262093)" d="M3.58653 0C2.52383 .19925 .797 .797-.3985 1.49438V-1.49438C.797-.797 2.52383-.19925 3.58653 0"/>
<path transform="matrix(1.00005,0,0,-1.00008,437.51487,23.947037)" stroke-width=".3985" stroke-linecap="butt" stroke-miterlimit="10" stroke-linejoin="miter" fill="none" stroke="#000000" d="M-135.58586 6.14818C-115.51819 26.21585-82.87903 26.18541-65.34743 8.65381"/>
<path transform="matrix(.7071353,.70715656,.7071353,-.70715656,372.16419,15.292535)" d="M3.58653 0C2.52383 .19925 .797 .797-.3985 1.49438V-1.49438C.797-.797 2.52383-.19925 3.58653 0"/>
<path transform="matrix(1.00005,0,0,-1.00008,437.51487,23.947037)" stroke-width=".3985" stroke-linecap="butt" stroke-miterlimit="10" stroke-linejoin="miter" fill="none" stroke="#000000" d="M-107.25418 6.13304C-87.18233 26.20491-54.5364 26.18959-37.00063 8.65381"/>
<path transform="matrix(.7071353,.70715656,.7071353,-.70715656,400.5124,15.292535)" d="M3.58653 0C2.52383 .19925 .797 .797-.3985 1.49438V-1.49438C.797-.797 2.52383-.19925 3.58653 0"/>
<path transform="matrix(1.00005,0,0,-1.00008,437.51487,23.947037)" stroke-width=".3985" stroke-linecap="butt" stroke-miterlimit="10" stroke-linejoin="miter" fill="none" stroke="#000000" d="M-78.89224 6.14818C-58.833 26.20743-26.20743 26.20743-8.68425 8.68425"/>
<path transform="matrix(.7071353,.70715656,.7071353,-.70715656,428.83018,15.262093)" d="M3.58653 0C2.52383 .19925 .797 .797-.3985 1.49438V-1.49438C.797-.797 2.52383-.19925 3.58653 0"/>
</svg>
