<svg xmlns="http://www.w3.org/2000/svg" xmlns:xlink="http://www.w3.org/1999/xlink" version="1.1" width="106" height="39" viewBox="0 0 106 39">
<defs>
<path id="font_1_57" d="M.48399354 .16503906V.19602967H.38198854V.649765C.38198854 .669754 .38198854 .6767578 .36299134 .6767578 .35099793 .6767578 .34999085 .67575076 .34098817 .6617584L.0289917 .19602967V.16503906H.3019867V.07901001C.3019867 .041992189 .29899598 .0309906 .22399903 .0309906H.20199585V0C.2649994 .0029907227 .33499146 .0029907227 .34199525 .0029907227 .34700013 .0029907227 .4189911 .0029907227 .48199464 0V.0309906H.45999146C.3849945 .0309906 .38198854 .041992189 .38198854 .07901001V.16503906H.48399354M.30799867 .19602967H.06098938L.30799867 .56581118V.19602967Z"/>
<path id="font_1_106" d="M.46998597 .17008972C.46998597 .25709535 .40098573 .33110047 .30499269 .35209657 .397995 .38710023 .44198609 .46009828 .44198609 .5290985 .44198609 .60606387 .35699464 .6660156 .25299073 .6660156 .14898682 .6660156 .070999149 .60705569 .070999149 .5310974 .070999149 .49809266 .09298706 .47909547 .12199402 .47909547 .15098572 .47909547 .17199707 .50009158 .17199707 .5290985 .17199707 .5640869 .147995 .57910159 .11399841 .57910159 .13999939 .6210327 .20098877 .64100649 .25 .64100649 .33299256 .64100649 .34899903 .5750885 .34899903 .52809146 .34899903 .49809266 .34298707 .45005799 .31799317 .41201783 .2869873 .36695863 .2519989 .36495973 .22299195 .36296083 .19799805 .36094667 .19599915 .36094667 .18798828 .36094667 .1789856 .35995484 .17098999 .35894776 .17098999 .34794618 .17098999 .33496095 .1789856 .33496095 .19599915 .33496095H.24299622C.32998658 .33496095 .36799623 .2646637 .36799623 .16937256 .36799623 .04145813 .2999878 .0055389406 .24899292 .0055389406 .22999573 .0055389406 .1329956 .010528564 .08799744 .0843811 .12399292 .07939148 .1519928 .10437012 .1519928 .13838196 .1519928 .17137146 .1269989 .19238281 .09799194 .19238281 .07299805 .19238281 .042999269 .17736817 .042999269 .13537598 .042999269 .046447755 .13598633-.022460938 .2519989-.022460938 .3769989-.022460938 .46998597 .06741333 .46998597 .16937256V.17008972Z"/>
<path id="font_1_107" d="M.46199037 .17704773H.43399049C.43199159 .16404724 .42399598 .10501099 .41099549 .08900452 .40499879 .07998657 .33599855 .07998657 .31599427 .07998657H.13798523L.23699951 .17404175C.40098573 .3161316 .46199037 .36915589 .46199037 .4711914 .46199037 .5860901 .36698915 .6660156 .24398804 .6660156 .1289978 .6660156 .050994874 .575119 .050994874 .4841919 .050994874 .43418885 .09399414 .42919923 .102996829 .42919923 .125 .42919923 .15499878 .44519044 .15499878 .48120118 .15499878 .51119998 .13398743 .5332031 .102996829 .5332031 .09799194 .5332031 .09498596 .5332031 .09098816 .53219607 .114990238 .6030731 .1789856 .63500979 .23298645 .63500979 .33499146 .63500979 .36999513 .5401764 .36999513 .4711914 .36999513 .36915589 .29299928 .28611756 .24499512 .23408509L.06199646 .035995485C.050994874 .024993897 .050994874 .022994996 .050994874 0H.43399049L.46199037 .17704773Z"/>
<path id="font_1_82" d="M.43199159 0V.0309906H.3999939C.30699159 .0309906 .3039856 .042999269 .3039856 .08001709V.63912966C.3039856 .6640167 .30299378 .6660156 .27799989 .6660156 .21598816 .60227969 .12399292 .60227969 .09298706 .60227969V.57128909C.11199951 .57128909 .17298889 .57128909 .22698975 .5972748V.08001709C.22698975 .042999269 .22399903 .0309906 .1309967 .0309906H.09899902V0C.1349945 .0029907227 .22399903 .0029907227 .2649994 .0029907227 .30599977 .0029907227 .3959961 .0029907227 .43199159 0Z"/>
</defs>
<path transform="matrix(1.00002,0,0,-1.00006,10.569832,29.107148)" stroke-width=".3985" stroke-linecap="butt" stroke-miterlimit="10" stroke-linejoin="miter" fill="none" stroke="#000000" d="M0 0"/>
<path transform="matrix(1.00002,0,0,-1.00006,10.569832,29.107148)" stroke-width=".3985" stroke-linecap="butt" stroke-miterlimit="10" stroke-linejoin="miter" fill="none" stroke="#000000" d="M8.47418 0C8.47418 4.6802 4.6802 8.47418 0 8.47418-4.6802 8.47418-8.47418 4.6802-8.47418 0-8.47418-4.6802-4.6802-8.47418 0-8.47418 4.6802-8.47418 8.47418-4.6802 8.47418 0ZM0 0"/>
<use data-text="4" xlink:href="#font_1_57" transform="matrix(8.966579,0,0,-8.966938,8.265785,32.14233)"/>
<path transform="matrix(1.00002,0,0,-1.00006,10.569832,29.107148)" stroke-width=".3985" stroke-linecap="butt" stroke-miterlimit="10" stroke-linejoin="miter" fill="none" stroke="#000000" d="M28.3468 0"/>
<path transform="matrix(1.00002,0,0,-1.00006,10.569832,29.107148)" stroke-width=".3985" stroke-linecap="butt" stroke-miterlimit="10" stroke-linejoin="miter" fill="none" stroke="#000000" d="M36.84239 0C36.84239 4.69203 33.03885 8.49559 28.3468 8.49559 23.65475 8.49559 19.85121 4.69203 19.85121 0 19.85121-4.69203 23.65475-8.49559 28.3468-8.49559 33.03885-8.49559 36.84239-4.69203 36.84239 0ZM28.3468 0"/>
<use data-text="3" xlink:href="#font_1_106" transform="matrix(8.966579,0,0,-8.966938,36.61235,31.99432)"/>
<path transform="matrix(1.00002,0,0,-1.00006,10.569832,29.107148)" stroke-width=".3985" stroke-linecap="butt" stroke-miterlimit="10" stroke-linejoin="miter" fill="none" stroke="#000000" d="M56.69362 0"/>
<path transform="matrix(1.00002,0,0,-1.00006,10.569832,29.107148)" stroke-width=".3985" stroke-linecap="butt" stroke-miterlimit="10" stroke-linejoin="miter" fill="none" stroke="#000000" d="M65.14615 0C65.14615 4.66826 61.36188 8.45253 56.69362 8.45253 52.02534 8.45253 48.24107 4.66826 48.24107 0 48.24107-4.66826 52.02534-8.45253 56.69362-8.45253 61.36188-8.45253 65.14615-4.66826 65.14615 0ZM56.69362 0"/>
<use data-text="2" xlink:href="#font_1_107" transform="matrix(8.966579,0,0,-8.966938,64.95992,32.093328)"/>
<path transform="matrix(1.00002,0,0,-1.00006,10.569832,29.107148)" stroke-width=".3985" stroke-linecap="butt" stroke-miterlimit="10" stroke-linejoin="miter" fill="none" stroke="#000000" d="M85.04042 0"/>
<path transform="matrix(1.00002,0,0,-1.00006,10.569832,29.107148)" stroke-width=".3985" stroke-linecap="butt" stroke-miterlimit="10" stroke-linejoin="miter" fill="none" stroke="#000000" d="M93.49297 0C93.49297 4.66826 89.7087 8.45253 85.04042 8.45253 80.37215 8.45253 76.58788 4.66826 76.58788 0 76.58788-4.66826 80.37215-8.45253 85.04042-8.45253 89.7087-8.45253 93.49297-4.66826 93.49297 0ZM85.04042 0"/>
<use data-text="1" xlink:href="#font_1_82" transform="matrix(8.966579,0,0,-8.966938,93.30749,32.093328)"/>
<path transform="matrix(1.00002,0,0,-1.00006,10.569832,29.107148)" stroke-width=".3985" stroke-linecap="butt" stroke-miterlimit="10" stroke-linejoin="miter" fill="none" stroke="#000000" d="M8.67343 0H16.06541"/>
<path transform="matrix(1.00002,0,0,-1.00006,26.635565,29.107148)" d="M3.58653 0C2.52383 .19925 .797 .797-.3985 1.49438V-1.49438C.797-.797 2.52383-.19925 3.58653 0"/>
<path transform="matrix(1.00002,0,0,-1.00006,10.569832,29.107148)" stroke-width=".3985" stroke-linecap="butt" stroke-miterlimit="10" stroke-linejoin="miter" fill="none" stroke="#000000" d="M6.64389 5.5752C19.61554 16.45988 37.09465 16.44598 47.31894 7.86662"/>
<path transform="matrix(.7660353,.64281859,.6427929,-.76606598,57.889719,21.240036)" d="M3.58653 0C2.52383 .19925 .797 .797-.3985 1.49438V-1.49438C.797-.797 2.52383-.19925 3.58653 0"/>
<path transform="matrix(1.00002,0,0,-1.00006,10.569832,29.107148)" stroke-width=".3985" stroke-linecap="butt" stroke-miterlimit="10" stroke-linejoin="miter" fill="none" stroke="#000000" d="M4.33656 7.51129C19.22908 33.30629 65.82216 33.28755 78.92146 10.59853"/>
<path transform="matrix(.49999003,.8660619,.86602738,-.50000998,89.49286,18.507973)" d="M3.58653 0C2.52383 .19925 .797 .797-.3985 1.49438V-1.49438C.797-.797 2.52383-.19925 3.58653 0"/>
</svg>
