<svg xmlns="http://www.w3.org/2000/svg" xmlns:xlink="http://www.w3.org/1999/xlink" version="1.1" width="231" height="230" viewBox="0 0 231 230">
<defs>
<path id="font_1_90" d="M.6779938-.010635376C.6779938-.00062561038 .6779938 .006378174 .67099 .006378174 .66600039 .006378174 .6649933-.0026397706 .6649933-.0026397706 .6579895-.09840393 .60398867-.11834717 .57199099-.11834717 .5130005-.11834717 .49198915-.06549072 .47299195 .009384155 .59199526 .06037903 .6729889 .19033814 .6729889 .3403015 .6729889 .5452423 .526001 .69921877 .3600006 .69921877 .18998719 .69921877 .04598999 .5432434 .04598999 .3403015 .04598999 .14035034 .18998719-.015625 .3600006-.015625 .3829956-.015625 .4149933-.012634277 .45298768 .00036621095 .46998597-.12133789 .48098756-.19433594 .5669861-.19433594 .6729889-.19474793 .6779938-.038757326 .6779938-.0107421879V-.010635376M.598999 .34039308C.598999 .17149353 .5319977 .077301029 .46499635 .03425598 .44999696 .08532715 .42599488 .14550781 .36099244 .14550781 .31298829 .14550781 .28599549 .103393558 .28599549 .06524658 .28599549 .042251588 .29499818 .023254395 .30599977 .010253906 .20199585 .04324341 .11999512 .15449524 .11999512 .34039308 .11999512 .5782623 .25099183 .6812134 .35899354 .6812134 .47099305 .6812134 .598999 .5742645 .598999 .34039308M.44898988 .025253296C.40899659 .0043640139 .3769989 .0023651124 .3600006 .0023651124 .31498719 .002243042 .3019867 .04324341 .3019867 .06524658 .3019867 .09637451 .32299806 .12950135 .36099244 .12950135 .4249878 .12937927 .44099427 .072387699 .44898988 .025390625V.025253296Z"/>
</defs>
<path transform="matrix(1.00003,0,0,-1.00002,2.0964967,228.57427)" d="M0 198.42766V226.77448H226.77448V198.42766ZM226.77448 226.77448" fill="#cbcbcb"/>
<path transform="matrix(1.00003,0,0,-1.00002,2.0964967,228.57427)" stroke-width=".3985" stroke-linecap="butt" stroke-miterlimit="10" stroke-linejoin="miter" fill="none" stroke="#000000" d="M0 198.42766V226.77448H226.77448V198.42766ZM226.77448 226.77448"/>
<path transform="matrix(1.00003,0,0,-1.00002,2.0964967,228.57427)" stroke-width=".3985" stroke-linecap="butt" stroke-miterlimit="10" stroke-linejoin="miter" fill="none" stroke="#000000" d="M0 0H226.77448M0 28.3468H226.77448M0 56.69362H226.77448M0 85.04042H226.77448M0 113.38724H226.77448M0 141.73404H226.77448M0 170.08086H226.77448M0 198.42766H226.77448M0 226.76451H226.77448M0 0V226.77448M28.3468 0V226.77448M56.69362 0V226.77448M85.04042 0V226.77448M113.38724 0V226.77448M141.73404 0V226.77448M170.08086 0V226.77448M198.42766 0V226.77448M226.76451 0V226.77448M226.77448 226.77448"/>
<path transform="matrix(1.00003,0,0,-1.00002,2.0964967,228.57427)" stroke-width=".3985" stroke-linecap="butt" stroke-miterlimit="10" stroke-linejoin="miter" fill="none" stroke="#000000" d="M0 0V226.77448H226.77448V0ZM226.77448 226.77448"/>
<path transform="matrix(1.00003,0,0,-1.00002,2.0964967,228.57427)" stroke-width=".3985" stroke-linecap="butt" stroke-miterlimit="10" stroke-linejoin="miter" fill="none" stroke="#000000" d="M212.60106 184.25424"/>
<use data-text="Q" xlink:href="#font_1_90" transform="matrix(24.787844,0,0,-24.787596,205.78061,50.5627)"/>
</svg>
