<svg xmlns="http://www.w3.org/2000/svg" xmlns:xlink="http://www.w3.org/1999/xlink" version="1.1" width="231" height="230" viewBox="0 0 231 230">
<defs>
<path id="font_1_85" d="M.375-.23703003C.375-.23103333 .37199403-.22903443 .36499024-.22203064 .23199463-.10203552 .18299866 .067977908 .18299866 .24998474 .18299866 .519989 .28599549 .65197756 .36799623 .72598269 .37199403 .72998049 .375 .73298647 .375 .73799136 .375 .75 .36299134 .75 .35499574 .75 .16499329 .61598208 .114990238 .40397645 .114990238 .25097657 .114990238 .10997009 .15699768-.10902405 .35499574-.24902344 .36299134-.24902344 .375-.24902344 .375-.23703003Z"/>
<path id="font_1_121" d="M.5159912 .31925965C.5159912 .42918397 .5029907 .50813296 .45700074 .5780945 .42599488 .62405398 .3639984 .6640625 .28399659 .6640625 .051986696 .6640625 .051986696 .39120484 .051986696 .31925965 .051986696 .2472992 .051986696-.01953125 .28399659-.01953125 .5159912-.01953125 .5159912 .2472992 .5159912 .31925965M.4249878 .33224488C.4249878 .25830079 .4249878 .18434143 .4119873 .12138367 .3919983 .030441285 .32398988 .008468628 .28399659 .008468628 .23799134 .008468628 .1769867 .035446168 .15699768 .117385867 .14299011 .17634583 .14299011 .25830079 .14299011 .33224488 .14299011 .40519715 .14299011 .4811554 .1579895 .53611758 .1789856 .6150665 .24299622 .63604739 .28399659 .63604739 .33799745 .63604739 .3899994 .6030731 .4079895 .545105 .42399598 .4911499 .4249878 .41918946 .4249878 .33224488Z"/>
<path id="font_1_45" d="M.23098755 .005996704C.23098755 .06599426 .20799256 .114990238 .16099549 .114990238 .12599182 .114990238 .10398865 .08799744 .10398865 .056991579 .10398865 .032989503 .11999512 0 .1619873 0 .18699646 0 .20298767 .015991211 .20298767 .015991211 .20298767-.012023926 .20298767-.09617615 .125-.16729737 .12098694-.17131043 .117996219-.1743164 .117996219-.17932129 .117996219-.18533325 .125-.19433594 .13198853-.19433594 .14498902-.19433594 .23098755-.11520386 .23098755 .005996704Z"/>
<path id="font_1_86" d="M.32998658 .24998474C.32998658 .39097596 .28799439 .60998538 .08999634 .75 .08299255 .75 .070999149 .75 .070999149 .73799136 .070999149 .73298647 .07398987 .72998049 .07998657 .72299197 .1659851 .64398196 .2619934 .5089874 .2619934 .25097657 .2619934 .04197693 .19699097-.11602783 .08898926-.21403504 .07199097-.23103333 .070999149-.23202515 .070999149-.23703003 .070999149-.24203491 .07398987-.24902344 .083999637-.24902344 .09599304-.24902344 .19099427-.18302918 .25698854-.058029176 .30099488 .024978638 .32998658 .13298035 .32998658 .24998474Z"/>
<path id="font_1_82" d="M.47299195 0V.035995485H.43499757C.33499146 .035995485 .33499146 .048980714 .33499146 .081970218V.6357422C.33499146 .66304019 .33299256 .6640625 .30499269 .6640625 .24099732 .6007385 .1499939 .59973147 .10899353 .59973147V.5644531C.1329956 .5644531 .19898987 .5644531 .2539978 .592453V.08203125C.2539978 .04899597 .2539978 .035995485 .1539917 .035995485H.115997318V0L.2939911 .0039978029 .47299195 0Z"/>
<path id="font_1_107" d="M.5049896 .18203736H.47099305C.46798707 .16001892 .45799256 .100997928 .44499208 .09098816 .43699647 .084991458 .3600006 .084991458 .34599305 .084991458H.1619873C.2669983 .17803955 .3019867 .20603943 .3619995 .25306703 .43598939 .312088 .5049896 .374115 .5049896 .46914674 .5049896 .5900879 .39898683 .6640625 .2709961 .6640625 .14698792 .6640625 .06298828 .57710269 .06298828 .4851532 .06298828 .43414308 .10598755 .42915345 .115997318 .42915345 .13999939 .42915345 .16899109 .44615174 .16899109 .48214723 .16899109 .5001526 .1619873 .53515627 .10998535 .53515627 .14099121 .6060791 .20899964 .62805178 .2559967 .62805178 .35598756 .62805178 .4079895 .5501404 .4079895 .46914674 .4079895 .38212586 .34599305 .3130951 .31399537 .27708436L.07299805 .038986207C.06298828 .02999878 .06298828 .027999878 .06298828 0H.47499085L.5049896 .18203736Z"/>
<path id="font_1_106" d="M.5139923 .1733551C.5139923 .2513275 .44999696 .32929994 .33999635 .35229493 .44499208 .39024354 .48298646 .4650879 .48298646 .5260773 .48298646 .60505679 .3919983 .6640625 .2809906 .6640625 .16999817 .6640625 .084991458 .61006167 .084991458 .5300751 .084991458 .49606324 .10699463 .47706605 .13699341 .47706605 .16799927 .47706605 .18798828 .5000763 .18798828 .5280762 .18798828 .5570679 .16799927 .57806399 .13699341 .5800781 .17199707 .62405398 .24099732 .63505557 .27799989 .63505557 .32299806 .63505557 .38598634 .6130676 .38598634 .5260773 .38598634 .48406983 .37199403 .43814088 .34599305 .4072113 .31298829 .36927796 .2849884 .3672943 .23498535 .36428834 .20999146 .3623047 .20799256 .3623047 .20298767 .3612976 .20298767 .3612976 .19299317 .3592987 .19299317 .34829713 .19299317 .33428956 .20199585 .33428956 .21899414 .33428956H.272995C.35099793 .33428956 .40699769 .2803192 .40699769 .1733551 .40699769 .04940796 .33499146 .012466431 .2769928 .012466431 .23699951 .012466431 .14898682 .0234375 .10699463 .082351688 .1539917 .084350589 .16499329 .11735535 .16499329 .13835144 .16499329 .17034912 .14099121 .19335938 .10998535 .19335938 .08198547 .19335938 .053985597 .17634583 .053985597 .13534546 .053985597 .041412355 .1579895-.01953125 .2789917-.01953125 .41799928-.01953125 .5139923 .07336426 .5139923 .1733551Z"/>
<path id="font_1_57" d="M.5289917 .1640625V.20005799H.41799928V.6458435C.41799928 .66682437 .41799928 .6738281 .3959961 .6738281 .38398744 .6738281 .37998963 .6738281 .36999513 .6598358L.038986207 .20005799V.1640625H.33299256V.08201599C.33299256 .04800415 .33299256 .035995485 .2519989 .035995485H.22499085V0L.375 .0039978029 .526001 0V.035995485H.49899293C.41799928 .035995485 .41799928 .04800415 .41799928 .08201599V.1640625H.5289917M.33999635 .20005799H.07598877L.33999635 .5658722V.20005799Z"/>
<path id="font_1_56" d="M.5049896 .20095825C.5049896 .31396485 .4189911 .41796876 .29499818 .41796876 .25099183 .41796876 .19898987 .40696717 .15499878 .36895753V.5579071C.20599365 .5449219 .23599243 .5449219 .2519989 .5449219 .38398744 .5449219 .46199037 .6349182 .46199037 .6499176 .46199037 .6610565 .45498658 .6640625 .44999696 .6640625 .44999696 .6640625 .44599916 .6640625 .44198609 .6610565 .41799928 .65205386 .36499024 .63204959 .29100038 .63204959 .2630005 .63204959 .20999146 .63404849 .14498902 .6590576 .1349945 .6640625 .13198853 .6640625 .13198853 .6640625 .11898804 .6640625 .11898804 .6530609 .11898804 .63705447V.34204103C.11898804 .32507325 .11898804 .3130951 .1349945 .3130951 .14399719 .3130951 .14498902 .31507875 .15499878 .32707215 .19799805 .38197328 .25898744 .3899536 .2939911 .3899536 .35398866 .3899536 .3809967 .34204103 .38598634 .33406068 .4039917 .30110169 .4099884 .26316834 .4099884 .20524597 .4099884 .17524719 .4099884 .116256717 .37998963 .07234192 .35499574 .03640747 .31199647 .012466431 .2630005 .012466431 .19799805 .012466431 .1309967 .04838562 .10598755 .11425781 .14399719 .11125183 .16299439 .13624573 .16299439 .16325379 .16299439 .20625305 .12599182 .21424866 .11299133 .21424866 .11299133 .21424866 .06298828 .21424866 .06298828 .1602478 .06298828 .07034302 .14498902-.01953125 .2649994-.01953125 .3929901-.019744873 .5049896 .07525635 .5049896 .20124817V.20095825Z"/>
<path id="font_1_101" d="M.5139923 .20445252C.5139923 .33145143 .41299439 .42546083 .29599 .42546083 .21598816 .42546083 .17199707 .37245179 .1499939 .3274536 .1499939 .40945436 .15699768 .48303224 .19499207 .543869 .22898865 .5978699 .2829895 .63505557 .34700013 .63505557 .3769989 .63505557 .4169922 .62701418 .43699647 .5998688 .4119873 .5978699 .3909912 .5808716 .3909912 .5518799 .3909912 .5268707 .4079895 .5048828 .43798829 .5048828 .46798707 .5048828 .48599244 .5248718 .48599244 .5538788 .48599244 .6119385 .44400025 .6640625 .34498597 .6640625 .20098877 .6640625 .053985597 .5318756 .053985597 .3174591 .053985597 .05845642 .17599488-.01953125 .28599549-.01953125 .4079895-.01953125 .5139923 .07345581 .5139923 .20445252M.41799928 .20445252C.41799928 .14746094 .41799928 .10545349 .3909912 .066467288 .36698915 .031463624 .33499146 .012466431 .28599549 .012466431 .23599243 .012466431 .19699097 .04145813 .17599488 .08546448 .16099549 .115448 .15299988 .16545105 .15299988 .22544861 .15299988 .32244874 .21099854 .39746095 .29100038 .39746095 .33699037 .39746095 .36799623 .37945558 .3929901 .342453 .4169922 .30445863 .41799928 .26245118 .41799928 .20445252Z"/>
<path id="font_1_100" d="M.54499819 .6435852H.2829895C.24299622 .6435852 .23199463 .6445923 .19599915 .6476135 .14399719 .6516266 .14199829 .65867617 .13899231 .67578127H.10499573L.069992069 .46173097H.10398865C.10598755 .47669984 .115997318 .54260256 .13198853 .55259707 .13999939 .55859377 .22099304 .55859377 .23599243 .55859377H.45399476L.34999085 .42678834C.21899414 .25505067 .20698548 .09628296 .20698548 .037368776 .20698548 .026397706 .20698548-.01953125 .2539978-.01953125 .3019867-.01953125 .3019867 .025390625 .3019867 .038375856V.078308109C.3019867 .27201844 .34199525 .36088563 .3849945 .41479493L.5349884 .6035919C.54499819 .6155853 .54499819 .6175842 .54499819 .6435852Z"/>
</defs>
<path transform="matrix(1.00003,0,0,-1.00002,2.0964967,228.57427)" d="M0 198.42766V226.77448H226.77448V198.42766ZM226.77448 226.77448" fill="#cbcbcb"/>
<path transform="matrix(1.00003,0,0,-1.00002,2.0964967,228.57427)" stroke-width=".3985" stroke-linecap="butt" stroke-miterlimit="10" stroke-linejoin="miter" fill="none" stroke="#000000" d="M0 198.42766V226.77448H226.77448V198.42766ZM226.77448 226.77448"/>
<path transform="matrix(1.00003,0,0,-1.00002,2.0964967,228.57427)" stroke-width=".3985" stroke-linecap="butt" stroke-miterlimit="10" stroke-linejoin="miter" fill="none" stroke="#000000" d="M0 0H226.77448M0 28.3468H226.77448M0 56.69362H226.77448M0 85.04042H226.77448M0 113.38724H226.77448M0 141.73404H226.77448M0 170.08086H226.77448M0 198.42766H226.77448M0 226.76451H226.77448M0 0V226.77448M28.3468 0V226.77448M56.69362 0V226.77448M85.04042 0V226.77448M113.38724 0V226.77448M141.73404 0V226.77448M170.08086 0V226.77448M198.42766 0V226.77448M226.76451 0V226.77448M226.77448 226.77448"/>
<path transform="matrix(1.00003,0,0,-1.00002,2.0964967,228.57427)" stroke-width=".3985" stroke-linecap="butt" stroke-miterlimit="10" stroke-linejoin="miter" fill="none" stroke="#000000" d="M0 0V226.77448H226.77448V0ZM226.77448 226.77448"/>
<path transform="matrix(1.00003,0,0,-1.00002,2.0964967,228.57427)" stroke-width=".3985" stroke-linecap="butt" stroke-miterlimit="10" stroke-linejoin="miter" fill="none" stroke="#000000" d="M14.17339 14.17339"/>
<use data-text="(" xlink:href="#font_1_85" transform="matrix(6.9740097,0,0,-6.97394,6.7226336,216.14801)"/>
<use data-text="0" xlink:href="#font_1_121" transform="matrix(6.9740097,0,0,-6.97394,9.833038,216.14801)"/>
<use data-text="," xlink:href="#font_1_45" transform="matrix(6.9740097,0,0,-6.97394,13.801254,216.14801)"/>
<use data-text="0" xlink:href="#font_1_121" transform="matrix(6.9740097,0,0,-6.97394,18.73188,216.14801)"/>
<use data-text=")" xlink:href="#font_1_86" transform="matrix(6.9740097,0,0,-6.97394,22.700097,216.14801)"/>
<path transform="matrix(1.00003,0,0,-1.00002,2.0964967,228.57427)" stroke-width=".3985" stroke-linecap="butt" stroke-miterlimit="10" stroke-linejoin="miter" fill="none" stroke="#000000" d="M14.17339 42.5202"/>
<use data-text="(" xlink:href="#font_1_85" transform="matrix(6.9740097,0,0,-6.97394,6.7226336,187.80045)"/>
<use data-text="0" xlink:href="#font_1_121" transform="matrix(6.9740097,0,0,-6.97394,9.833038,187.80045)"/>
<use data-text="," xlink:href="#font_1_45" transform="matrix(6.9740097,0,0,-6.97394,13.801254,187.80045)"/>
<use data-text="1" xlink:href="#font_1_82" transform="matrix(6.9740097,0,0,-6.97394,18.73188,187.80045)"/>
<use data-text=")" xlink:href="#font_1_86" transform="matrix(6.9740097,0,0,-6.97394,22.700097,187.80045)"/>
<path transform="matrix(1.00003,0,0,-1.00002,2.0964967,228.57427)" stroke-width=".3985" stroke-linecap="butt" stroke-miterlimit="10" stroke-linejoin="miter" fill="none" stroke="#000000" d="M14.17339 70.867"/>
<use data-text="(" xlink:href="#font_1_85" transform="matrix(6.9740097,0,0,-6.97394,6.7226336,159.45288)"/>
<use data-text="0" xlink:href="#font_1_121" transform="matrix(6.9740097,0,0,-6.97394,9.833038,159.45288)"/>
<use data-text="," xlink:href="#font_1_45" transform="matrix(6.9740097,0,0,-6.97394,13.801254,159.45288)"/>
<use data-text="2" xlink:href="#font_1_107" transform="matrix(6.9740097,0,0,-6.97394,18.73188,159.45288)"/>
<use data-text=")" xlink:href="#font_1_86" transform="matrix(6.9740097,0,0,-6.97394,22.700097,159.45288)"/>
<path transform="matrix(1.00003,0,0,-1.00002,2.0964967,228.57427)" stroke-width=".3985" stroke-linecap="butt" stroke-miterlimit="10" stroke-linejoin="miter" fill="none" stroke="#000000" d="M14.17339 99.21382"/>
<use data-text="(" xlink:href="#font_1_85" transform="matrix(6.9740097,0,0,-6.97394,6.7226336,131.10532)"/>
<use data-text="0" xlink:href="#font_1_121" transform="matrix(6.9740097,0,0,-6.97394,9.833038,131.10532)"/>
<use data-text="," xlink:href="#font_1_45" transform="matrix(6.9740097,0,0,-6.97394,13.801254,131.10532)"/>
<use data-text="3" xlink:href="#font_1_106" transform="matrix(6.9740097,0,0,-6.97394,18.73188,131.10532)"/>
<use data-text=")" xlink:href="#font_1_86" transform="matrix(6.9740097,0,0,-6.97394,22.700097,131.10532)"/>
<path transform="matrix(1.00003,0,0,-1.00002,2.0964967,228.57427)" stroke-width=".3985" stroke-linecap="butt" stroke-miterlimit="10" stroke-linejoin="miter" fill="none" stroke="#000000" d="M14.17339 127.56062"/>
<use data-text="(" xlink:href="#font_1_85" transform="matrix(6.9740097,0,0,-6.97394,6.7226336,102.757747)"/>
<use data-text="0" xlink:href="#font_1_121" transform="matrix(6.9740097,0,0,-6.97394,9.833038,102.757747)"/>
<use data-text="," xlink:href="#font_1_45" transform="matrix(6.9740097,0,0,-6.97394,13.801254,102.757747)"/>
<use data-text="4" xlink:href="#font_1_57" transform="matrix(6.9740097,0,0,-6.97394,18.73188,102.757747)"/>
<use data-text=")" xlink:href="#font_1_86" transform="matrix(6.9740097,0,0,-6.97394,22.700097,102.757747)"/>
<path transform="matrix(1.00003,0,0,-1.00002,2.0964967,228.57427)" stroke-width=".3985" stroke-linecap="butt" stroke-miterlimit="10" stroke-linejoin="miter" fill="none" stroke="#000000" d="M14.17339 155.90744"/>
<use data-text="(" xlink:href="#font_1_85" transform="matrix(6.9740097,0,0,-6.97394,6.7226336,74.41118)"/>
<use data-text="0" xlink:href="#font_1_121" transform="matrix(6.9740097,0,0,-6.97394,9.833038,74.41118)"/>
<use data-text="," xlink:href="#font_1_45" transform="matrix(6.9740097,0,0,-6.97394,13.801254,74.41118)"/>
<use data-text="5" xlink:href="#font_1_56" transform="matrix(6.9740097,0,0,-6.97394,18.73188,74.41118)"/>
<use data-text=")" xlink:href="#font_1_86" transform="matrix(6.9740097,0,0,-6.97394,22.700097,74.41118)"/>
<path transform="matrix(1.00003,0,0,-1.00002,2.0964967,228.57427)" stroke-width=".3985" stroke-linecap="butt" stroke-miterlimit="10" stroke-linejoin="miter" fill="none" stroke="#000000" d="M14.17339 184.25424"/>
<use data-text="(" xlink:href="#font_1_85" transform="matrix(6.9740097,0,0,-6.97394,6.7226336,46.0636)"/>
<use data-text="0" xlink:href="#font_1_121" transform="matrix(6.9740097,0,0,-6.97394,9.833038,46.0636)"/>
<use data-text="," xlink:href="#font_1_45" transform="matrix(6.9740097,0,0,-6.97394,13.801254,46.0636)"/>
<use data-text="6" xlink:href="#font_1_101" transform="matrix(6.9740097,0,0,-6.97394,18.73188,46.0636)"/>
<use data-text=")" xlink:href="#font_1_86" transform="matrix(6.9740097,0,0,-6.97394,22.700097,46.0636)"/>
<path transform="matrix(1.00003,0,0,-1.00002,2.0964967,228.57427)" stroke-width=".3985" stroke-linecap="butt" stroke-miterlimit="10" stroke-linejoin="miter" fill="none" stroke="#000000" d="M42.5202 14.17339"/>
<use data-text="(" xlink:href="#font_1_85" transform="matrix(6.9740097,0,0,-6.97394,35.070489,216.14801)"/>
<use data-text="1" xlink:href="#font_1_82" transform="matrix(6.9740097,0,0,-6.97394,38.180894,216.14801)"/>
<use data-text="," xlink:href="#font_1_45" transform="matrix(6.9740097,0,0,-6.97394,42.14911,216.14801)"/>
<use data-text="0" xlink:href="#font_1_121" transform="matrix(6.9740097,0,0,-6.97394,47.079736,216.14801)"/>
<use data-text=")" xlink:href="#font_1_86" transform="matrix(6.9740097,0,0,-6.97394,51.04795,216.14801)"/>
<path transform="matrix(1.00003,0,0,-1.00002,2.0964967,228.57427)" stroke-width=".3985" stroke-linecap="butt" stroke-miterlimit="10" stroke-linejoin="miter" fill="none" stroke="#000000" d="M42.5202 42.5202"/>
<use data-text="(" xlink:href="#font_1_85" transform="matrix(6.9740097,0,0,-6.97394,35.070489,187.80045)"/>
<use data-text="1" xlink:href="#font_1_82" transform="matrix(6.9740097,0,0,-6.97394,38.180894,187.80045)"/>
<use data-text="," xlink:href="#font_1_45" transform="matrix(6.9740097,0,0,-6.97394,42.14911,187.80045)"/>
<use data-text="1" xlink:href="#font_1_82" transform="matrix(6.9740097,0,0,-6.97394,47.079736,187.80045)"/>
<use data-text=")" xlink:href="#font_1_86" transform="matrix(6.9740097,0,0,-6.97394,51.04795,187.80045)"/>
<path transform="matrix(1.00003,0,0,-1.00002,2.0964967,228.57427)" stroke-width=".3985" stroke-linecap="butt" stroke-miterlimit="10" stroke-linejoin="miter" fill="none" stroke="#000000" d="M42.5202 70.867"/>
<use data-text="(" xlink:href="#font_1_85" transform="matrix(6.9740097,0,0,-6.97394,35.070489,159.45288)"/>
<use data-text="1" xlink:href="#font_1_82" transform="matrix(6.9740097,0,0,-6.97394,38.180894,159.45288)"/>
<use data-text="," xlink:href="#font_1_45" transform="matrix(6.9740097,0,0,-6.97394,42.14911,159.45288)"/>
<use data-text="2" xlink:href="#font_1_107" transform="matrix(6.9740097,0,0,-6.97394,47.079736,159.45288)"/>
<use data-text=")" xlink:href="#font_1_86" transform="matrix(6.9740097,0,0,-6.97394,51.04795,159.45288)"/>
<path transform="matrix(1.00003,0,0,-1.00002,2.0964967,228.57427)" stroke-width=".3985" stroke-linecap="butt" stroke-miterlimit="10" stroke-linejoin="miter" fill="none" stroke="#000000" d="M42.5202 99.21382"/>
<use data-text="(" xlink:href="#font_1_85" transform="matrix(6.9740097,0,0,-6.97394,35.070489,131.10532)"/>
<use data-text="1" xlink:href="#font_1_82" transform="matrix(6.9740097,0,0,-6.97394,38.180894,131.10532)"/>
<use data-text="," xlink:href="#font_1_45" transform="matrix(6.9740097,0,0,-6.97394,42.14911,131.10532)"/>
<use data-text="3" xlink:href="#font_1_106" transform="matrix(6.9740097,0,0,-6.97394,47.079736,131.10532)"/>
<use data-text=")" xlink:href="#font_1_86" transform="matrix(6.9740097,0,0,-6.97394,51.04795,131.10532)"/>
<path transform="matrix(1.00003,0,0,-1.00002,2.0964967,228.57427)" stroke-width=".3985" stroke-linecap="butt" stroke-miterlimit="10" stroke-linejoin="miter" fill="none" stroke="#000000" d="M42.5202 127.56062"/>
<use data-text="(" xlink:href="#font_1_85" transform="matrix(6.9740097,0,0,-6.97394,35.070489,102.757747)"/>
<use data-text="1" xlink:href="#font_1_82" transform="matrix(6.9740097,0,0,-6.97394,38.180894,102.757747)"/>
<use data-text="," xlink:href="#font_1_45" transform="matrix(6.9740097,0,0,-6.97394,42.14911,102.757747)"/>
<use data-text="4" xlink:href="#font_1_57" transform="matrix(6.9740097,0,0,-6.97394,47.079736,102.757747)"/>
<use data-text=")" xlink:href="#font_1_86" transform="matrix(6.9740097,0,0,-6.97394,51.04795,102.757747)"/>
<path transform="matrix(1.00003,0,0,-1.00002,2.0964967,228.57427)" stroke-width=".3985" stroke-linecap="butt" stroke-miterlimit="10" stroke-linejoin="miter" fill="none" stroke="#000000" d="M42.5202 155.90744"/>
<use data-text="(" xlink:href="#font_1_85" transform="matrix(6.9740097,0,0,-6.97394,35.070489,74.41118)"/>
<use data-text="1" xlink:href="#font_1_82" transform="matrix(6.9740097,0,0,-6.97394,38.180894,74.41118)"/>
<use data-text="," xlink:href="#font_1_45" transform="matrix(6.9740097,0,0,-6.97394,42.14911,74.41118)"/>
<use data-text="5" xlink:href="#font_1_56" transform="matrix(6.9740097,0,0,-6.97394,47.079736,74.41118)"/>
<use data-text=")" xlink:href="#font_1_86" transform="matrix(6.9740097,0,0,-6.97394,51.04795,74.41118)"/>
<path transform="matrix(1.00003,0,0,-1.00002,2.0964967,228.57427)" stroke-width=".3985" stroke-linecap="butt" stroke-miterlimit="10" stroke-linejoin="miter" fill="none" stroke="#000000" d="M42.5202 184.25424"/>
<use data-text="(" xlink:href="#font_1_85" transform="matrix(6.9740097,0,0,-6.97394,35.070489,46.0636)"/>
<use data-text="1" xlink:href="#font_1_82" transform="matrix(6.9740097,0,0,-6.97394,38.180894,46.0636)"/>
<use data-text="," xlink:href="#font_1_45" transform="matrix(6.9740097,0,0,-6.97394,42.14911,46.0636)"/>
<use data-text="6" xlink:href="#font_1_101" transform="matrix(6.9740097,0,0,-6.97394,47.079736,46.0636)"/>
<use data-text=")" xlink:href="#font_1_86" transform="matrix(6.9740097,0,0,-6.97394,51.04795,46.0636)"/>
<path transform="matrix(1.00003,0,0,-1.00002,2.0964967,228.57427)" stroke-width=".3985" stroke-linecap="butt" stroke-miterlimit="10" stroke-linejoin="miter" fill="none" stroke="#000000" d="M70.867 14.17339"/>
<use data-text="(" xlink:href="#font_1_85" transform="matrix(6.9740097,0,0,-6.97394,63.41834,216.14801)"/>
<use data-text="2" xlink:href="#font_1_107" transform="matrix(6.9740097,0,0,-6.97394,66.52875,216.14801)"/>
<use data-text="," xlink:href="#font_1_45" transform="matrix(6.9740097,0,0,-6.97394,70.49696,216.14801)"/>
<use data-text="0" xlink:href="#font_1_121" transform="matrix(6.9740097,0,0,-6.97394,75.42758,216.14801)"/>
<use data-text=")" xlink:href="#font_1_86" transform="matrix(6.9740097,0,0,-6.97394,79.3958,216.14801)"/>
<path transform="matrix(1.00003,0,0,-1.00002,2.0964967,228.57427)" stroke-width=".3985" stroke-linecap="butt" stroke-miterlimit="10" stroke-linejoin="miter" fill="none" stroke="#000000" d="M70.867 42.5202"/>
<use data-text="(" xlink:href="#font_1_85" transform="matrix(6.9740097,0,0,-6.97394,63.41834,187.80045)"/>
<use data-text="2" xlink:href="#font_1_107" transform="matrix(6.9740097,0,0,-6.97394,66.52875,187.80045)"/>
<use data-text="," xlink:href="#font_1_45" transform="matrix(6.9740097,0,0,-6.97394,70.49696,187.80045)"/>
<use data-text="1" xlink:href="#font_1_82" transform="matrix(6.9740097,0,0,-6.97394,75.42758,187.80045)"/>
<use data-text=")" xlink:href="#font_1_86" transform="matrix(6.9740097,0,0,-6.97394,79.3958,187.80045)"/>
<path transform="matrix(1.00003,0,0,-1.00002,2.0964967,228.57427)" stroke-width=".3985" stroke-linecap="butt" stroke-miterlimit="10" stroke-linejoin="miter" fill="none" stroke="#000000" d="M70.867 70.867"/>
<use data-text="(" xlink:href="#font_1_85" transform="matrix(6.9740097,0,0,-6.97394,63.41834,159.45288)"/>
<use data-text="2" xlink:href="#font_1_107" transform="matrix(6.9740097,0,0,-6.97394,66.52875,159.45288)"/>
<use data-text="," xlink:href="#font_1_45" transform="matrix(6.9740097,0,0,-6.97394,70.49696,159.45288)"/>
<use data-text="2" xlink:href="#font_1_107" transform="matrix(6.9740097,0,0,-6.97394,75.42758,159.45288)"/>
<use data-text=")" xlink:href="#font_1_86" transform="matrix(6.9740097,0,0,-6.97394,79.3958,159.45288)"/>
<path transform="matrix(1.00003,0,0,-1.00002,2.0964967,228.57427)" stroke-width=".3985" stroke-linecap="butt" stroke-miterlimit="10" stroke-linejoin="miter" fill="none" stroke="#000000" d="M70.867 99.21382"/>
<use data-text="(" xlink:href="#font_1_85" transform="matrix(6.9740097,0,0,-6.97394,63.41834,131.10532)"/>
<use data-text="2" xlink:href="#font_1_107" transform="matrix(6.9740097,0,0,-6.97394,66.52875,131.10532)"/>
<use data-text="," xlink:href="#font_1_45" transform="matrix(6.9740097,0,0,-6.97394,70.49696,131.10532)"/>
<use data-text="3" xlink:href="#font_1_106" transform="matrix(6.9740097,0,0,-6.97394,75.42758,131.10532)"/>
<use data-text=")" xlink:href="#font_1_86" transform="matrix(6.9740097,0,0,-6.97394,79.3958,131.10532)"/>
<path transform="matrix(1.00003,0,0,-1.00002,2.0964967,228.57427)" stroke-width=".3985" stroke-linecap="butt" stroke-miterlimit="10" stroke-linejoin="miter" fill="none" stroke="#000000" d="M70.867 127.56062"/>
<use data-text="(" xlink:href="#font_1_85" transform="matrix(6.9740097,0,0,-6.97394,63.41834,102.757747)"/>
<use data-text="2" xlink:href="#font_1_107" transform="matrix(6.9740097,0,0,-6.97394,66.52875,102.757747)"/>
<use data-text="," xlink:href="#font_1_45" transform="matrix(6.9740097,0,0,-6.97394,70.49696,102.757747)"/>
<use data-text="4" xlink:href="#font_1_57" transform="matrix(6.9740097,0,0,-6.97394,75.42758,102.757747)"/>
<use data-text=")" xlink:href="#font_1_86" transform="matrix(6.9740097,0,0,-6.97394,79.3958,102.757747)"/>
<path transform="matrix(1.00003,0,0,-1.00002,2.0964967,228.57427)" stroke-width=".3985" stroke-linecap="butt" stroke-miterlimit="10" stroke-linejoin="miter" fill="none" stroke="#000000" d="M70.867 155.90744"/>
<use data-text="(" xlink:href="#font_1_85" transform="matrix(6.9740097,0,0,-6.97394,63.41834,74.41118)"/>
<use data-text="2" xlink:href="#font_1_107" transform="matrix(6.9740097,0,0,-6.97394,66.52875,74.41118)"/>
<use data-text="," xlink:href="#font_1_45" transform="matrix(6.9740097,0,0,-6.97394,70.49696,74.41118)"/>
<use data-text="5" xlink:href="#font_1_56" transform="matrix(6.9740097,0,0,-6.97394,75.42758,74.41118)"/>
<use data-text=")" xlink:href="#font_1_86" transform="matrix(6.9740097,0,0,-6.97394,79.3958,74.41118)"/>
<path transform="matrix(1.00003,0,0,-1.00002,2.0964967,228.57427)" stroke-width=".3985" stroke-linecap="butt" stroke-miterlimit="10" stroke-linejoin="miter" fill="none" stroke="#000000" d="M70.867 184.25424"/>
<use data-text="(" xlink:href="#font_1_85" transform="matrix(6.9740097,0,0,-6.97394,63.41834,46.0636)"/>
<use data-text="2" xlink:href="#font_1_107" transform="matrix(6.9740097,0,0,-6.97394,66.52875,46.0636)"/>
<use data-text="," xlink:href="#font_1_45" transform="matrix(6.9740097,0,0,-6.97394,70.49696,46.0636)"/>
<use data-text="6" xlink:href="#font_1_101" transform="matrix(6.9740097,0,0,-6.97394,75.42758,46.0636)"/>
<use data-text=")" xlink:href="#font_1_86" transform="matrix(6.9740097,0,0,-6.97394,79.3958,46.0636)"/>
<path transform="matrix(1.00003,0,0,-1.00002,2.0964967,228.57427)" stroke-width=".3985" stroke-linecap="butt" stroke-miterlimit="10" stroke-linejoin="miter" fill="none" stroke="#000000" d="M99.21382 14.17339"/>
<use data-text="(" xlink:href="#font_1_85" transform="matrix(6.9740097,0,0,-6.97394,91.76519,216.14801)"/>
<use data-text="3" xlink:href="#font_1_106" transform="matrix(6.9740097,0,0,-6.97394,94.875598,216.14801)"/>
<use data-text="," xlink:href="#font_1_45" transform="matrix(6.9740097,0,0,-6.97394,98.84381,216.14801)"/>
<use data-text="0" xlink:href="#font_1_121" transform="matrix(6.9740097,0,0,-6.97394,103.77444,216.14801)"/>
<use data-text=")" xlink:href="#font_1_86" transform="matrix(6.9740097,0,0,-6.97394,107.74265,216.14801)"/>
<path transform="matrix(1.00003,0,0,-1.00002,2.0964967,228.57427)" stroke-width=".3985" stroke-linecap="butt" stroke-miterlimit="10" stroke-linejoin="miter" fill="none" stroke="#000000" d="M99.21382 42.5202"/>
<use data-text="(" xlink:href="#font_1_85" transform="matrix(6.9740097,0,0,-6.97394,91.76519,187.80045)"/>
<use data-text="3" xlink:href="#font_1_106" transform="matrix(6.9740097,0,0,-6.97394,94.875598,187.80045)"/>
<use data-text="," xlink:href="#font_1_45" transform="matrix(6.9740097,0,0,-6.97394,98.84381,187.80045)"/>
<use data-text="1" xlink:href="#font_1_82" transform="matrix(6.9740097,0,0,-6.97394,103.77444,187.80045)"/>
<use data-text=")" xlink:href="#font_1_86" transform="matrix(6.9740097,0,0,-6.97394,107.74265,187.80045)"/>
<path transform="matrix(1.00003,0,0,-1.00002,2.0964967,228.57427)" stroke-width=".3985" stroke-linecap="butt" stroke-miterlimit="10" stroke-linejoin="miter" fill="none" stroke="#000000" d="M99.21382 70.867"/>
<use data-text="(" xlink:href="#font_1_85" transform="matrix(6.9740097,0,0,-6.97394,91.76519,159.45288)"/>
<use data-text="3" xlink:href="#font_1_106" transform="matrix(6.9740097,0,0,-6.97394,94.875598,159.45288)"/>
<use data-text="," xlink:href="#font_1_45" transform="matrix(6.9740097,0,0,-6.97394,98.84381,159.45288)"/>
<use data-text="2" xlink:href="#font_1_107" transform="matrix(6.9740097,0,0,-6.97394,103.77444,159.45288)"/>
<use data-text=")" xlink:href="#font_1_86" transform="matrix(6.9740097,0,0,-6.97394,107.74265,159.45288)"/>
<path transform="matrix(1.00003,0,0,-1.00002,2.0964967,228.57427)" stroke-width=".3985" stroke-linecap="butt" stroke-miterlimit="10" stroke-linejoin="miter" fill="none" stroke="#000000" d="M99.21382 99.21382"/>
<use data-text="(" xlink:href="#font_1_85" transform="matrix(6.9740097,0,0,-6.97394,91.76519,131.10532)"/>
<use data-text="3" xlink:href="#font_1_106" transform="matrix(6.9740097,0,0,-6.97394,94.875598,131.10532)"/>
<use data-text="," xlink:href="#font_1_45" transform="matrix(6.9740097,0,0,-6.97394,98.84381,131.10532)"/>
<use data-text="3" xlink:href="#font_1_106" transform="matrix(6.9740097,0,0,-6.97394,103.77444,131.10532)"/>
<use data-text=")" xlink:href="#font_1_86" transform="matrix(6.9740097,0,0,-6.97394,107.74265,131.10532)"/>
<path transform="matrix(1.00003,0,0,-1.00002,2.0964967,228.57427)" stroke-width=".3985" stroke-linecap="butt" stroke-miterlimit="10" stroke-linejoin="miter" fill="none" stroke="#000000" d="M99.21382 127.56062"/>
<use data-text="(" xlink:href="#font_1_85" transform="matrix(6.9740097,0,0,-6.97394,91.76519,102.757747)"/>
<use data-text="3" xlink:href="#font_1_106" transform="matrix(6.9740097,0,0,-6.97394,94.875598,102.757747)"/>
<use data-text="," xlink:href="#font_1_45" transform="matrix(6.9740097,0,0,-6.97394,98.84381,102.757747)"/>
<use data-text="4" xlink:href="#font_1_57" transform="matrix(6.9740097,0,0,-6.97394,103.77444,102.757747)"/>
<use data-text=")" xlink:href="#font_1_86" transform="matrix(6.9740097,0,0,-6.97394,107.74265,102.757747)"/>
<path transform="matrix(1.00003,0,0,-1.00002,2.0964967,228.57427)" stroke-width=".3985" stroke-linecap="butt" stroke-miterlimit="10" stroke-linejoin="miter" fill="none" stroke="#000000" d="M99.21382 155.90744"/>
<use data-text="(" xlink:href="#font_1_85" transform="matrix(6.9740097,0,0,-6.97394,91.76519,74.41118)"/>
<use data-text="3" xlink:href="#font_1_106" transform="matrix(6.9740097,0,0,-6.97394,94.875598,74.41118)"/>
<use data-text="," xlink:href="#font_1_45" transform="matrix(6.9740097,0,0,-6.97394,98.84381,74.41118)"/>
<use data-text="5" xlink:href="#font_1_56" transform="matrix(6.9740097,0,0,-6.97394,103.77444,74.41118)"/>
<use data-text=")" xlink:href="#font_1_86" transform="matrix(6.9740097,0,0,-6.97394,107.74265,74.41118)"/>
<path transform="matrix(1.00003,0,0,-1.00002,2.0964967,228.57427)" stroke-width=".3985" stroke-linecap="butt" stroke-miterlimit="10" stroke-linejoin="miter" fill="none" stroke="#000000" d="M99.21382 184.25424"/>
<use data-text="(" xlink:href="#font_1_85" transform="matrix(6.9740097,0,0,-6.97394,91.76519,46.0636)"/>
<use data-text="3" xlink:href="#font_1_106" transform="matrix(6.9740097,0,0,-6.97394,94.875598,46.0636)"/>
<use data-text="," xlink:href="#font_1_45" transform="matrix(6.9740097,0,0,-6.97394,98.84381,46.0636)"/>
<use data-text="6" xlink:href="#font_1_101" transform="matrix(6.9740097,0,0,-6.97394,103.77444,46.0636)"/>
<use data-text=")" xlink:href="#font_1_86" transform="matrix(6.9740097,0,0,-6.97394,107.74265,46.0636)"/>
<path transform="matrix(1.00003,0,0,-1.00002,2.0964967,228.57427)" stroke-width=".3985" stroke-linecap="butt" stroke-miterlimit="10" stroke-linejoin="miter" fill="none" stroke="#000000" d="M127.56062 14.17339"/>
<use data-text="(" xlink:href="#font_1_85" transform="matrix(6.9740097,0,0,-6.97394,120.113048,216.14801)"/>
<use data-text="4" xlink:href="#font_1_57" transform="matrix(6.9740097,0,0,-6.97394,123.22345,216.14801)"/>
<use data-text="," xlink:href="#font_1_45" transform="matrix(6.9740097,0,0,-6.97394,127.191669,216.14801)"/>
<use data-text="0" xlink:href="#font_1_121" transform="matrix(6.9740097,0,0,-6.97394,132.12229,216.14801)"/>
<use data-text=")" xlink:href="#font_1_86" transform="matrix(6.9740097,0,0,-6.97394,136.09052,216.14801)"/>
<path transform="matrix(1.00003,0,0,-1.00002,2.0964967,228.57427)" stroke-width=".3985" stroke-linecap="butt" stroke-miterlimit="10" stroke-linejoin="miter" fill="none" stroke="#000000" d="M127.56062 42.5202"/>
<use data-text="(" xlink:href="#font_1_85" transform="matrix(6.9740097,0,0,-6.97394,120.113048,187.80045)"/>
<use data-text="4" xlink:href="#font_1_57" transform="matrix(6.9740097,0,0,-6.97394,123.22345,187.80045)"/>
<use data-text="," xlink:href="#font_1_45" transform="matrix(6.9740097,0,0,-6.97394,127.191669,187.80045)"/>
<use data-text="1" xlink:href="#font_1_82" transform="matrix(6.9740097,0,0,-6.97394,132.12229,187.80045)"/>
<use data-text=")" xlink:href="#font_1_86" transform="matrix(6.9740097,0,0,-6.97394,136.09052,187.80045)"/>
<path transform="matrix(1.00003,0,0,-1.00002,2.0964967,228.57427)" stroke-width=".3985" stroke-linecap="butt" stroke-miterlimit="10" stroke-linejoin="miter" fill="none" stroke="#000000" d="M127.56062 70.867"/>
<use data-text="(" xlink:href="#font_1_85" transform="matrix(6.9740097,0,0,-6.97394,120.113048,159.45288)"/>
<use data-text="4" xlink:href="#font_1_57" transform="matrix(6.9740097,0,0,-6.97394,123.22345,159.45288)"/>
<use data-text="," xlink:href="#font_1_45" transform="matrix(6.9740097,0,0,-6.97394,127.191669,159.45288)"/>
<use data-text="2" xlink:href="#font_1_107" transform="matrix(6.9740097,0,0,-6.97394,132.12229,159.45288)"/>
<use data-text=")" xlink:href="#font_1_86" transform="matrix(6.9740097,0,0,-6.97394,136.09052,159.45288)"/>
<path transform="matrix(1.00003,0,0,-1.00002,2.0964967,228.57427)" stroke-width=".3985" stroke-linecap="butt" stroke-miterlimit="10" stroke-linejoin="miter" fill="none" stroke="#000000" d="M127.56062 99.21382"/>
<use data-text="(" xlink:href="#font_1_85" transform="matrix(6.9740097,0,0,-6.97394,120.113048,131.10532)"/>
<use data-text="4" xlink:href="#font_1_57" transform="matrix(6.9740097,0,0,-6.97394,123.22345,131.10532)"/>
<use data-text="," xlink:href="#font_1_45" transform="matrix(6.9740097,0,0,-6.97394,127.191669,131.10532)"/>
<use data-text="3" xlink:href="#font_1_106" transform="matrix(6.9740097,0,0,-6.97394,132.12229,131.10532)"/>
<use data-text=")" xlink:href="#font_1_86" transform="matrix(6.9740097,0,0,-6.97394,136.09052,131.10532)"/>
<path transform="matrix(1.00003,0,0,-1.00002,2.0964967,228.57427)" stroke-width=".3985" stroke-linecap="butt" stroke-miterlimit="10" stroke-linejoin="miter" fill="none" stroke="#000000" d="M127.56062 127.56062"/>
<use data-text="(" xlink:href="#font_1_85" transform="matrix(6.9740097,0,0,-6.97394,120.113048,102.757747)"/>
<use data-text="4" xlink:href="#font_1_57" transform="matrix(6.9740097,0,0,-6.97394,123.22345,102.757747)"/>
<use data-text="," xlink:href="#font_1_45" transform="matrix(6.9740097,0,0,-6.97394,127.191669,102.757747)"/>
<use data-text="4" xlink:href="#font_1_57" transform="matrix(6.9740097,0,0,-6.97394,132.12229,102.757747)"/>
<use data-text=")" xlink:href="#font_1_86" transform="matrix(6.9740097,0,0,-6.97394,136.09052,102.757747)"/>
<path transform="matrix(1.00003,0,0,-1.00002,2.0964967,228.57427)" stroke-width=".3985" stroke-linecap="butt" stroke-miterlimit="10" stroke-linejoin="miter" fill="none" stroke="#000000" d="M127.56062 155.90744"/>
<use data-text="(" xlink:href="#font_1_85" transform="matrix(6.9740097,0,0,-6.97394,120.113048,74.41118)"/>
<use data-text="4" xlink:href="#font_1_57" transform="matrix(6.9740097,0,0,-6.97394,123.22345,74.41118)"/>
<use data-text="," xlink:href="#font_1_45" transform="matrix(6.9740097,0,0,-6.97394,127.191669,74.41118)"/>
<use data-text="5" xlink:href="#font_1_56" transform="matrix(6.9740097,0,0,-6.97394,132.12229,74.41118)"/>
<use data-text=")" xlink:href="#font_1_86" transform="matrix(6.9740097,0,0,-6.97394,136.09052,74.41118)"/>
<path transform="matrix(1.00003,0,0,-1.00002,2.0964967,228.57427)" stroke-width=".3985" stroke-linecap="butt" stroke-miterlimit="10" stroke-linejoin="miter" fill="none" stroke="#000000" d="M127.56062 184.25424"/>
<use data-text="(" xlink:href="#font_1_85" transform="matrix(6.9740097,0,0,-6.97394,120.113048,46.0636)"/>
<use data-text="4" xlink:href="#font_1_57" transform="matrix(6.9740097,0,0,-6.97394,123.22345,46.0636)"/>
<use data-text="," xlink:href="#font_1_45" transform="matrix(6.9740097,0,0,-6.97394,127.191669,46.0636)"/>
<use data-text="6" xlink:href="#font_1_101" transform="matrix(6.9740097,0,0,-6.97394,132.12229,46.0636)"/>
<use data-text=")" xlink:href="#font_1_86" transform="matrix(6.9740097,0,0,-6.97394,136.09052,46.0636)"/>
<path transform="matrix(1.00003,0,0,-1.00002,2.0964967,228.57427)" stroke-width=".3985" stroke-linecap="butt" stroke-miterlimit="10" stroke-linejoin="miter" fill="none" stroke="#000000" d="M155.90744 14.17339"/>
<use data-text="(" xlink:href="#font_1_85" transform="matrix(6.9740097,0,0,-6.97394,148.46089,216.14801)"/>
<use data-text="5" xlink:href="#font_1_56" transform="matrix(6.9740097,0,0,-6.97394,151.57129,216.14801)"/>
<use data-text="," xlink:href="#font_1_45" transform="matrix(6.9740097,0,0,-6.97394,155.53952,216.14801)"/>
<use data-text="0" xlink:href="#font_1_121" transform="matrix(6.9740097,0,0,-6.97394,160.47014,216.14801)"/>
<use data-text=")" xlink:href="#font_1_86" transform="matrix(6.9740097,0,0,-6.97394,164.43836,216.14801)"/>
<path transform="matrix(1.00003,0,0,-1.00002,2.0964967,228.57427)" stroke-width=".3985" stroke-linecap="butt" stroke-miterlimit="10" stroke-linejoin="miter" fill="none" stroke="#000000" d="M155.90744 42.5202"/>
<use data-text="(" xlink:href="#font_1_85" transform="matrix(6.9740097,0,0,-6.97394,148.46089,187.80045)"/>
<use data-text="5" xlink:href="#font_1_56" transform="matrix(6.9740097,0,0,-6.97394,151.57129,187.80045)"/>
<use data-text="," xlink:href="#font_1_45" transform="matrix(6.9740097,0,0,-6.97394,155.53952,187.80045)"/>
<use data-text="1" xlink:href="#font_1_82" transform="matrix(6.9740097,0,0,-6.97394,160.47014,187.80045)"/>
<use data-text=")" xlink:href="#font_1_86" transform="matrix(6.9740097,0,0,-6.97394,164.43836,187.80045)"/>
<path transform="matrix(1.00003,0,0,-1.00002,2.0964967,228.57427)" stroke-width=".3985" stroke-linecap="butt" stroke-miterlimit="10" stroke-linejoin="miter" fill="none" stroke="#000000" d="M155.90744 70.867"/>
<use data-text="(" xlink:href="#font_1_85" transform="matrix(6.9740097,0,0,-6.97394,148.46089,159.45288)"/>
<use data-text="5" xlink:href="#font_1_56" transform="matrix(6.9740097,0,0,-6.97394,151.57129,159.45288)"/>
<use data-text="," xlink:href="#font_1_45" transform="matrix(6.9740097,0,0,-6.97394,155.53952,159.45288)"/>
<use data-text="2" xlink:href="#font_1_107" transform="matrix(6.9740097,0,0,-6.97394,160.47014,159.45288)"/>
<use data-text=")" xlink:href="#font_1_86" transform="matrix(6.9740097,0,0,-6.97394,164.43836,159.45288)"/>
<path transform="matrix(1.00003,0,0,-1.00002,2.0964967,228.57427)" stroke-width=".3985" stroke-linecap="butt" stroke-miterlimit="10" stroke-linejoin="miter" fill="none" stroke="#000000" d="M155.90744 99.21382"/>
<use data-text="(" xlink:href="#font_1_85" transform="matrix(6.9740097,0,0,-6.97394,148.46089,131.10532)"/>
<use data-text="5" xlink:href="#font_1_56" transform="matrix(6.9740097,0,0,-6.97394,151.57129,131.10532)"/>
<use data-text="," xlink:href="#font_1_45" transform="matrix(6.9740097,0,0,-6.97394,155.53952,131.10532)"/>
<use data-text="3" xlink:href="#font_1_106" transform="matrix(6.9740097,0,0,-6.97394,160.47014,131.10532)"/>
<use data-text=")" xlink:href="#font_1_86" transform="matrix(6.9740097,0,0,-6.97394,164.43836,131.10532)"/>
<path transform="matrix(1.00003,0,0,-1.00002,2.0964967,228.57427)" stroke-width=".3985" stroke-linecap="butt" stroke-miterlimit="10" stroke-linejoin="miter" fill="none" stroke="#000000" d="M155.90744 127.56062"/>
<use data-text="(" xlink:href="#font_1_85" transform="matrix(6.9740097,0,0,-6.97394,148.46089,102.757747)"/>
<use data-text="5" xlink:href="#font_1_56" transform="matrix(6.9740097,0,0,-6.97394,151.57129,102.757747)"/>
<use data-text="," xlink:href="#font_1_45" transform="matrix(6.9740097,0,0,-6.97394,155.53952,102.757747)"/>
<use data-text="4" xlink:href="#font_1_57" transform="matrix(6.9740097,0,0,-6.97394,160.47014,102.757747)"/>
<use data-text=")" xlink:href="#font_1_86" transform="matrix(6.9740097,0,0,-6.97394,164.43836,102.757747)"/>
<path transform="matrix(1.00003,0,0,-1.00002,2.0964967,228.57427)" stroke-width=".3985" stroke-linecap="butt" stroke-miterlimit="10" stroke-linejoin="miter" fill="none" stroke="#000000" d="M155.90744 155.90744"/>
<use data-text="(" xlink:href="#font_1_85" transform="matrix(6.9740097,0,0,-6.97394,148.46089,74.41118)"/>
<use data-text="5" xlink:href="#font_1_56" transform="matrix(6.9740097,0,0,-6.97394,151.57129,74.41118)"/>
<use data-text="," xlink:href="#font_1_45" transform="matrix(6.9740097,0,0,-6.97394,155.53952,74.41118)"/>
<use data-text="5" xlink:href="#font_1_56" transform="matrix(6.9740097,0,0,-6.97394,160.47014,74.41118)"/>
<use data-text=")" xlink:href="#font_1_86" transform="matrix(6.9740097,0,0,-6.97394,164.43836,74.41118)"/>
<path transform="matrix(1.00003,0,0,-1.00002,2.0964967,228.57427)" stroke-width=".3985" stroke-linecap="butt" stroke-miterlimit="10" stroke-linejoin="miter" fill="none" stroke="#000000" d="M155.90744 184.25424"/>
<use data-text="(" xlink:href="#font_1_85" transform="matrix(6.9740097,0,0,-6.97394,148.46089,46.0636)"/>
<use data-text="5" xlink:href="#font_1_56" transform="matrix(6.9740097,0,0,-6.97394,151.57129,46.0636)"/>
<use data-text="," xlink:href="#font_1_45" transform="matrix(6.9740097,0,0,-6.97394,155.53952,46.0636)"/>
<use data-text="6" xlink:href="#font_1_101" transform="matrix(6.9740097,0,0,-6.97394,160.47014,46.0636)"/>
<use data-text=")" xlink:href="#font_1_86" transform="matrix(6.9740097,0,0,-6.97394,164.43836,46.0636)"/>
<path transform="matrix(1.00003,0,0,-1.00002,2.0964967,228.57427)" stroke-width=".3985" stroke-linecap="butt" stroke-miterlimit="10" stroke-linejoin="miter" fill="none" stroke="#000000" d="M184.25424 14.17339"/>
<use data-text="(" xlink:href="#font_1_85" transform="matrix(6.9740097,0,0,-6.97394,176.80875,216.14801)"/>
<use data-text="6" xlink:href="#font_1_101" transform="matrix(6.9740097,0,0,-6.97394,179.91916,216.14801)"/>
<use data-text="," xlink:href="#font_1_45" transform="matrix(6.9740097,0,0,-6.97394,183.88736,216.14801)"/>
<use data-text="0" xlink:href="#font_1_121" transform="matrix(6.9740097,0,0,-6.97394,188.818,216.14801)"/>
<use data-text=")" xlink:href="#font_1_86" transform="matrix(6.9740097,0,0,-6.97394,192.78621,216.14801)"/>
<path transform="matrix(1.00003,0,0,-1.00002,2.0964967,228.57427)" stroke-width=".3985" stroke-linecap="butt" stroke-miterlimit="10" stroke-linejoin="miter" fill="none" stroke="#000000" d="M184.25424 42.5202"/>
<use data-text="(" xlink:href="#font_1_85" transform="matrix(6.9740097,0,0,-6.97394,176.80875,187.80045)"/>
<use data-text="6" xlink:href="#font_1_101" transform="matrix(6.9740097,0,0,-6.97394,179.91916,187.80045)"/>
<use data-text="," xlink:href="#font_1_45" transform="matrix(6.9740097,0,0,-6.97394,183.88736,187.80045)"/>
<use data-text="1" xlink:href="#font_1_82" transform="matrix(6.9740097,0,0,-6.97394,188.818,187.80045)"/>
<use data-text=")" xlink:href="#font_1_86" transform="matrix(6.9740097,0,0,-6.97394,192.78621,187.80045)"/>
<path transform="matrix(1.00003,0,0,-1.00002,2.0964967,228.57427)" stroke-width=".3985" stroke-linecap="butt" stroke-miterlimit="10" stroke-linejoin="miter" fill="none" stroke="#000000" d="M184.25424 70.867"/>
<use data-text="(" xlink:href="#font_1_85" transform="matrix(6.9740097,0,0,-6.97394,176.80875,159.45288)"/>
<use data-text="6" xlink:href="#font_1_101" transform="matrix(6.9740097,0,0,-6.97394,179.91916,159.45288)"/>
<use data-text="," xlink:href="#font_1_45" transform="matrix(6.9740097,0,0,-6.97394,183.88736,159.45288)"/>
<use data-text="2" xlink:href="#font_1_107" transform="matrix(6.9740097,0,0,-6.97394,188.818,159.45288)"/>
<use data-text=")" xlink:href="#font_1_86" transform="matrix(6.9740097,0,0,-6.97394,192.78621,159.45288)"/>
<path transform="matrix(1.00003,0,0,-1.00002,2.0964967,228.57427)" stroke-width=".3985" stroke-linecap="butt" stroke-miterlimit="10" stroke-linejoin="miter" fill="none" stroke="#000000" d="M184.25424 99.21382"/>
<use data-text="(" xlink:href="#font_1_85" transform="matrix(6.9740097,0,0,-6.97394,176.80875,131.10532)"/>
<use data-text="6" xlink:href="#font_1_101" transform="matrix(6.9740097,0,0,-6.97394,179.91916,131.10532)"/>
<use data-text="," xlink:href="#font_1_45" transform="matrix(6.9740097,0,0,-6.97394,183.88736,131.10532)"/>
<use data-text="3" xlink:href="#font_1_106" transform="matrix(6.9740097,0,0,-6.97394,188.818,131.10532)"/>
<use data-text=")" xlink:href="#font_1_86" transform="matrix(6.9740097,0,0,-6.97394,192.78621,131.10532)"/>
<path transform="matrix(1.00003,0,0,-1.00002,2.0964967,228.57427)" stroke-width=".3985" stroke-linecap="butt" stroke-miterlimit="10" stroke-linejoin="miter" fill="none" stroke="#000000" d="M184.25424 127.56062"/>
<use data-text="(" xlink:href="#font_1_85" transform="matrix(6.9740097,0,0,-6.97394,176.80875,102.757747)"/>
<use data-text="6" xlink:href="#font_1_101" transform="matrix(6.9740097,0,0,-6.97394,179.91916,102.757747)"/>
<use data-text="," xlink:href="#font_1_45" transform="matrix(6.9740097,0,0,-6.97394,183.88736,102.757747)"/>
<use data-text="4" xlink:href="#font_1_57" transform="matrix(6.9740097,0,0,-6.97394,188.818,102.757747)"/>
<use data-text=")" xlink:href="#font_1_86" transform="matrix(6.9740097,0,0,-6.97394,192.78621,102.757747)"/>
<path transform="matrix(1.00003,0,0,-1.00002,2.0964967,228.57427)" stroke-width=".3985" stroke-linecap="butt" stroke-miterlimit="10" stroke-linejoin="miter" fill="none" stroke="#000000" d="M184.25424 155.90744"/>
<use data-text="(" xlink:href="#font_1_85" transform="matrix(6.9740097,0,0,-6.97394,176.80875,74.41118)"/>
<use data-text="6" xlink:href="#font_1_101" transform="matrix(6.9740097,0,0,-6.97394,179.91916,74.41118)"/>
<use data-text="," xlink:href="#font_1_45" transform="matrix(6.9740097,0,0,-6.97394,183.88736,74.41118)"/>
<use data-text="5" xlink:href="#font_1_56" transform="matrix(6.9740097,0,0,-6.97394,188.818,74.41118)"/>
<use data-text=")" xlink:href="#font_1_86" transform="matrix(6.9740097,0,0,-6.97394,192.78621,74.41118)"/>
<path transform="matrix(1.00003,0,0,-1.00002,2.0964967,228.57427)" stroke-width=".3985" stroke-linecap="butt" stroke-miterlimit="10" stroke-linejoin="miter" fill="none" stroke="#000000" d="M184.25424 184.25424"/>
<use data-text="(" xlink:href="#font_1_85" transform="matrix(6.9740097,0,0,-6.97394,176.80875,46.0636)"/>
<use data-text="6" xlink:href="#font_1_101" transform="matrix(6.9740097,0,0,-6.97394,179.91916,46.0636)"/>
<use data-text="," xlink:href="#font_1_45" transform="matrix(6.9740097,0,0,-6.97394,183.88736,46.0636)"/>
<use data-text="6" xlink:href="#font_1_101" transform="matrix(6.9740097,0,0,-6.97394,188.818,46.0636)"/>
<use data-text=")" xlink:href="#font_1_86" transform="matrix(6.9740097,0,0,-6.97394,192.78621,46.0636)"/>
<path transform="matrix(1.00003,0,0,-1.00002,2.0964967,228.57427)" stroke-width=".3985" stroke-linecap="butt" stroke-miterlimit="10" stroke-linejoin="miter" fill="none" stroke="#000000" d="M212.60106 14.17339"/>
<use data-text="(" xlink:href="#font_1_85" transform="matrix(6.9740097,0,0,-6.97394,205.1566,216.14801)"/>
<use data-text="7" xlink:href="#font_1_100" transform="matrix(6.9740097,0,0,-6.97394,208.267,216.14801)"/>
<use data-text="," xlink:href="#font_1_45" transform="matrix(6.9740097,0,0,-6.97394,212.23523,216.14801)"/>
<use data-text="0" xlink:href="#font_1_121" transform="matrix(6.9740097,0,0,-6.97394,217.16585,216.14801)"/>
<use data-text=")" xlink:href="#font_1_86" transform="matrix(6.9740097,0,0,-6.97394,221.13407,216.14801)"/>
<path transform="matrix(1.00003,0,0,-1.00002,2.0964967,228.57427)" stroke-width=".3985" stroke-linecap="butt" stroke-miterlimit="10" stroke-linejoin="miter" fill="none" stroke="#000000" d="M212.60106 42.5202"/>
<use data-text="(" xlink:href="#font_1_85" transform="matrix(6.9740097,0,0,-6.97394,205.1566,187.80045)"/>
<use data-text="7" xlink:href="#font_1_100" transform="matrix(6.9740097,0,0,-6.97394,208.267,187.80045)"/>
<use data-text="," xlink:href="#font_1_45" transform="matrix(6.9740097,0,0,-6.97394,212.23523,187.80045)"/>
<use data-text="1" xlink:href="#font_1_82" transform="matrix(6.9740097,0,0,-6.97394,217.16585,187.80045)"/>
<use data-text=")" xlink:href="#font_1_86" transform="matrix(6.9740097,0,0,-6.97394,221.13407,187.80045)"/>
<path transform="matrix(1.00003,0,0,-1.00002,2.0964967,228.57427)" stroke-width=".3985" stroke-linecap="butt" stroke-miterlimit="10" stroke-linejoin="miter" fill="none" stroke="#000000" d="M212.60106 70.867"/>
<use data-text="(" xlink:href="#font_1_85" transform="matrix(6.9740097,0,0,-6.97394,205.1566,159.45288)"/>
<use data-text="7" xlink:href="#font_1_100" transform="matrix(6.9740097,0,0,-6.97394,208.267,159.45288)"/>
<use data-text="," xlink:href="#font_1_45" transform="matrix(6.9740097,0,0,-6.97394,212.23523,159.45288)"/>
<use data-text="2" xlink:href="#font_1_107" transform="matrix(6.9740097,0,0,-6.97394,217.16585,159.45288)"/>
<use data-text=")" xlink:href="#font_1_86" transform="matrix(6.9740097,0,0,-6.97394,221.13407,159.45288)"/>
<path transform="matrix(1.00003,0,0,-1.00002,2.0964967,228.57427)" stroke-width=".3985" stroke-linecap="butt" stroke-miterlimit="10" stroke-linejoin="miter" fill="none" stroke="#000000" d="M212.60106 99.21382"/>
<use data-text="(" xlink:href="#font_1_85" transform="matrix(6.9740097,0,0,-6.97394,205.1566,131.10532)"/>
<use data-text="7" xlink:href="#font_1_100" transform="matrix(6.9740097,0,0,-6.97394,208.267,131.10532)"/>
<use data-text="," xlink:href="#font_1_45" transform="matrix(6.9740097,0,0,-6.97394,212.23523,131.10532)"/>
<use data-text="3" xlink:href="#font_1_106" transform="matrix(6.9740097,0,0,-6.97394,217.16585,131.10532)"/>
<use data-text=")" xlink:href="#font_1_86" transform="matrix(6.9740097,0,0,-6.97394,221.13407,131.10532)"/>
<path transform="matrix(1.00003,0,0,-1.00002,2.0964967,228.57427)" stroke-width=".3985" stroke-linecap="butt" stroke-miterlimit="10" stroke-linejoin="miter" fill="none" stroke="#000000" d="M212.60106 127.56062"/>
<use data-text="(" xlink:href="#font_1_85" transform="matrix(6.9740097,0,0,-6.97394,205.1566,102.757747)"/>
<use data-text="7" xlink:href="#font_1_100" transform="matrix(6.9740097,0,0,-6.97394,208.267,102.757747)"/>
<use data-text="," xlink:href="#font_1_45" transform="matrix(6.9740097,0,0,-6.97394,212.23523,102.757747)"/>
<use data-text="4" xlink:href="#font_1_57" transform="matrix(6.9740097,0,0,-6.97394,217.16585,102.757747)"/>
<use data-text=")" xlink:href="#font_1_86" transform="matrix(6.9740097,0,0,-6.97394,221.13407,102.757747)"/>
<path transform="matrix(1.00003,0,0,-1.00002,2.0964967,228.57427)" stroke-width=".3985" stroke-linecap="butt" stroke-miterlimit="10" stroke-linejoin="miter" fill="none" stroke="#000000" d="M212.60106 155.90744"/>
<use data-text="(" xlink:href="#font_1_85" transform="matrix(6.9740097,0,0,-6.97394,205.1566,74.41118)"/>
<use data-text="7" xlink:href="#font_1_100" transform="matrix(6.9740097,0,0,-6.97394,208.267,74.41118)"/>
<use data-text="," xlink:href="#font_1_45" transform="matrix(6.9740097,0,0,-6.97394,212.23523,74.41118)"/>
<use data-text="5" xlink:href="#font_1_56" transform="matrix(6.9740097,0,0,-6.97394,217.16585,74.41118)"/>
<use data-text=")" xlink:href="#font_1_86" transform="matrix(6.9740097,0,0,-6.97394,221.13407,74.41118)"/>
<path transform="matrix(1.00003,0,0,-1.00002,2.0964967,228.57427)" stroke-width=".3985" stroke-linecap="butt" stroke-miterlimit="10" stroke-linejoin="miter" fill="none" stroke="#000000" d="M212.60106 184.25424"/>
<use data-text="(" xlink:href="#font_1_85" transform="matrix(6.9740097,0,0,-6.97394,205.1566,46.0636)"/>
<use data-text="7" xlink:href="#font_1_100" transform="matrix(6.9740097,0,0,-6.97394,208.267,46.0636)"/>
<use data-text="," xlink:href="#font_1_45" transform="matrix(6.9740097,0,0,-6.97394,212.23523,46.0636)"/>
<use data-text="6" xlink:href="#font_1_101" transform="matrix(6.9740097,0,0,-6.97394,217.16585,46.0636)"/>
<use data-text=")" xlink:href="#font_1_86" transform="matrix(6.9740097,0,0,-6.97394,221.13407,46.0636)"/>
</svg>
