<svg xmlns="http://www.w3.org/2000/svg" xmlns:xlink="http://www.w3.org/1999/xlink" version="1.1" width="279" height="32" viewBox="0 0 279 32">
<defs>
<path id="font_1_57" d="M.47099305 .16503906V.19602967H.37098695V.6507721C.37098695 .6707611 .37098695 .6767578 .35499574 .6767578 .34599305 .6767578 .34298707 .6767578 .33499146 .6647644L.027999878 .19602967V.16503906H.2939911V.07800293C.2939911 .041992189 .2919922 .0309906 .21798706 .0309906H.19699097V0C.23799134 .0029907227 .2899933 .0029907227 .33198548 .0029907227 .37399293 .0029907227 .4269867 .0029907227 .46798707 0V.0309906H.44699098C.37298585 .0309906 .37098695 .041992189 .37098695 .07800293V.16503906H.47099305M.2999878 .19602967H.055999757L.2999878 .56881716V.19602967Z"/>
<path id="font_1_51" d="M.45700074 .16764832C.45700074 .20367432 .44599916 .24871826 .4079895 .29074098 .3889923 .31176759 .37298585 .32176209 .30899049 .36180116 .3809967 .39881898 .42999269 .4508667 .42999269 .51690676 .42999269 .6089783 .34098817 .6660156 .25 .6660156 .1499939 .6660156 .068984989 .5919647 .068984989 .49890138 .068984989 .48088075 .070999149 .43585206 .11299133 .38882447 .12399292 .3768158 .16099549 .35179139 .18598938 .33477784 .12799073 .30575563 .041992189 .24971009 .041992189 .15063477 .041992189 .044555665 .14399719-.022460938 .24899292-.022460938 .3619995-.022460938 .45700074 .060577394 .45700074 .16764832M.38598634 .51690676C.38598634 .45986939 .34700013 .41183473 .2869873 .3768158L.16299439 .4568634C.116989139 .4868927 .11299133 .5209198 .11299133 .53793337 .11299133 .5989685 .17799378 .64100649 .24899292 .64100649 .32199098 .64100649 .38598634 .588974 .38598634 .51690676M.40699769 .13162232C.40699769 .05757141 .33198548 .0055389406 .25 .0055389406 .1639862 .0055389406 .09199524 .06758118 .09199524 .15063477 .09199524 .2086792 .12399292 .2727356 .20899964 .31976319L.33198548 .24171448C.3600006 .22268677 .40699769 .19267273 .40699769 .13162232Z"/>
<path id="font_1_106" d="M.45700074 .17037964C.45700074 .252594 .3939972 .33088685 .2899933 .35191346 .37199403 .37893678 .42999269 .4490509 .42999269 .52809146 .42999269 .6100464 .34199525 .6660156 .24598694 .6660156 .14498902 .6660156 .068984989 .60606387 .068984989 .53009036 .068984989 .49710084 .09098816 .47808839 .11999512 .47808839 .15098572 .47808839 .17098999 .50009158 .17098999 .5290985 .17098999 .57910159 .12399292 .57910159 .10899353 .57910159 .13999939 .62802127 .20599365 .64100649 .24198914 .64100649 .2829895 .64100649 .33799745 .6190338 .33799745 .5290985 .33799745 .51708987 .33599855 .45906068 .30999757 .4149933 .27999879 .36691285 .24598694 .36390687 .22099304 .36291505 .21299744 .36190797 .18899536 .35990907 .18199158 .35990907 .17399597 .35890199 .16699219 .35791017 .16699219 .3479004 .16699219 .33691407 .17399597 .33691407 .19099427 .33691407H.23498535C.31698609 .33691407 .35398866 .2686615 .35398866 .17037964 .35398866 .034469606 .2849884 .0055389406 .24099732 .0055389406 .19799805 .0055389406 .12298584 .022491456 .08799744 .08137512 .12298584 .07637024 .1539917 .09837341 .1539917 .1363678 .1539917 .17237854 .1269989 .19238281 .09799194 .19238281 .07398987 .19238281 .041992189 .17837525 .041992189 .1343689 .041992189 .043441774 .1349945-.022460938 .24398804-.022460938 .3659973-.022460938 .45700074 .06838989 .45700074 .17037964Z"/>
<path id="font_1_56" d="M.44898988 .20091248C.44898988 .31991578 .36698915 .41992188 .25898744 .41992188 .21099854 .41992188 .16799927 .4039154 .13198853 .36891175V.5641022C.1519928 .55778506 .18499756 .55078127 .21699524 .55078127 .33999635 .55078127 .4099884 .6418457 .4099884 .65493777 .4099884 .6609802 .40699769 .6660156 .3999939 .6660156 .3999939 .66607668 .39698792 .66607668 .3919983 .66308596 .37199403 .65408328 .32299806 .63378909 .2559967 .63378909 .21598816 .63409426 .16999817 .641098 .12298584 .6621094 .114990238 .6651001 .11099243 .6651001 .11099243 .6651001 .100997928 .66508486 .100997928 .657074 .100997928 .64108279V.3447113C.100997928 .3266449 .100997928 .31861878 .114990238 .31861878 .12199402 .31861878 .12399292 .32164 .12799073 .32765199 .13899231 .34371949 .17599488 .3979187 .25698854 .3979187 .30899049 .3979187 .33399964 .3517456 .34199525 .3336792 .35798646 .2965393 .3600006 .2574005 .3600006 .20721436 .3600006 .17218018 .3600006 .112197879 .33599855 .07032776 .31199647 .031448366 .2749939 .0055389406 .22898865 .0055389406 .1559906 .0055389406 .09899902 .05836487 .08198547 .1171875 .084991458 .11685181 .08799744 .115859989 .09899902 .115859989 .13198853 .115859989 .14898682 .14085388 .14898682 .16485596 .14898682 .18885803 .13198853 .21386719 .09899902 .21386719 .084991458 .21386719 .049987794 .2068634 .049987794 .16085816 .049987794 .07432556 .11898804-.022460938 .23098755-.022460938 .34700013-.022460938 .44898988 .07331848 .44898988 .20019531V.20091248Z"/>
<path id="font_1_107" d="M.44898988 .17396546H.42399598C.4189911 .14398194 .4119873 .099990848 .4019928 .084991458 .394989 .07699585 .32899476 .07699585 .30699159 .07699585H.1269989L.23298645 .17996216C.3889923 .31803895 .44898988 .37210084 .44898988 .47216798 .44898988 .5860901 .35899354 .6660156 .23699951 .6660156 .12399292 .6660156 .049987794 .57411196 .049987794 .48516847 .049987794 .4291687 .099990848 .4291687 .102996829 .4291687 .11999512 .4291687 .15499878 .44117738 .15499878 .48217774 .15499878 .5081787 .13699341 .5341797 .101989749 .5341797 .09399414 .5341797 .09199524 .5341797 .08898926 .5331726 .11199951 .59806826 .1659851 .63500979 .22399903 .63500979 .31498719 .63500979 .35798646 .5541382 .35798646 .47216798 .35798646 .39196778 .30799867 .31297303 .25299073 .25097657L.06098938 .036987306C.049987794 .025985718 .049987794 .023986817 .049987794 0H.42099L.44898988 .17396546Z"/>
<path id="font_1_100" d="M.4850006 .6435547H.24198914C.11999512 .6435547 .117996219 .6566467 .11399841 .67578127H.08898926L.055999757 .46954347H.08099365C.083999637 .48554994 .09298706 .54855349 .10598755 .5605469 .11299133 .5665436 .19099427 .5665436 .20399475 .5665436H.41099549L.29899598 .40853883C.20899964 .2735443 .17599488 .13453675 .17599488 .03253174 .17599488 .022537232 .17599488-.022460938 .22200012-.022460938 .2679901-.022460938 .2679901 .022537232 .2679901 .03253174V.08354187C.2679901 .13853455 .2709961 .19354248 .2789917 .24754334 .2829895 .27053834 .29699708 .35653688 .34098817 .41854859L.47599793 .608551C.4850006 .62054446 .4850006 .62254336 .4850006 .6435547Z"/>
<path id="font_1_69" d="M.73599246 0V.0309906C.6819916 .0309906 .6609955 .034988405 .6309967 .07896423L.3999939 .41874696 .5799866 .5916443C.58799746 .5996399 .6409912 .65060427 .7220001 .6516113V.6826172C.69599917 .6796112 .6639862 .6796112 .6369934 .6796112 .6009979 .6796112 .5439911 .6796112 .5099945 .6826172V.6516113C.5499878 .65060427 .55599978 .6276245 .55599978 .6186218 .55599978 .6026306 .54599 .5926361 .5379944 .5856476L.22499085 .28683473V.6046295C.22499085 .64060977 .22698975 .6516113 .3039856 .6516113H.32798768V.6826172C.29299928 .6796112 .21899414 .6796112 .18099976 .6796112 .14299011 .6796112 .067993167 .6796112 .032989503 .6826172V.6516113H.056991579C.13398743 .6516113 .13598633 .64060977 .13598633 .6046295V.07795715C.13598633 .041992189 .13398743 .0309906 .056991579 .0309906H.032989503V0C.067993167 .0029907227 .14199829 .0029907227 .17999268 .0029907227 .21798706 .0029907227 .29299928 .0029907227 .32798768 0V.0309906H.3039856C.22698975 .0309906 .22499085 .041992189 .22499085 .07795715V.2528534L.34098817 .3627777 .5219879 .094955448C.5279999 .08595276 .5369873 .07296753 .5369873 .06097412 .5369873 .0309906 .49798585 .0309906 .47799684 .0309906V0C.5130005 .0029907227 .58299258 .0029907227 .62098696 .0029907227L.73599246 0Z"/>
<path id="font_1_90" d="M.72698977-.010345459C.72698977-.00033569337 .72698977 .010650635 .71598818 .010650635 .70700076 .010650635 .70599368 .0026550294 .7049866-.0073394777 .69898989-.061340333 .6569977-.09133911 .6139984-.09133911 .5669861-.09133911 .5419922-.05734253 .5179901 .006652832 .6359863 .059570314 .72099307 .1876831 .72099307 .3387909 .72099307 .5429535 .56999209 .7050781 .3880005 .7050781 .20899964 .7050781 .055999757 .54496768 .055999757 .3387909 .055999757 .13664246 .20698548-.022460938 .3889923-.022460938 .41999818-.022460938 .45498658-.016464234 .48399354-.007461548 .49899293-.1023407 .5130005-.19433594 .60598757-.19433594 .70799258-.1945343 .72698977-.061538698 .72698977-.010528564V-.010345459M.62098696 .33866883C.62098696 .2605896 .60899356 .11946106 .5029907 .04147339 .48098756 .097457889 .44898988 .14746094 .3899994 .14746094 .33898927 .14746094 .30799867 .10446167 .30799867 .06347656 .30799867 .036468507 .32099916 .017471314 .32199098 .015472412 .2679901 .035461427 .1559906 .10845947 .1559906 .33866883 .1559906 .59898379 .29599 .68006899 .3880005 .68006899 .4850006 .6794586 .62098696 .5934601 .62098696 .3384552V.33866883M.47698976 .025497437C.44299317 .0065307619 .41099549 .002532959 .3889923 .002532959 .33799745 .002532959 .32998658 .048461915 .32998658 .06347656 .32998658 .09246826 .35099793 .12545777 .3899994 .12545777 .44400025 .12545777 .46598817 .083465579 .47698976 .025497437Z"/>
</defs>
<path transform="matrix(1.00006,0,0,-1.00003,12.017578,15.973)" stroke-width=".3985" stroke-linecap="butt" stroke-miterlimit="10" stroke-linejoin="miter" fill="none" stroke="#000000" d="M-9.92155-14.17339V14.1734H9.92111V-14.17339ZM9.92111 14.1734"/>
<path transform="matrix(1.00006,0,0,-1.00003,12.017578,15.973)" stroke-width=".3985" stroke-linecap="butt" stroke-miterlimit="10" stroke-linejoin="miter" fill="none" stroke="#000000" d="M18.42525-14.17339V14.1734H38.26791V-14.17339ZM38.26791 14.1734"/>
<path transform="matrix(1.00006,0,0,-1.00003,12.017578,15.973)" stroke-width=".3985" stroke-linecap="butt" stroke-miterlimit="10" stroke-linejoin="miter" fill="none" stroke="#000000" d="M46.77205-14.17339V14.1734H66.61473V-14.17339ZM66.61473 14.1734"/>
<path transform="matrix(1.00006,0,0,-1.00003,12.017578,15.973)" stroke-width=".3985" stroke-linecap="butt" stroke-miterlimit="10" stroke-linejoin="miter" fill="none" stroke="#000000" d="M75.11887-14.17339V14.1734H94.96153V-14.17339ZM94.96153 14.1734"/>
<path transform="matrix(1.00006,0,0,-1.00003,12.017578,15.973)" stroke-width=".3985" stroke-linecap="butt" stroke-miterlimit="10" stroke-linejoin="miter" fill="none" stroke="#000000" d="M103.46568-14.17339V14.1734H123.30835V-14.17339ZM123.30835 14.1734"/>
<path transform="matrix(1.00006,0,0,-1.00003,12.017578,15.973)" stroke-width=".3985" stroke-linecap="butt" stroke-miterlimit="10" stroke-linejoin="miter" fill="none" stroke="#000000" d="M131.81249-14.17339V14.1734H151.65515V-14.17339ZM151.65515 14.1734"/>
<path transform="matrix(1.00006,0,0,-1.00003,12.017578,15.973)" stroke-width=".3985" stroke-linecap="butt" stroke-miterlimit="10" stroke-linejoin="miter" fill="none" stroke="#000000" d="M160.1593-14.17339V14.1734H180.00197V-14.17339ZM180.00197 14.1734"/>
<path transform="matrix(1.00006,0,0,-1.00003,12.017578,15.973)" stroke-width=".3985" stroke-linecap="butt" stroke-miterlimit="10" stroke-linejoin="miter" fill="none" stroke="#000000" d="M188.5061-14.17339V14.1734H208.34877V-14.17339ZM208.34877 14.1734"/>
<path transform="matrix(1.00006,0,0,-1.00003,12.017578,15.973)" stroke-width=".3985" stroke-linecap="butt" stroke-miterlimit="10" stroke-linejoin="miter" fill="none" stroke="#000000" d="M216.85292-14.17339V14.1734H236.69559V-14.17339ZM236.69559 14.1734"/>
<path transform="matrix(1.00006,0,0,-1.00003,12.017578,15.973)" stroke-width=".3985" stroke-linecap="butt" stroke-miterlimit="10" stroke-linejoin="miter" fill="none" stroke="#000000" d="M245.19972-14.17339V14.1734H265.0424V-14.17339ZM265.0424 14.1734"/>
<path transform="matrix(1.00006,0,0,-1.00003,12.017578,15.973)" stroke-width=".3985" stroke-linecap="butt" stroke-miterlimit="10" stroke-linejoin="miter" fill="none" stroke="#000000" d="M0 0"/>
<use data-text="4" xlink:href="#font_1_57" transform="matrix(9.963197,0,0,-9.962899,9.526428,19.3451)"/>
<path transform="matrix(1.00006,0,0,-1.00003,12.017578,15.973)" stroke-width=".3985" stroke-linecap="butt" stroke-miterlimit="10" stroke-linejoin="miter" fill="none" stroke="#000000" d="M28.3468 0"/>
<use data-text="8" xlink:href="#font_1_51" transform="matrix(9.963197,0,0,-9.962899,37.87513,19.181096)"/>
<path transform="matrix(1.00006,0,0,-1.00003,12.017578,15.973)" stroke-width=".3985" stroke-linecap="butt" stroke-miterlimit="10" stroke-linejoin="miter" fill="none" stroke="#000000" d="M56.69362 0"/>
<use data-text="3" xlink:href="#font_1_106" transform="matrix(9.963197,0,0,-9.962899,66.22383,19.181096)"/>
<path transform="matrix(1.00006,0,0,-1.00003,12.017578,15.973)" stroke-width=".3985" stroke-linecap="butt" stroke-miterlimit="10" stroke-linejoin="miter" fill="none" stroke="#000000" d="M85.04042 0"/>
<use data-text="5" xlink:href="#font_1_56" transform="matrix(9.963197,0,0,-9.962899,94.57253,19.181096)"/>
<path transform="matrix(1.00006,0,0,-1.00003,12.017578,15.973)" stroke-width=".3985" stroke-linecap="butt" stroke-miterlimit="10" stroke-linejoin="miter" fill="none" stroke="#000000" d="M113.38724 0"/>
<use data-text="2" xlink:href="#font_1_107" transform="matrix(9.963197,0,0,-9.962899,122.921237,19.2911)"/>
<path transform="matrix(1.00006,0,0,-1.00003,12.017578,15.973)" stroke-width=".3985" stroke-linecap="butt" stroke-miterlimit="10" stroke-linejoin="miter" fill="none" stroke="#000000" d="M141.73404 0"/>
<use data-text="4" xlink:href="#font_1_57" transform="matrix(9.963197,0,0,-9.962899,151.26892,19.3451)"/>
<path transform="matrix(1.00006,0,0,-1.00003,12.017578,15.973)" stroke-width=".3985" stroke-linecap="butt" stroke-miterlimit="10" stroke-linejoin="miter" fill="none" stroke="#000000" d="M170.08086 0"/>
<use data-text="7" xlink:href="#font_1_100" transform="matrix(9.963197,0,0,-9.962899,179.61763,19.231099)"/>
<path transform="matrix(1.00006,0,0,-1.00003,12.017578,15.973)" stroke-width=".3985" stroke-linecap="butt" stroke-miterlimit="10" stroke-linejoin="miter" fill="none" stroke="#000000" d="M198.42766 0"/>
<use data-text="K" xlink:href="#font_1_69" transform="matrix(9.963197,0,0,-9.962899,206.58126,19.375102)"/>
<path transform="matrix(1.00006,0,0,-1.00003,12.017578,15.973)" stroke-width=".3985" stroke-linecap="butt" stroke-miterlimit="10" stroke-linejoin="miter" fill="none" stroke="#000000" d="M226.77448 0"/>
<use data-text="Q" xlink:href="#font_1_90" transform="matrix(9.963197,0,0,-9.962899,234.92996,18.518076)"/>
<path transform="matrix(1.00006,0,0,-1.00003,12.017578,15.973)" stroke-width=".3985" stroke-linecap="butt" stroke-miterlimit="10" stroke-linejoin="miter" fill="none" stroke="#000000" d="M255.12128 0"/>
<use data-text="5" xlink:href="#font_1_56" transform="matrix(9.963197,0,0,-9.962899,264.66374,19.181096)"/>
</svg>
