<svg xmlns="http://www.w3.org/2000/svg" xmlns:xlink="http://www.w3.org/1999/xlink" version="1.1" width="134" height="49" viewBox="0 0 134 49">
<defs>
<path id="font_1_121" d="M.47299195 .31976319C.47299195 .38682557 .46998597 .47288514 .43499757 .5479431 .3909912 .64201357 .31498719 .6660156 .25698854 .6660156 .19699097 .6660156 .12098694 .64201357 .07699585 .5459442 .04499817 .47688294 .039993287 .39582826 .039993287 .31976319 .039993287 .25471498 .041992189 .15765381 .084991458 .07858276 .13198853-.0064697267 .20999146-.022460938 .2559967-.022460938 .32099916-.022460938 .394989 .0055389406 .43699647 .097595218 .46699525 .1646576 .47299195 .23971558 .47299195 .31976319M.3869934 .33177186C.3869934 .2697296 .3869934 .18566895 .3769989 .12661743 .35598756 .012542725 .28199769 .002532959 .25698854 .002532959 .22698975 .002532959 .15499878 .016540528 .13598633 .12962342 .12599182 .18867493 .12599182 .2747345 .12599182 .33177186 .12599182 .39982606 .12599182 .47888185 .13798523 .53393557 .1579895 .6230011 .22200012 .64100649 .2559967 .64100649 .2939911 .64100649 .35699464 .62098696 .37599183 .5279236 .3869934 .47288514 .3869934 .39482118 .3869934 .33177186Z"/>
<path id="font_1_82" d="M.43199159 0V.0309906H.3999939C.30699159 .0309906 .3039856 .042999269 .3039856 .08001709V.63912966C.3039856 .6640167 .30299378 .6660156 .27799989 .6660156 .21598816 .60227969 .12399292 .60227969 .09298706 .60227969V.57128909C.11199951 .57128909 .17298889 .57128909 .22698975 .5972748V.08001709C.22698975 .042999269 .22399903 .0309906 .1309967 .0309906H.09899902V0C.1349945 .0029907227 .22399903 .0029907227 .2649994 .0029907227 .30599977 .0029907227 .3959961 .0029907227 .43199159 0Z"/>
<path id="font_1_107" d="M.46199037 .17704773H.43399049C.43199159 .16404724 .42399598 .10501099 .41099549 .08900452 .40499879 .07998657 .33599855 .07998657 .31599427 .07998657H.13798523L.23699951 .17404175C.40098573 .3161316 .46199037 .36915589 .46199037 .4711914 .46199037 .5860901 .36698915 .6660156 .24398804 .6660156 .1289978 .6660156 .050994874 .575119 .050994874 .4841919 .050994874 .43418885 .09399414 .42919923 .102996829 .42919923 .125 .42919923 .15499878 .44519044 .15499878 .48120118 .15499878 .51119998 .13398743 .5332031 .102996829 .5332031 .09799194 .5332031 .09498596 .5332031 .09098816 .53219607 .114990238 .6030731 .1789856 .63500979 .23298645 .63500979 .33499146 .63500979 .36999513 .5401764 .36999513 .4711914 .36999513 .36915589 .29299928 .28611756 .24499512 .23408509L.06199646 .035995485C.050994874 .024993897 .050994874 .022994996 .050994874 0H.43399049L.46199037 .17704773Z"/>
<path id="font_1_106" d="M.46998597 .17008972C.46998597 .25709535 .40098573 .33110047 .30499269 .35209657 .397995 .38710023 .44198609 .46009828 .44198609 .5290985 .44198609 .60606387 .35699464 .6660156 .25299073 .6660156 .14898682 .6660156 .070999149 .60705569 .070999149 .5310974 .070999149 .49809266 .09298706 .47909547 .12199402 .47909547 .15098572 .47909547 .17199707 .50009158 .17199707 .5290985 .17199707 .5640869 .147995 .57910159 .11399841 .57910159 .13999939 .6210327 .20098877 .64100649 .25 .64100649 .33299256 .64100649 .34899903 .5750885 .34899903 .52809146 .34899903 .49809266 .34298707 .45005799 .31799317 .41201783 .2869873 .36695863 .2519989 .36495973 .22299195 .36296083 .19799805 .36094667 .19599915 .36094667 .18798828 .36094667 .1789856 .35995484 .17098999 .35894776 .17098999 .34794618 .17098999 .33496095 .1789856 .33496095 .19599915 .33496095H.24299622C.32998658 .33496095 .36799623 .2646637 .36799623 .16937256 .36799623 .04145813 .2999878 .0055389406 .24899292 .0055389406 .22999573 .0055389406 .1329956 .010528564 .08799744 .0843811 .12399292 .07939148 .1519928 .10437012 .1519928 .13838196 .1519928 .17137146 .1269989 .19238281 .09799194 .19238281 .07299805 .19238281 .042999269 .17736817 .042999269 .13537598 .042999269 .046447755 .13598633-.022460938 .2519989-.022460938 .3769989-.022460938 .46998597 .06741333 .46998597 .16937256V.17008972Z"/>
<path id="font_1_57" d="M.48399354 .16503906V.19602967H.38198854V.649765C.38198854 .669754 .38198854 .6767578 .36299134 .6767578 .35099793 .6767578 .34999085 .67575076 .34098817 .6617584L.0289917 .19602967V.16503906H.3019867V.07901001C.3019867 .041992189 .29899598 .0309906 .22399903 .0309906H.20199585V0C.2649994 .0029907227 .33499146 .0029907227 .34199525 .0029907227 .34700013 .0029907227 .4189911 .0029907227 .48199464 0V.0309906H.45999146C.3849945 .0309906 .38198854 .041992189 .38198854 .07901001V.16503906H.48399354M.30799867 .19602967H.06098938L.30799867 .56581118V.19602967Z"/>
<path id="font_2_83" d="M.6239929 .4967041C.6239929 .59465029 .5249939 .6826172 .3880005 .6826172H.034988405V.6516113H.05899048C.13598633 .6516113 .13798523 .64060977 .13798523 .6046295V.07795715C.13798523 .041992189 .13598633 .0309906 .05899048 .0309906H.034988405V0C.069992069 .0029907227 .14399719 .0029907227 .18199158 .0029907227 .21998596 .0029907227 .29499818 .0029907227 .32998658 0V.0309906H.30599977C.22898865 .0309906 .22698975 .041992189 .22698975 .07795715V.3157959H.3959961C.5159912 .3157959 .6239929 .39675904 .6239929 .4967041M.5209961 .4967041C.5209961 .4497223 .5209961 .34179688 .3619995 .34179688H.22399903V.6116333C.22399903 .64460757 .22599793 .6516113 .272995 .6516113H.3619995C.5209961 .6516113 .5209961 .54566958 .5209961 .4967041Z"/>
<path id="font_2_76" d="M.71598818 .6516113V.6826172L.598999 .6796112 .48199464 .6826172V.6516113C.58499148 .6516113 .58499148 .6046295 .58499148 .577652V.15092469L.23199463 .6696167C.22299195 .6816101 .22200012 .6826172 .20298767 .6826172H.032989503V.6516113H.06199646C.07699585 .6516113 .09700012 .65060427 .11199951 .6496124 .1349945 .64660647 .13598633 .6456146 .13598633 .62661746V.10494995C.13598633 .07795715 .13598633 .0309906 .032989503 .0309906V0L.1499939 .0029907227 .2669983 0V.0309906C.1639862 .0309906 .1639862 .07795715 .1639862 .10494995V.62461856C.16899109 .6196289 .16999817 .6186218 .17399597 .6126251L.58200076 .0129852299C.59098818 .0009918213 .59199526 0 .598999 0 .61299136 0 .61299136 .0069885256 .61299136 .025985718V.577652C.61299136 .6046295 .61299136 .6516113 .71598818 .6516113Z"/>
</defs>
<path transform="matrix(1.00009,0,0,-1.00005,123.96744,23.007599)" stroke-width=".3985" stroke-linecap="butt" stroke-miterlimit="10" stroke-linejoin="miter" fill="none" stroke="#000000" d="M0 0"/>
<path transform="matrix(1.00009,0,0,-1.00005,123.96744,23.007599)" stroke-width=".3985" stroke-linecap="butt" stroke-miterlimit="10" stroke-linejoin="miter" fill="none" stroke="#000000" d="M8.49559 0C8.49559 4.69203 4.69203 8.49559 0 8.49559-4.69203 8.49559-8.49559 4.69203-8.49559 0-8.49559-4.69203-4.69203-8.49559 0-8.49559 4.69203-8.49559 8.49559-4.69203 8.49559 0ZM0 0"/>
<use data-text="0" xlink:href="#font_1_121" transform="matrix(8.967207,0,0,-8.966848,121.66323,25.894743)"/>
<path transform="matrix(1.00009,0,0,-1.00005,123.96744,23.007599)" stroke-width=".3985" stroke-linecap="butt" stroke-miterlimit="10" stroke-linejoin="miter" fill="none" stroke="#000000" d="M-28.3468 0"/>
<path transform="matrix(1.00009,0,0,-1.00005,123.96744,23.007599)" stroke-width=".3985" stroke-linecap="butt" stroke-miterlimit="10" stroke-linejoin="miter" fill="none" stroke="#000000" d="M-19.89426 0C-19.89426 4.66826-23.67853 8.45253-28.3468 8.45253-33.01508 8.45253-36.79935 4.66826-36.79935 0-36.79935-4.66826-33.01508-8.45253-28.3468-8.45253-23.67853-8.45253-19.89426-4.66826-19.89426 0ZM-28.3468 0"/>
<use data-text="1" xlink:href="#font_1_82" transform="matrix(8.967207,0,0,-8.966848,93.31368,25.993748)"/>
<path transform="matrix(1.00009,0,0,-1.00005,123.96744,23.007599)" stroke-width=".3985" stroke-linecap="butt" stroke-miterlimit="10" stroke-linejoin="miter" fill="none" stroke="#000000" d="M-56.69362 0"/>
<path transform="matrix(1.00009,0,0,-1.00005,123.96744,23.007599)" stroke-width=".3985" stroke-linecap="butt" stroke-miterlimit="10" stroke-linejoin="miter" fill="none" stroke="#000000" d="M-48.24107 0C-48.24107 4.66826-52.02534 8.45253-56.69362 8.45253-61.36188 8.45253-65.14615 4.66826-65.14615 0-65.14615-4.66826-61.36188-8.45253-56.69362-8.45253-52.02534-8.45253-48.24107-4.66826-48.24107 0ZM-56.69362 0"/>
<use data-text="2" xlink:href="#font_1_107" transform="matrix(8.967207,0,0,-8.966848,64.96413,25.993748)"/>
<path transform="matrix(1.00009,0,0,-1.00005,123.96744,23.007599)" stroke-width=".3985" stroke-linecap="butt" stroke-miterlimit="10" stroke-linejoin="miter" fill="none" stroke="#000000" d="M-85.04042 0"/>
<path transform="matrix(1.00009,0,0,-1.00005,123.96744,23.007599)" stroke-width=".3985" stroke-linecap="butt" stroke-miterlimit="10" stroke-linejoin="miter" fill="none" stroke="#000000" d="M-76.54483 0C-76.54483 4.69203-80.34837 8.49559-85.04042 8.49559-89.73247 8.49559-93.53601 4.69203-93.53601 0-93.53601-4.69203-89.73247-8.49559-85.04042-8.49559-80.34837-8.49559-76.54483-4.69203-76.54483 0ZM-85.04042 0"/>
<use data-text="3" xlink:href="#font_1_106" transform="matrix(8.967207,0,0,-8.966848,36.61458,25.894743)"/>
<path transform="matrix(1.00009,0,0,-1.00005,123.96744,23.007599)" stroke-width=".3985" stroke-linecap="butt" stroke-miterlimit="10" stroke-linejoin="miter" fill="none" stroke="#000000" d="M-113.38724 0"/>
<path transform="matrix(1.00009,0,0,-1.00005,123.96744,23.007599)" stroke-width=".3985" stroke-linecap="butt" stroke-miterlimit="10" stroke-linejoin="miter" fill="none" stroke="#000000" d="M-104.91304 0C-104.91304 4.6802-108.70702 8.47418-113.38724 8.47418-118.06744 8.47418-121.86142 4.6802-121.86142 0-121.86142-4.6802-118.06744-8.47418-113.38724-8.47418-108.70702-8.47418-104.91304-4.6802-104.91304 0ZM-113.38724 0"/>
<use data-text="4" xlink:href="#font_1_57" transform="matrix(8.967207,0,0,-8.966848,8.26503,26.042752)"/>
<path transform="matrix(1.00009,0,0,-1.00005,123.96744,23.007599)" stroke-width=".3985" stroke-linecap="butt" stroke-miterlimit="10" stroke-linejoin="miter" fill="none" stroke="#000000" d="M-104.71379 0H-97.32181"/>
<path transform="matrix(1.00009,0,0,-1.00005,26.636872,23.007599)" d="M3.58653 0C2.52383 .19925 .797 .797-.3985 1.49438V-1.49438C.797-.797 2.52383-.19925 3.58653 0"/>
<path transform="matrix(1.00009,0,0,-1.00005,123.96744,23.007599)" stroke-width=".3985" stroke-linecap="butt" stroke-miterlimit="10" stroke-linejoin="miter" fill="none" stroke="#000000" d="M-76.34558 0H-68.93195"/>
<path transform="matrix(1.00009,0,0,-1.00005,55.02928,23.007599)" d="M3.58653 0C2.52383 .19925 .797 .797-.3985 1.49438V-1.49438C.797-.797 2.52383-.19925 3.58653 0"/>
<path transform="matrix(1.00009,0,0,-1.00005,123.96744,23.007599)" stroke-width=".3985" stroke-linecap="butt" stroke-miterlimit="10" stroke-linejoin="miter" fill="none" stroke="#000000" d="M-48.04181 0H-40.58514"/>
<path transform="matrix(1.00009,0,0,-1.00005,83.37865,23.007599)" d="M3.58653 0C2.52383 .19925 .797 .797-.3985 1.49438V-1.49438C.797-.797 2.52383-.19925 3.58653 0"/>
<path transform="matrix(1.00009,0,0,-1.00005,123.96744,23.007599)" stroke-width=".3985" stroke-linecap="butt" stroke-miterlimit="10" stroke-linejoin="miter" fill="none" stroke="#000000" d="M-19.695 0H-12.28139"/>
<path transform="matrix(1.00009,0,0,-1.00005,111.684947,23.007599)" d="M3.58653 0C2.52383 .19925 .797 .797-.3985 1.49438V-1.49438C.797-.797 2.52383-.19925 3.58653 0"/>
<path transform="matrix(1.00009,0,0,-1.00005,123.96744,23.007599)" stroke-width=".3985" stroke-linecap="butt" stroke-miterlimit="10" stroke-linejoin="miter" fill="none" stroke="#000000" d="M-106.2825 4.97475C-92.70541 14.48131-77.3577 14.46889-66.71848 7.01942"/>
<path transform="matrix(.81921377,.57358869,.5736116,-.8191809,57.242944,15.987828)" d="M3.58653 0C2.52383 .19925 .797 .797-.3985 1.49438V-1.49438C.797-.797 2.52383-.19925 3.58653 0"/>
<path transform="matrix(1.00009,0,0,-1.00005,123.96744,23.007599)" stroke-width=".3985" stroke-linecap="butt" stroke-miterlimit="10" stroke-linejoin="miter" fill="none" stroke="#000000" d="M-77.91815 4.98703C-64.3467 14.48965-49.00526 14.46495-38.37167 7.01942"/>
<path transform="matrix(.81921377,.57358869,.5736116,-.8191809,85.5923,15.987828)" d="M3.58653 0C2.52383 .19925 .797 .797-.3985 1.49438V-1.49438C.797-.797 2.52383-.19925 3.58653 0"/>
<path transform="matrix(1.00009,0,0,-1.00005,123.96744,23.007599)" stroke-width=".3985" stroke-linecap="butt" stroke-miterlimit="10" stroke-linejoin="miter" fill="none" stroke="#000000" d="M-49.6066 4.96233C-36.03516 14.46495-20.69371 14.48965-10.06012 7.04413"/>
<path transform="matrix(.81921377,.57358869,.5736116,-.8191809,113.9064,15.963118)" d="M3.58653 0C2.52383 .19925 .797 .797-.3985 1.49438V-1.49438C.797-.797 2.52383-.19925 3.58653 0"/>
<path transform="matrix(1.00009,0,0,-1.00005,123.96744,23.007599)" stroke-width=".3985" stroke-linecap="butt" stroke-miterlimit="10" stroke-linejoin="miter" fill="none" stroke="#000000" d="M-107.25418 6.13304C-87.18233 26.20491-54.5364 26.18959-37.00063 8.65381"/>
<path transform="matrix(.70716366,.7071353,.70716366,-.7071353,86.96348,14.353357)" d="M3.58653 0C2.52383 .19925 .797 .797-.3985 1.49438V-1.49438C.797-.797 2.52383-.19925 3.58653 0"/>
<path transform="matrix(1.00009,0,0,-1.00005,123.96744,23.007599)" stroke-width=".3985" stroke-linecap="butt" stroke-miterlimit="10" stroke-linejoin="miter" fill="none" stroke="#000000" d="M-78.89224 6.14818C-58.833 26.20743-26.20743 26.20743-8.68425 8.68425"/>
<path transform="matrix(.70716366,.7071353,.70716366,-.7071353,115.28241,14.322915)" d="M3.58653 0C2.52383 .19925 .797 .797-.3985 1.49438V-1.49438C.797-.797 2.52383-.19925 3.58653 0"/>
<path transform="matrix(1.00009,0,0,-1.00005,123.96744,23.007599)" stroke-width=".3985" stroke-linecap="butt" stroke-miterlimit="10" stroke-linejoin="miter" fill="none" stroke="#000000" d="M-113.38724-21.2601"/>
<use data-text="P" xlink:href="#font_2_83" transform="matrix(9.963496,0,0,-9.963098,7.1769258,47.67083)"/>
<path transform="matrix(1.00009,0,0,-1.00005,123.96744,23.007599)" stroke-width=".3985" stroke-linecap="butt" stroke-miterlimit="10" stroke-linejoin="miter" fill="none" stroke="#000000" d="M-85.04042-21.2601"/>
<use data-text="N" xlink:href="#font_2_76" transform="matrix(9.963496,0,0,-9.963098,35.183458,47.67083)"/>
<path transform="matrix(1.00009,0,0,-1.00005,123.96744,23.007599)" stroke-width=".3985" stroke-linecap="butt" stroke-miterlimit="10" stroke-linejoin="miter" fill="none" stroke="#000000" d="M-56.69362-21.2601"/>
<use data-text="N" xlink:href="#font_2_76" transform="matrix(9.963496,0,0,-9.963098,63.531999,47.67083)"/>
<path transform="matrix(1.00009,0,0,-1.00005,123.96744,23.007599)" stroke-width=".3985" stroke-linecap="butt" stroke-miterlimit="10" stroke-linejoin="miter" fill="none" stroke="#000000" d="M-28.3468-21.2601"/>
<use data-text="N" xlink:href="#font_2_76" transform="matrix(9.963496,0,0,-9.963098,91.881549,47.67083)"/>
<path transform="matrix(1.00009,0,0,-1.00005,123.96744,23.007599)" stroke-width=".3985" stroke-linecap="butt" stroke-miterlimit="10" stroke-linejoin="miter" fill="none" stroke="#000000" d="M0-21.2601"/>
<use data-text="P" xlink:href="#font_2_83" transform="matrix(9.963496,0,0,-9.963098,120.575138,47.67083)"/>
</svg>
