<svg xmlns="http://www.w3.org/2000/svg" xmlns:xlink="http://www.w3.org/1999/xlink" version="1.1" width="135" height="65" viewBox="0 0 135 65">
<defs>
<path id="font_1_115" d="M.74398806 0V.0309906H.72698977C.67900088 .0309906 .6539917 .034957887 .6329956 .06567383L.41299439 .3844757 .5549927 .5863495C.59999087 .65060427 .6799927 .6516113 .70098879 .6516113V.6826172C.6499939 .6796112 .61299136 .6796112 .58999636 .6796112L.46398927 .6826172V.6516113C.5059967 .65060427 .5239868 .6254425 .5239868 .6063385 .5239868 .5973511 .5209961 .5903473 .5130005 .5793457L.3939972 .41145326 .2599945 .6043396C.25698854 .6083374 .2519989 .6153717 .2519989 .6214142 .2519989 .631485 .269989 .65060427 .31498719 .6516113V.6826172C.27398683 .6796112 .21299744 .6796112 .16999817 .6796112L.039993287 .6826172V.6516113H.056991579C.12599182 .6516113 .13398743 .63952639 .1539917 .61035159L.34298707 .33850099 .17298889 .09667969C.1269989 .031982423 .04899597 .0309906 .025985718 .0309906V0C.07699585 .0029907227 .115997318 .0029907227 .13798523 .0029907227L.2630005 0V.0309906C.21699524 .032974245 .20298767 .06071472 .20298767 .075668338 .20298767 .08666992 .20799256 .093673709 .21299744 .10066223L.3619995 .31152345 .5239868 .075668338C.5319977 .06567383 .5319977 .063690189 .5319977 .06071472 .5319977 .048828126 .5099945 .031982423 .46998597 .0309906V0C.5149994 .0029907227 .56799319 .0029907227 .6139984 .0029907227L.74398806 0Z"/>
<path id="font_1_76" d="M.7319946 .6516113V.6826172C.6779938 .680603 .6629944 .6796112 .61499026 .6796112 .56599429 .6796112 .5529938 .680603 .49699403 .6826172V.6516113C.598999 .6516113 .598999 .6036377 .598999 .5766449V.1499176L.23599243 .6706085C.22799683 .6826172 .22499085 .6826172 .20599365 .6826172H.037994386V.6516113H.06599426C.11399841 .6516113 .13999939 .64460757 .13999939 .64460757V.10594177C.13999939 .07896423 .13999939 .0309906 .037994386 .0309906V0C.09298706 .0019989014 .10699463 .0029907227 .1559906 .0029907227 .20399475 .0029907227 .21899414 .0019989014 .272995 0V.0309906C.17098999 .0309906 .17098999 .07896423 .17098999 .10594177V.6216278L.59599307 .011993408C.60398867 0 .60899356 0 .6139984 0 .6299896 0 .6299896 .0079956059 .6299896 .026992798V.5766449C.6299896 .6036377 .6299896 .6516113 .7319946 .6516113Z"/>
<path id="font_1_83" d="M.6409912 .49668885C.6409912 .5956421 .5379944 .6826172 .39898683 .6826172H.039993287V.6516113H.06298828C.13999939 .6516113 .14199829 .64060977 .14199829 .6036377V.0789032C.14199829 .041915895 .13999939 .030929566 .06298828 .030929566H.039993287V0C.084991458 .0029296876 .14099121 .0029296876 .18699646 .0029296876 .23298645 .0029907227 .2889862 .0029907227 .33399964 0V.0309906H.31098939C.23399353 .0309906 .23199463 .041992189 .23199463 .07896423V.31378175H.39898683C.5389862 .31378175 .6409912 .40075685 .6409912 .4967041V.49668885M.5389862 .4967041C.5389862 .4517212 .5389862 .34179688 .37298585 .34179688H.22898865V.6106262C.22898865 .64460757 .23098755 .6516113 .27799989 .6516113H.37399293C.5389862 .6516113 .5389862 .54167178 .5389862 .4967041Z"/>
</defs>
<path transform="matrix(1.00009,0,0,-1,68.0724,11.077)" stroke-width=".3985" stroke-linecap="butt" stroke-miterlimit="10" stroke-linejoin="miter" fill="none" stroke="#000000" d="M0 0"/>
<path transform="matrix(1.00009,0,0,-1,68.0724,11.077)" stroke-width=".3985" stroke-linecap="butt" stroke-miterlimit="10" stroke-linejoin="miter" fill="none" stroke="#000000" d="M9.27757 0C9.27757 5.12393 5.12393 9.27757 0 9.27757-5.12393 9.27757-9.27757 5.12393-9.27757 0-9.27757-5.12393-5.12393-9.27757 0-9.27757 5.12393-9.27757 9.27757-5.12393 9.27757 0ZM0 0"/>
<use data-text="X" xlink:href="#font_1_115" transform="matrix(8.967207,0,0,-8.9664,64.61509,14.139)"/>
<path transform="matrix(1.00009,0,0,-1,68.0724,11.077)" stroke-width=".3985" stroke-linecap="butt" stroke-miterlimit="10" stroke-linejoin="miter" fill="none" stroke="#000000" d="M-56.69362-42.5202"/>
<path transform="matrix(1.00009,0,0,-1,68.0724,11.077)" stroke-width=".3985" stroke-linecap="butt" stroke-miterlimit="10" stroke-linejoin="miter" fill="none" stroke="#000000" d="M-47.41603-42.5202C-47.41603-37.39627-51.56967-33.24261-56.69362-33.24261-61.81755-33.24261-65.97119-37.39627-65.97119-42.5202-65.97119-47.64413-61.81755-51.79779-56.69362-51.79779-51.56967-51.79779-47.41603-47.64413-47.41603-42.5202ZM-56.69362-42.5202"/>
<use data-text="N" xlink:href="#font_1_76" transform="matrix(8.967207,0,0,-8.9664,7.916992,56.659)"/>
<path transform="matrix(1.00009,0,0,-1,68.0724,11.077)" stroke-width=".3985" stroke-linecap="butt" stroke-miterlimit="10" stroke-linejoin="miter" fill="none" stroke="#000000" d="M-28.3468-42.5202"/>
<path transform="matrix(1.00009,0,0,-1,68.0724,11.077)" stroke-width=".3985" stroke-linecap="butt" stroke-miterlimit="10" stroke-linejoin="miter" fill="none" stroke="#000000" d="M-19.06921-42.5202C-19.06921-37.39627-23.22287-33.24261-28.3468-33.24261-33.47073-33.24261-37.62439-37.39627-37.62439-42.5202-37.62439-47.64413-33.47073-51.79779-28.3468-51.79779-23.22287-51.79779-19.06921-47.64413-19.06921-42.5202ZM-28.3468-42.5202"/>
<use data-text="N" xlink:href="#font_1_76" transform="matrix(8.967207,0,0,-8.9664,36.26654,56.659)"/>
<path transform="matrix(1.00009,0,0,-1,68.0724,11.077)" stroke-width=".3985" stroke-linecap="butt" stroke-miterlimit="10" stroke-linejoin="miter" fill="none" stroke="#000000" d="M0-42.5202"/>
<path transform="matrix(1.00009,0,0,-1,68.0724,11.077)" stroke-width=".3985" stroke-linecap="butt" stroke-miterlimit="10" stroke-linejoin="miter" fill="none" stroke="#000000" d="M9.07861-42.5202C9.07861-37.50616 5.01404-33.44157 0-33.44157-5.01404-33.44157-9.07861-37.50616-9.07861-42.5202-9.07861-47.53424-5.01404-51.59882 0-51.59882 5.01404-51.59882 9.07861-47.53424 9.07861-42.5202ZM0-42.5202"/>
<use data-text="P" xlink:href="#font_1_83" transform="matrix(8.967207,0,0,-8.9664,64.93812,56.659)"/>
<path transform="matrix(1.00009,0,0,-1,68.0724,11.077)" stroke-width=".3985" stroke-linecap="butt" stroke-miterlimit="10" stroke-linejoin="miter" fill="none" stroke="#000000" d="M28.3468-42.5202"/>
<path transform="matrix(1.00009,0,0,-1,68.0724,11.077)" stroke-width=".3985" stroke-linecap="butt" stroke-miterlimit="10" stroke-linejoin="miter" fill="none" stroke="#000000" d="M37.62439-42.5202C37.62439-37.39627 33.47073-33.24261 28.3468-33.24261 23.22287-33.24261 19.06921-37.39627 19.06921-42.5202 19.06921-47.64413 23.22287-51.79779 28.3468-51.79779 33.47073-51.79779 37.62439-47.64413 37.62439-42.5202ZM28.3468-42.5202"/>
<use data-text="N" xlink:href="#font_1_76" transform="matrix(8.967207,0,0,-8.9664,92.964649,56.659)"/>
<path transform="matrix(1.00009,0,0,-1,68.0724,11.077)" stroke-width=".3985" stroke-linecap="butt" stroke-miterlimit="10" stroke-linejoin="miter" fill="none" stroke="#000000" d="M56.69362-42.5202"/>
<path transform="matrix(1.00009,0,0,-1,68.0724,11.077)" stroke-width=".3985" stroke-linecap="butt" stroke-miterlimit="10" stroke-linejoin="miter" fill="none" stroke="#000000" d="M65.77223-42.5202C65.77223-37.50616 61.70766-33.44157 56.69362-33.44157 51.67958-33.44157 47.61499-37.50616 47.61499-42.5202 47.61499-47.53424 51.67958-51.59882 56.69362-51.59882 61.70766-51.59882 65.77223-47.53424 65.77223-42.5202ZM56.69362-42.5202"/>
<use data-text="P" xlink:href="#font_1_83" transform="matrix(8.967207,0,0,-8.9664,121.63722,56.659)"/>
<path transform="matrix(1.00009,0,0,-1,68.0724,11.077)" stroke-width=".3985" stroke-linecap="butt" stroke-miterlimit="10" stroke-linejoin="miter" fill="none" stroke="#000000" d="M-7.58119-5.686-46.24329-34.6823"/>
<path transform="matrix(-.800042,.59999,.600044,.79997,21.824952,45.7593)" d="M3.58653 0C2.52383 .19925 .797 .797-.3985 1.49438V-1.49438C.797-.797 2.52383-.19925 3.58653 0"/>
<path transform="matrix(1.00009,0,0,-1,68.0724,11.077)" stroke-width=".3985" stroke-linecap="butt" stroke-miterlimit="10" stroke-linejoin="miter" fill="none" stroke="#000000" d="M-5.25652-7.88486-21.10094-31.65128"/>
<path transform="matrix(-.5547199,.83202,.83209487,.55467,46.969564,42.72828)" d="M3.58653 0C2.52383 .19925 .797 .797-.3985 1.49438V-1.49438C.797-.797 2.52383-.19925 3.58653 0"/>
<path transform="matrix(1.00009,0,0,-1,68.0724,11.077)" stroke-width=".3985" stroke-linecap="butt" stroke-miterlimit="10" stroke-linejoin="miter" fill="none" stroke="#000000" d="M0-9.47684V-29.65578"/>
<path transform="matrix(0,1,1.00009,0,68.0724,40.73278)" d="M3.58653 0C2.52383 .19925 .797 .797-.3985 1.49438V-1.49438C.797-.797 2.52383-.19925 3.58653 0"/>
<path transform="matrix(1.00009,0,0,-1,68.0724,11.077)" stroke-width=".3985" stroke-linecap="butt" stroke-miterlimit="10" stroke-linejoin="miter" fill="none" stroke="#000000" d="M5.25652-7.88486 21.10094-31.65128"/>
<path transform="matrix(.5547199,.83202,.83209487,-.55467,89.17525,42.72828)" d="M3.58653 0C2.52383 .19925 .797 .797-.3985 1.49438V-1.49438C.797-.797 2.52383-.19925 3.58653 0"/>
<path transform="matrix(1.00009,0,0,-1,68.0724,11.077)" stroke-width=".3985" stroke-linecap="butt" stroke-miterlimit="10" stroke-linejoin="miter" fill="none" stroke="#000000" d="M7.58119-5.686 46.40245-34.80168"/>
<path transform="matrix(.800042,.59999,.600044,-.79997,114.479038,45.87868)" d="M3.58653 0C2.52383 .19925 .797 .797-.3985 1.49438V-1.49438C.797-.797 2.52383-.19925 3.58653 0"/>
</svg>
