<svg xmlns="http://www.w3.org/2000/svg" xmlns:xlink="http://www.w3.org/1999/xlink" version="1.1" width="106" height="49" viewBox="0 0 106 49">
<defs>
<path id="font_1_100" d="M.49899293 .6435547H.25C.12399292 .6435547 .12098694 .6566467 .117996219 .67578127H.08999634L.056991579 .46655274H.084991458C.08898926 .48954774 .09700012 .5455475 .10998535 .55755618 .116989139 .56355288 .19599915 .56355288 .20999146 .56355288H.41999818L.32398988 .4325409C.19400025 .25354005 .18199158 .090530399 .18199158 .03353882 .18199158 .022537232 .18199158-.022460938 .22799683-.022460938 .2749939-.022460938 .2749939 .021530152 .2749939 .03453064V.08354187C.2749939 .23054505 .29699708 .34654237 .34999085 .41854859L.48999024 .60954287C.49899293 .62054446 .49899293 .62254336 .49899293 .6435547Z"/>
<path id="font_1_101" d="M.46998597 .20277405C.46998597 .32977296 .37799073 .42578126 .2649994 .42578126 .20498657 .42578126 .1619873 .3907776 .13398743 .33078004 .13398743 .43276979 .14498902 .4897766 .17199707 .54177859 .19198609 .58277896 .24099732 .64100649 .31498719 .64100649 .33499146 .64100649 .3809967 .63697817 .4039917 .6007843 .36698915 .6007843 .35099793 .5817871 .35099793 .55477908 .35099793 .5287781 .36898805 .50878909 .39698792 .50878909 .4249878 .50878909 .44400025 .5267792 .44400025 .55677798 .44400025 .61299136 .4039917 .6660156 .31298829 .6660156 .18399048 .6660156 .042999269 .5389252 .042999269 .31576539 .042999269 .044555665 .16499329-.022460938 .25898744-.022460938 .36999513-.022460938 .46998597 .07052612 .46998597 .2025299V.20277405M.3789978 .20353699C.3789978 .15553284 .3789978 .106536868 .3600006 .0695343 .32899476 .012527466 .2849884 .0055389406 .2579956 .0055389406 .20098877 .0055389406 .16799927 .05253601 .1559906 .08152771 .13699341 .12652588 .13598633 .20953369 .13598633 .2255249 .13598633 .2927704 .16699219 .4007721 .2630005 .4007721 .2789917 .4007721 .32798768 .4007721 .3600006 .33877564 .3789978 .300766 .3789978 .25177003 .3789978 .20376587V.20353699Z"/>
<path id="font_1_56" d="M.46199037 .19992066C.46199037 .3209076 .37599183 .41992188 .2669983 .41992188 .21899414 .41992188 .16999817 .4039154 .1349945 .36791993V.5647888C.16499329 .55578616 .19599915 .55078127 .22698975 .55078127 .34999085 .55078127 .42199708 .63983157 .42199708 .6529236 .42199708 .6619873 .41600038 .6660156 .41099549 .6660156 .41099549 .6660156 .40699769 .6660156 .397995 .6609802 .35099793 .6418457 .30499269 .63378909 .2630005 .63378909 .21998596 .63378909 .1749878 .6418457 .1289978 .6609802 .11898804 .6660156 .115997318 .6660156 .115997318 .6660156 .10398865 .6660156 .10398865 .6559448 .10398865 .63882449V.34490968C.10398865 .32699586 .10398865 .31599427 .117996219 .31599427 .12599182 .31562806 .1289978 .3196411 .1349945 .32867433 .16499329 .37083436 .21299744 .39491273 .2649994 .39491273 .37199403 .39491273 .37199403 .24035645 .37199403 .20422364 .37199403 .17321778 .37199403 .11122131 .34399415 .06636047 .31698609 .024475098 .2749939 .0055389406 .23599243 .0055389406 .1769867 .0055389406 .10998535 .042419435 .085998538 .11621094 .085998538 .116882327 .09298706 .11488342 .099990848 .11488342 .11999512 .11488342 .14898682 .12788391 .14898682 .1638794 .14898682 .19488526 .1269989 .21289063 .099990848 .21289063 .07899475 .21289063 .050994874 .20088196 .050994874 .16088867 .050994874 .069732669 .1269989-.022460938 .23799134-.022460938 .35899354-.02279663 .46199037 .07521057 .46199037 .19921875V.19992066Z"/>
<path id="font_1_57" d="M.48399354 .16503906V.19602967H.38198854V.649765C.38198854 .669754 .38198854 .6767578 .36299134 .6767578 .35099793 .6767578 .34999085 .67575076 .34098817 .6617584L.0289917 .19602967V.16503906H.3019867V.07901001C.3019867 .041992189 .29899598 .0309906 .22399903 .0309906H.20199585V0C.2649994 .0029907227 .33499146 .0029907227 .34199525 .0029907227 .34700013 .0029907227 .4189911 .0029907227 .48199464 0V.0309906H.45999146C.3849945 .0309906 .38198854 .041992189 .38198854 .07901001V.16503906H.48399354M.30799867 .19602967H.06098938L.30799867 .56581118V.19602967Z"/>
<path id="font_2_76" d="M.71598818 .6516113V.6826172L.598999 .6796112 .48199464 .6826172V.6516113C.58499148 .6516113 .58499148 .6046295 .58499148 .577652V.15092469L.23199463 .6696167C.22299195 .6816101 .22200012 .6826172 .20298767 .6826172H.032989503V.6516113H.06199646C.07699585 .6516113 .09700012 .65060427 .11199951 .6496124 .1349945 .64660647 .13598633 .6456146 .13598633 .62661746V.10494995C.13598633 .07795715 .13598633 .0309906 .032989503 .0309906V0L.1499939 .0029907227 .2669983 0V.0309906C.1639862 .0309906 .1639862 .07795715 .1639862 .10494995V.62461856C.16899109 .6196289 .16999817 .6186218 .17399597 .6126251L.58200076 .0129852299C.59098818 .0009918213 .59199526 0 .598999 0 .61299136 0 .61299136 .0069885256 .61299136 .025985718V.577652C.61299136 .6046295 .61299136 .6516113 .71598818 .6516113Z"/>
<path id="font_2_83" d="M.6239929 .4967041C.6239929 .59465029 .5249939 .6826172 .3880005 .6826172H.034988405V.6516113H.05899048C.13598633 .6516113 .13798523 .64060977 .13798523 .6046295V.07795715C.13798523 .041992189 .13598633 .0309906 .05899048 .0309906H.034988405V0C.069992069 .0029907227 .14399719 .0029907227 .18199158 .0029907227 .21998596 .0029907227 .29499818 .0029907227 .32998658 0V.0309906H.30599977C.22898865 .0309906 .22698975 .041992189 .22698975 .07795715V.3157959H.3959961C.5159912 .3157959 .6239929 .39675904 .6239929 .4967041M.5209961 .4967041C.5209961 .4497223 .5209961 .34179688 .3619995 .34179688H.22399903V.6116333C.22399903 .64460757 .22599793 .6516113 .272995 .6516113H.3619995C.5209961 .6516113 .5209961 .54566958 .5209961 .4967041Z"/>
</defs>
<path transform="matrix(1.00003,0,0,-1.00005,10.651756,23.041604)" stroke-width=".3985" stroke-linecap="butt" stroke-miterlimit="10" stroke-linejoin="miter" fill="none" stroke="#000000" d="M0 0"/>
<path transform="matrix(1.00003,0,0,-1.00005,10.651756,23.041604)" stroke-width=".3985" stroke-linecap="butt" stroke-miterlimit="10" stroke-linejoin="miter" fill="none" stroke="#000000" d="M8.55518 0C8.55518 4.72495 4.72495 8.55518 0 8.55518-4.72495 8.55518-8.55518 4.72495-8.55518 0-8.55518-4.72495-4.72495-8.55518 0-8.55518 4.72495-8.55518 8.55518-4.72495 8.55518 0ZM0 0"/>
<use data-text="7" xlink:href="#font_1_100" transform="matrix(8.966669,0,0,-8.966848,8.347687,25.97375)"/>
<path transform="matrix(1.00003,0,0,-1.00005,10.651756,23.041604)" stroke-width=".3985" stroke-linecap="butt" stroke-miterlimit="10" stroke-linejoin="miter" fill="none" stroke="#929292" d="M28.3468 0"/>
<path transform="matrix(1.00003,0,0,-1.00005,10.651756,23.041604)" stroke-width=".3985" stroke-linecap="butt" stroke-miterlimit="10" stroke-linejoin="miter" fill="none" stroke="#929292" d="M36.84239 0C36.84239 4.69203 33.03885 8.49559 28.3468 8.49559 23.65475 8.49559 19.85121 4.69203 19.85121 0 19.85121-4.69203 23.65475-8.49559 28.3468-8.49559 33.03885-8.49559 36.84239-4.69203 36.84239 0ZM28.3468 0"/>
<use data-text="6" xlink:href="#font_1_101" transform="matrix(8.966669,0,0,-8.966848,36.69454,25.928748)" fill="#929292"/>
<path transform="matrix(1.00003,0,0,-1.00005,10.651756,23.041604)" stroke-width=".3985" stroke-linecap="butt" stroke-miterlimit="10" stroke-linejoin="miter" fill="none" stroke="#929292" d="M56.69362 0"/>
<path transform="matrix(1.00003,0,0,-1.00005,10.651756,23.041604)" stroke-width=".3985" stroke-linecap="butt" stroke-miterlimit="10" stroke-linejoin="miter" fill="none" stroke="#929292" d="M65.18921 0C65.18921 4.69203 61.38565 8.49559 56.69362 8.49559 52.00157 8.49559 48.19801 4.69203 48.19801 0 48.19801-4.69203 52.00157-8.49559 56.69362-8.49559 61.38565-8.49559 65.18921-4.69203 65.18921 0ZM56.69362 0"/>
<use data-text="5" xlink:href="#font_1_56" transform="matrix(8.966669,0,0,-8.966848,65.04239,25.928748)" fill="#929292"/>
<path transform="matrix(1.00003,0,0,-1.00005,10.651756,23.041604)" stroke-width=".3985" stroke-linecap="butt" stroke-miterlimit="10" stroke-linejoin="miter" fill="none" stroke="#000000" d="M85.04042 0"/>
<path transform="matrix(1.00003,0,0,-1.00005,10.651756,23.041604)" stroke-width=".3985" stroke-linecap="butt" stroke-miterlimit="10" stroke-linejoin="miter" fill="none" stroke="#000000" d="M93.51462 0C93.51462 4.6802 89.72064 8.47418 85.04042 8.47418 80.3602 8.47418 76.56624 4.6802 76.56624 0 76.56624-4.6802 80.3602-8.47418 85.04042-8.47418 89.72064-8.47418 93.51462-4.6802 93.51462 0ZM85.04042 0"/>
<use data-text="4" xlink:href="#font_1_57" transform="matrix(8.966669,0,0,-8.966848,93.39024,26.076756)"/>
<path transform="matrix(1.00003,0,0,-1.00005,10.651756,23.041604)" stroke-width=".3985" stroke-linecap="butt" stroke-miterlimit="10" stroke-linejoin="miter" fill="none" stroke="#929292" d="M8.75443 0H16.06541"/>
<path transform="matrix(1.00003,0,0,-1.00005,26.71765,23.041604)" d="M3.58653 0C2.52383 .19925 .797 .797-.3985 1.49438V-1.49438C.797-.797 2.52383-.19925 3.58653 0" fill="#929292"/>
<path transform="matrix(1.00003,0,0,-1.00005,10.651756,23.041604)" stroke-width=".3985" stroke-linecap="butt" stroke-miterlimit="10" stroke-linejoin="miter" fill="none" stroke="#929292" d="M7.17107 5.02121C20.7157 14.50504 36.02672 14.47086 46.63342 7.04407"/>
<path transform="matrix(.8191746,.57357868,.5735672,-.81919088,57.286577,15.997171)" d="M3.58653 0C2.52383 .19925 .797 .797-.3985 1.49438V-1.49438C.797-.797 2.52383-.19925 3.58653 0" fill="#929292"/>
<path transform="matrix(1.00003,0,0,-1.00005,10.651756,23.041604)" stroke-width=".3985" stroke-linecap="butt" stroke-miterlimit="10" stroke-linejoin="miter" fill="none" stroke="#000000" d="M6.1903 6.1903C26.24208 26.24208 58.85559 26.18483 76.37129 8.66911"/>
<path transform="matrix(.7071212,.7071353,.7071212,-.7071353,87.025348,14.37206)" d="M3.58653 0C2.52383 .19925 .797 .797-.3985 1.49438V-1.49438C.797-.797 2.52383-.19925 3.58653 0"/>
<path transform="matrix(1.00003,0,0,-1.00005,10.651756,23.041604)" stroke-width=".3985" stroke-linecap="butt" stroke-miterlimit="10" stroke-linejoin="miter" fill="none" stroke="#929292" d="M28.3468-21.2601"/>
<use data-text="N" xlink:href="#font_2_76" transform="matrix(9.962899,0,0,-9.963098,35.263498,47.704835)" fill="#929292"/>
<path transform="matrix(1.00003,0,0,-1.00005,10.651756,23.041604)" stroke-width=".3985" stroke-linecap="butt" stroke-miterlimit="10" stroke-linejoin="miter" fill="none" stroke="#929292" d="M56.69362-21.2601"/>
<use data-text="N" xlink:href="#font_2_76" transform="matrix(9.962899,0,0,-9.963098,63.611349,47.704835)" fill="#929292"/>
<path transform="matrix(1.00003,0,0,-1.00005,10.651756,23.041604)" stroke-width=".3985" stroke-linecap="butt" stroke-miterlimit="10" stroke-linejoin="miter" fill="none" stroke="#000000" d="M85.04042-21.2601"/>
<use data-text="P" xlink:href="#font_2_83" transform="matrix(9.962899,0,0,-9.963098,92.30221,47.704835)"/>
</svg>
