<svg xmlns="http://www.w3.org/2000/svg" xmlns:xlink="http://www.w3.org/1999/xlink" version="1.1" width="251" height="186" viewBox="0 0 251 186">
<defs>
<path id="font_1_42" d="M.6649933 .23271179C.6649933 .24272156 .6649933 .24972534 .6519928 .24972534 .6409912 .24972534 .6409912 .24372864 .6399994 .23371887 .6319885 .09059143 .5249939 .008529663 .41600038 .008529663 .35499574 .008529663 .15899658 .042556764 .15899658 .34080506 .15899658 .64004519 .35398866 .67407229 .4149933 .67407229 .5239868 .67407229 .61299136 .58299258 .6329956 .4368744 .6349945 .42286683 .6349945 .41986085 .6489868 .41986085 .6649933 .41986085 .6649933 .42286683 .6649933 .44387818V.68107607C.6649933 .69807437 .6649933 .7050781 .6539917 .7050781 .6499939 .7050781 .6459961 .7050781 .6380005 .69306948L.58799746 .61901858C.5509949 .6550598 .5 .7050781 .4039917 .7050781 .21699524 .7050781 .055999757 .5459595 .055999757 .34179688 .055999757 .1346283 .21798706-.022460938 .4039917-.022460938 .5669861-.022460938 .6649933 .116622928 .6649933 .23271179Z"/>
<path id="font_1_28" d="M.48298646 .08912659V.14511109H.45799256V.08912659C.45799256 .03112793 .43299867 .025131226 .42199708 .025131226 .3889923 .025131226 .3849945 .070129398 .3849945 .07511902V.27508546C.3849945 .31707765 .3849945 .3560791 .34899903 .39312745 .30999757 .43223573 .2599945 .4482422 .21199036 .4482422 .12998963 .4482422 .06098938 .40115357 .06098938 .335083 .06098938 .30508424 .08099365 .28808595 .10699463 .28808595 .1349945 .28808595 .15299988 .30807496 .15299988 .33407594 .15299988 .3460846 .147995 .37908937 .101989749 .38008119 .1289978 .41519166 .17799378 .426239 .20999146 .426239 .25898744 .426239 .31599427 .38710023 .31599427 .29808045V.26107789C.2649994 .25808717 .19499207 .25508119 .13198853 .22509766 .056991579 .19110108 .03199768 .13911438 .03199768 .09512329 .03199768 .014251709 .1289978-.0107421879 .19198609-.0107421879 .2579956-.0107421879 .3039856 .029251099 .32299806 .07624817 .32699586 .036132814 .35398866-.005859375 .40098573-.005859375 .42199708-.005859375 .48298646 .008132935 .48298646 .08912659M.31599427 .14013672C.31599427 .04525757 .24398804 .011245728 .19898987 .011245728 .1499939 .011245728 .10899353 .04624939 .10899353 .09625244 .10899353 .15124512 .15098572 .23425293 .31599427 .24024964V.14013672Z"/>
<path id="font_1_96" d="M.3639984 .38137818C.3639984 .41337586 .33299256 .4423828 .2899933 .4423828 .21699524 .4423828 .18099976 .37538148 .16699219 .3323822V.4423828L.027999878 .43066407V.3996582C.09799194 .3996582 .10598755 .39266969 .10598755 .34370423V.07595825C.10598755 .0309906 .09498596 .0309906 .027999878 .0309906V0L.14199829 .0029907227C.18199158 .0029907227 .22898865 .0029907227 .2689972 0V.0309906H.24798584C.17399597 .0309906 .17199707 .04197693 .17199707 .07795715V.23181153C.17199707 .33137513 .21398926 .42037965 .2899933 .42037965 .29699708 .42037965 .29899598 .42037965 .30099488 .41937257 .2979889 .41838075 .27799989 .40637208 .27799989 .3803711 .27799989 .35237123 .29899598 .33737184 .32099916 .33737184 .33898927 .33737184 .3639984 .3493805 .3639984 .38137818Z"/>
<path id="font_1_47" d="M.5269928 0V.0309906C.45700074 .0309906 .44898988 .038009645 .44898988 .0871582V.69433596L.30499269 .6826172V.6516113C.375 .6516113 .3829956 .64463809 .3829956 .59580996V.38035584C.35398866 .41636659 .31098939 .4423828 .25698854 .4423828 .13899231 .4423828 .033996583 .3443451 .033996583 .21531677 .033996583 .088272098 .13198853-.0107421879 .24598694-.0107421879 .30999757-.0107421879 .35499574 .023254395 .37998963 .055267335V-.0107421879L.5269928 0M.37998963 .117996219C.37998963 .099990848 .37998963 .09799194 .36898805 .08099365 .33898927 .033218385 .2939911 .011245728 .25099183 .011245728 .20599365 .011245728 .16999817 .037216188 .1459961 .075164798 .11999512 .1161499 .116989139 .17320252 .116989139 .21421814 .116989139 .25125123 .11898804 .31129457 .147995 .35632325 .16899109 .38734437 .20698548 .42037965 .26098634 .42037965 .29599 .42037965 .33799745 .405365 .36898805 .3603363 .37998963 .34332276 .37998963 .34132386 .37998963 .32330323V.117996219Z"/>
<path id="font_1_98" d="M.3600006 .12823487C.3600006 .18122864 .32998658 .21122742 .31799317 .22323609 .2849884 .25523377 .24598694 .26322938 .20399475 .27124024 .147995 .28224183 .08099365 .29522706 .08099365 .35324098 .08099365 .38822938 .10699463 .42922975 .19299317 .42922975 .30299378 .42922975 .30799867 .3392334 .30999757 .30822755 .31098939 .2992401 .32199098 .2992401 .32199098 .2992401 .33499146 .2992401 .33499146 .30422975 .33499146 .32322694V.4242401C.33499146 .4412384 .33499146 .4482422 .32398988 .4482422 .31900025 .4482422 .31698609 .4482422 .3039856 .43623353 .30099488 .43223573 .29100038 .42323304 .2869873 .42022706 .24899292 .4482422 .20799256 .4482422 .19299317 .4482422 .070999149 .4482422 .032989503 .38124085 .032989503 .3252411 .032989503 .29023744 .04899597 .26223756 .07598877 .24023438 .10798645 .2142334 .13598633 .2082367 .20799256 .19422913 .22999573 .19021607 .31199647 .17422486 .31199647 .10221863 .31199647 .051223756 .2769928 .011245728 .19898987 .011245728 .114990238 .011245728 .07899475 .068222049 .05999756 .1532135 .056991579 .16621399 .055999757 .17021179 .04598999 .17021179 .032989503 .17021179 .032989503 .16322327 .032989503 .1452179V.013214111C.032989503-.003753662 .032989503-.0107421879 .04399109-.0107421879 .04899597-.0107421879 .049987794-.009750366 .068984989 .009246826 .070999149 .011245728 .070999149 .013214111 .08898926 .032226564 .1329956-.009750366 .17799378-.0107421879 .19898987-.0107421879 .31399537-.0107421879 .3600006 .05621338 .3600006 .1282196V.12823487Z"/>
<path id="font_1_81" d="M.47099305 .21424866C.47099305 .34223939 .37098695 .4482422 .25 .4482422 .125 .4482422 .027999878 .3392334 .027999878 .21424866 .027999878 .085250858 .13198853-.0107421879 .24899292-.0107421879 .36999513-.0107421879 .47099305 .087249759 .47099305 .21424866M.3880005 .22224427C.3880005 .18624878 .3880005 .13224793 .3659973 .08824158 .34399415 .04324341 .2999878 .014251709 .25 .014251709 .20698548 .014251709 .16299439 .035247804 .13598633 .08125305 .11099243 .12524414 .11099243 .18624878 .11099243 .22224427 .11099243 .26124574 .11099243 .31523133 .1349945 .35923768 .1619873 .40522767 .20899964 .426239 .24899292 .426239 .29299928 .426239 .33599855 .40423585 .3619995 .36123658 .3880005 .3182373 .3880005 .26023866 .3880005 .22224427Z"/>
<path id="font_1_77" d="M.5349884 0V.0309906C.48298646 .0309906 .45799256 .0309906 .45700074 .061019899V.25221253C.45700074 .3383026 .45700074 .36932374 .42599488 .405365 .4119873 .42237855 .3789978 .4423828 .32099916 .4423828 .24798584 .4423828 .20098877 .39935304 .17298889 .33729554V.4423828L.03199768 .43066407V.3996582C.101989749 .3996582 .10998535 .39266969 .10998535 .34370423V.07595825C.10998535 .0309906 .09899902 .0309906 .03199768 .0309906V0L.14498902 .0029907227 .25698854 0V.0309906C.18998719 .0309906 .1789856 .0309906 .1789856 .07595825V.25978089C.1789856 .36431886 .25 .42037965 .31399537 .42037965 .3769989 .42037965 .3880005 .36631776 .3880005 .30926515V.076034549C.3880005 .0309906 .3769989 .0309906 .30999757 .0309906V0L.4229889 .0029907227 .5349884 0Z"/>
<path id="font_1_104" d="M.68499758 .45214845 .66600039 .6767578H.054992677L.035995485 .45214845H.06098938C.07499695 .6128235 .08999634 .64575198 .24099732 .64575198 .25898744 .64575198 .2849884 .64575198 .29499818 .64375308 .31599427 .6397705 .31599427 .6287842 .31599427 .60583499V.07901001C.31599427 .04499817 .31599427 .0309906 .21099854 .0309906H.17098999V0C.21199036 .0029907227 .31399537 .0029907227 .3600006 .0029907227 .4059906 .0029907227 .5089874 .0029907227 .5499878 0V.0309906H.5099945C.40499879 .0309906 .40499879 .04499817 .40499879 .07901001V.60583499C.40499879 .62579348 .40499879 .6397705 .4229889 .64375308 .43399049 .64575198 .46099855 .64575198 .47999574 .64575198 .6309967 .64575198 .6459961 .6128235 .6599884 .45214845H.68499758Z"/>
<path id="font_1_35" d="M.5209961 .2163086C.5209961 .34335328 .4229889 .4423828 .30899049 .4423828 .23098755 .4423828 .18798828 .39537049 .17199707 .3773651V.69433596L.027999878 .68333438V.6523285C.09799194 .6523285 .10598755 .6453247 .10598755 .596344V.00024414063H.1309967L.16699219 .06227112C.18199158 .039260866 .22399903-.0107421879 .2979889-.0107421879 .4169922-.0107421879 .5209961 .08728027 .5209961 .2163086M.43798829 .21731568C.43798829 .18029785 .43598939 .120285037 .40699769 .07527161 .38598634 .044265748 .34799195 .011245728 .2939911 .011245728 .24899292 .011260986 .21299744 .03526306 .18899536 .072265628 .1749878 .09326172 .1749878 .09625244 .1749878 .11425781V.32034303C.1749878 .3393402 .1749878 .3403473 .18598938 .35635377 .22499085 .41236878 .27999879 .42037965 .3039856 .42037965 .34899903 .42037965 .3849945 .3943634 .40899659 .35635377 .43499757 .31533814 .43798829 .25831605 .43798829 .21730042V.21731568Z"/>
<path id="font_1_72" d="M.25498963 0V.0309906C.18798828 .0309906 .1769867 .0309906 .1769867 .07601929V.69433596L.032989503 .6826172V.6516113C.102996829 .6516113 .11099243 .64460757 .11099243 .5956421V.07595825C.11099243 .0309906 .099990848 .0309906 .032989503 .0309906V0L.14399719 .0029907227 .25498963 0Z"/>
<path id="font_1_50" d="M.4149933 .11933899C.4149933 .12934876 .40699769 .13134766 .4019928 .13134766 .3929901 .13134766 .3909912 .12535095 .3889923 .11734009 .35398866 .014251709 .2639923 .014251709 .2539978 .014251709 .20399475 .014251709 .1639862 .044281007 .14099121 .08131409 .11099243 .12934876 .11099243 .19540406 .11099243 .23144531H.3899994C.4119873 .23144531 .4149933 .23144531 .4149933 .2524414 .4149933 .35131837 .36099244 .4482422 .23599243 .4482422 .11999512 .4482422 .027999878 .34532167 .027999878 .22042847 .027999878 .08631897 .1329956-.0107421879 .24798584-.0107421879 .36999513-.0107421879 .4149933 .10032654 .4149933 .11933899M.34899903 .2524414H.11199951C.117996219 .40126039 .20199585 .426239 .23599243 .426239 .33898927 .426239 .34899903 .2913971 .34899903 .2524414Z"/>
<path id="font_1_56" d="M.44898988 .20091248C.44898988 .31991578 .36698915 .41992188 .25898744 .41992188 .21099854 .41992188 .16799927 .4039154 .13198853 .36891175V.5641022C.1519928 .55778506 .18499756 .55078127 .21699524 .55078127 .33999635 .55078127 .4099884 .6418457 .4099884 .65493777 .4099884 .6609802 .40699769 .6660156 .3999939 .6660156 .3999939 .66607668 .39698792 .66607668 .3919983 .66308596 .37199403 .65408328 .32299806 .63378909 .2559967 .63378909 .21598816 .63409426 .16999817 .641098 .12298584 .6621094 .114990238 .6651001 .11099243 .6651001 .11099243 .6651001 .100997928 .66508486 .100997928 .657074 .100997928 .64108279V.3447113C.100997928 .3266449 .100997928 .31861878 .114990238 .31861878 .12199402 .31861878 .12399292 .32164 .12799073 .32765199 .13899231 .34371949 .17599488 .3979187 .25698854 .3979187 .30899049 .3979187 .33399964 .3517456 .34199525 .3336792 .35798646 .2965393 .3600006 .2574005 .3600006 .20721436 .3600006 .17218018 .3600006 .112197879 .33599855 .07032776 .31199647 .031448366 .2749939 .0055389406 .22898865 .0055389406 .1559906 .0055389406 .09899902 .05836487 .08198547 .1171875 .084991458 .11685181 .08799744 .115859989 .09899902 .115859989 .13198853 .115859989 .14898682 .14085388 .14898682 .16485596 .14898682 .18885803 .13198853 .21386719 .09899902 .21386719 .084991458 .21386719 .049987794 .2068634 .049987794 .16085816 .049987794 .07432556 .11898804-.022460938 .23098755-.022460938 .34700013-.022460938 .44898988 .07331848 .44898988 .20019531V.20091248Z"/>
<path id="font_1_82" d="M.4189911 0V.0309906H.3869934C.29699708 .0309906 .2939911 .041992189 .2939911 .07902527V.64012148C.2939911 .6640167 .2939911 .6660156 .2709961 .6660156 .20899964 .60227969 .12098694 .60227969 .08898926 .60227969V.57128909C.10899353 .57128909 .16799927 .57128909 .21998596 .5972748V.07902527C.21998596 .042999269 .21699524 .0309906 .1269989 .0309906H.09498596V0C.12998963 .0029907227 .21699524 .0029907227 .25698854 .0029907227 .29699708 .0029907227 .38398744 .0029907227 .4189911 0Z"/>
<path id="font_1_51" d="M.45700074 .16764832C.45700074 .20367432 .44599916 .24871826 .4079895 .29074098 .3889923 .31176759 .37298585 .32176209 .30899049 .36180116 .3809967 .39881898 .42999269 .4508667 .42999269 .51690676 .42999269 .6089783 .34098817 .6660156 .25 .6660156 .1499939 .6660156 .068984989 .5919647 .068984989 .49890138 .068984989 .48088075 .070999149 .43585206 .11299133 .38882447 .12399292 .3768158 .16099549 .35179139 .18598938 .33477784 .12799073 .30575563 .041992189 .24971009 .041992189 .15063477 .041992189 .044555665 .14399719-.022460938 .24899292-.022460938 .3619995-.022460938 .45700074 .060577394 .45700074 .16764832M.38598634 .51690676C.38598634 .45986939 .34700013 .41183473 .2869873 .3768158L.16299439 .4568634C.116989139 .4868927 .11299133 .5209198 .11299133 .53793337 .11299133 .5989685 .17799378 .64100649 .24899292 .64100649 .32199098 .64100649 .38598634 .588974 .38598634 .51690676M.40699769 .13162232C.40699769 .05757141 .33198548 .0055389406 .25 .0055389406 .1639862 .0055389406 .09199524 .06758118 .09199524 .15063477 .09199524 .2086792 .12399292 .2727356 .20899964 .31976319L.33198548 .24171448C.3600006 .22268677 .40699769 .19267273 .40699769 .13162232Z"/>
<path id="font_1_57" d="M.47099305 .16503906V.19602967H.37098695V.6507721C.37098695 .6707611 .37098695 .6767578 .35499574 .6767578 .34599305 .6767578 .34298707 .6767578 .33499146 .6647644L.027999878 .19602967V.16503906H.2939911V.07800293C.2939911 .041992189 .2919922 .0309906 .21798706 .0309906H.19699097V0C.23799134 .0029907227 .2899933 .0029907227 .33198548 .0029907227 .37399293 .0029907227 .4269867 .0029907227 .46798707 0V.0309906H.44699098C.37298585 .0309906 .37098695 .041992189 .37098695 .07800293V.16503906H.47099305M.2999878 .19602967H.055999757L.2999878 .56881716V.19602967Z"/>
<path id="font_1_106" d="M.45700074 .17037964C.45700074 .252594 .3939972 .33088685 .2899933 .35191346 .37199403 .37893678 .42999269 .4490509 .42999269 .52809146 .42999269 .6100464 .34199525 .6660156 .24598694 .6660156 .14498902 .6660156 .068984989 .60606387 .068984989 .53009036 .068984989 .49710084 .09098816 .47808839 .11999512 .47808839 .15098572 .47808839 .17098999 .50009158 .17098999 .5290985 .17098999 .57910159 .12399292 .57910159 .10899353 .57910159 .13999939 .62802127 .20599365 .64100649 .24198914 .64100649 .2829895 .64100649 .33799745 .6190338 .33799745 .5290985 .33799745 .51708987 .33599855 .45906068 .30999757 .4149933 .27999879 .36691285 .24598694 .36390687 .22099304 .36291505 .21299744 .36190797 .18899536 .35990907 .18199158 .35990907 .17399597 .35890199 .16699219 .35791017 .16699219 .3479004 .16699219 .33691407 .17399597 .33691407 .19099427 .33691407H.23498535C.31698609 .33691407 .35398866 .2686615 .35398866 .17037964 .35398866 .034469606 .2849884 .0055389406 .24099732 .0055389406 .19799805 .0055389406 .12298584 .022491456 .08799744 .08137512 .12298584 .07637024 .1539917 .09837341 .1539917 .1363678 .1539917 .17237854 .1269989 .19238281 .09799194 .19238281 .07398987 .19238281 .041992189 .17837525 .041992189 .1343689 .041992189 .043441774 .1349945-.022460938 .24398804-.022460938 .3659973-.022460938 .45700074 .06838989 .45700074 .17037964Z"/>
<path id="font_1_95" d="M.7319946 .08753967C.7319946 .09353638 .7319946 .104537967 .71899417 .104537967 .70799258 .104537967 .70799258 .09555054 .70700076 .08854675 .70098879 .017532349 .66600039-.00047302247 .6409912-.00047302247 .59199526-.00047302247 .58399966 .05053711 .56999209 .14355469L.5569916 .22355652C.5389862 .28756715 .48999024 .3205719 .43499757 .3395691 .5319977 .36357118 .6100006 .4245758 .6100006 .502594 .6100006 .5986023 .49598695 .6826172 .34899903 .6826172H.034988405V.6516113H.05899048C.13598633 .6516113 .13798523 .64060977 .13798523 .604599V.077545169C.13798523 .04197693 .13598633 .0309906 .05899048 .0309906H.034988405V0C.070999149 .0029907227 .14199829 .0029907227 .18099976 .0029907227 .21998596 .0029907227 .29100038 .0029907227 .32699586 0V.0309906H.30299378C.22599793 .0309906 .22399903 .04197693 .22399903 .077926639V.3305359H.33898927C.35499574 .3305359 .39698792 .3305359 .43199159 .29658509 .46998597 .26063539 .46998597 .22969055 .46998597 .16279602 .46998597 .09788513 .46998597 .05795288 .5109863 .019989014 .5519867-.016464234 .6069946-.022460938 .6369934-.022460938 .71499636-.022460938 .7319946 .059524537 .7319946 .087524417V.08753967M.5069885 .5025635C.5069885 .43354798 .48298646 .35253907 .33499146 .35253907H.22399903V.6116028C.22399903 .6345978 .22399903 .64660647 .24598694 .6496124 .2559967 .6516113 .2849884 .6516113 .30499269 .6516113 .394989 .6516113 .5069885 .6476135 .5069885 .5025635Z"/>
<path id="font_1_105" d="M.33198548 .12385559V.18066406H.30699159V.12585449C.30699159 .052108766 .2769928 .014251709 .23999024 .014251709 .17298889 .014251709 .17298889 .10491943 .17298889 .12187195V.3996582H.31599427V.43066407H.17298889V.6142578H.147995C.14698792 .5324249 .116989139 .42565919 .018997193 .42166139V.3996582H.10398865V.12408447C.10398865 .0012512207 .19699097-.0107421879 .23298645-.0107421879 .3039856-.0107421879 .33198548 .060180665 .33198548 .12408447V.12385559Z"/>
<path id="font_1_97" d="M.49899293 .18579102C.49899293 .2858429 .43299867 .36791993 .34899903 .38793946L.22099304 .4189453C.15899658 .43388368 .11999512 .48773194 .11999512 .5458069 .11999512 .61595156 .17399597 .677063 .2519989 .677063 .4189911 .677063 .44099427 .5127411 .44699098 .46777345 .44799806 .461792 .44799806 .45581056 .45899964 .45581056 .47200013 .45581056 .47200013 .46080018 .47200013 .47973634V.68107607C.47200013 .69807437 .47200013 .7050781 .46099855 .7050781 .45399476 .7050781 .45298768 .70407107 .44599916 .69207766L.41099549 .63497927C.3809967 .66404727 .33999635 .7050781 .25099183 .7050781 .13999939 .7050781 .055999757 .61694338 .055999757 .5107422 .055999757 .42790223 .10899353 .35490418 .18699646 .32788087 .19799805 .32388307 .24899292 .3118744 .31900025 .29486085 .34599305 .28785707 .37599183 .280838 .4039917 .24382019 .4249878 .2177887 .43499757 .18478394 .43499757 .1517334 .43499757 .0806427 .3849945 .008529663 .30099488 .008529663 .27198792 .008529663 .19599915 .013534546 .14299011 .06260681 .084991458 .11668396 .08198547 .18078614 .08099365 .21679688 .07998657 .22679138 .07199097 .22679138 .068984989 .22679138 .055999757 .22679138 .055999757 .2197876 .055999757 .20178223V.0015258789C.055999757-.015472412 .055999757-.022460938 .066986087-.022460938 .07398987-.022460938 .07499695-.020462037 .08198547-.009475708 .08198547-.009475708 .084991458-.0054626467 .117996219 .047592164 .14898682 .013534546 .21299744-.022460938 .3019867-.022460938 .4189911-.022460938 .49899293 .07562256 .49899293 .18579102Z"/>
<path id="font_1_74" d="M.8789978 0V.0309906H.8549957C.7779999 .0309906 .776001 .041992189 .776001 .07795715V.6046295C.776001 .64060977 .7779999 .6516113 .8549957 .6516113H.8789978V.6826172H.70999148C.6839905 .6826172 .6839905 .6816101 .6769867 .66360476L.45799256 .10095215 .24099732 .660614C.23199463 .6826172 .22898865 .6826172 .20599365 .6826172H.036987306V.6516113H.06098938C.13798523 .6516113 .13999939 .64060977 .13999939 .6046295V.10494995C.13999939 .07795715 .13999939 .0309906 .036987306 .0309906V0L.1539917 .0029907227 .2709961 0V.0309906C.16799927 .0309906 .16799927 .07795715 .16799927 .10494995V.6436157H.16899109L.4099884 .021987915C.4149933 .008987427 .41999818 0 .42999269 0 .44099427 0 .44400025 .0079956059 .44799806 .018997193L.69400027 .6516113H.69499209V.07795715C.69499209 .041992189 .69299319 .0309906 .6159973 .0309906H.59199526V0C.6289978 .0029907227 .69699099 .0029907227 .73599246 .0029907227 .7749939 .0029907227 .84199526 .0029907227 .8789978 0Z"/>
<path id="font_1_112" d="M.5079956 .3996582V.43066407C.4850006 .4286499 .45599366 .42765809 .43299867 .42765809L.34599305 .43066407V.3996582C.3829956 .39865113 .3939972 .37568666 .3939972 .35671998 .3939972 .34773255 .3919983 .34373475 .3880005 .3327484L.28599549 .078125 .17399597 .35671998C.16799927 .3697052 .16799927 .37368775 .16799927 .37368775 .16799927 .3996582 .20698548 .3996582 .22499085 .3996582V.43066407L.115997318 .42765809C.08898926 .42765809 .04899597 .4286499 .018997193 .43066407V.3996582C.08198547 .3996582 .085998538 .3936615 .09899902 .36271668L.24299622 .008224487C.24899292-.0057525637 .25099183-.0107421879 .2639923-.0107421879 .2769928-.0107421879 .2809906-.0017700195 .2849884 .008224487L.41600038 .3327484C.4249878 .3557129 .44198609 .39865113 .5079956 .3996582Z"/>
<path id="font_1_71" d="M.58200076 .2578125H.5569916C.54599 .15588379 .5319977 .0309906 .35598756 .0309906H.27398683C.22698975 .03060913 .22499085 .037612916 .22499085 .07060242V.6036072C.22499085 .63760378 .22499085 .6516113 .31999208 .6516113H.35299684V.6826172C.31698609 .6796112 .22599793 .6796112 .18499756 .6796112 .1459961 .6796112 .067993167 .6796112 .032989503 .6826172V.6516113H.056991579C.13398743 .6518097 .13598633 .6408081 .13598633 .6048126V.07795715C.13598633 .04197693 .13398743 .0309906 .056991579 .0309906H.032989503V0H.55400088L.58200076 .2578125Z"/>
<path id="font_1_55" d="M.35699464 .63479617C.35699464 .6717987 .31999208 .7050781 .2669983 .7050781 .19699097 .7050781 .11199951 .65179446 .11199951 .5457611V.43066407H.032989503V.3996582H.11199951V.07595825C.11199951 .0309906 .100997928 .0309906 .033996583 .0309906V0L.147995 .0029907227C.18798828 .0029907227 .23498535 .0029907227 .2749939 0V.0309906H.2539978C.17999268 .0309906 .17799378 .04197693 .17799378 .07795715V.3996582H.2919922V.43066407H.1749878V.5467529C.1749878 .63479617 .22299195 .68307498 .2669983 .68307498 .269989 .68307498 .2849884 .68307498 .2999878 .675827 .28799439 .6717987 .269989 .6587982 .269989 .6338043 .269989 .61079409 .28599549 .5907898 .31298829 .5907898 .34199525 .5907898 .35699464 .61079409 .35699464 .63479617Z"/>
<path id="font_1_102" d="M.44299317 .7299957C.44299317 .7409973 .43399049 .75 .4229889 .75 .40899659 .75 .40499879 .73999026 .4019928 .7299957L.06098938-.21200562C.055999757-.2250061 .055999757-.23001099 .055999757-.23001099 .055999757-.24101258 .06498718-.25 .07598877-.25 .08999634-.25 .09399414-.2400055 .09700012-.23001099L.43798829 .71199038C.44299317 .72499087 .44299317 .7299957 .44299317 .7299957Z"/>
<path id="font_1_66" d="M.24699402 0V.0309906C.18099976 .0309906 .1769867 .035995485 .1769867 .075042728V.4423828L.036987306 .43066407V.3996582C.101989749 .3996582 .11099243 .3936615 .11099243 .3447113V.07595825C.11099243 .0309906 .099990848 .0309906 .032989503 .0309906V0L.14299011 .0029907227C.17799378 .0029907227 .21299744 .0009918213 .24699402 0M.19198609 .603775C.19198609 .6307678 .16899109 .6567688 .13899231 .6567688 .10499573 .6567688 .084991458 .6287689 .084991458 .603775 .084991458 .57676699 .10798645 .55078127 .13798523 .55078127 .17199707 .55078127 .19198609 .5787811 .19198609 .603775Z"/>
<path id="font_1_59" d="M.4850006 .40411378C.4850006 .42111207 .47299195 .453125 .43399049 .453125 .4139862 .453125 .36999513 .44711305 .32798768 .40611268 .28599549 .43937684 .24398804 .4423828 .22200012 .4423828 .1289978 .4423828 .05999756 .37338258 .05999756 .29638673 .05999756 .25239564 .08198547 .21440125 .10699463 .19340515 .09399414 .17840576 .07598877 .14538574 .07598877 .11035156 .07598877 .07899475 .08898926 .04083252 .11999512 .020828248 .05999756 .003829956 .027999878-.039138795 .027999878-.07911682 .027999878-.15107727 .1269989-.20605469 .24899292-.20605469 .36698915-.20605469 .47099305-.15507508 .47099305-.07711792 .47099305-.042144777 .45700074 .008834839 .4059906 .036834718 .35299684 .064834598 .29499818 .064834598 .23399353 .064834598 .20899964 .064834598 .1659851 .064834598 .15899658 .065841678 .1269989 .069885257 .10598755 .101242069 .10598755 .13334656 .10598755 .13735962 .10598755 .16040039 .12298584 .18040467 .1619873 .15240479 .20298767 .14941406 .22200012 .14941406 .31498719 .14941406 .38398744 .21839905 .38398744 .2953949 .38398744 .3323822 .36799623 .36938478 .34298707 .39237977 .3789978 .42637635 .4149933 .43138124 .43299867 .43138124 .43299867 .43112184 .43998719 .43112184 .44299317 .43011476 .43199159 .42611695 .4269867 .41513063 .4269867 .40315248 .4269867 .38616944 .43998719 .37417604 .45599366 .37417604 .46598817 .37417604 .4850006 .3811798 .4850006 .4041443V.40411378M.30899049 .29626466C.30899049 .26930238 .30799867 .2373352 .29299928 .21235657 .2849884 .20037842 .2619934 .17240906 .22200012 .17240906 .1349945 .17240906 .1349945 .2722931 .1349945 .29527284 .1349945 .3222351 .13598633 .35420228 .15098572 .3791809 .15899658 .3913269 .18199158 .41937257 .22200012 .41937257 .30899049 .41937257 .30899049 .31922914 .30899049 .29618836V.29626466M.4189911-.07911682C.4189911-.13308716 .34799195-.18305969 .25-.18305969 .14898682-.18305969 .07998657-.13209534 .07998657-.07911682 .07998657-.03314209 .117996219 .003829956 .1619873 .0068359377H.22099304C.30699159 .0068359377 .4189911 .0068359377 .4189911-.07911682Z"/>
<path id="font_1_63" d="M.5349884 0V.0309906C.48298646 .0309906 .45799256 .0309906 .45700074 .061019899V.25221253C.45700074 .3383026 .45700074 .36932374 .42599488 .405365 .4119873 .42237855 .3789978 .4423828 .32099916 .4423828 .23699951 .4423828 .19299317 .38233949 .1769867 .34629823H.17599488V.69433596L.03199768 .6826172V.6516113C.101989749 .6516113 .10998535 .64463809 .10998535 .59580996V.076034549C.10998535 .0309906 .09899902 .0309906 .03199768 .0309906V0L.14498902 .0029907227 .25698854 0V.0309906C.18998719 .0309906 .1789856 .0309906 .1789856 .076034549V.2602234C.1789856 .36431886 .25 .42037965 .31399537 .42037965 .3769989 .42037965 .3880005 .36631776 .3880005 .30926515V.076034549C.3880005 .0309906 .3769989 .0309906 .30999757 .0309906V0L.4229889 .0029907227 .5349884 0Z"/>
<path id="font_1_75" d="M.8129883 0V.0309906C.7609863 .0309906 .73599246 .0309906 .7350006 .061019899V.25221253C.7350006 .3383026 .7350006 .36932374 .70399478 .405365 .6899872 .42237855 .6569977 .4423828 .598999 .4423828 .5149994 .4423828 .47099305 .38233949 .45399476 .34429933 .43998719 .43138124 .3659973 .4423828 .32099916 .4423828 .24798584 .4423828 .20098877 .39935304 .17298889 .33729554V.4423828L.03199768 .43066407V.3996582C.101989749 .3996582 .10998535 .39266969 .10998535 .34370423V.07595825C.10998535 .0309906 .09899902 .0309906 .03199768 .0309906V0L.14498902 .0029907227 .25698854 0V.0309906C.18998719 .0309906 .1789856 .0309906 .1789856 .07595825V.25978089C.1789856 .36431886 .25 .42037965 .31399537 .42037965 .3769989 .42037965 .3880005 .36631776 .3880005 .30926515V.076034549C.3880005 .0309906 .3769989 .0309906 .30999757 .0309906V0L.4229889 .0029907227 .5349884 0V.0309906C.46798707 .0309906 .45700074 .0309906 .45700074 .076034549V.2602234C.45700074 .36431886 .5279999 .42037965 .59199526 .42037965 .6549988 .42037965 .66600039 .36631776 .66600039 .30926515V.076034549C.66600039 .0309906 .6549988 .0309906 .58799746 .0309906V0L.70098879 .0029907227 .8129883 0Z"/>
<path id="font_1_84" d="M.5209961 .21636963C.5209961 .34336854 .42399598 .4423828 .31199647 .4423828 .23399353 .4423828 .19198609 .39837647 .17199707 .3763733V.4423828L.027999878 .43066407V.3996582C.09899902 .3996582 .10598755 .3936615 .10598755 .34973146V-.117996219C.10598755-.16308594 .09498596-.16308594 .027999878-.16308594V-.1940918L.13999939-.19110108 .25299073-.1940918V-.16308594C.18598938-.16308594 .1749878-.16308594 .1749878-.117996219V.050186159 .059173585C.17999268 .04319763 .22200012-.0107421879 .2979889-.0107421879 .4169922-.0107421879 .5209961 .087127689 .5209961 .21594239V.21636963M.43798829 .21594239C.43798829 .09512329 .36799623 .011245728 .2939911 .011245728 .2539978 .011245728 .21598816 .031219483 .18899536 .07215881 .1749878 .09312439 .1749878 .09411621 .1749878 .114089969V.33674623C.20399475 .38838197 .25299073 .41737367 .3039856 .41737367 .3769989 .41737367 .43798829 .32937623 .43798829 .21636963V.21594239Z"/>
<path id="font_1_499" d="M.19198609 .44699098C.19198609 .47299195 .1749878 .5 .13899231 .5 .11898804 .5 .10499573 .48999024 .09899902 .48399354 .09799194 .48199464 .09599304 .48098756 .09599304 .48098756 .09599304 .48098756 .09399414 .49499513 .09399414 .49899293 .09399414 .53105166 .100997928 .60317996 .1639862 .66529849 .17599488 .6773224 .17599488 .6793213 .17599488 .6823273 .17599488 .6893463 .17098999 .6933594 .1659851 .6933594 .15499878 .6933594 .07199097 .617218 .07199097 .49899293 .07199097 .43899537 .09599304 .3939972 .13899231 .3939972 .17399597 .3939972 .19198609 .42099 .19198609 .44699098M.38598634 .44699098C.38598634 .47299195 .36898805 .5 .33299256 .5 .31298829 .5 .29899598 .48999024 .29299928 .48399354 .2919922 .48199464 .2899933 .48098756 .2899933 .48098756 .2899933 .48098756 .28799439 .49499513 .28799439 .49899293 .28799439 .53105166 .29499818 .60317996 .35798646 .66529849 .36999513 .6773224 .36999513 .6793213 .36999513 .6823273 .36999513 .6893463 .36499024 .6933594 .3600006 .6933594 .34899903 .6933594 .2659912 .617218 .2659912 .49899293 .2659912 .43899537 .2899933 .3939972 .33299256 .3939972 .36799623 .3939972 .38598634 .42099 .38598634 .44699098Z"/>
<path id="font_1_43" d="M.4149933 .119140628C.4149933 .12911988 .40499879 .12911988 .4019928 .12911988 .3929901 .12911988 .3909912 .12512207 .3889923 .119140628 .3600006 .026229859 .29499818 .014251709 .2579956 .014251709 .20498657 .014251709 .116989139 .0572052 .116989139 .21801758 .116989139 .38093568 .19898987 .42323304 .2519989 .42323304 .26098634 .42323304 .32398988 .42222596 .35899354 .38594056 .31799317 .38293458 .31199647 .3529358 .31199647 .3399353 .31199647 .31393434 .32998658 .2939453 .35798646 .2939453 .38398744 .2939453 .4039917 .3109436 .4039917 .34094239 .4039917 .40911866 .32798768 .4482422 .25099183 .4482422 .12599182 .4482422 .033996583 .3399353 .033996583 .21601868 .033996583 .08816528 .1329956-.0107421879 .24899292-.0107421879 .3829956-.0107421879 .4149933 .10914612 .4149933 .119140628Z"/>
<path id="font_1_500" d="M.20599365 .58932498C.20599365 .6493225 .18199158 .69433596 .13899231 .69433596 .10398865 .69433596 .085998538 .6673279 .085998538 .6413269 .085998538 .6153259 .102996829 .58833315 .13899231 .58833315 .15899658 .58833315 .17298889 .59832766 .1789856 .60432437 .17999268 .60632327 .18199158 .6073303 .18199158 .6073303 .18199158 .6073303 .18399048 .59332278 .18399048 .58932498 .18399048 .5573273 .1769867 .48532105 .11399841 .42332459 .101989749 .41133119 .101989749 .40933229 .101989749 .4063263 .101989749 .3993225 .10699463 .3953247 .11199951 .3953247 .12298584 .3953247 .20599365 .47132875 .20599365 .58932498M.3999939 .58932498C.3999939 .6493225 .37599183 .69433596 .33299256 .69433596 .2979889 .69433596 .27999879 .6673279 .27999879 .6413269 .27999879 .6153259 .29699708 .58833315 .33299256 .58833315 .35299684 .58833315 .36698915 .59832766 .37298585 .60432437 .37399293 .60632327 .37599183 .6073303 .37599183 .6073303 .37599183 .6073303 .37799073 .59332278 .37799073 .58932498 .37799073 .5573273 .37098695 .48532105 .30799867 .42332459 .29599 .41133119 .29599 .40933229 .29599 .4063263 .29599 .3993225 .30099488 .3953247 .30599977 .3953247 .31698609 .3953247 .3999939 .47132875 .3999939 .58932498Z"/>
<path id="font_1_114" d="M.7029877 .3996582V.43066407C.68099978 .4286499 .6519928 .42765809 .6299896 .42765809L.5369873 .43066407V.3996582C.57299807 .39866639 .59498599 .38075257 .59498599 .35176087 .59498599 .34576417 .59498599 .34376527 .58999636 .33078004L.49899293 .07513428 .3999939 .35375978C.3959961 .36575318 .394989 .36775209 .394989 .37275697 .394989 .3996582 .43399049 .3996582 .45399476 .3996582V.43066407L.34999085 .42765809C.31999208 .42765809 .29100038 .4286499 .26098634 .43066407V.3996582C.2979889 .3996582 .31399537 .39767457 .32398988 .38476563 .32899476 .37875367 .33999635 .34877015 .34700013 .3297882L.26098634 .08811951 .1659851 .3547516C.16099549 .36676026 .16099549 .36875917 .16099549 .37275697 .16099549 .3996582 .19999695 .3996582 .21998596 .3996582V.43066407L.11099243 .42765809 .017990113 .43066407V.3996582C.067993167 .3996582 .07998657 .39668275 .09199524 .36476136L.21798706 .01121521C.22299195-.0027618409 .22599793-.0107421879 .23899842-.0107421879 .2519989-.0107421879 .2539978-.004760742 .25898744 .009216309L.3600006 .2918396 .46199037 .008224487C.46598817-.0027618409 .46899415-.0107421879 .48199464-.0107421879 .49499513-.0107421879 .49798585-.0017547608 .5019989 .008224487L.61898806 .3357849C.6369934 .38575746 .66799929 .39866639 .7029877 .3996582Z"/>
<path id="font_1_53" d="M.19198609 .6649933C.19198609 .69799807 .16499329 .71598818 .13899231 .71598818 .11299133 .71598818 .085998538 .69799807 .085998538 .6649933L.125 .20999146C.12599182 .19499207 .1269989 .18699646 .13899231 .18699646 .14898682 .18699646 .1519928 .19198609 .15299988 .20899964L.19198609 .6649933M.19198609 .052993776C.19198609 .08198547 .16799927 .10598755 .13899231 .10598755 .10998535 .10598755 .085998538 .08198547 .085998538 .052993776 .085998538 .023986817 .10998535 0 .13899231 0 .16799927 0 .19198609 .023986817 .19198609 .052993776Z"/>
</defs>
<path transform="matrix(1.00002,0,0,-1.00002,1.9837036,43.74962)" stroke-width=".3985" stroke-linecap="butt" stroke-miterlimit="10" stroke-linejoin="miter" fill="none" stroke="#000000" d="M52.44176 28.3468"/>
<use data-text="C" xlink:href="#font_1_42" transform="matrix(9.962799,0,0,-9.962799,21.036087,11.662979)"/>
<use data-text="a" xlink:href="#font_1_28" transform="matrix(9.962799,0,0,-9.962799,28.229233,11.662979)"/>
<use data-text="r" xlink:href="#font_1_96" transform="matrix(9.962799,0,0,-9.962799,33.210634,11.662979)"/>
<use data-text="d" xlink:href="#font_1_47" transform="matrix(9.962799,0,0,-9.962799,37.11605,11.662979)"/>
<use data-text="s" xlink:href="#font_1_98" transform="matrix(9.962799,0,0,-9.962799,42.655374,11.662979)"/>
<use data-text="o" xlink:href="#font_1_81" transform="matrix(9.962799,0,0,-9.962799,49.898324,11.662979)"/>
<use data-text="n" xlink:href="#font_1_77" transform="matrix(9.962799,0,0,-9.962799,54.879724,11.662979)"/>
<use data-text="T" xlink:href="#font_1_104" transform="matrix(9.962799,0,0,-9.962799,63.73665,11.662979)"/>
<use data-text="a" xlink:href="#font_1_28" transform="matrix(9.962799,0,0,-9.962799,70.11284,11.662979)"/>
<use data-text="b" xlink:href="#font_1_35" transform="matrix(9.962799,0,0,-9.962799,75.09422,11.662979)"/>
<use data-text="l" xlink:href="#font_1_72" transform="matrix(9.962799,0,0,-9.962799,80.633548,11.662979)"/>
<use data-text="e" xlink:href="#font_1_50" transform="matrix(9.962799,0,0,-9.962799,83.4032,11.662979)"/>
<path transform="matrix(1.00002,0,0,-1.00002,1.9837036,43.74962)" stroke-width=".3985" stroke-linecap="butt" stroke-miterlimit="10" stroke-linejoin="miter" fill="none" stroke="#000000" d="M0 0V28.3468H104.88309V0ZM104.88309 28.3468"/>
<path transform="matrix(1.00002,0,0,-1.00002,1.9837036,43.74962)" stroke-width=".3985" stroke-linecap="butt" stroke-miterlimit="10" stroke-linejoin="miter" fill="none" stroke="#000000" d="M5.66927 5.66927V22.67752H19.84267V5.66927ZM12.75597 14.17339"/>
<use data-text="5" xlink:href="#font_1_56" transform="matrix(9.962799,0,0,-9.962799,12.248909,32.7844)"/>
<path transform="matrix(1.00002,0,0,-1.00002,1.9837036,43.74962)" stroke-width=".3985" stroke-linecap="butt" stroke-miterlimit="10" stroke-linejoin="miter" fill="none" stroke="#000000" d="M25.51193 5.66927V22.67752H39.68533V5.66927ZM32.59865 14.17339"/>
<use data-text="1" xlink:href="#font_1_82" transform="matrix(9.962799,0,0,-9.962799,32.092309,32.893404)"/>
<path transform="matrix(1.00002,0,0,-1.00002,1.9837036,43.74962)" stroke-width=".3985" stroke-linecap="butt" stroke-miterlimit="10" stroke-linejoin="miter" fill="none" stroke="#000000" d="M45.35506 5.66927V22.67752H59.52844V5.66927ZM52.44176 14.17339"/>
<use data-text="8" xlink:href="#font_1_51" transform="matrix(9.962799,0,0,-9.962799,51.935705,32.7844)"/>
<path transform="matrix(1.00002,0,0,-1.00002,1.9837036,43.74962)" stroke-width=".3985" stroke-linecap="butt" stroke-miterlimit="10" stroke-linejoin="miter" fill="none" stroke="#000000" d="M65.19774 5.66927V22.67752H79.37114V5.66927ZM72.28444 14.17339"/>
<use data-text="4" xlink:href="#font_1_57" transform="matrix(9.962799,0,0,-9.962799,71.7791,32.948404)"/>
<path transform="matrix(1.00002,0,0,-1.00002,1.9837036,43.74962)" stroke-width=".3985" stroke-linecap="butt" stroke-miterlimit="10" stroke-linejoin="miter" fill="none" stroke="#000000" d="M85.04042 5.66927V22.67752H99.21382V5.66927ZM92.12712 14.17339"/>
<use data-text="3" xlink:href="#font_1_106" transform="matrix(9.962799,0,0,-9.962799,91.6215,32.7844)"/>
<path transform="matrix(1.00002,0,0,-1.00002,1.9837036,43.74962)" stroke-width=".3985" stroke-linecap="butt" stroke-miterlimit="10" stroke-linejoin="miter" fill="none" stroke="#000000" d="M5.66927-14.17339V-28.34679H39.68535V-14.17339ZM22.67711-21.2601"/>
<use data-text="R" xlink:href="#font_1_95" transform="matrix(9.962799,0,0,-9.962799,11.166885,68.35811)"/>
<use data-text="o" xlink:href="#font_1_81" transform="matrix(9.962799,0,0,-9.962799,18.499505,68.35811)"/>
<use data-text="b" xlink:href="#font_1_35" transform="matrix(9.962799,0,0,-9.962799,23.480904,68.35811)"/>
<use data-text="o" xlink:href="#font_1_81" transform="matrix(9.962799,0,0,-9.962799,29.299187,68.35811)"/>
<use data-text="t" xlink:href="#font_1_105" transform="matrix(9.962799,0,0,-9.962799,34.280588,68.35811)"/>
<path transform="matrix(1.00002,0,0,-1.00002,1.9837036,43.74962)" stroke-width=".3985" stroke-linecap="butt" stroke-miterlimit="10" stroke-linejoin="miter" fill="none" stroke="#000000" d="M8.50412-14.17339V-8.50412H17.00824V-14.17339ZM17.00824-8.50412"/>
<path transform="matrix(1.00002,0,0,-1.00002,1.9837036,43.74962)" stroke-width=".3985" stroke-linecap="butt" stroke-miterlimit="10" stroke-linejoin="miter" fill="none" stroke="#000000" d="M9.84758-6.18225C11.72601-5.49855 13.78639-5.49855 15.66483-6.18225"/>
<path transform="matrix(1.00002,0,0,-1.00002,1.9837036,43.74962)" stroke-width=".3985" stroke-linecap="butt" stroke-miterlimit="10" stroke-linejoin="miter" fill="none" stroke="#000000" d="M8.87827-3.51869C11.3828-2.60709 14.12988-2.60709 16.63441-3.51869"/>
<path transform="matrix(1.00002,0,0,-1.00002,1.9837036,43.74962)" stroke-width=".3985" stroke-linecap="butt" stroke-miterlimit="10" stroke-linejoin="miter" fill="none" stroke="#000000" d="M28.34679-14.17339V-8.50412H36.8509V-14.17339ZM36.8509-8.50412"/>
<path transform="matrix(1.00002,0,0,-1.00002,1.9837036,43.74962)" stroke-width=".3985" stroke-linecap="butt" stroke-miterlimit="10" stroke-linejoin="miter" fill="none" stroke="#000000" d="M29.69026-6.18225C31.5687-5.49855 33.62907-5.49855 35.5075-6.18225"/>
<path transform="matrix(1.00002,0,0,-1.00002,1.9837036,43.74962)" stroke-width=".3985" stroke-linecap="butt" stroke-miterlimit="10" stroke-linejoin="miter" fill="none" stroke="#000000" d="M28.72095-3.51869C31.22548-2.60709 33.97256-2.60709 36.4771-3.51869"/>
<path transform="matrix(1.00002,0,0,-1.00002,1.9837036,43.74962)" stroke-width=".3985" stroke-linecap="butt" stroke-miterlimit="10" stroke-linejoin="miter" fill="none" stroke="#000000" d="M46.10674-8.50412H56.6936"/>
<path transform="matrix(-1.00002,-0,0,1.00002,48.091367,52.25391)" d="M3.58653 0C2.52383 .19925 .797 .797-.3985 1.49438V-1.49438C.797-.797 2.52383-.19925 3.58653 0"/>
<use data-text="S" xlink:href="#font_1_97" transform="matrix(9.962799,0,0,-9.962799,62.19791,55.655858)"/>
<use data-text="e" xlink:href="#font_1_50" transform="matrix(9.962799,0,0,-9.962799,67.73723,55.655858)"/>
<use data-text="n" xlink:href="#font_1_77" transform="matrix(9.962799,0,0,-9.962799,72.160709,55.655858)"/>
<use data-text="s" xlink:href="#font_1_98" transform="matrix(9.962799,0,0,-9.962799,77.70003,55.655858)"/>
<use data-text="o" xlink:href="#font_1_81" transform="matrix(9.962799,0,0,-9.962799,81.62537,55.655858)"/>
<use data-text="r" xlink:href="#font_1_96" transform="matrix(9.962799,0,0,-9.962799,86.606769,55.655858)"/>
<use data-text="s" xlink:href="#font_1_98" transform="matrix(9.962799,0,0,-9.962799,90.51219,55.655858)"/>
<path transform="matrix(1.00002,0,0,-1.00002,1.9837036,43.74962)" stroke-width=".3985" stroke-linecap="butt" stroke-miterlimit="10" stroke-linejoin="miter" fill="none" stroke="#000000" d="M194.17581 28.3468"/>
<use data-text="R" xlink:href="#font_1_95" transform="matrix(9.962799,0,0,-9.962799,142.37851,9.391933)"/>
<use data-text="o" xlink:href="#font_1_81" transform="matrix(9.962799,0,0,-9.962799,149.71112,9.391933)"/>
<use data-text="b" xlink:href="#font_1_35" transform="matrix(9.962799,0,0,-9.962799,154.69254,9.391933)"/>
<use data-text="o" xlink:href="#font_1_81" transform="matrix(9.962799,0,0,-9.962799,160.5108,9.391933)"/>
<use data-text="t" xlink:href="#font_1_105" transform="matrix(9.962799,0,0,-9.962799,165.49222,9.391933)"/>
<use data-text="M" xlink:href="#font_1_74" transform="matrix(9.962799,0,0,-9.962799,172.68535,9.391933)"/>
<use data-text="o" xlink:href="#font_1_81" transform="matrix(9.962799,0,0,-9.962799,181.82123,9.391933)"/>
<use data-text="v" xlink:href="#font_1_112" transform="matrix(9.962799,0,0,-9.962799,186.53362,9.391933)"/>
<use data-text="e" xlink:href="#font_1_50" transform="matrix(9.962799,0,0,-9.962799,191.51503,9.391933)"/>
<use data-text="s" xlink:href="#font_1_98" transform="matrix(9.962799,0,0,-9.962799,195.93852,9.391933)"/>
<use data-text="L" xlink:href="#font_1_71" transform="matrix(9.962799,0,0,-9.962799,203.17151,9.391933)"/>
<use data-text="e" xlink:href="#font_1_50" transform="matrix(9.962799,0,0,-9.962799,209.39827,9.391933)"/>
<use data-text="f" xlink:href="#font_1_55" transform="matrix(9.962799,0,0,-9.962799,213.82175,9.391933)"/>
<use data-text="t" xlink:href="#font_1_105" transform="matrix(9.962799,0,0,-9.962799,216.87036,9.391933)"/>
<use data-text="/" xlink:href="#font_1_102" transform="matrix(9.962799,0,0,-9.962799,220.7459,9.391933)"/>
<use data-text="R" xlink:href="#font_1_95" transform="matrix(9.962799,0,0,-9.962799,225.7273,9.391933)"/>
<use data-text="i" xlink:href="#font_1_66" transform="matrix(9.962799,0,0,-9.962799,233.05992,9.391933)"/>
<use data-text="g" xlink:href="#font_1_59" transform="matrix(9.962799,0,0,-9.962799,235.82958,9.391933)"/>
<use data-text="h" xlink:href="#font_1_63" transform="matrix(9.962799,0,0,-9.962799,240.81098,9.391933)"/>
<use data-text="t" xlink:href="#font_1_105" transform="matrix(9.962799,0,0,-9.962799,246.08129,9.391933)"/>
<path transform="matrix(1.00002,0,0,-1.00002,1.9837036,43.74962)" stroke-width=".3985" stroke-linecap="butt" stroke-miterlimit="10" stroke-linejoin="miter" fill="none" stroke="#000000" d="M141.73404 0V28.3468H246.61714V0ZM246.61714 28.3468"/>
<path transform="matrix(1.00002,0,0,-1.00002,1.9837036,43.74962)" stroke-width=".3985" stroke-linecap="butt" stroke-miterlimit="10" stroke-linejoin="miter" fill="none" stroke="#000000" d="M147.40332 5.66927V22.67752H161.5767V5.66927ZM154.49002 14.17339"/>
<use data-text="5" xlink:href="#font_1_56" transform="matrix(9.962799,0,0,-9.962799,153.98574,32.7844)"/>
<path transform="matrix(1.00002,0,0,-1.00002,1.9837036,43.74962)" stroke-width=".3985" stroke-linecap="butt" stroke-miterlimit="10" stroke-linejoin="miter" fill="none" stroke="#000000" d="M167.24599 5.66927V22.67752H181.41939V5.66927ZM174.33269 14.17339"/>
<use data-text="1" xlink:href="#font_1_82" transform="matrix(9.962799,0,0,-9.962799,173.82915,32.893404)"/>
<path transform="matrix(1.00002,0,0,-1.00002,1.9837036,43.74962)" stroke-width=".3985" stroke-linecap="butt" stroke-miterlimit="10" stroke-linejoin="miter" fill="none" stroke="#000000" d="M187.0891 5.66927V22.67752H201.2625V5.66927ZM194.17581 14.17339"/>
<use data-text="8" xlink:href="#font_1_51" transform="matrix(9.962799,0,0,-9.962799,193.67255,32.7844)"/>
<path transform="matrix(1.00002,0,0,-1.00002,1.9837036,43.74962)" stroke-width=".3985" stroke-linecap="butt" stroke-miterlimit="10" stroke-linejoin="miter" fill="none" stroke="#000000" d="M206.93178 5.66927V22.67752H221.10518V5.66927ZM214.0185 14.17339"/>
<use data-text="4" xlink:href="#font_1_57" transform="matrix(9.962799,0,0,-9.962799,213.51595,32.948404)"/>
<path transform="matrix(1.00002,0,0,-1.00002,1.9837036,43.74962)" stroke-width=".3985" stroke-linecap="butt" stroke-miterlimit="10" stroke-linejoin="miter" fill="none" stroke="#000000" d="M226.77448 5.66927V22.67752H240.94788V5.66927ZM233.86118 14.17339"/>
<use data-text="3" xlink:href="#font_1_106" transform="matrix(9.962799,0,0,-9.962799,233.35834,32.7844)"/>
<path transform="matrix(1.00002,0,0,-1.00002,1.9837036,43.74962)" stroke-width=".3985" stroke-linecap="butt" stroke-miterlimit="10" stroke-linejoin="miter" fill="none" stroke="#000000" d="M187.0891-14.17339V-28.34679H221.10518V-14.17339ZM204.09694-21.2601"/>
<use data-text="R" xlink:href="#font_1_95" transform="matrix(9.962799,0,0,-9.962799,192.58953,68.35811)"/>
<use data-text="o" xlink:href="#font_1_81" transform="matrix(9.962799,0,0,-9.962799,199.92215,68.35811)"/>
<use data-text="b" xlink:href="#font_1_35" transform="matrix(9.962799,0,0,-9.962799,204.90354,68.35811)"/>
<use data-text="o" xlink:href="#font_1_81" transform="matrix(9.962799,0,0,-9.962799,210.72183,68.35811)"/>
<use data-text="t" xlink:href="#font_1_105" transform="matrix(9.962799,0,0,-9.962799,215.70322,68.35811)"/>
<path transform="matrix(1.00002,0,0,-1.00002,1.9837036,43.74962)" stroke-width=".3985" stroke-linecap="butt" stroke-miterlimit="10" stroke-linejoin="miter" fill="none" stroke="#000000" d="M189.92395-14.17339V-8.50412H198.42807V-14.17339ZM198.42807-8.50412"/>
<path transform="matrix(1.00002,0,0,-1.00002,1.9837036,43.74962)" stroke-width=".3985" stroke-linecap="butt" stroke-miterlimit="10" stroke-linejoin="miter" fill="none" stroke="#000000" d="M209.76662-14.17339V-8.50412H218.27074V-14.17339ZM218.27074-8.50412"/>
<path transform="matrix(1.00002,0,0,-1.00002,1.9837036,43.74962)" stroke-width=".3985" stroke-linecap="butt" stroke-miterlimit="10" stroke-linejoin="miter" fill="none" stroke="#000000" d="M181.41983-21.26009H170.83296"/>
<path transform="matrix(-1.00002,-0,0,1.00002,172.82009,65.01013)" d="M3.58653 0C2.52383 .19925 .797 .797-.3985 1.49438V-1.49438C.797-.797 2.52383-.19925 3.58653 0"/>
<path transform="matrix(1.00002,0,0,-1.00002,1.9837036,43.74962)" stroke-width=".3985" stroke-linecap="butt" stroke-miterlimit="10" stroke-linejoin="miter" fill="none" stroke="#000000" d="M226.77446-21.26009H237.36132"/>
<path transform="matrix(1.00002,0,0,-1.00002,239.34978,65.01013)" d="M3.58653 0C2.52383 .19925 .797 .797-.3985 1.49438V-1.49438C.797-.797 2.52383-.19925 3.58653 0"/>
<path transform="matrix(1.00002,0,0,-1.00002,1.9837036,43.74962)" stroke-width=".3985" stroke-linecap="butt" stroke-miterlimit="10" stroke-linejoin="miter" fill="none" stroke="#000000" d="M52.44176-70.867"/>
<use data-text="R" xlink:href="#font_1_95" transform="matrix(9.962799,0,0,-9.962799,3.2167283,109.16493)"/>
<use data-text="o" xlink:href="#font_1_81" transform="matrix(9.962799,0,0,-9.962799,10.549347,109.16493)"/>
<use data-text="b" xlink:href="#font_1_35" transform="matrix(9.962799,0,0,-9.962799,15.530746,109.16493)"/>
<use data-text="o" xlink:href="#font_1_81" transform="matrix(9.962799,0,0,-9.962799,21.34903,109.16493)"/>
<use data-text="t" xlink:href="#font_1_105" transform="matrix(9.962799,0,0,-9.962799,26.33043,109.16493)"/>
<use data-text="C" xlink:href="#font_1_42" transform="matrix(9.962799,0,0,-9.962799,33.523569,109.16493)"/>
<use data-text="o" xlink:href="#font_1_81" transform="matrix(9.962799,0,0,-9.962799,40.716714,109.16493)"/>
<use data-text="m" xlink:href="#font_1_75" transform="matrix(9.962799,0,0,-9.962799,45.698114,109.16493)"/>
<use data-text="p" xlink:href="#font_1_84" transform="matrix(9.962799,0,0,-9.962799,53.997125,109.16493)"/>
<use data-text="a" xlink:href="#font_1_28" transform="matrix(9.962799,0,0,-9.962799,59.53643,109.16493)"/>
<use data-text="r" xlink:href="#font_1_96" transform="matrix(9.962799,0,0,-9.962799,64.51783,109.16493)"/>
<use data-text="e" xlink:href="#font_1_50" transform="matrix(9.962799,0,0,-9.962799,68.42324,109.16493)"/>
<use data-text="s" xlink:href="#font_1_98" transform="matrix(9.962799,0,0,-9.962799,72.84673,109.16493)"/>
<use data-text="C" xlink:href="#font_1_42" transform="matrix(9.962799,0,0,-9.962799,80.08968,109.16493)"/>
<use data-text="a" xlink:href="#font_1_28" transform="matrix(9.962799,0,0,-9.962799,87.28283,109.16493)"/>
<use data-text="r" xlink:href="#font_1_96" transform="matrix(9.962799,0,0,-9.962799,92.26421,109.16493)"/>
<use data-text="d" xlink:href="#font_1_47" transform="matrix(9.962799,0,0,-9.962799,96.16964,109.16493)"/>
<use data-text="s" xlink:href="#font_1_98" transform="matrix(9.962799,0,0,-9.962799,101.70895,109.16493)"/>
<path transform="matrix(1.00002,0,0,-1.00002,1.9837036,43.74962)" stroke-width=".3985" stroke-linecap="butt" stroke-miterlimit="10" stroke-linejoin="miter" fill="none" stroke="#000000" d="M0-99.21382V-70.867H104.88309V-99.21382ZM104.88309-70.867"/>
<path transform="matrix(1.00002,0,0,-1.00002,1.9837036,43.74962)" stroke-width=".3985" stroke-linecap="butt" stroke-miterlimit="10" stroke-linejoin="miter" fill="none" stroke="#000000" d="M5.66927-93.54454V-76.5363H19.84267V-93.54454ZM12.75597-85.04042"/>
<use data-text="5" xlink:href="#font_1_56" transform="matrix(9.962799,0,0,-9.962799,12.248909,131.99939)"/>
<path transform="matrix(1.00002,0,0,-1.00002,1.9837036,43.74962)" stroke-width=".3985" stroke-linecap="butt" stroke-miterlimit="10" stroke-linejoin="miter" fill="none" stroke="#000000" d="M25.51193-93.54454V-76.5363H39.68533V-93.54454ZM32.59865-85.04042"/>
<use data-text="1" xlink:href="#font_1_82" transform="matrix(9.962799,0,0,-9.962799,32.092309,132.10939)"/>
<path transform="matrix(1.00002,0,0,-1.00002,1.9837036,43.74962)" stroke-width=".3985" stroke-linecap="butt" stroke-miterlimit="10" stroke-linejoin="miter" fill="none" stroke="#000000" d="M45.35506-93.54454V-76.5363H59.52844V-93.54454ZM52.44176-85.04042"/>
<use data-text="8" xlink:href="#font_1_51" transform="matrix(9.962799,0,0,-9.962799,51.935705,131.99939)"/>
<path transform="matrix(1.00002,0,0,-1.00002,1.9837036,43.74962)" stroke-width=".3985" stroke-linecap="butt" stroke-miterlimit="10" stroke-linejoin="miter" fill="none" stroke="#000000" d="M65.19774-93.54454V-76.5363H79.37114V-93.54454ZM72.28444-85.04042"/>
<use data-text="4" xlink:href="#font_1_57" transform="matrix(9.962799,0,0,-9.962799,71.7791,132.1644)"/>
<path transform="matrix(1.00002,0,0,-1.00002,1.9837036,43.74962)" stroke-width=".3985" stroke-linecap="butt" stroke-miterlimit="10" stroke-linejoin="miter" fill="none" stroke="#000000" d="M85.04042-93.54454V-76.5363H99.21382V-93.54454ZM92.12712-85.04042"/>
<use data-text="3" xlink:href="#font_1_106" transform="matrix(9.962799,0,0,-9.962799,91.6215,131.99939)"/>
<path transform="matrix(1.00002,0,0,-1.00002,1.9837036,43.74962)" stroke-width=".3985" stroke-linecap="butt" stroke-miterlimit="10" stroke-linejoin="miter" fill="none" stroke="#000000" d="M45.35506-113.38722V-127.56061H79.37114V-113.38722ZM62.36288-120.47392"/>
<use data-text="R" xlink:href="#font_1_95" transform="matrix(9.962799,0,0,-9.962799,50.852685,167.57309)"/>
<use data-text="o" xlink:href="#font_1_81" transform="matrix(9.962799,0,0,-9.962799,58.185304,167.57309)"/>
<use data-text="b" xlink:href="#font_1_35" transform="matrix(9.962799,0,0,-9.962799,63.166704,167.57309)"/>
<use data-text="o" xlink:href="#font_1_81" transform="matrix(9.962799,0,0,-9.962799,68.984989,167.57309)"/>
<use data-text="t" xlink:href="#font_1_105" transform="matrix(9.962799,0,0,-9.962799,73.966388,167.57309)"/>
<path transform="matrix(1.00002,0,0,-1.00002,1.9837036,43.74962)" stroke-width=".3985" stroke-linecap="butt" stroke-miterlimit="10" stroke-linejoin="miter" fill="none" stroke="#000000" d="M48.1899-113.38722V-107.71794H56.69402V-113.38722ZM56.69402-107.71794"/>
<path transform="matrix(1.00002,0,0,-1.00002,1.9837036,43.74962)" stroke-width=".3985" stroke-linecap="butt" stroke-miterlimit="10" stroke-linejoin="miter" fill="none" stroke="#000000" d="M49.53336-105.39609C51.41179-104.71237 53.47218-104.71237 55.3506-105.39609"/>
<path transform="matrix(1.00002,0,0,-1.00002,1.9837036,43.74962)" stroke-width=".3985" stroke-linecap="butt" stroke-miterlimit="10" stroke-linejoin="miter" fill="none" stroke="#000000" d="M48.56406-102.73251C51.06857-101.8209 53.81566-101.8209 56.32019-102.73251"/>
<path transform="matrix(1.00002,0,0,-1.00002,1.9837036,43.74962)" stroke-width=".3985" stroke-linecap="butt" stroke-miterlimit="10" stroke-linejoin="miter" fill="none" stroke="#000000" d="M68.03258-113.38722V-107.71794H76.5367V-113.38722ZM76.5367-107.71794"/>
<path transform="matrix(1.00002,0,0,-1.00002,1.9837036,43.74962)" stroke-width=".3985" stroke-linecap="butt" stroke-miterlimit="10" stroke-linejoin="miter" fill="none" stroke="#000000" d="M69.37604-105.39609C71.25447-104.71237 73.31487-104.71237 75.1933-105.39609"/>
<path transform="matrix(1.00002,0,0,-1.00002,1.9837036,43.74962)" stroke-width=".3985" stroke-linecap="butt" stroke-miterlimit="10" stroke-linejoin="miter" fill="none" stroke="#000000" d="M68.40674-102.73251C70.91125-101.8209 73.65836-101.8209 76.16287-102.73251"/>
<path transform="matrix(1.00002,0,0,-1.00002,1.9837036,43.74962)" stroke-width=".3985" stroke-linecap="butt" stroke-miterlimit="10" stroke-linejoin="miter" fill="none" stroke="#000000" d="M62.3633-127.56061"/>
<use data-text="&#x201c;" xlink:href="#font_1_499" transform="matrix(9.962799,0,0,-9.962799,19.80906,181.85639)"/>
<use data-text="L" xlink:href="#font_1_71" transform="matrix(9.962799,0,0,-9.962799,24.511498,181.85639)"/>
<use data-text="e" xlink:href="#font_1_50" transform="matrix(9.962799,0,0,-9.962799,30.73825,181.85639)"/>
<use data-text="f" xlink:href="#font_1_55" transform="matrix(9.962799,0,0,-9.962799,35.161729,181.85639)"/>
<use data-text="t" xlink:href="#font_1_105" transform="matrix(9.962799,0,0,-9.962799,38.210344,181.85639)"/>
<use data-text="c" xlink:href="#font_1_43" transform="matrix(9.962799,0,0,-9.962799,45.40348,181.85639)"/>
<use data-text="a" xlink:href="#font_1_28" transform="matrix(9.962799,0,0,-9.962799,49.826967,181.85639)"/>
<use data-text="r" xlink:href="#font_1_96" transform="matrix(9.962799,0,0,-9.962799,54.808366,181.85639)"/>
<use data-text="d" xlink:href="#font_1_47" transform="matrix(9.962799,0,0,-9.962799,58.713785,181.85639)"/>
<use data-text="i" xlink:href="#font_1_66" transform="matrix(9.962799,0,0,-9.962799,67.57072,181.85639)"/>
<use data-text="s" xlink:href="#font_1_98" transform="matrix(9.962799,0,0,-9.962799,70.340389,181.85639)"/>
<use data-text="b" xlink:href="#font_1_35" transform="matrix(9.962799,0,0,-9.962799,77.583339,181.85639)"/>
<use data-text="i" xlink:href="#font_1_66" transform="matrix(9.962799,0,0,-9.962799,83.12266,181.85639)"/>
<use data-text="g" xlink:href="#font_1_59" transform="matrix(9.962799,0,0,-9.962799,85.89231,181.85639)"/>
<use data-text="g" xlink:href="#font_1_59" transform="matrix(9.962799,0,0,-9.962799,90.87371,181.85639)"/>
<use data-text="e" xlink:href="#font_1_50" transform="matrix(9.962799,0,0,-9.962799,95.855098,181.85639)"/>
<use data-text="r" xlink:href="#font_1_96" transform="matrix(9.962799,0,0,-9.962799,100.27859,181.85639)"/>
<use data-text="&#x201d;" xlink:href="#font_1_500" transform="matrix(9.962799,0,0,-9.962799,104.184,181.85639)"/>
<path transform="matrix(1.00002,0,0,-1.00002,1.9837036,43.74962)" stroke-width=".3985" stroke-linecap="butt" stroke-miterlimit="10" stroke-linejoin="miter" fill="none" stroke="#000000" d="M194.17581-70.867"/>
<use data-text="R" xlink:href="#font_1_95" transform="matrix(9.962799,0,0,-9.962799,153.12873,109.16493)"/>
<use data-text="o" xlink:href="#font_1_81" transform="matrix(9.962799,0,0,-9.962799,160.46134,109.16493)"/>
<use data-text="b" xlink:href="#font_1_35" transform="matrix(9.962799,0,0,-9.962799,165.44275,109.16493)"/>
<use data-text="o" xlink:href="#font_1_81" transform="matrix(9.962799,0,0,-9.962799,171.26102,109.16493)"/>
<use data-text="t" xlink:href="#font_1_105" transform="matrix(9.962799,0,0,-9.962799,176.24243,109.16493)"/>
<use data-text="S" xlink:href="#font_1_97" transform="matrix(9.962799,0,0,-9.962799,183.43556,109.16493)"/>
<use data-text="w" xlink:href="#font_1_114" transform="matrix(9.962799,0,0,-9.962799,188.97489,109.16493)"/>
<use data-text="a" xlink:href="#font_1_28" transform="matrix(9.962799,0,0,-9.962799,195.89902,109.16493)"/>
<use data-text="p" xlink:href="#font_1_84" transform="matrix(9.962799,0,0,-9.962799,200.88042,109.16493)"/>
<use data-text="s" xlink:href="#font_1_98" transform="matrix(9.962799,0,0,-9.962799,206.41973,109.16493)"/>
<use data-text="C" xlink:href="#font_1_42" transform="matrix(9.962799,0,0,-9.962799,213.65273,109.16493)"/>
<use data-text="a" xlink:href="#font_1_28" transform="matrix(9.962799,0,0,-9.962799,220.84586,109.16493)"/>
<use data-text="r" xlink:href="#font_1_96" transform="matrix(9.962799,0,0,-9.962799,225.82726,109.16493)"/>
<use data-text="d" xlink:href="#font_1_47" transform="matrix(9.962799,0,0,-9.962799,229.73267,109.16493)"/>
<use data-text="s" xlink:href="#font_1_98" transform="matrix(9.962799,0,0,-9.962799,235.27198,109.16493)"/>
<path transform="matrix(1.00002,0,0,-1.00002,1.9837036,43.74962)" stroke-width=".3985" stroke-linecap="butt" stroke-miterlimit="10" stroke-linejoin="miter" fill="none" stroke="#000000" d="M141.73404-99.21382V-70.867H246.61714V-99.21382ZM246.61714-70.867"/>
<path transform="matrix(1.00002,0,0,-1.00002,1.9837036,43.74962)" stroke-width=".3985" stroke-linecap="butt" stroke-miterlimit="10" stroke-linejoin="miter" fill="none" stroke="#000000" d="M147.40332-93.54454V-76.5363H161.5767V-93.54454ZM154.49002-85.04042"/>
<use data-text="5" xlink:href="#font_1_56" transform="matrix(9.962799,0,0,-9.962799,153.98574,131.99939)"/>
<path transform="matrix(1.00002,0,0,-1.00002,1.9837036,43.74962)" stroke-width=".3985" stroke-linecap="butt" stroke-miterlimit="10" stroke-linejoin="miter" fill="none" stroke="#000000" d="M167.24599-93.54454V-76.5363H181.41939V-93.54454ZM174.33269-85.04042"/>
<use data-text="1" xlink:href="#font_1_82" transform="matrix(9.962799,0,0,-9.962799,173.82915,132.10939)"/>
<path transform="matrix(1.00002,0,0,-1.00002,1.9837036,43.74962)" stroke-width=".3985" stroke-linecap="butt" stroke-miterlimit="10" stroke-linejoin="miter" fill="none" stroke="#000000" d="M187.0891-93.54454V-76.5363H201.2625V-93.54454ZM194.17581-85.04042"/>
<use data-text="4" xlink:href="#font_1_57" transform="matrix(9.962799,0,0,-9.962799,193.67255,132.1644)"/>
<path transform="matrix(1.00002,0,0,-1.00002,1.9837036,43.74962)" stroke-width=".3985" stroke-linecap="butt" stroke-miterlimit="10" stroke-linejoin="miter" fill="none" stroke="#000000" d="M206.93178-93.54454V-76.5363H221.10518V-93.54454ZM214.0185-85.04042"/>
<use data-text="8" xlink:href="#font_1_51" transform="matrix(9.962799,0,0,-9.962799,213.51595,131.99939)"/>
<path transform="matrix(1.00002,0,0,-1.00002,1.9837036,43.74962)" stroke-width=".3985" stroke-linecap="butt" stroke-miterlimit="10" stroke-linejoin="miter" fill="none" stroke="#000000" d="M226.77448-93.54454V-76.5363H240.94788V-93.54454ZM233.86118-85.04042"/>
<use data-text="3" xlink:href="#font_1_106" transform="matrix(9.962799,0,0,-9.962799,233.35834,131.99939)"/>
<path transform="matrix(1.00002,0,0,-1.00002,1.9837036,43.74962)" stroke-width=".3985" stroke-linecap="butt" stroke-miterlimit="10" stroke-linejoin="miter" fill="none" stroke="#000000" d="M187.0891-113.38722V-127.56061H221.10518V-113.38722ZM204.09694-120.47392"/>
<use data-text="R" xlink:href="#font_1_95" transform="matrix(9.962799,0,0,-9.962799,192.58953,167.57309)"/>
<use data-text="o" xlink:href="#font_1_81" transform="matrix(9.962799,0,0,-9.962799,199.92215,167.57309)"/>
<use data-text="b" xlink:href="#font_1_35" transform="matrix(9.962799,0,0,-9.962799,204.90354,167.57309)"/>
<use data-text="o" xlink:href="#font_1_81" transform="matrix(9.962799,0,0,-9.962799,210.72183,167.57309)"/>
<use data-text="t" xlink:href="#font_1_105" transform="matrix(9.962799,0,0,-9.962799,215.70322,167.57309)"/>
<path transform="matrix(1.00002,0,0,-1.00002,1.9837036,43.74962)" stroke-width=".3985" stroke-linecap="butt" stroke-miterlimit="10" stroke-linejoin="miter" fill="none" stroke="#000000" d="M189.92395-113.38722V-107.71794H198.42807V-113.38722ZM198.42807-107.71794"/>
<path transform="matrix(1.00002,0,0,-1.00002,1.9837036,43.74962)" stroke-width=".3985" stroke-linecap="butt" stroke-miterlimit="10" stroke-linejoin="miter" fill="none" stroke="#000000" d="M209.76662-113.38722V-107.71794H218.27074V-113.38722ZM218.27074-107.71794"/>
<path transform="matrix(1.00002,0,0,-1.00002,1.9837036,43.74962)" stroke-width=".3985" stroke-linecap="butt" stroke-miterlimit="10" stroke-linejoin="miter" fill="none" stroke="#000000" d="M194.1758-97.13109V-104.88309H214.01847V-97.13109"/>
<path transform="matrix(0,-1.00002,-1.00002,-0,196.16339,140.88266)" d="M3.58653 0C2.52383 .19925 .797 .797-.3985 1.49438V-1.49438C.797-.797 2.52383-.19925 3.58653 0"/>
<path transform="matrix(0,-1.00002,-1.00002,-0,216.00646,140.88266)" d="M3.58653 0C2.52383 .19925 .797 .797-.3985 1.49438V-1.49438C.797-.797 2.52383-.19925 3.58653 0"/>
<path transform="matrix(1.00002,0,0,-1.00002,1.9837036,43.74962)" stroke-width=".3985" stroke-linecap="butt" stroke-miterlimit="10" stroke-linejoin="miter" fill="none" stroke="#000000" d="M204.09735-127.56061"/>
<use data-text="&#x201c;" xlink:href="#font_1_499" transform="matrix(9.962799,0,0,-9.962799,188.51044,181.9664)"/>
<use data-text="S" xlink:href="#font_1_97" transform="matrix(9.962799,0,0,-9.962799,193.21288,181.9664)"/>
<use data-text="w" xlink:href="#font_1_114" transform="matrix(9.962799,0,0,-9.962799,198.7522,181.9664)"/>
<use data-text="a" xlink:href="#font_1_28" transform="matrix(9.962799,0,0,-9.962799,205.67635,181.9664)"/>
<use data-text="p" xlink:href="#font_1_84" transform="matrix(9.962799,0,0,-9.962799,210.65775,181.9664)"/>
<use data-text="!" xlink:href="#font_1_53" transform="matrix(9.962799,0,0,-9.962799,216.19707,181.9664)"/>
<use data-text="&#x201d;" xlink:href="#font_1_500" transform="matrix(9.962799,0,0,-9.962799,218.96672,181.9664)"/>
</svg>
