<svg xmlns="http://www.w3.org/2000/svg" xmlns:xlink="http://www.w3.org/1999/xlink" version="1.1" width="132" height="132" viewBox="0 0 132 132">
<defs>
<path id="font_1_82" d="M.4189911 0V.0309906H.3869934C.29699708 .0309906 .2939911 .041992189 .2939911 .07902527V.64012148C.2939911 .6640167 .2939911 .6660156 .2709961 .6660156 .20899964 .60227969 .12098694 .60227969 .08898926 .60227969V.57128909C.10899353 .57128909 .16799927 .57128909 .21998596 .5972748V.07902527C.21998596 .042999269 .21699524 .0309906 .1269989 .0309906H.09498596V0C.12998963 .0029907227 .21699524 .0029907227 .25698854 .0029907227 .29699708 .0029907227 .38398744 .0029907227 .4189911 0Z"/>
</defs>
<path transform="matrix(1.00005,0,0,-1.00002,2.4941788,129.75928)" stroke-width=".3985" stroke-linecap="butt" stroke-miterlimit="10" stroke-linejoin="miter" fill="none" stroke="#000000" d="M0 0H127.56062M0 14.17339H127.56062M0 28.3468H127.56062M0 42.5202H127.56062M0 56.69362H127.56062M0 70.867H127.56062M0 85.04042H127.56062M0 99.21382H127.56062M0 113.38724H127.56062M0 127.55566H127.56062M0 0V127.56062M14.17339 0V127.56062M28.3468 0V127.56062M42.5202 0V127.56062M56.69362 0V127.56062M70.867 0V127.56062M85.04042 0V127.56062M99.21382 0V127.56062M113.38724 0V127.56062M127.55566 0V127.56062M127.56062 127.56062"/>
<path transform="matrix(1.00005,0,0,-1.00002,2.4941788,129.75928)" stroke-width="1.19553" stroke-linecap="butt" stroke-miterlimit="10" stroke-linejoin="miter" fill="none" stroke="#000000" d="M0 0V42.5202H42.5202V0ZM42.5202 42.5202"/>
<path transform="matrix(1.00005,0,0,-1.00002,2.4941788,129.75928)" stroke-width="1.19553" stroke-linecap="butt" stroke-miterlimit="10" stroke-linejoin="miter" fill="none" stroke="#000000" d="M0 42.5202V85.04042H42.5202V42.5202ZM42.5202 85.04042"/>
<path transform="matrix(1.00005,0,0,-1.00002,2.4941788,129.75928)" stroke-width="1.19553" stroke-linecap="butt" stroke-miterlimit="10" stroke-linejoin="miter" fill="none" stroke="#000000" d="M0 85.04042V127.56062H42.5202V85.04042ZM42.5202 127.56062"/>
<path transform="matrix(1.00005,0,0,-1.00002,2.4941788,129.75928)" stroke-width="1.19553" stroke-linecap="butt" stroke-miterlimit="10" stroke-linejoin="miter" fill="none" stroke="#000000" d="M42.5202 0V42.5202H85.04042V0ZM85.04042 42.5202"/>
<path transform="matrix(1.00005,0,0,-1.00002,2.4941788,129.75928)" stroke-width="1.19553" stroke-linecap="butt" stroke-miterlimit="10" stroke-linejoin="miter" fill="none" stroke="#000000" d="M42.5202 42.5202V85.04042H85.04042V42.5202ZM85.04042 85.04042"/>
<path transform="matrix(1.00005,0,0,-1.00002,2.4941788,129.75928)" stroke-width="1.19553" stroke-linecap="butt" stroke-miterlimit="10" stroke-linejoin="miter" fill="none" stroke="#000000" d="M42.5202 85.04042V127.56062H85.04042V85.04042ZM85.04042 127.56062"/>
<path transform="matrix(1.00005,0,0,-1.00002,2.4941788,129.75928)" stroke-width="1.19553" stroke-linecap="butt" stroke-miterlimit="10" stroke-linejoin="miter" fill="none" stroke="#000000" d="M85.04042 0V42.5202H127.56062V0ZM127.56062 42.5202"/>
<path transform="matrix(1.00005,0,0,-1.00002,2.4941788,129.75928)" stroke-width="1.19553" stroke-linecap="butt" stroke-miterlimit="10" stroke-linejoin="miter" fill="none" stroke="#000000" d="M85.04042 42.5202V85.04042H127.56062V42.5202ZM127.56062 85.04042"/>
<path transform="matrix(1.00005,0,0,-1.00002,2.4941788,129.75928)" stroke-width="1.19553" stroke-linecap="butt" stroke-miterlimit="10" stroke-linejoin="miter" fill="none" stroke="#000000" d="M85.04042 85.04042V127.56062H127.56062V85.04042ZM127.56062 127.56062"/>
<path transform="matrix(1.00005,0,0,-1.00002,2.4941788,129.75928)" stroke-width=".3985" stroke-linecap="butt" stroke-miterlimit="10" stroke-linejoin="miter" fill="none" stroke="#000000" d="M21.2601 92.1271"/>
<use data-text="1" xlink:href="#font_1_82" transform="matrix(9.963098,0,0,-9.962799,21.264115,40.947504)"/>
<path transform="matrix(1.00005,0,0,-1.00002,2.4941788,129.75928)" stroke-width=".3985" stroke-linecap="butt" stroke-miterlimit="10" stroke-linejoin="miter" fill="none" stroke="#000000" d="M35.43349 49.6069"/>
<use data-text="1" xlink:href="#font_1_82" transform="matrix(9.963098,0,0,-9.962799,35.438825,83.469348)"/>
<path transform="matrix(1.00005,0,0,-1.00002,2.4941788,129.75928)" stroke-width=".3985" stroke-linecap="butt" stroke-miterlimit="10" stroke-linejoin="miter" fill="none" stroke="#000000" d="M92.1271 35.43349"/>
<use data-text="1" xlink:href="#font_1_82" transform="matrix(9.963098,0,0,-9.962799,92.13466,97.64263)"/>
<path transform="matrix(1.00005,0,0,-1.00002,2.4941788,129.75928)" stroke-width=".3985" stroke-linecap="butt" stroke-miterlimit="10" stroke-linejoin="miter" fill="none" stroke="#000000" d="M63.7803 21.2601"/>
<use data-text="1" xlink:href="#font_1_82" transform="matrix(9.963098,0,0,-9.962799,63.787244,111.81692)"/>
<path transform="matrix(1.00005,0,0,-1.00002,2.4941788,129.75928)" stroke-width=".3985" stroke-linecap="butt" stroke-miterlimit="10" stroke-linejoin="miter" fill="none" stroke="#000000" d="M26.92937 92.1271C26.92937 95.25821 24.39119 97.79639 21.2601 97.79639 18.129 97.79639 15.59082 95.25821 15.59082 92.1271 15.59082 88.99602 18.129 86.45784 21.2601 86.45784 24.39119 86.45784 26.92937 88.99602 26.92937 92.1271ZM21.2601 92.1271"/>
<path transform="matrix(1.00005,0,0,-1.00002,2.4941788,129.75928)" stroke-width=".3985" stroke-linecap="butt" stroke-miterlimit="10" stroke-linejoin="miter" fill="none" stroke="#000000" d="M41.10277 49.6069C41.10277 52.73799 38.56459 55.27618 35.43349 55.27618 32.3024 55.27618 29.76422 52.73799 29.76422 49.6069 29.76422 46.47581 32.3024 43.93764 35.43349 43.93764 38.56459 43.93764 41.10277 46.47581 41.10277 49.6069ZM35.43349 49.6069"/>
<path transform="matrix(1.00005,0,0,-1.00002,2.4941788,129.75928)" stroke-width=".3985" stroke-linecap="butt" stroke-miterlimit="10" stroke-linejoin="miter" fill="none" stroke="#000000" d="M97.79639 35.43349C97.79639 38.56459 95.25821 41.10277 92.1271 41.10277 88.99602 41.10277 86.45784 38.56459 86.45784 35.43349 86.45784 32.3024 88.99602 29.76422 92.1271 29.76422 95.25821 29.76422 97.79639 32.3024 97.79639 35.43349ZM92.1271 35.43349"/>
<path transform="matrix(1.00005,0,0,-1.00002,2.4941788,129.75928)" stroke-width=".3985" stroke-linecap="butt" stroke-miterlimit="10" stroke-linejoin="miter" fill="none" stroke="#000000" d="M69.44957 21.2601C69.44957 24.39119 66.91139 26.92937 63.7803 26.92937 60.64922 26.92937 58.11102 24.39119 58.11102 21.2601 58.11102 18.129 60.64922 15.59082 63.7803 15.59082 66.91139 15.59082 69.44957 18.129 69.44957 21.2601ZM63.7803 21.2601"/>
<path transform="matrix(1.00005,0,0,-1.00002,2.4941788,129.75928)" stroke-width=".3985" stroke-linecap="butt" stroke-dasharray="2.98883,2.98883" stroke-miterlimit="10" stroke-linejoin="miter" fill="none" stroke="#929292" d="M21.2601 85.04042V0"/>
<path transform="matrix(1.00005,0,0,-1.00002,2.4941788,129.75928)" stroke-width=".3985" stroke-linecap="butt" stroke-dasharray="2.98883,2.98883" stroke-miterlimit="10" stroke-linejoin="miter" fill="none" stroke="#929292" d="M35.43349 42.5202V0"/>
<path transform="matrix(1.00005,0,0,-1.00002,2.4941788,129.75928)" stroke-width=".3985" stroke-linecap="butt" stroke-dasharray="2.98883,2.98883" stroke-miterlimit="10" stroke-linejoin="miter" fill="none" stroke="#929292" d="M85.04042 35.43349H0"/>
<path transform="matrix(1.00005,0,0,-1.00002,2.4941788,129.75928)" stroke-width=".3985" stroke-linecap="butt" stroke-dasharray="2.98883,2.98883" stroke-miterlimit="10" stroke-linejoin="miter" fill="none" stroke="#929292" d="M56.69362 21.2601H0"/>
<path transform="matrix(1.00005,0,0,-1.00002,2.4941788,129.75928)" stroke-width=".3985" stroke-linecap="butt" stroke-miterlimit="10" stroke-linejoin="miter" fill="none" stroke="#0000ff" d="M7.08669 7.08669"/>
<use data-text="1" xlink:href="#font_1_82" transform="matrix(9.963098,0,0,-9.962799,7.0904085,125.990207)" fill="#0000ff"/>
<path transform="matrix(1.00005,0,0,-1.00002,2.4941788,129.75928)" stroke-width=".3985" stroke-linecap="butt" stroke-miterlimit="10" stroke-linejoin="miter" fill="none" stroke="#0000ff" d="M1.4174 1.4174V12.75595H12.75595V1.4174ZM12.75595 12.75595"/>
</svg>
