<svg xmlns="http://www.w3.org/2000/svg" xmlns:xlink="http://www.w3.org/1999/xlink" version="1.1" width="162" height="177" viewBox="0 0 162 177">
<defs>
<path id="font_1_95" d="M.7319946 .08753967C.7319946 .09353638 .7319946 .104537967 .71899417 .104537967 .70799258 .104537967 .70799258 .09555054 .70700076 .08854675 .70098879 .017532349 .66600039-.00047302247 .6409912-.00047302247 .59199526-.00047302247 .58399966 .05053711 .56999209 .14355469L.5569916 .22355652C.5389862 .28756715 .48999024 .3205719 .43499757 .3395691 .5319977 .36357118 .6100006 .4245758 .6100006 .502594 .6100006 .5986023 .49598695 .6826172 .34899903 .6826172H.034988405V.6516113H.05899048C.13598633 .6516113 .13798523 .64060977 .13798523 .604599V.077545169C.13798523 .04197693 .13598633 .0309906 .05899048 .0309906H.034988405V0C.070999149 .0029907227 .14199829 .0029907227 .18099976 .0029907227 .21998596 .0029907227 .29100038 .0029907227 .32699586 0V.0309906H.30299378C.22599793 .0309906 .22399903 .04197693 .22399903 .077926639V.3305359H.33898927C.35499574 .3305359 .39698792 .3305359 .43199159 .29658509 .46998597 .26063539 .46998597 .22969055 .46998597 .16279602 .46998597 .09788513 .46998597 .05795288 .5109863 .019989014 .5519867-.016464234 .6069946-.022460938 .6369934-.022460938 .71499636-.022460938 .7319946 .059524537 .7319946 .087524417V.08753967M.5069885 .5025635C.5069885 .43354798 .48298646 .35253907 .33499146 .35253907H.22399903V.6116028C.22399903 .6345978 .22399903 .64660647 .24598694 .6496124 .2559967 .6516113 .2849884 .6516113 .30499269 .6516113 .394989 .6516113 .5069885 .6476135 .5069885 .5025635Z"/>
<path id="font_1_81" d="M.47099305 .21424866C.47099305 .34223939 .37098695 .4482422 .25 .4482422 .125 .4482422 .027999878 .3392334 .027999878 .21424866 .027999878 .085250858 .13198853-.0107421879 .24899292-.0107421879 .36999513-.0107421879 .47099305 .087249759 .47099305 .21424866M.3880005 .22224427C.3880005 .18624878 .3880005 .13224793 .3659973 .08824158 .34399415 .04324341 .2999878 .014251709 .25 .014251709 .20698548 .014251709 .16299439 .035247804 .13598633 .08125305 .11099243 .12524414 .11099243 .18624878 .11099243 .22224427 .11099243 .26124574 .11099243 .31523133 .1349945 .35923768 .1619873 .40522767 .20899964 .426239 .24899292 .426239 .29299928 .426239 .33599855 .40423585 .3619995 .36123658 .3880005 .3182373 .3880005 .26023866 .3880005 .22224427Z"/>
<path id="font_1_114" d="M.7029877 .3996582V.43066407C.68099978 .4286499 .6519928 .42765809 .6299896 .42765809L.5369873 .43066407V.3996582C.57299807 .39866639 .59498599 .38075257 .59498599 .35176087 .59498599 .34576417 .59498599 .34376527 .58999636 .33078004L.49899293 .07513428 .3999939 .35375978C.3959961 .36575318 .394989 .36775209 .394989 .37275697 .394989 .3996582 .43399049 .3996582 .45399476 .3996582V.43066407L.34999085 .42765809C.31999208 .42765809 .29100038 .4286499 .26098634 .43066407V.3996582C.2979889 .3996582 .31399537 .39767457 .32398988 .38476563 .32899476 .37875367 .33999635 .34877015 .34700013 .3297882L.26098634 .08811951 .1659851 .3547516C.16099549 .36676026 .16099549 .36875917 .16099549 .37275697 .16099549 .3996582 .19999695 .3996582 .21998596 .3996582V.43066407L.11099243 .42765809 .017990113 .43066407V.3996582C.067993167 .3996582 .07998657 .39668275 .09199524 .36476136L.21798706 .01121521C.22299195-.0027618409 .22599793-.0107421879 .23899842-.0107421879 .2519989-.0107421879 .2539978-.004760742 .25898744 .009216309L.3600006 .2918396 .46199037 .008224487C.46598817-.0027618409 .46899415-.0107421879 .48199464-.0107421879 .49499513-.0107421879 .49798585-.0017547608 .5019989 .008224487L.61898806 .3357849C.6369934 .38575746 .66799929 .39866639 .7029877 .3996582Z"/>
<path id="font_1_82" d="M.4189911 0V.0309906H.3869934C.29699708 .0309906 .2939911 .041992189 .2939911 .07902527V.64012148C.2939911 .6640167 .2939911 .6660156 .2709961 .6660156 .20899964 .60227969 .12098694 .60227969 .08898926 .60227969V.57128909C.10899353 .57128909 .16799927 .57128909 .21998596 .5972748V.07902527C.21998596 .042999269 .21699524 .0309906 .1269989 .0309906H.09498596V0C.12998963 .0029907227 .21699524 .0029907227 .25698854 .0029907227 .29699708 .0029907227 .38398744 .0029907227 .4189911 0Z"/>
<path id="font_1_107" d="M.44898988 .17396546H.42399598C.4189911 .14398194 .4119873 .099990848 .4019928 .084991458 .394989 .07699585 .32899476 .07699585 .30699159 .07699585H.1269989L.23298645 .17996216C.3889923 .31803895 .44898988 .37210084 .44898988 .47216798 .44898988 .5860901 .35899354 .6660156 .23699951 .6660156 .12399292 .6660156 .049987794 .57411196 .049987794 .48516847 .049987794 .4291687 .099990848 .4291687 .102996829 .4291687 .11999512 .4291687 .15499878 .44117738 .15499878 .48217774 .15499878 .5081787 .13699341 .5341797 .101989749 .5341797 .09399414 .5341797 .09199524 .5341797 .08898926 .5331726 .11199951 .59806826 .1659851 .63500979 .22399903 .63500979 .31498719 .63500979 .35798646 .5541382 .35798646 .47216798 .35798646 .39196778 .30799867 .31297303 .25299073 .25097657L.06098938 .036987306C.049987794 .025985718 .049987794 .023986817 .049987794 0H.42099L.44898988 .17396546Z"/>
<path id="font_1_106" d="M.45700074 .17037964C.45700074 .252594 .3939972 .33088685 .2899933 .35191346 .37199403 .37893678 .42999269 .4490509 .42999269 .52809146 .42999269 .6100464 .34199525 .6660156 .24598694 .6660156 .14498902 .6660156 .068984989 .60606387 .068984989 .53009036 .068984989 .49710084 .09098816 .47808839 .11999512 .47808839 .15098572 .47808839 .17098999 .50009158 .17098999 .5290985 .17098999 .57910159 .12399292 .57910159 .10899353 .57910159 .13999939 .62802127 .20599365 .64100649 .24198914 .64100649 .2829895 .64100649 .33799745 .6190338 .33799745 .5290985 .33799745 .51708987 .33599855 .45906068 .30999757 .4149933 .27999879 .36691285 .24598694 .36390687 .22099304 .36291505 .21299744 .36190797 .18899536 .35990907 .18199158 .35990907 .17399597 .35890199 .16699219 .35791017 .16699219 .3479004 .16699219 .33691407 .17399597 .33691407 .19099427 .33691407H.23498535C.31698609 .33691407 .35398866 .2686615 .35398866 .17037964 .35398866 .034469606 .2849884 .0055389406 .24099732 .0055389406 .19799805 .0055389406 .12298584 .022491456 .08799744 .08137512 .12298584 .07637024 .1539917 .09837341 .1539917 .1363678 .1539917 .17237854 .1269989 .19238281 .09799194 .19238281 .07398987 .19238281 .041992189 .17837525 .041992189 .1343689 .041992189 .043441774 .1349945-.022460938 .24398804-.022460938 .3659973-.022460938 .45700074 .06838989 .45700074 .17037964Z"/>
<path id="font_1_57" d="M.47099305 .16503906V.19602967H.37098695V.6507721C.37098695 .6707611 .37098695 .6767578 .35499574 .6767578 .34599305 .6767578 .34298707 .6767578 .33499146 .6647644L.027999878 .19602967V.16503906H.2939911V.07800293C.2939911 .041992189 .2919922 .0309906 .21798706 .0309906H.19699097V0C.23799134 .0029907227 .2899933 .0029907227 .33198548 .0029907227 .37399293 .0029907227 .4269867 .0029907227 .46798707 0V.0309906H.44699098C.37298585 .0309906 .37098695 .041992189 .37098695 .07800293V.16503906H.47099305M.2999878 .19602967H.055999757L.2999878 .56881716V.19602967Z"/>
<path id="font_1_56" d="M.44898988 .20091248C.44898988 .31991578 .36698915 .41992188 .25898744 .41992188 .21099854 .41992188 .16799927 .4039154 .13198853 .36891175V.5641022C.1519928 .55778506 .18499756 .55078127 .21699524 .55078127 .33999635 .55078127 .4099884 .6418457 .4099884 .65493777 .4099884 .6609802 .40699769 .6660156 .3999939 .6660156 .3999939 .66607668 .39698792 .66607668 .3919983 .66308596 .37199403 .65408328 .32299806 .63378909 .2559967 .63378909 .21598816 .63409426 .16999817 .641098 .12298584 .6621094 .114990238 .6651001 .11099243 .6651001 .11099243 .6651001 .100997928 .66508486 .100997928 .657074 .100997928 .64108279V.3447113C.100997928 .3266449 .100997928 .31861878 .114990238 .31861878 .12199402 .31861878 .12399292 .32164 .12799073 .32765199 .13899231 .34371949 .17599488 .3979187 .25698854 .3979187 .30899049 .3979187 .33399964 .3517456 .34199525 .3336792 .35798646 .2965393 .3600006 .2574005 .3600006 .20721436 .3600006 .17218018 .3600006 .112197879 .33599855 .07032776 .31199647 .031448366 .2749939 .0055389406 .22898865 .0055389406 .1559906 .0055389406 .09899902 .05836487 .08198547 .1171875 .084991458 .11685181 .08799744 .115859989 .09899902 .115859989 .13198853 .115859989 .14898682 .14085388 .14898682 .16485596 .14898682 .18885803 .13198853 .21386719 .09899902 .21386719 .084991458 .21386719 .049987794 .2068634 .049987794 .16085816 .049987794 .07432556 .11898804-.022460938 .23098755-.022460938 .34700013-.022460938 .44898988 .07331848 .44898988 .20019531V.20091248Z"/>
<path id="font_1_101" d="M.45700074 .2036438C.45700074 .33070375 .36799623 .4267578 .25698854 .4267578 .18899536 .4267578 .1519928 .37573243 .13198853 .327713V.35173036C.13198853 .6047821 .2559967 .64100649 .30699159 .64100649 .33099366 .64100649 .37298585 .634964 .394989 .6007538 .37998963 .6007538 .33999635 .6007538 .33999635 .5557556 .33999635 .524765 .3639984 .5097656 .38598634 .5097656 .4019928 .5097656 .43199159 .51875308 .43199159 .5577545 .43199159 .6178589 .3880005 .6660156 .30499269 .6660156 .1769867 .6660156 .041992189 .5367584 .041992189 .31570436 .041992189 .048553468 .1579895-.022460938 .25099183-.022460938 .3619995-.022460938 .45700074 .07156372 .45700074 .2036438M.36698915 .20463562C.36698915 .15661621 .36698915 .10658264 .34999085 .0705719 .31999208 .010528564 .27398683 .0055389406 .25099183 .0055389406 .18798828 .0055389406 .1579895 .06556702 .1519928 .080566409 .13398743 .127594 .13398743 .2076416 .13398743 .22564698 .13398743 .30369569 .1659851 .40374757 .2559967 .40374757 .27198792 .40374757 .31799317 .40374757 .34899903 .34172059 .36698915 .30470277 .36698915 .2536621 .36698915 .20463562Z"/>
<path id="font_1_100" d="M.4850006 .6435547H.24198914C.11999512 .6435547 .117996219 .6566467 .11399841 .67578127H.08898926L.055999757 .46954347H.08099365C.083999637 .48554994 .09298706 .54855349 .10598755 .5605469 .11299133 .5665436 .19099427 .5665436 .20399475 .5665436H.41099549L.29899598 .40853883C.20899964 .2735443 .17599488 .13453675 .17599488 .03253174 .17599488 .022537232 .17599488-.022460938 .22200012-.022460938 .2679901-.022460938 .2679901 .022537232 .2679901 .03253174V.08354187C.2679901 .13853455 .2709961 .19354248 .2789917 .24754334 .2829895 .27053834 .29699708 .35653688 .34098817 .41854859L.47599793 .608551C.4850006 .62054446 .4850006 .62254336 .4850006 .6435547Z"/>
<path id="font_1_51" d="M.45700074 .16764832C.45700074 .20367432 .44599916 .24871826 .4079895 .29074098 .3889923 .31176759 .37298585 .32176209 .30899049 .36180116 .3809967 .39881898 .42999269 .4508667 .42999269 .51690676 .42999269 .6089783 .34098817 .6660156 .25 .6660156 .1499939 .6660156 .068984989 .5919647 .068984989 .49890138 .068984989 .48088075 .070999149 .43585206 .11299133 .38882447 .12399292 .3768158 .16099549 .35179139 .18598938 .33477784 .12799073 .30575563 .041992189 .24971009 .041992189 .15063477 .041992189 .044555665 .14399719-.022460938 .24899292-.022460938 .3619995-.022460938 .45700074 .060577394 .45700074 .16764832M.38598634 .51690676C.38598634 .45986939 .34700013 .41183473 .2869873 .3768158L.16299439 .4568634C.116989139 .4868927 .11299133 .5209198 .11299133 .53793337 .11299133 .5989685 .17799378 .64100649 .24899292 .64100649 .32199098 .64100649 .38598634 .588974 .38598634 .51690676M.40699769 .13162232C.40699769 .05757141 .33198548 .0055389406 .25 .0055389406 .1639862 .0055389406 .09199524 .06758118 .09199524 .15063477 .09199524 .2086792 .12399292 .2727356 .20899964 .31976319L.33198548 .24171448C.3600006 .22268677 .40699769 .19267273 .40699769 .13162232Z"/>
<path id="font_1_78" d="M.45700074 .32888795C.45700074 .598114 .34199525 .6660156 .25299073 .6660156 .19799805 .6660156 .14898682 .64801028 .10598755 .6031189 .06498718 .5580902 .041992189 .5160217 .041992189 .44091798 .041992189 .3158722 .12998963 .21777344 .24198914 .21777344 .30299378 .21777344 .34399415 .25979615 .36698915 .3178711V.28582765C.36698915 .05178833 .2630005 .0055389406 .20498657 .0055389406 .18798828 .0055389406 .13398743 .007537842 .10699463 .041778566 .15098572 .041778566 .15899658 .07078552 .15899658 .08778381 .15899658 .118774417 .1349945 .13378906 .11299133 .13378906 .09700012 .13378906 .066986087 .12478638 .066986087 .08578491 .066986087 .018615723 .12098694-.022460938 .20599365-.022460938 .33499146-.022460938 .45700074 .11378479 .45700074 .32888795M.36499024 .42089845C.36499024 .33789063 .33099366 .24076844 .24299622 .24076844 .22698975 .2407074 .18099976 .2407074 .1499939 .30371095 .13198853 .34072877 .13198853 .3908081 .13198853 .43988038 .13198853 .49397279 .13198853 .5410614 .15299988 .578125 .17999268 .62805178 .21798706 .64100649 .25299073 .64100649 .29899598 .64100649 .33198548 .60710147 .34899903 .562088 .36099244 .52989199 .36499024 .46688844 .36499024 .42089845Z"/>
<path id="font_1_42" d="M.6649933 .23271179C.6649933 .24272156 .6649933 .24972534 .6519928 .24972534 .6409912 .24972534 .6409912 .24372864 .6399994 .23371887 .6319885 .09059143 .5249939 .008529663 .41600038 .008529663 .35499574 .008529663 .15899658 .042556764 .15899658 .34080506 .15899658 .64004519 .35398866 .67407229 .4149933 .67407229 .5239868 .67407229 .61299136 .58299258 .6329956 .4368744 .6349945 .42286683 .6349945 .41986085 .6489868 .41986085 .6649933 .41986085 .6649933 .42286683 .6649933 .44387818V.68107607C.6649933 .69807437 .6649933 .7050781 .6539917 .7050781 .6499939 .7050781 .6459961 .7050781 .6380005 .69306948L.58799746 .61901858C.5509949 .6550598 .5 .7050781 .4039917 .7050781 .21699524 .7050781 .055999757 .5459595 .055999757 .34179688 .055999757 .1346283 .21798706-.022460938 .4039917-.022460938 .5669861-.022460938 .6649933 .116622928 .6649933 .23271179Z"/>
<path id="font_1_72" d="M.25498963 0V.0309906C.18798828 .0309906 .1769867 .0309906 .1769867 .07601929V.69433596L.032989503 .6826172V.6516113C.102996829 .6516113 .11099243 .64460757 .11099243 .5956421V.07595825C.11099243 .0309906 .099990848 .0309906 .032989503 .0309906V0L.14399719 .0029907227 .25498963 0Z"/>
<path id="font_1_109" d="M.5349884 0V.0309906C.46499635 .0309906 .45700074 .037994386 .45700074 .08705139V.4423828L.30999757 .43066407V.3996582C.37998963 .3996582 .3880005 .39266969 .3880005 .34373475V.16601563C.3880005 .07910156 .33999635 .011245728 .2669983 .011245728 .18299866 .011245728 .1789856 .058135988 .1789856 .11009216V.4423828L.03199768 .43066407V.3996582C.10998535 .3996582 .10998535 .39666749 .10998535 .3078003V.15802002C.10998535 .080093387 .10998535-.0107421879 .2619934-.0107421879 .31799317-.0107421879 .3619995 .017242432 .3909912 .07910156V-.0107421879L.5349884 0Z"/>
<path id="font_1_75" d="M.8129883 0V.0309906C.7609863 .0309906 .73599246 .0309906 .7350006 .061019899V.25221253C.7350006 .3383026 .7350006 .36932374 .70399478 .405365 .6899872 .42237855 .6569977 .4423828 .598999 .4423828 .5149994 .4423828 .47099305 .38233949 .45399476 .34429933 .43998719 .43138124 .3659973 .4423828 .32099916 .4423828 .24798584 .4423828 .20098877 .39935304 .17298889 .33729554V.4423828L.03199768 .43066407V.3996582C.101989749 .3996582 .10998535 .39266969 .10998535 .34370423V.07595825C.10998535 .0309906 .09899902 .0309906 .03199768 .0309906V0L.14498902 .0029907227 .25698854 0V.0309906C.18998719 .0309906 .1789856 .0309906 .1789856 .07595825V.25978089C.1789856 .36431886 .25 .42037965 .31399537 .42037965 .3769989 .42037965 .3880005 .36631776 .3880005 .30926515V.076034549C.3880005 .0309906 .3769989 .0309906 .30999757 .0309906V0L.4229889 .0029907227 .5349884 0V.0309906C.46798707 .0309906 .45700074 .0309906 .45700074 .076034549V.2602234C.45700074 .36431886 .5279999 .42037965 .59199526 .42037965 .6549988 .42037965 .66600039 .36631776 .66600039 .30926515V.076034549C.66600039 .0309906 .6549988 .0309906 .58799746 .0309906V0L.70098879 .0029907227 .8129883 0Z"/>
<path id="font_1_77" d="M.5349884 0V.0309906C.48298646 .0309906 .45799256 .0309906 .45700074 .061019899V.25221253C.45700074 .3383026 .45700074 .36932374 .42599488 .405365 .4119873 .42237855 .3789978 .4423828 .32099916 .4423828 .24798584 .4423828 .20098877 .39935304 .17298889 .33729554V.4423828L.03199768 .43066407V.3996582C.101989749 .3996582 .10998535 .39266969 .10998535 .34370423V.07595825C.10998535 .0309906 .09899902 .0309906 .03199768 .0309906V0L.14498902 .0029907227 .25698854 0V.0309906C.18998719 .0309906 .1789856 .0309906 .1789856 .07595825V.25978089C.1789856 .36431886 .25 .42037965 .31399537 .42037965 .3769989 .42037965 .3880005 .36631776 .3880005 .30926515V.076034549C.3880005 .0309906 .3769989 .0309906 .30999757 .0309906V0L.4229889 .0029907227 .5349884 0Z"/>
<path id="font_1_34" d="M.651001 .18289185C.651001 .26983644 .56900027 .34480287 .45799256 .35679627 .5549927 .3757782 .6239929 .43974305 .6239929 .51368716 .6239929 .6006317 .5319977 .6826172 .4019928 .6826172H.035995485V.6516113H.05999756C.13699341 .6516113 .13899231 .64060977 .13899231 .6046295V.07795715C.13899231 .041992189 .13699341 .0309906 .05999756 .0309906H.035995485V0H.42799378C.5609894-.0002593994 .651001 .08874512 .651001 .18273926V.18289185M.5269928 .5136719C.5269928 .44970704 .47799684 .36573792 .36698915 .36573792H.22200012V.6116333C.22200012 .64460757 .22399903 .6516113 .2709961 .6516113H.394989C.49198915 .65174868 .5269928 .56674197 .5269928 .51374819V.5136719M.5509949 .18386841C.5509949 .1129303 .49899293 .0309906 .3959961 .0309906H.2709961C.22399903 .0309906 .22200012 .037994386 .22200012 .07095337V.34375H.4099884C.5089874 .34399415 .5509949 .25099183 .5509949 .18399048V.18386841Z"/>
<path id="font_1_116" d="M.5159912 0V.0309906C.46199037 .03125 .44400025 .0332489 .42099 .0622406L.2869873 .23493958C.31698609 .27287293 .35499574 .3217926 .3789978 .3477478 .4099884 .38368226 .45098878 .39866639 .49798585 .3996582V.43066407C.47200013 .4286499 .44198609 .42765809 .41600038 .42765809 .38598634 .42765809 .33299256 .42965699 .31999208 .43066407V.3996582C.34098817 .3973999 .34899903 .3843994 .34899903 .3684082 .34899903 .35240174 .33898927 .33940126 .33399964 .33340455L.27198792 .2554016 .19400025 .35639955C.18499756 .3664093 .18499756 .3684082 .18499756 .3744049 .18499756 .3894043 .19999695 .39840699 .21998596 .39941407V.43066407L.11199951 .42765809C.09098816 .42765809 .04399109 .4286499 .016998291 .43066407V.3996582C.08699036 .3996582 .08799744 .39865113 .1349945 .3387146L.23399353 .20982361C.18699646 .14988709 .18699646 .14788819 .13999939 .09094238 .09199524 .032989503 .032989503 .0309906 .011993408 .0309906V0C.037994386 .0019989014 .068984989 .0029907227 .09498596 .0029907227L.18998719 0V.0309906C.16799927 .034240724 .16099549 .04724121 .16099549 .0622406 .16099549 .084243778 .18998719 .117248538 .25099183 .1892395L.32699586 .08924866C.33499146 .07824707 .34799195 .0622406 .34799195 .056243898 .34799195 .04724121 .33898927 .03224182 .31199647 .03125V0L.41999818 .0029907227C.44699098 .0029907227 .48599244 .0019989014 .5159912 0Z"/>
</defs>
<path transform="matrix(1.00006,0,0,-1,32.266038,174.619)" stroke-width=".09962" stroke-linecap="butt" stroke-miterlimit="10" stroke-linejoin="miter" fill="none" stroke="#000000" d="M0 0H127.56062M0 14.17339H127.56062M0 28.3468H127.56062M0 42.5202H127.56062M0 56.69362H127.56062M0 70.867H127.56062M0 85.04042H127.56062M0 99.21382H127.56062M0 113.38724H127.56062M0 127.55566H127.56062M0 0V127.56062M14.17339 0V127.56062M28.3468 0V127.56062M42.5202 0V127.56062M56.69362 0V127.56062M70.867 0V127.56062M85.04042 0V127.56062M99.21382 0V127.56062M113.38724 0V127.56062M127.55566 0V127.56062M127.56062 127.56062"/>
<path transform="matrix(1.00006,0,0,-1,32.266038,174.619)" stroke-width="1.19553" stroke-linecap="butt" stroke-miterlimit="10" stroke-linejoin="miter" fill="none" stroke="#000000" d="M0 0V42.5202H42.5202V0ZM42.5202 42.5202"/>
<path transform="matrix(1.00006,0,0,-1,32.266038,174.619)" stroke-width="1.19553" stroke-linecap="butt" stroke-miterlimit="10" stroke-linejoin="miter" fill="none" stroke="#000000" d="M0 42.5202V85.04042H42.5202V42.5202ZM42.5202 85.04042"/>
<path transform="matrix(1.00006,0,0,-1,32.266038,174.619)" stroke-width="1.19553" stroke-linecap="butt" stroke-miterlimit="10" stroke-linejoin="miter" fill="none" stroke="#000000" d="M0 85.04042V127.56062H42.5202V85.04042ZM42.5202 127.56062"/>
<path transform="matrix(1.00006,0,0,-1,32.266038,174.619)" stroke-width="1.19553" stroke-linecap="butt" stroke-miterlimit="10" stroke-linejoin="miter" fill="none" stroke="#000000" d="M42.5202 0V42.5202H85.04042V0ZM85.04042 42.5202"/>
<path transform="matrix(1.00006,0,0,-1,32.266038,174.619)" stroke-width="1.19553" stroke-linecap="butt" stroke-miterlimit="10" stroke-linejoin="miter" fill="none" stroke="#000000" d="M42.5202 42.5202V85.04042H85.04042V42.5202ZM85.04042 85.04042"/>
<path transform="matrix(1.00006,0,0,-1,32.266038,174.619)" stroke-width="1.19553" stroke-linecap="butt" stroke-miterlimit="10" stroke-linejoin="miter" fill="none" stroke="#000000" d="M42.5202 85.04042V127.56062H85.04042V85.04042ZM85.04042 127.56062"/>
<path transform="matrix(1.00006,0,0,-1,32.266038,174.619)" stroke-width="1.19553" stroke-linecap="butt" stroke-miterlimit="10" stroke-linejoin="miter" fill="none" stroke="#000000" d="M85.04042 0V42.5202H127.56062V0ZM127.56062 42.5202"/>
<path transform="matrix(1.00006,0,0,-1,32.266038,174.619)" stroke-width="1.19553" stroke-linecap="butt" stroke-miterlimit="10" stroke-linejoin="miter" fill="none" stroke="#000000" d="M85.04042 42.5202V85.04042H127.56062V42.5202ZM127.56062 85.04042"/>
<path transform="matrix(1.00006,0,0,-1,32.266038,174.619)" stroke-width="1.19553" stroke-linecap="butt" stroke-miterlimit="10" stroke-linejoin="miter" fill="none" stroke="#000000" d="M85.04042 85.04042V127.56062H127.56062V85.04042ZM127.56062 127.56062"/>
<path transform="matrix(1.00006,0,0,-1,32.266038,174.619)" stroke-width=".3985" stroke-linecap="butt" stroke-miterlimit="10" stroke-linejoin="miter" fill="none" stroke="#000000" d="M0 120.47392"/>
<use data-text="R" xlink:href="#font_1_95" transform="matrix(9.963197,0,0,-9.9626,1.2171707,57.438005)"/>
<use data-text="o" xlink:href="#font_1_81" transform="matrix(9.963197,0,0,-9.9626,8.550079,57.438005)"/>
<use data-text="w" xlink:href="#font_1_114" transform="matrix(9.963197,0,0,-9.9626,13.252716,57.438005)"/>
<use data-text="1" xlink:href="#font_1_82" transform="matrix(9.963197,0,0,-9.9626,23.753922,57.438005)"/>
<path transform="matrix(1.00006,0,0,-1,32.266038,174.619)" stroke-width=".3985" stroke-linecap="butt" stroke-miterlimit="10" stroke-linejoin="miter" fill="none" stroke="#000000" d="M0 106.30052"/>
<use data-text="R" xlink:href="#font_1_95" transform="matrix(9.963197,0,0,-9.9626,1.2171707,71.611)"/>
<use data-text="o" xlink:href="#font_1_81" transform="matrix(9.963197,0,0,-9.9626,8.550079,71.611)"/>
<use data-text="w" xlink:href="#font_1_114" transform="matrix(9.963197,0,0,-9.9626,13.252716,71.611)"/>
<use data-text="2" xlink:href="#font_1_107" transform="matrix(9.963197,0,0,-9.9626,23.753922,71.611)"/>
<path transform="matrix(1.00006,0,0,-1,32.266038,174.619)" stroke-width=".3985" stroke-linecap="butt" stroke-miterlimit="10" stroke-linejoin="miter" fill="none" stroke="#000000" d="M0 92.1271"/>
<use data-text="R" xlink:href="#font_1_95" transform="matrix(9.963197,0,0,-9.9626,1.2171707,85.785)"/>
<use data-text="o" xlink:href="#font_1_81" transform="matrix(9.963197,0,0,-9.9626,8.550079,85.785)"/>
<use data-text="w" xlink:href="#font_1_114" transform="matrix(9.963197,0,0,-9.9626,13.252716,85.785)"/>
<use data-text="3" xlink:href="#font_1_106" transform="matrix(9.963197,0,0,-9.9626,23.753922,85.785)"/>
<path transform="matrix(1.00006,0,0,-1,32.266038,174.619)" stroke-width=".3985" stroke-linecap="butt" stroke-miterlimit="10" stroke-linejoin="miter" fill="none" stroke="#000000" d="M0 77.95372"/>
<use data-text="R" xlink:href="#font_1_95" transform="matrix(9.963197,0,0,-9.9626,1.2171707,99.958)"/>
<use data-text="o" xlink:href="#font_1_81" transform="matrix(9.963197,0,0,-9.9626,8.550079,99.958)"/>
<use data-text="w" xlink:href="#font_1_114" transform="matrix(9.963197,0,0,-9.9626,13.252716,99.958)"/>
<use data-text="4" xlink:href="#font_1_57" transform="matrix(9.963197,0,0,-9.9626,23.753922,99.958)"/>
<path transform="matrix(1.00006,0,0,-1,32.266038,174.619)" stroke-width=".3985" stroke-linecap="butt" stroke-miterlimit="10" stroke-linejoin="miter" fill="none" stroke="#000000" d="M0 63.7803"/>
<use data-text="R" xlink:href="#font_1_95" transform="matrix(9.963197,0,0,-9.9626,1.2171707,114.131008)"/>
<use data-text="o" xlink:href="#font_1_81" transform="matrix(9.963197,0,0,-9.9626,8.550079,114.131008)"/>
<use data-text="w" xlink:href="#font_1_114" transform="matrix(9.963197,0,0,-9.9626,13.252716,114.131008)"/>
<use data-text="5" xlink:href="#font_1_56" transform="matrix(9.963197,0,0,-9.9626,23.753922,114.131008)"/>
<path transform="matrix(1.00006,0,0,-1,32.266038,174.619)" stroke-width=".3985" stroke-linecap="butt" stroke-miterlimit="10" stroke-linejoin="miter" fill="none" stroke="#000000" d="M0 49.6069"/>
<use data-text="R" xlink:href="#font_1_95" transform="matrix(9.963197,0,0,-9.9626,1.2171707,128.30501)"/>
<use data-text="o" xlink:href="#font_1_81" transform="matrix(9.963197,0,0,-9.9626,8.550079,128.30501)"/>
<use data-text="w" xlink:href="#font_1_114" transform="matrix(9.963197,0,0,-9.9626,13.252716,128.30501)"/>
<use data-text="6" xlink:href="#font_1_101" transform="matrix(9.963197,0,0,-9.9626,23.753922,128.30501)"/>
<path transform="matrix(1.00006,0,0,-1,32.266038,174.619)" stroke-width=".3985" stroke-linecap="butt" stroke-miterlimit="10" stroke-linejoin="miter" fill="none" stroke="#000000" d="M0 35.43349"/>
<use data-text="R" xlink:href="#font_1_95" transform="matrix(9.963197,0,0,-9.9626,1.2171707,142.478)"/>
<use data-text="o" xlink:href="#font_1_81" transform="matrix(9.963197,0,0,-9.9626,8.550079,142.478)"/>
<use data-text="w" xlink:href="#font_1_114" transform="matrix(9.963197,0,0,-9.9626,13.252716,142.478)"/>
<use data-text="7" xlink:href="#font_1_100" transform="matrix(9.963197,0,0,-9.9626,23.753922,142.478)"/>
<path transform="matrix(1.00006,0,0,-1,32.266038,174.619)" stroke-width=".3985" stroke-linecap="butt" stroke-miterlimit="10" stroke-linejoin="miter" fill="none" stroke="#000000" d="M0 21.2601"/>
<use data-text="R" xlink:href="#font_1_95" transform="matrix(9.963197,0,0,-9.9626,1.2171707,156.65201)"/>
<use data-text="o" xlink:href="#font_1_81" transform="matrix(9.963197,0,0,-9.9626,8.550079,156.65201)"/>
<use data-text="w" xlink:href="#font_1_114" transform="matrix(9.963197,0,0,-9.9626,13.252716,156.65201)"/>
<use data-text="8" xlink:href="#font_1_51" transform="matrix(9.963197,0,0,-9.9626,23.753922,156.65201)"/>
<path transform="matrix(1.00006,0,0,-1,32.266038,174.619)" stroke-width=".3985" stroke-linecap="butt" stroke-miterlimit="10" stroke-linejoin="miter" fill="none" stroke="#000000" d="M0 7.08669"/>
<use data-text="R" xlink:href="#font_1_95" transform="matrix(9.963197,0,0,-9.9626,1.2171707,170.825)"/>
<use data-text="o" xlink:href="#font_1_81" transform="matrix(9.963197,0,0,-9.9626,8.550079,170.825)"/>
<use data-text="w" xlink:href="#font_1_114" transform="matrix(9.963197,0,0,-9.9626,13.252716,170.825)"/>
<use data-text="9" xlink:href="#font_1_78" transform="matrix(9.963197,0,0,-9.9626,23.753922,170.825)"/>
<path transform="matrix(1.00006,0,0,-1,32.266038,174.619)" stroke-width=".3985" stroke-linecap="butt" stroke-miterlimit="10" stroke-linejoin="miter" fill="none" stroke="#000000" d="M7.08669 127.56062"/>
<use data-text="C" xlink:href="#font_1_42" transform="matrix(0,-9.9626,-9.963197,-0,42.75467,43.538995)"/>
<use data-text="o" xlink:href="#font_1_81" transform="matrix(0,-9.9626,-9.963197,-0,42.75467,36.345994)"/>
<use data-text="l" xlink:href="#font_1_72" transform="matrix(0,-9.9626,-9.963197,-0,42.75467,31.3647)"/>
<use data-text="u" xlink:href="#font_1_109" transform="matrix(0,-9.9626,-9.963197,-0,42.75467,28.595093)"/>
<use data-text="m" xlink:href="#font_1_75" transform="matrix(0,-9.9626,-9.963197,-0,42.75467,23.055893)"/>
<use data-text="n" xlink:href="#font_1_77" transform="matrix(0,-9.9626,-9.963197,-0,42.75467,14.75705)"/>
<use data-text="1" xlink:href="#font_1_82" transform="matrix(0,-9.9626,-9.963197,-0,42.75467,5.910263)"/>
<path transform="matrix(1.00006,0,0,-1,32.266038,174.619)" stroke-width=".3985" stroke-linecap="butt" stroke-miterlimit="10" stroke-linejoin="miter" fill="none" stroke="#000000" d="M21.2601 127.56062"/>
<use data-text="C" xlink:href="#font_1_42" transform="matrix(0,-9.9626,-9.963197,-0,56.929513,43.538995)"/>
<use data-text="o" xlink:href="#font_1_81" transform="matrix(0,-9.9626,-9.963197,-0,56.929513,36.345994)"/>
<use data-text="l" xlink:href="#font_1_72" transform="matrix(0,-9.9626,-9.963197,-0,56.929513,31.3647)"/>
<use data-text="u" xlink:href="#font_1_109" transform="matrix(0,-9.9626,-9.963197,-0,56.929513,28.595093)"/>
<use data-text="m" xlink:href="#font_1_75" transform="matrix(0,-9.9626,-9.963197,-0,56.929513,23.055893)"/>
<use data-text="n" xlink:href="#font_1_77" transform="matrix(0,-9.9626,-9.963197,-0,56.929513,14.75705)"/>
<use data-text="2" xlink:href="#font_1_107" transform="matrix(0,-9.9626,-9.963197,-0,56.929513,5.910263)"/>
<path transform="matrix(1.00006,0,0,-1,32.266038,174.619)" stroke-width=".3985" stroke-linecap="butt" stroke-miterlimit="10" stroke-linejoin="miter" fill="none" stroke="#000000" d="M35.43349 127.56062"/>
<use data-text="C" xlink:href="#font_1_42" transform="matrix(0,-9.9626,-9.963197,-0,71.10336,43.538995)"/>
<use data-text="o" xlink:href="#font_1_81" transform="matrix(0,-9.9626,-9.963197,-0,71.10336,36.345994)"/>
<use data-text="l" xlink:href="#font_1_72" transform="matrix(0,-9.9626,-9.963197,-0,71.10336,31.3647)"/>
<use data-text="u" xlink:href="#font_1_109" transform="matrix(0,-9.9626,-9.963197,-0,71.10336,28.595093)"/>
<use data-text="m" xlink:href="#font_1_75" transform="matrix(0,-9.9626,-9.963197,-0,71.10336,23.055893)"/>
<use data-text="n" xlink:href="#font_1_77" transform="matrix(0,-9.9626,-9.963197,-0,71.10336,14.75705)"/>
<use data-text="3" xlink:href="#font_1_106" transform="matrix(0,-9.9626,-9.963197,-0,71.10336,5.910263)"/>
<path transform="matrix(1.00006,0,0,-1,32.266038,174.619)" stroke-width=".3985" stroke-linecap="butt" stroke-miterlimit="10" stroke-linejoin="miter" fill="none" stroke="#000000" d="M49.6069 127.56062"/>
<use data-text="C" xlink:href="#font_1_42" transform="matrix(0,-9.9626,-9.963197,-0,85.277217,43.538995)"/>
<use data-text="o" xlink:href="#font_1_81" transform="matrix(0,-9.9626,-9.963197,-0,85.277217,36.345994)"/>
<use data-text="l" xlink:href="#font_1_72" transform="matrix(0,-9.9626,-9.963197,-0,85.277217,31.3647)"/>
<use data-text="u" xlink:href="#font_1_109" transform="matrix(0,-9.9626,-9.963197,-0,85.277217,28.595093)"/>
<use data-text="m" xlink:href="#font_1_75" transform="matrix(0,-9.9626,-9.963197,-0,85.277217,23.055893)"/>
<use data-text="n" xlink:href="#font_1_77" transform="matrix(0,-9.9626,-9.963197,-0,85.277217,14.75705)"/>
<use data-text="4" xlink:href="#font_1_57" transform="matrix(0,-9.9626,-9.963197,-0,85.277217,5.910263)"/>
<path transform="matrix(1.00006,0,0,-1,32.266038,174.619)" stroke-width=".3985" stroke-linecap="butt" stroke-miterlimit="10" stroke-linejoin="miter" fill="none" stroke="#000000" d="M63.7803 127.56062"/>
<use data-text="C" xlink:href="#font_1_42" transform="matrix(0,-9.9626,-9.963197,-0,99.452068,43.538995)"/>
<use data-text="o" xlink:href="#font_1_81" transform="matrix(0,-9.9626,-9.963197,-0,99.452068,36.345994)"/>
<use data-text="l" xlink:href="#font_1_72" transform="matrix(0,-9.9626,-9.963197,-0,99.452068,31.3647)"/>
<use data-text="u" xlink:href="#font_1_109" transform="matrix(0,-9.9626,-9.963197,-0,99.452068,28.595093)"/>
<use data-text="m" xlink:href="#font_1_75" transform="matrix(0,-9.9626,-9.963197,-0,99.452068,23.055893)"/>
<use data-text="n" xlink:href="#font_1_77" transform="matrix(0,-9.9626,-9.963197,-0,99.452068,14.75705)"/>
<use data-text="5" xlink:href="#font_1_56" transform="matrix(0,-9.9626,-9.963197,-0,99.452068,5.910263)"/>
<path transform="matrix(1.00006,0,0,-1,32.266038,174.619)" stroke-width=".3985" stroke-linecap="butt" stroke-miterlimit="10" stroke-linejoin="miter" fill="none" stroke="#000000" d="M77.95372 127.56062"/>
<use data-text="C" xlink:href="#font_1_42" transform="matrix(0,-9.9626,-9.963197,-0,113.625919,43.538995)"/>
<use data-text="o" xlink:href="#font_1_81" transform="matrix(0,-9.9626,-9.963197,-0,113.625919,36.345994)"/>
<use data-text="l" xlink:href="#font_1_72" transform="matrix(0,-9.9626,-9.963197,-0,113.625919,31.3647)"/>
<use data-text="u" xlink:href="#font_1_109" transform="matrix(0,-9.9626,-9.963197,-0,113.625919,28.595093)"/>
<use data-text="m" xlink:href="#font_1_75" transform="matrix(0,-9.9626,-9.963197,-0,113.625919,23.055893)"/>
<use data-text="n" xlink:href="#font_1_77" transform="matrix(0,-9.9626,-9.963197,-0,113.625919,14.75705)"/>
<use data-text="6" xlink:href="#font_1_101" transform="matrix(0,-9.9626,-9.963197,-0,113.625919,5.910263)"/>
<path transform="matrix(1.00006,0,0,-1,32.266038,174.619)" stroke-width=".3985" stroke-linecap="butt" stroke-miterlimit="10" stroke-linejoin="miter" fill="none" stroke="#000000" d="M92.1271 127.56062"/>
<use data-text="C" xlink:href="#font_1_42" transform="matrix(0,-9.9626,-9.963197,-0,127.800769,43.538995)"/>
<use data-text="o" xlink:href="#font_1_81" transform="matrix(0,-9.9626,-9.963197,-0,127.800769,36.345994)"/>
<use data-text="l" xlink:href="#font_1_72" transform="matrix(0,-9.9626,-9.963197,-0,127.800769,31.3647)"/>
<use data-text="u" xlink:href="#font_1_109" transform="matrix(0,-9.9626,-9.963197,-0,127.800769,28.595093)"/>
<use data-text="m" xlink:href="#font_1_75" transform="matrix(0,-9.9626,-9.963197,-0,127.800769,23.055893)"/>
<use data-text="n" xlink:href="#font_1_77" transform="matrix(0,-9.9626,-9.963197,-0,127.800769,14.75705)"/>
<use data-text="7" xlink:href="#font_1_100" transform="matrix(0,-9.9626,-9.963197,-0,127.800769,5.910263)"/>
<path transform="matrix(1.00006,0,0,-1,32.266038,174.619)" stroke-width=".3985" stroke-linecap="butt" stroke-miterlimit="10" stroke-linejoin="miter" fill="none" stroke="#000000" d="M106.30052 127.56062"/>
<use data-text="C" xlink:href="#font_1_42" transform="matrix(0,-9.9626,-9.963197,-0,141.97461,43.538995)"/>
<use data-text="o" xlink:href="#font_1_81" transform="matrix(0,-9.9626,-9.963197,-0,141.97461,36.345994)"/>
<use data-text="l" xlink:href="#font_1_72" transform="matrix(0,-9.9626,-9.963197,-0,141.97461,31.3647)"/>
<use data-text="u" xlink:href="#font_1_109" transform="matrix(0,-9.9626,-9.963197,-0,141.97461,28.595093)"/>
<use data-text="m" xlink:href="#font_1_75" transform="matrix(0,-9.9626,-9.963197,-0,141.97461,23.055893)"/>
<use data-text="n" xlink:href="#font_1_77" transform="matrix(0,-9.9626,-9.963197,-0,141.97461,14.75705)"/>
<use data-text="9" xlink:href="#font_1_78" transform="matrix(0,-9.9626,-9.963197,-0,141.97461,5.910263)"/>
<path transform="matrix(1.00006,0,0,-1,32.266038,174.619)" stroke-width=".3985" stroke-linecap="butt" stroke-miterlimit="10" stroke-linejoin="miter" fill="none" stroke="#000000" d="M120.47392 127.56062"/>
<use data-text="C" xlink:href="#font_1_42" transform="matrix(0,-9.9626,-9.963197,-0,156.14847,43.538995)"/>
<use data-text="o" xlink:href="#font_1_81" transform="matrix(0,-9.9626,-9.963197,-0,156.14847,36.345994)"/>
<use data-text="l" xlink:href="#font_1_72" transform="matrix(0,-9.9626,-9.963197,-0,156.14847,31.3647)"/>
<use data-text="u" xlink:href="#font_1_109" transform="matrix(0,-9.9626,-9.963197,-0,156.14847,28.595093)"/>
<use data-text="m" xlink:href="#font_1_75" transform="matrix(0,-9.9626,-9.963197,-0,156.14847,23.055893)"/>
<use data-text="n" xlink:href="#font_1_77" transform="matrix(0,-9.9626,-9.963197,-0,156.14847,14.75705)"/>
<use data-text="9" xlink:href="#font_1_78" transform="matrix(0,-9.9626,-9.963197,-0,156.14847,5.910263)"/>
<path transform="matrix(1.00006,0,0,-1,32.266038,174.619)" stroke-width=".3985" stroke-linecap="butt" stroke-miterlimit="10" stroke-linejoin="miter" fill="none" stroke="#000000" d="M21.2601 106.30052"/>
<use data-text="B" xlink:href="#font_1_34" transform="matrix(9.963197,0,0,-9.9626,40.868555,71.666)"/>
<use data-text="o" xlink:href="#font_1_81" transform="matrix(9.963197,0,0,-9.9626,47.922494,71.666)"/>
<use data-text="x" xlink:href="#font_1_116" transform="matrix(9.963197,0,0,-9.9626,52.625123,71.666)"/>
<use data-text="1" xlink:href="#font_1_82" transform="matrix(9.963197,0,0,-9.9626,61.19348,71.666)"/>
<path transform="matrix(1.00006,0,0,-1,32.266038,174.619)" stroke-width=".3985" stroke-linecap="butt" stroke-miterlimit="10" stroke-linejoin="miter" fill="none" stroke="#000000" d="M63.7803 106.30052"/>
<use data-text="B" xlink:href="#font_1_34" transform="matrix(9.963197,0,0,-9.9626,83.392108,71.666)"/>
<use data-text="o" xlink:href="#font_1_81" transform="matrix(9.963197,0,0,-9.9626,90.446048,71.666)"/>
<use data-text="x" xlink:href="#font_1_116" transform="matrix(9.963197,0,0,-9.9626,95.148677,71.666)"/>
<use data-text="2" xlink:href="#font_1_107" transform="matrix(9.963197,0,0,-9.9626,103.71703,71.666)"/>
<path transform="matrix(1.00006,0,0,-1,32.266038,174.619)" stroke-width=".3985" stroke-linecap="butt" stroke-miterlimit="10" stroke-linejoin="miter" fill="none" stroke="#000000" d="M106.30052 106.30052"/>
<use data-text="B" xlink:href="#font_1_34" transform="matrix(9.963197,0,0,-9.9626,125.91465,71.611)"/>
<use data-text="o" xlink:href="#font_1_81" transform="matrix(9.963197,0,0,-9.9626,132.9686,71.611)"/>
<use data-text="x" xlink:href="#font_1_116" transform="matrix(9.963197,0,0,-9.9626,137.67122,71.611)"/>
<use data-text="3" xlink:href="#font_1_106" transform="matrix(9.963197,0,0,-9.9626,146.23958,71.611)"/>
<path transform="matrix(1.00006,0,0,-1,32.266038,174.619)" stroke-width=".3985" stroke-linecap="butt" stroke-miterlimit="10" stroke-linejoin="miter" fill="none" stroke="#000000" d="M21.2601 63.7803"/>
<use data-text="B" xlink:href="#font_1_34" transform="matrix(9.963197,0,0,-9.9626,40.868555,114.186008)"/>
<use data-text="o" xlink:href="#font_1_81" transform="matrix(9.963197,0,0,-9.9626,47.922494,114.186008)"/>
<use data-text="x" xlink:href="#font_1_116" transform="matrix(9.963197,0,0,-9.9626,52.625123,114.186008)"/>
<use data-text="4" xlink:href="#font_1_57" transform="matrix(9.963197,0,0,-9.9626,61.19348,114.186008)"/>
<path transform="matrix(1.00006,0,0,-1,32.266038,174.619)" stroke-width=".3985" stroke-linecap="butt" stroke-miterlimit="10" stroke-linejoin="miter" fill="none" stroke="#000000" d="M63.7803 63.7803"/>
<use data-text="B" xlink:href="#font_1_34" transform="matrix(9.963197,0,0,-9.9626,83.392108,114.131008)"/>
<use data-text="o" xlink:href="#font_1_81" transform="matrix(9.963197,0,0,-9.9626,90.446048,114.131008)"/>
<use data-text="x" xlink:href="#font_1_116" transform="matrix(9.963197,0,0,-9.9626,95.148677,114.131008)"/>
<use data-text="5" xlink:href="#font_1_56" transform="matrix(9.963197,0,0,-9.9626,103.71703,114.131008)"/>
<path transform="matrix(1.00006,0,0,-1,32.266038,174.619)" stroke-width=".3985" stroke-linecap="butt" stroke-miterlimit="10" stroke-linejoin="miter" fill="none" stroke="#000000" d="M106.30052 63.7803"/>
<use data-text="B" xlink:href="#font_1_34" transform="matrix(9.963197,0,0,-9.9626,125.91465,114.131008)"/>
<use data-text="o" xlink:href="#font_1_81" transform="matrix(9.963197,0,0,-9.9626,132.9686,114.131008)"/>
<use data-text="x" xlink:href="#font_1_116" transform="matrix(9.963197,0,0,-9.9626,137.67122,114.131008)"/>
<use data-text="6" xlink:href="#font_1_101" transform="matrix(9.963197,0,0,-9.9626,146.23958,114.131008)"/>
<path transform="matrix(1.00006,0,0,-1,32.266038,174.619)" stroke-width=".3985" stroke-linecap="butt" stroke-miterlimit="10" stroke-linejoin="miter" fill="none" stroke="#000000" d="M21.2601 21.2601"/>
<use data-text="B" xlink:href="#font_1_34" transform="matrix(9.963197,0,0,-9.9626,40.868555,156.65201)"/>
<use data-text="o" xlink:href="#font_1_81" transform="matrix(9.963197,0,0,-9.9626,47.922494,156.65201)"/>
<use data-text="x" xlink:href="#font_1_116" transform="matrix(9.963197,0,0,-9.9626,52.625123,156.65201)"/>
<use data-text="7" xlink:href="#font_1_100" transform="matrix(9.963197,0,0,-9.9626,61.19348,156.65201)"/>
<path transform="matrix(1.00006,0,0,-1,32.266038,174.619)" stroke-width=".3985" stroke-linecap="butt" stroke-miterlimit="10" stroke-linejoin="miter" fill="none" stroke="#000000" d="M63.7803 21.2601"/>
<use data-text="B" xlink:href="#font_1_34" transform="matrix(9.963197,0,0,-9.9626,83.392108,156.65201)"/>
<use data-text="o" xlink:href="#font_1_81" transform="matrix(9.963197,0,0,-9.9626,90.446048,156.65201)"/>
<use data-text="x" xlink:href="#font_1_116" transform="matrix(9.963197,0,0,-9.9626,95.148677,156.65201)"/>
<use data-text="8" xlink:href="#font_1_51" transform="matrix(9.963197,0,0,-9.9626,103.71703,156.65201)"/>
<path transform="matrix(1.00006,0,0,-1,32.266038,174.619)" stroke-width=".3985" stroke-linecap="butt" stroke-miterlimit="10" stroke-linejoin="miter" fill="none" stroke="#000000" d="M106.30052 21.2601"/>
<use data-text="B" xlink:href="#font_1_34" transform="matrix(9.963197,0,0,-9.9626,125.91465,156.65201)"/>
<use data-text="o" xlink:href="#font_1_81" transform="matrix(9.963197,0,0,-9.9626,132.9686,156.65201)"/>
<use data-text="x" xlink:href="#font_1_116" transform="matrix(9.963197,0,0,-9.9626,137.67122,156.65201)"/>
<use data-text="9" xlink:href="#font_1_78" transform="matrix(9.963197,0,0,-9.9626,146.23958,156.65201)"/>
</svg>
