<svg xmlns="http://www.w3.org/2000/svg" xmlns:xlink="http://www.w3.org/1999/xlink" version="1.1" width="304" height="485" viewBox="0 0 304 485">
<defs>
<path id="font_1_97" d="M.49899293 .18579102C.49899293 .2858429 .43299867 .36791993 .34899903 .38793946L.22099304 .4189453C.15899658 .43388368 .11999512 .48773194 .11999512 .5458069 .11999512 .61595156 .17399597 .677063 .2519989 .677063 .4189911 .677063 .44099427 .5127411 .44699098 .46777345 .44799806 .461792 .44799806 .45581056 .45899964 .45581056 .47200013 .45581056 .47200013 .46080018 .47200013 .47973634V.68107607C.47200013 .69807437 .47200013 .7050781 .46099855 .7050781 .45399476 .7050781 .45298768 .70407107 .44599916 .69207766L.41099549 .63497927C.3809967 .66404727 .33999635 .7050781 .25099183 .7050781 .13999939 .7050781 .055999757 .61694338 .055999757 .5107422 .055999757 .42790223 .10899353 .35490418 .18699646 .32788087 .19799805 .32388307 .24899292 .3118744 .31900025 .29486085 .34599305 .28785707 .37599183 .280838 .4039917 .24382019 .4249878 .2177887 .43499757 .18478394 .43499757 .1517334 .43499757 .0806427 .3849945 .008529663 .30099488 .008529663 .27198792 .008529663 .19599915 .013534546 .14299011 .06260681 .084991458 .11668396 .08198547 .18078614 .08099365 .21679688 .07998657 .22679138 .07199097 .22679138 .068984989 .22679138 .055999757 .22679138 .055999757 .2197876 .055999757 .20178223V.0015258789C.055999757-.015472412 .055999757-.022460938 .066986087-.022460938 .07398987-.022460938 .07499695-.020462037 .08198547-.009475708 .08198547-.009475708 .084991458-.0054626467 .117996219 .047592164 .14898682 .013534546 .21299744-.022460938 .3019867-.022460938 .4189911-.022460938 .49899293 .07562256 .49899293 .18579102Z"/>
<path id="font_1_105" d="M.33198548 .12385559V.18066406H.30699159V.12585449C.30699159 .052108766 .2769928 .014251709 .23999024 .014251709 .17298889 .014251709 .17298889 .10491943 .17298889 .12187195V.3996582H.31599427V.43066407H.17298889V.6142578H.147995C.14698792 .5324249 .116989139 .42565919 .018997193 .42166139V.3996582H.10398865V.12408447C.10398865 .0012512207 .19699097-.0107421879 .23298645-.0107421879 .3039856-.0107421879 .33198548 .060180665 .33198548 .12408447V.12385559Z"/>
<path id="font_1_28" d="M.48298646 .08912659V.14511109H.45799256V.08912659C.45799256 .03112793 .43299867 .025131226 .42199708 .025131226 .3889923 .025131226 .3849945 .070129398 .3849945 .07511902V.27508546C.3849945 .31707765 .3849945 .3560791 .34899903 .39312745 .30999757 .43223573 .2599945 .4482422 .21199036 .4482422 .12998963 .4482422 .06098938 .40115357 .06098938 .335083 .06098938 .30508424 .08099365 .28808595 .10699463 .28808595 .1349945 .28808595 .15299988 .30807496 .15299988 .33407594 .15299988 .3460846 .147995 .37908937 .101989749 .38008119 .1289978 .41519166 .17799378 .426239 .20999146 .426239 .25898744 .426239 .31599427 .38710023 .31599427 .29808045V.26107789C.2649994 .25808717 .19499207 .25508119 .13198853 .22509766 .056991579 .19110108 .03199768 .13911438 .03199768 .09512329 .03199768 .014251709 .1289978-.0107421879 .19198609-.0107421879 .2579956-.0107421879 .3039856 .029251099 .32299806 .07624817 .32699586 .036132814 .35398866-.005859375 .40098573-.005859375 .42199708-.005859375 .48298646 .008132935 .48298646 .08912659M.31599427 .14013672C.31599427 .04525757 .24398804 .011245728 .19898987 .011245728 .1499939 .011245728 .10899353 .04624939 .10899353 .09625244 .10899353 .15124512 .15098572 .23425293 .31599427 .24024964V.14013672Z"/>
<path id="font_1_96" d="M.3639984 .38137818C.3639984 .41337586 .33299256 .4423828 .2899933 .4423828 .21699524 .4423828 .18099976 .37538148 .16699219 .3323822V.4423828L.027999878 .43066407V.3996582C.09799194 .3996582 .10598755 .39266969 .10598755 .34370423V.07595825C.10598755 .0309906 .09498596 .0309906 .027999878 .0309906V0L.14199829 .0029907227C.18199158 .0029907227 .22898865 .0029907227 .2689972 0V.0309906H.24798584C.17399597 .0309906 .17199707 .04197693 .17199707 .07795715V.23181153C.17199707 .33137513 .21398926 .42037965 .2899933 .42037965 .29699708 .42037965 .29899598 .42037965 .30099488 .41937257 .2979889 .41838075 .27799989 .40637208 .27799989 .3803711 .27799989 .35237123 .29899598 .33737184 .32099916 .33737184 .33898927 .33737184 .3639984 .3493805 .3639984 .38137818Z"/>
<path id="font_1_65" d="M.33299256 0V.0309906H.30699159C.22799683 .0309906 .22499085 .041992189 .22499085 .07795715V.6046295C.22499085 .64060977 .22799683 .6516113 .30699159 .6516113H.33299256V.6826172C.2979889 .6796112 .21899414 .6796112 .18099976 .6796112 .14199829 .6796112 .06298828 .6796112 .027999878 .6826172V.6516113H.053985597C.1329956 .6516113 .13598633 .64060977 .13598633 .6046295V.07795715C.13598633 .041992189 .1329956 .0309906 .053985597 .0309906H.027999878V0C.06298828 .0029907227 .14199829 .0029907227 .17999268 .0029907227 .21899414 .0029907227 .2979889 .0029907227 .33299256 0Z"/>
<path id="font_1_98" d="M.3600006 .12823487C.3600006 .18122864 .32998658 .21122742 .31799317 .22323609 .2849884 .25523377 .24598694 .26322938 .20399475 .27124024 .147995 .28224183 .08099365 .29522706 .08099365 .35324098 .08099365 .38822938 .10699463 .42922975 .19299317 .42922975 .30299378 .42922975 .30799867 .3392334 .30999757 .30822755 .31098939 .2992401 .32199098 .2992401 .32199098 .2992401 .33499146 .2992401 .33499146 .30422975 .33499146 .32322694V.4242401C.33499146 .4412384 .33499146 .4482422 .32398988 .4482422 .31900025 .4482422 .31698609 .4482422 .3039856 .43623353 .30099488 .43223573 .29100038 .42323304 .2869873 .42022706 .24899292 .4482422 .20799256 .4482422 .19299317 .4482422 .070999149 .4482422 .032989503 .38124085 .032989503 .3252411 .032989503 .29023744 .04899597 .26223756 .07598877 .24023438 .10798645 .2142334 .13598633 .2082367 .20799256 .19422913 .22999573 .19021607 .31199647 .17422486 .31199647 .10221863 .31199647 .051223756 .2769928 .011245728 .19898987 .011245728 .114990238 .011245728 .07899475 .068222049 .05999756 .1532135 .056991579 .16621399 .055999757 .17021179 .04598999 .17021179 .032989503 .17021179 .032989503 .16322327 .032989503 .1452179V.013214111C.032989503-.003753662 .032989503-.0107421879 .04399109-.0107421879 .04899597-.0107421879 .049987794-.009750366 .068984989 .009246826 .070999149 .011245728 .070999149 .013214111 .08898926 .032226564 .1329956-.009750366 .17799378-.0107421879 .19898987-.0107421879 .31399537-.0107421879 .3600006 .05621338 .3600006 .1282196V.12823487Z"/>
<path id="font_1_63" d="M.5349884 0V.0309906C.48298646 .0309906 .45799256 .0309906 .45700074 .061019899V.25221253C.45700074 .3383026 .45700074 .36932374 .42599488 .405365 .4119873 .42237855 .3789978 .4423828 .32099916 .4423828 .23699951 .4423828 .19299317 .38233949 .1769867 .34629823H.17599488V.69433596L.03199768 .6826172V.6516113C.101989749 .6516113 .10998535 .64463809 .10998535 .59580996V.076034549C.10998535 .0309906 .09899902 .0309906 .03199768 .0309906V0L.14498902 .0029907227 .25698854 0V.0309906C.18998719 .0309906 .1789856 .0309906 .1789856 .076034549V.2602234C.1789856 .36431886 .25 .42037965 .31399537 .42037965 .3769989 .42037965 .3880005 .36631776 .3880005 .30926515V.076034549C.3880005 .0309906 .3769989 .0309906 .30999757 .0309906V0L.4229889 .0029907227 .5349884 0Z"/>
<path id="font_1_50" d="M.4149933 .11933899C.4149933 .12934876 .40699769 .13134766 .4019928 .13134766 .3929901 .13134766 .3909912 .12535095 .3889923 .11734009 .35398866 .014251709 .2639923 .014251709 .2539978 .014251709 .20399475 .014251709 .1639862 .044281007 .14099121 .08131409 .11099243 .12934876 .11099243 .19540406 .11099243 .23144531H.3899994C.4119873 .23144531 .4149933 .23144531 .4149933 .2524414 .4149933 .35131837 .36099244 .4482422 .23599243 .4482422 .11999512 .4482422 .027999878 .34532167 .027999878 .22042847 .027999878 .08631897 .1329956-.0107421879 .24798584-.0107421879 .36999513-.0107421879 .4149933 .10032654 .4149933 .11933899M.34899903 .2524414H.11199951C.117996219 .40126039 .20199585 .426239 .23599243 .426239 .33898927 .426239 .34899903 .2913971 .34899903 .2524414Z"/>
<path id="font_1_114" d="M.7029877 .3996582V.43066407C.68099978 .4286499 .6519928 .42765809 .6299896 .42765809L.5369873 .43066407V.3996582C.57299807 .39866639 .59498599 .38075257 .59498599 .35176087 .59498599 .34576417 .59498599 .34376527 .58999636 .33078004L.49899293 .07513428 .3999939 .35375978C.3959961 .36575318 .394989 .36775209 .394989 .37275697 .394989 .3996582 .43399049 .3996582 .45399476 .3996582V.43066407L.34999085 .42765809C.31999208 .42765809 .29100038 .4286499 .26098634 .43066407V.3996582C.2979889 .3996582 .31399537 .39767457 .32398988 .38476563 .32899476 .37875367 .33999635 .34877015 .34700013 .3297882L.26098634 .08811951 .1659851 .3547516C.16099549 .36676026 .16099549 .36875917 .16099549 .37275697 .16099549 .3996582 .19999695 .3996582 .21998596 .3996582V.43066407L.11099243 .42765809 .017990113 .43066407V.3996582C.067993167 .3996582 .07998657 .39668275 .09199524 .36476136L.21798706 .01121521C.22299195-.0027618409 .22599793-.0107421879 .23899842-.0107421879 .2519989-.0107421879 .2539978-.004760742 .25898744 .009216309L.3600006 .2918396 .46199037 .008224487C.46598817-.0027618409 .46899415-.0107421879 .48199464-.0107421879 .49499513-.0107421879 .49798585-.0017547608 .5019989 .008224487L.61898806 .3357849C.6369934 .38575746 .66799929 .39866639 .7029877 .3996582Z"/>
<path id="font_1_66" d="M.24699402 0V.0309906C.18099976 .0309906 .1769867 .035995485 .1769867 .075042728V.4423828L.036987306 .43066407V.3996582C.101989749 .3996582 .11099243 .3936615 .11099243 .3447113V.07595825C.11099243 .0309906 .099990848 .0309906 .032989503 .0309906V0L.14299011 .0029907227C.17799378 .0029907227 .21299744 .0009918213 .24699402 0M.19198609 .603775C.19198609 .6307678 .16899109 .6567688 .13899231 .6567688 .10499573 .6567688 .084991458 .6287689 .084991458 .603775 .084991458 .57676699 .10798645 .55078127 .13798523 .55078127 .17199707 .55078127 .19198609 .5787811 .19198609 .603775Z"/>
<path id="font_1_77" d="M.5349884 0V.0309906C.48298646 .0309906 .45799256 .0309906 .45700074 .061019899V.25221253C.45700074 .3383026 .45700074 .36932374 .42599488 .405365 .4119873 .42237855 .3789978 .4423828 .32099916 .4423828 .24798584 .4423828 .20098877 .39935304 .17298889 .33729554V.4423828L.03199768 .43066407V.3996582C.101989749 .3996582 .10998535 .39266969 .10998535 .34370423V.07595825C.10998535 .0309906 .09899902 .0309906 .03199768 .0309906V0L.14498902 .0029907227 .25698854 0V.0309906C.18998719 .0309906 .1789856 .0309906 .1789856 .07595825V.25978089C.1789856 .36431886 .25 .42037965 .31399537 .42037965 .3769989 .42037965 .3880005 .36631776 .3880005 .30926515V.076034549C.3880005 .0309906 .3769989 .0309906 .30999757 .0309906V0L.4229889 .0029907227 .5349884 0Z"/>
<path id="font_1_64" d="M.27598573 .18710327V.24511719H.010986328V.18710327H.27598573Z"/>
<path id="font_1_59" d="M.4850006 .40411378C.4850006 .42111207 .47299195 .453125 .43399049 .453125 .4139862 .453125 .36999513 .44711305 .32798768 .40611268 .28599549 .43937684 .24398804 .4423828 .22200012 .4423828 .1289978 .4423828 .05999756 .37338258 .05999756 .29638673 .05999756 .25239564 .08198547 .21440125 .10699463 .19340515 .09399414 .17840576 .07598877 .14538574 .07598877 .11035156 .07598877 .07899475 .08898926 .04083252 .11999512 .020828248 .05999756 .003829956 .027999878-.039138795 .027999878-.07911682 .027999878-.15107727 .1269989-.20605469 .24899292-.20605469 .36698915-.20605469 .47099305-.15507508 .47099305-.07711792 .47099305-.042144777 .45700074 .008834839 .4059906 .036834718 .35299684 .064834598 .29499818 .064834598 .23399353 .064834598 .20899964 .064834598 .1659851 .064834598 .15899658 .065841678 .1269989 .069885257 .10598755 .101242069 .10598755 .13334656 .10598755 .13735962 .10598755 .16040039 .12298584 .18040467 .1619873 .15240479 .20298767 .14941406 .22200012 .14941406 .31498719 .14941406 .38398744 .21839905 .38398744 .2953949 .38398744 .3323822 .36799623 .36938478 .34298707 .39237977 .3789978 .42637635 .4149933 .43138124 .43299867 .43138124 .43299867 .43112184 .43998719 .43112184 .44299317 .43011476 .43199159 .42611695 .4269867 .41513063 .4269867 .40315248 .4269867 .38616944 .43998719 .37417604 .45599366 .37417604 .46598817 .37417604 .4850006 .3811798 .4850006 .4041443V.40411378M.30899049 .29626466C.30899049 .26930238 .30799867 .2373352 .29299928 .21235657 .2849884 .20037842 .2619934 .17240906 .22200012 .17240906 .1349945 .17240906 .1349945 .2722931 .1349945 .29527284 .1349945 .3222351 .13598633 .35420228 .15098572 .3791809 .15899658 .3913269 .18199158 .41937257 .22200012 .41937257 .30899049 .41937257 .30899049 .31922914 .30899049 .29618836V.29626466M.4189911-.07911682C.4189911-.13308716 .34799195-.18305969 .25-.18305969 .14898682-.18305969 .07998657-.13209534 .07998657-.07911682 .07998657-.03314209 .117996219 .003829956 .1619873 .0068359377H.22099304C.30699159 .0068359377 .4189911 .0068359377 .4189911-.07911682Z"/>
<path id="font_1_75" d="M.8129883 0V.0309906C.7609863 .0309906 .73599246 .0309906 .7350006 .061019899V.25221253C.7350006 .3383026 .7350006 .36932374 .70399478 .405365 .6899872 .42237855 .6569977 .4423828 .598999 .4423828 .5149994 .4423828 .47099305 .38233949 .45399476 .34429933 .43998719 .43138124 .3659973 .4423828 .32099916 .4423828 .24798584 .4423828 .20098877 .39935304 .17298889 .33729554V.4423828L.03199768 .43066407V.3996582C.101989749 .3996582 .10998535 .39266969 .10998535 .34370423V.07595825C.10998535 .0309906 .09899902 .0309906 .03199768 .0309906V0L.14498902 .0029907227 .25698854 0V.0309906C.18998719 .0309906 .1789856 .0309906 .1789856 .07595825V.25978089C.1789856 .36431886 .25 .42037965 .31399537 .42037965 .3769989 .42037965 .3880005 .36631776 .3880005 .30926515V.076034549C.3880005 .0309906 .3769989 .0309906 .30999757 .0309906V0L.4229889 .0029907227 .5349884 0V.0309906C.46798707 .0309906 .45700074 .0309906 .45700074 .076034549V.2602234C.45700074 .36431886 .5279999 .42037965 .59199526 .42037965 .6549988 .42037965 .66600039 .36631776 .66600039 .30926515V.076034549C.66600039 .0309906 .6549988 .0309906 .58799746 .0309906V0L.70098879 .0029907227 .8129883 0Z"/>
<path id="font_1_81" d="M.47099305 .21424866C.47099305 .34223939 .37098695 .4482422 .25 .4482422 .125 .4482422 .027999878 .3392334 .027999878 .21424866 .027999878 .085250858 .13198853-.0107421879 .24899292-.0107421879 .36999513-.0107421879 .47099305 .087249759 .47099305 .21424866M.3880005 .22224427C.3880005 .18624878 .3880005 .13224793 .3659973 .08824158 .34399415 .04324341 .2999878 .014251709 .25 .014251709 .20698548 .014251709 .16299439 .035247804 .13598633 .08125305 .11099243 .12524414 .11099243 .18624878 .11099243 .22224427 .11099243 .26124574 .11099243 .31523133 .1349945 .35923768 .1619873 .40522767 .20899964 .426239 .24899292 .426239 .29299928 .426239 .33599855 .40423585 .3619995 .36123658 .3880005 .3182373 .3880005 .26023866 .3880005 .22224427Z"/>
<path id="font_1_112" d="M.5079956 .3996582V.43066407C.4850006 .4286499 .45599366 .42765809 .43299867 .42765809L.34599305 .43066407V.3996582C.3829956 .39865113 .3939972 .37568666 .3939972 .35671998 .3939972 .34773255 .3919983 .34373475 .3880005 .3327484L.28599549 .078125 .17399597 .35671998C.16799927 .3697052 .16799927 .37368775 .16799927 .37368775 .16799927 .3996582 .20698548 .3996582 .22499085 .3996582V.43066407L.115997318 .42765809C.08898926 .42765809 .04899597 .4286499 .018997193 .43066407V.3996582C.08198547 .3996582 .085998538 .3936615 .09899902 .36271668L.24299622 .008224487C.24899292-.0057525637 .25099183-.0107421879 .2639923-.0107421879 .2769928-.0107421879 .2809906-.0017700195 .2849884 .008224487L.41600038 .3327484C.4249878 .3557129 .44198609 .39865113 .5079956 .3996582Z"/>
<path id="font_1_92" d="M.4149933 .57025149C.4149933 .62815859 .375 .7050781 .22599793 .7050781 .117996219 .7050781 .055999757 .637146 .055999757 .5722656 .055999757 .53822329 .07899475 .52423098 .101989749 .52423098 .12998963 .52423098 .147995 .54422 .147995 .57022097 .147995 .6152344 .10598755 .6152344 .09199524 .6152344 .12298584 .6681061 .18099976 .68307498 .22299195 .68307498 .33198548 .68307498 .33198548 .6152344 .33198548 .5762329 .33198548 .5172577 .31599427 .49925233 .2979889 .4812622 .23199463 .40907289 .20999146 .31684876 .20999146 .25569154V.21057129C.20999146 .1925354 .20999146 .18652344 .22200012 .18652344 .23498535 .18652344 .23498535 .19554138 .23498535 .21357727V.24867249C.23498535 .37498475 .33198548 .446167 .36698915 .472229 .3939972 .49198915 .4149933 .5279999 .4149933 .56999209V.57025149M.2749939 .052993776C.2749939 .08198547 .25099183 .10598755 .22200012 .10598755 .19299317 .10598755 .16899109 .08198547 .16899109 .052993776 .16899109 .023986817 .19299317 0 .22200012 0 .25099183 0 .2749939 .023986817 .2749939 .052993776Z"/>
<path id="font_1_83" d="M.6239929 .4967041C.6239929 .59465029 .5249939 .6826172 .3880005 .6826172H.034988405V.6516113H.05899048C.13598633 .6516113 .13798523 .64060977 .13798523 .6046295V.07795715C.13798523 .041992189 .13598633 .0309906 .05899048 .0309906H.034988405V0C.069992069 .0029907227 .14399719 .0029907227 .18199158 .0029907227 .21998596 .0029907227 .29499818 .0029907227 .32998658 0V.0309906H.30599977C.22898865 .0309906 .22698975 .041992189 .22698975 .07795715V.3157959H.3959961C.5159912 .3157959 .6239929 .39675904 .6239929 .4967041M.5209961 .4967041C.5209961 .4497223 .5209961 .34179688 .3619995 .34179688H.22399903V.6116333C.22399903 .64460757 .22599793 .6516113 .272995 .6516113H.3619995C.5209961 .6516113 .5209961 .54566958 .5209961 .4967041Z"/>
<path id="font_1_72" d="M.25498963 0V.0309906C.18798828 .0309906 .1769867 .0309906 .1769867 .07601929V.69433596L.032989503 .6826172V.6516113C.102996829 .6516113 .11099243 .64460757 .11099243 .5956421V.07595825C.11099243 .0309906 .099990848 .0309906 .032989503 .0309906V0L.14399719 .0029907227 .25498963 0Z"/>
<path id="font_1_118" d="M.5079956 .3996582V.43066407C.4850006 .4286499 .45599366 .42765809 .43299867 .42765809L.34599305 .43066407V.3996582C.3769989 .39866639 .3929901 .3816681 .3929901 .35668946 .3929901 .34669496 .3919983 .34469605 .3869934 .33270265L.28599549 .08685303 .1749878 .35568238C.17098999 .36567689 .16899109 .36967469 .16899109 .3736725 .16899109 .3996582 .20599365 .3996582 .22499085 .3996582V.43066407L.115997318 .42765809C.08898926 .42765809 .04899597 .4286499 .018997193 .43066407V.3996582C.066986087 .3996582 .085998538 .3996582 .099990848 .36468507L.25-.000091552738 .22499085-.059066774C.20298767-.11407471 .1749878-.18309021 .11099243-.18309021 .10598755-.18309021 .08299255-.18309021 .06399536-.16503906 .09498596-.16104126 .102996829-.13905335 .102996829-.123046878 .102996829-.0970459 .083999637-.08103943 .06098938-.08103943 .040985109-.08103943 .018997193-.09403992 .018997193-.124053958 .018997193-.16905213 .06098938-.20507813 .11099243-.20507813 .17399597-.20507813 .21499634-.14804077 .23899842-.091049198L.4149933 .33569337C.44099427 .39865113 .49198915 .3996582 .5079956 .3996582Z"/>
<path id="font_1_35" d="M.5209961 .2163086C.5209961 .34335328 .4229889 .4423828 .30899049 .4423828 .23098755 .4423828 .18798828 .39537049 .17199707 .3773651V.69433596L.027999878 .68333438V.6523285C.09799194 .6523285 .10598755 .6453247 .10598755 .596344V.00024414063H.1309967L.16699219 .06227112C.18199158 .039260866 .22399903-.0107421879 .2979889-.0107421879 .4169922-.0107421879 .5209961 .08728027 .5209961 .2163086M.43798829 .21731568C.43798829 .18029785 .43598939 .120285037 .40699769 .07527161 .38598634 .044265748 .34799195 .011245728 .2939911 .011245728 .24899292 .011260986 .21299744 .03526306 .18899536 .072265628 .1749878 .09326172 .1749878 .09625244 .1749878 .11425781V.32034303C.1749878 .3393402 .1749878 .3403473 .18598938 .35635377 .22499085 .41236878 .27999879 .42037965 .3039856 .42037965 .34899903 .42037965 .3849945 .3943634 .40899659 .35635377 .43499757 .31533814 .43798829 .25831605 .43798829 .21730042V.21731568Z"/>
<path id="font_1_43" d="M.4149933 .119140628C.4149933 .12911988 .40499879 .12911988 .4019928 .12911988 .3929901 .12911988 .3909912 .12512207 .3889923 .119140628 .3600006 .026229859 .29499818 .014251709 .2579956 .014251709 .20498657 .014251709 .116989139 .0572052 .116989139 .21801758 .116989139 .38093568 .19898987 .42323304 .2519989 .42323304 .26098634 .42323304 .32398988 .42222596 .35899354 .38594056 .31799317 .38293458 .31199647 .3529358 .31199647 .3399353 .31199647 .31393434 .32998658 .2939453 .35798646 .2939453 .38398744 .2939453 .4039917 .3109436 .4039917 .34094239 .4039917 .40911866 .32798768 .4482422 .25099183 .4482422 .12599182 .4482422 .033996583 .3399353 .033996583 .21601868 .033996583 .08816528 .1329956-.0107421879 .24899292-.0107421879 .3829956-.0107421879 .4149933 .10914612 .4149933 .119140628Z"/>
<path id="font_1_70" d="M.5109863 0V.0309906C.47399903 .0309906 .45199586 .0309906 .4139862 .0839386L.2869873 .26278688C.28599549 .26478578 .2809906 .2707672 .2809906 .2737732 .2809906 .277771 .35198976 .33770753 .3619995 .34570313 .4249878 .39666749 .46699525 .39865113 .48799134 .3996582V.43066407C.45899964 .42765809 .44599916 .42765809 .41799928 .42765809 .38198854 .42765809 .31999208 .42965699 .30599977 .43066407V.3996582C.32499696 .39865113 .33499146 .3876648 .33499146 .37467958 .33499146 .3547058 .32099916 .3427124 .31298829 .33570863L.17199707 .21382141V.69433596L.027999878 .6826172V.6516113C.09799194 .6516113 .10598755 .64460757 .10598755 .5956421V.07595825C.10598755 .0309906 .09498596 .0309906 .027999878 .0309906V0L.13699341 .0029907227 .24699402 0V.0309906C.17999268 .0309906 .16899109 .0309906 .16899109 .07595825V.17889405L.23298645 .23387146C.30999757 .12792969 .35198976 .07196045 .35198976 .053985597 .35198976 .034988405 .33499146 .0309906 .31599427 .0309906V0L.42399598 .0029907227C.45298768 .0029907227 .48199464 .0019989014 .5109863 0Z"/>
<path id="font_1_34" d="M.651001 .18289185C.651001 .26983644 .56900027 .34480287 .45799256 .35679627 .5549927 .3757782 .6239929 .43974305 .6239929 .51368716 .6239929 .6006317 .5319977 .6826172 .4019928 .6826172H.035995485V.6516113H.05999756C.13699341 .6516113 .13899231 .64060977 .13899231 .6046295V.07795715C.13899231 .041992189 .13699341 .0309906 .05999756 .0309906H.035995485V0H.42799378C.5609894-.0002593994 .651001 .08874512 .651001 .18273926V.18289185M.5269928 .5136719C.5269928 .44970704 .47799684 .36573792 .36698915 .36573792H.22200012V.6116333C.22200012 .64460757 .22399903 .6516113 .2709961 .6516113H.394989C.49198915 .65174868 .5269928 .56674197 .5269928 .51374819V.5136719M.5509949 .18386841C.5509949 .1129303 .49899293 .0309906 .3959961 .0309906H.2709961C.22399903 .0309906 .22200012 .037994386 .22200012 .07095337V.34375H.4099884C.5089874 .34399415 .5509949 .25099183 .5509949 .18399048V.18386841Z"/>
<path id="font_1_84" d="M.5209961 .21636963C.5209961 .34336854 .42399598 .4423828 .31199647 .4423828 .23399353 .4423828 .19198609 .39837647 .17199707 .3763733V.4423828L.027999878 .43066407V.3996582C.09899902 .3996582 .10598755 .3936615 .10598755 .34973146V-.117996219C.10598755-.16308594 .09498596-.16308594 .027999878-.16308594V-.1940918L.13999939-.19110108 .25299073-.1940918V-.16308594C.18598938-.16308594 .1749878-.16308594 .1749878-.117996219V.050186159 .059173585C.17999268 .04319763 .22200012-.0107421879 .2979889-.0107421879 .4169922-.0107421879 .5209961 .087127689 .5209961 .21594239V.21636963M.43798829 .21594239C.43798829 .09512329 .36799623 .011245728 .2939911 .011245728 .2539978 .011245728 .21598816 .031219483 .18899536 .07215881 .1749878 .09312439 .1749878 .09411621 .1749878 .114089969V.33674623C.20399475 .38838197 .25299073 .41737367 .3039856 .41737367 .3769989 .41737367 .43798829 .32937623 .43798829 .21636963V.21594239Z"/>
<path id="font_1_47" d="M.5269928 0V.0309906C.45700074 .0309906 .44898988 .038009645 .44898988 .0871582V.69433596L.30499269 .6826172V.6516113C.375 .6516113 .3829956 .64463809 .3829956 .59580996V.38035584C.35398866 .41636659 .31098939 .4423828 .25698854 .4423828 .13899231 .4423828 .033996583 .3443451 .033996583 .21531677 .033996583 .088272098 .13198853-.0107421879 .24598694-.0107421879 .30999757-.0107421879 .35499574 .023254395 .37998963 .055267335V-.0107421879L.5269928 0M.37998963 .117996219C.37998963 .099990848 .37998963 .09799194 .36898805 .08099365 .33898927 .033218385 .2939911 .011245728 .25099183 .011245728 .20599365 .011245728 .16999817 .037216188 .1459961 .075164798 .11999512 .1161499 .116989139 .17320252 .116989139 .21421814 .116989139 .25125123 .11898804 .31129457 .147995 .35632325 .16899109 .38734437 .20698548 .42037965 .26098634 .42037965 .29599 .42037965 .33799745 .405365 .36898805 .3603363 .37998963 .34332276 .37998963 .34132386 .37998963 .32330323V.117996219Z"/>
<path id="font_1_117" d="M.73799136 .6516113V.6826172C.70700076 .680603 .6669922 .6796112 .6399994 .6796112L.5249939 .6826172V.6516113C.56599429 .6516113 .58200076 .63261416 .58200076 .6126251 .58200076 .6016388 .57598879 .5886383 .57199099 .5826416L.40699769 .31481935 .22599793 .6096344C.21899414 .6196289 .21899414 .6216278 .21899414 .62661746 .21899414 .6476135 .24398804 .6516113 .2889862 .6516113V.6826172C.25299073 .6796112 .17999268 .6796112 .14099121 .6796112L.010986328 .6826172V.6516113H.0289917C.09700012 .6516113 .10499573 .64060977 .12098694 .614624L.33099366 .2728424V.07795715C.33099366 .041992189 .32899476 .0309906 .2519989 .0309906H.22799683V0C.2639923 .0029907227 .33499146 .0029907227 .37399293 .0029907227 .41299439 .0029907227 .48399354 .0029907227 .519989 0V.0309906H.49699403C.41999818 .0309906 .4169922 .040985109 .4169922 .079956058V.2728424L.6100006 .5866394C.6469879 .6476135 .70599368 .6516113 .73799136 .6516113Z"/>
<path id="font_1_76" d="M.71598818 .6516113V.6826172L.598999 .6796112 .48199464 .6826172V.6516113C.58499148 .6516113 .58499148 .6046295 .58499148 .577652V.15092469L.23199463 .6696167C.22299195 .6816101 .22200012 .6826172 .20298767 .6826172H.032989503V.6516113H.06199646C.07699585 .6516113 .09700012 .65060427 .11199951 .6496124 .1349945 .64660647 .13598633 .6456146 .13598633 .62661746V.10494995C.13598633 .07795715 .13598633 .0309906 .032989503 .0309906V0L.1499939 .0029907227 .2669983 0V.0309906C.1639862 .0309906 .1639862 .07795715 .1639862 .10494995V.62461856C.16899109 .6196289 .16999817 .6186218 .17399597 .6126251L.58200076 .0129852299C.59098818 .0009918213 .59199526 0 .598999 0 .61299136 0 .61299136 .0069885256 .61299136 .025985718V.577652C.61299136 .6046295 .61299136 .6516113 .71598818 .6516113Z"/>
</defs>
<path transform="matrix(1.00008,0,0,-1,75.422519,15.972)" stroke-width=".3985" stroke-linecap="butt" stroke-miterlimit="10" stroke-linejoin="miter" fill="none" stroke="#000000" d="M42.52022 0C42.52022 7.82784 23.48355 14.17339 0 14.17339-23.48355 14.17339-42.52022 7.82784-42.52022 0-42.52022-7.82784-23.48355-14.17339 0-14.17339 23.48355-14.17339 42.52022-7.82784 42.52022 0ZM0 0"/>
<use data-text="S" xlink:href="#font_1_97" transform="matrix(9.963397,0,0,-9.9626,64.33263,19.374)"/>
<use data-text="t" xlink:href="#font_1_105" transform="matrix(9.963397,0,0,-9.9626,69.87227,19.374)"/>
<use data-text="a" xlink:href="#font_1_28" transform="matrix(9.963397,0,0,-9.9626,73.74803,19.374)"/>
<use data-text="r" xlink:href="#font_1_96" transform="matrix(9.963397,0,0,-9.9626,78.72972,19.374)"/>
<use data-text="t" xlink:href="#font_1_105" transform="matrix(9.963397,0,0,-9.9626,82.635379,19.374)"/>
<path transform="matrix(1.00008,0,0,-1,75.422519,15.972)" stroke-width=".3985" stroke-linecap="butt" stroke-miterlimit="10" stroke-linejoin="miter" fill="none" stroke="#000000" d="M73.32117-70.86702 0-34.24771-73.32117-70.86702 0-107.48634Z"/>
<use data-text="I" xlink:href="#font_1_65" transform="matrix(9.963397,0,0,-9.9626,43.693986,83.292)"/>
<use data-text="s" xlink:href="#font_1_98" transform="matrix(9.963397,0,0,-9.9626,47.290758,83.292)"/>
<use data-text="t" xlink:href="#font_1_105" transform="matrix(9.963397,0,0,-9.9626,54.53415,83.292)"/>
<use data-text="h" xlink:href="#font_1_63" transform="matrix(9.963397,0,0,-9.9626,58.409929,83.292)"/>
<use data-text="e" xlink:href="#font_1_50" transform="matrix(9.963397,0,0,-9.9626,63.94957,83.292)"/>
<use data-text="r" xlink:href="#font_1_96" transform="matrix(9.963397,0,0,-9.9626,68.37332,83.292)"/>
<use data-text="e" xlink:href="#font_1_50" transform="matrix(9.963397,0,0,-9.9626,72.27896,83.292)"/>
<use data-text="a" xlink:href="#font_1_28" transform="matrix(9.963397,0,0,-9.9626,80.02054,83.292)"/>
<use data-text="w" xlink:href="#font_1_114" transform="matrix(9.963397,0,0,-9.9626,88.32004,83.292)"/>
<use data-text="i" xlink:href="#font_1_66" transform="matrix(9.963397,0,0,-9.9626,95.51361,83.292)"/>
<use data-text="n" xlink:href="#font_1_77" transform="matrix(9.963397,0,0,-9.9626,98.28345,83.292)"/>
<use data-text="-" xlink:href="#font_1_64" transform="matrix(9.963397,0,0,-9.9626,103.82309,83.292)"/>
<use data-text="n" xlink:href="#font_1_77" transform="matrix(9.963397,0,0,-9.9626,50.79155,95.248)"/>
<use data-text="i" xlink:href="#font_1_66" transform="matrix(9.963397,0,0,-9.9626,56.331193,95.248)"/>
<use data-text="n" xlink:href="#font_1_77" transform="matrix(9.963397,0,0,-9.9626,59.101015,95.248)"/>
<use data-text="g" xlink:href="#font_1_59" transform="matrix(9.963397,0,0,-9.9626,64.640659,95.248)"/>
<use data-text="m" xlink:href="#font_1_75" transform="matrix(9.963397,0,0,-9.9626,72.94017,95.248)"/>
<use data-text="o" xlink:href="#font_1_81" transform="matrix(9.963397,0,0,-9.9626,81.23967,95.248)"/>
<use data-text="v" xlink:href="#font_1_112" transform="matrix(9.963397,0,0,-9.9626,85.95235,95.248)"/>
<use data-text="e" xlink:href="#font_1_50" transform="matrix(9.963397,0,0,-9.9626,90.93405,95.248)"/>
<use data-text="?" xlink:href="#font_1_92" transform="matrix(9.963397,0,0,-9.9626,95.3578,95.248)"/>
<path transform="matrix(1.00008,0,0,-1,75.422519,15.972)" stroke-width=".3985" stroke-linecap="butt" stroke-miterlimit="10" stroke-linejoin="miter" fill="none" stroke="#000000" d="M110.06671-85.04042H201.74829V-56.69363H110.06671Z"/>
<use data-text="P" xlink:href="#font_1_83" transform="matrix(9.963397,0,0,-9.9626,206.08196,89.275)"/>
<use data-text="l" xlink:href="#font_1_72" transform="matrix(9.963397,0,0,-9.9626,212.86704,89.275)"/>
<use data-text="a" xlink:href="#font_1_28" transform="matrix(9.963397,0,0,-9.9626,215.63687,89.275)"/>
<use data-text="y" xlink:href="#font_1_118" transform="matrix(9.963397,0,0,-9.9626,220.33959,89.275)"/>
<use data-text="t" xlink:href="#font_1_105" transform="matrix(9.963397,0,0,-9.9626,228.91808,89.275)"/>
<use data-text="o" xlink:href="#font_1_81" transform="matrix(9.963397,0,0,-9.9626,232.79384,89.275)"/>
<use data-text="w" xlink:href="#font_1_114" transform="matrix(9.963397,0,0,-9.9626,241.09336,89.275)"/>
<use data-text="i" xlink:href="#font_1_66" transform="matrix(9.963397,0,0,-9.9626,248.28693,89.275)"/>
<use data-text="n" xlink:href="#font_1_77" transform="matrix(9.963397,0,0,-9.9626,251.05675,89.275)"/>
<path transform="matrix(1.00008,0,0,-1,75.422519,15.972)" stroke-width=".3985" stroke-linecap="butt" stroke-miterlimit="10" stroke-linejoin="miter" fill="none" stroke="#000000" d="M73.32117-170.08089 0-133.46157-73.32117-170.08089 0-206.7002Z"/>
<use data-text="I" xlink:href="#font_1_65" transform="matrix(9.963397,0,0,-9.9626,43.693986,182.506)"/>
<use data-text="s" xlink:href="#font_1_98" transform="matrix(9.963397,0,0,-9.9626,47.290758,182.506)"/>
<use data-text="t" xlink:href="#font_1_105" transform="matrix(9.963397,0,0,-9.9626,54.53415,182.506)"/>
<use data-text="h" xlink:href="#font_1_63" transform="matrix(9.963397,0,0,-9.9626,58.409929,182.506)"/>
<use data-text="e" xlink:href="#font_1_50" transform="matrix(9.963397,0,0,-9.9626,63.94957,182.506)"/>
<use data-text="r" xlink:href="#font_1_96" transform="matrix(9.963397,0,0,-9.9626,68.37332,182.506)"/>
<use data-text="e" xlink:href="#font_1_50" transform="matrix(9.963397,0,0,-9.9626,72.27896,182.506)"/>
<use data-text="a" xlink:href="#font_1_28" transform="matrix(9.963397,0,0,-9.9626,80.02054,182.506)"/>
<use data-text="w" xlink:href="#font_1_114" transform="matrix(9.963397,0,0,-9.9626,88.32004,182.506)"/>
<use data-text="i" xlink:href="#font_1_66" transform="matrix(9.963397,0,0,-9.9626,95.51361,182.506)"/>
<use data-text="n" xlink:href="#font_1_77" transform="matrix(9.963397,0,0,-9.9626,98.28345,182.506)"/>
<use data-text="-" xlink:href="#font_1_64" transform="matrix(9.963397,0,0,-9.9626,103.82309,182.506)"/>
<use data-text="b" xlink:href="#font_1_35" transform="matrix(9.963397,0,0,-9.9626,42.072847,194.46199)"/>
<use data-text="l" xlink:href="#font_1_72" transform="matrix(9.963397,0,0,-9.9626,47.612489,194.46199)"/>
<use data-text="o" xlink:href="#font_1_81" transform="matrix(9.963397,0,0,-9.9626,50.382326,194.46199)"/>
<use data-text="c" xlink:href="#font_1_43" transform="matrix(9.963397,0,0,-9.9626,55.642976,194.46199)"/>
<use data-text="k" xlink:href="#font_1_70" transform="matrix(9.963397,0,0,-9.9626,59.797716,194.46199)"/>
<use data-text="i" xlink:href="#font_1_66" transform="matrix(9.963397,0,0,-9.9626,65.058399,194.46199)"/>
<use data-text="n" xlink:href="#font_1_77" transform="matrix(9.963397,0,0,-9.9626,67.82822,194.46199)"/>
<use data-text="g" xlink:href="#font_1_59" transform="matrix(9.963397,0,0,-9.9626,73.36786,194.46199)"/>
<use data-text="m" xlink:href="#font_1_75" transform="matrix(9.963397,0,0,-9.9626,81.65741,194.46199)"/>
<use data-text="o" xlink:href="#font_1_81" transform="matrix(9.963397,0,0,-9.9626,89.95691,194.46199)"/>
<use data-text="v" xlink:href="#font_1_112" transform="matrix(9.963397,0,0,-9.9626,94.669589,194.46199)"/>
<use data-text="e" xlink:href="#font_1_50" transform="matrix(9.963397,0,0,-9.9626,99.65129,194.46199)"/>
<use data-text="?" xlink:href="#font_1_92" transform="matrix(9.963397,0,0,-9.9626,104.07504,194.46199)"/>
<path transform="matrix(1.00008,0,0,-1,75.422519,15.972)" stroke-width=".3985" stroke-linecap="butt" stroke-miterlimit="10" stroke-linejoin="miter" fill="none" stroke="#000000" d="M110.06671-184.25428H201.74829V-155.90749H110.06671Z"/>
<use data-text="B" xlink:href="#font_1_34" transform="matrix(9.963397,0,0,-9.9626,201.10457,189.455)"/>
<use data-text="l" xlink:href="#font_1_72" transform="matrix(9.963397,0,0,-9.9626,208.15866,189.455)"/>
<use data-text="o" xlink:href="#font_1_81" transform="matrix(9.963397,0,0,-9.9626,210.9285,189.455)"/>
<use data-text="c" xlink:href="#font_1_43" transform="matrix(9.963397,0,0,-9.9626,216.18915,189.455)"/>
<use data-text="k" xlink:href="#font_1_70" transform="matrix(9.963397,0,0,-9.9626,220.34389,189.455)"/>
<use data-text="t" xlink:href="#font_1_105" transform="matrix(9.963397,0,0,-9.9626,228.91242,189.455)"/>
<use data-text="h" xlink:href="#font_1_63" transform="matrix(9.963397,0,0,-9.9626,232.78818,189.455)"/>
<use data-text="e" xlink:href="#font_1_50" transform="matrix(9.963397,0,0,-9.9626,238.32782,189.455)"/>
<use data-text="w" xlink:href="#font_1_114" transform="matrix(9.963397,0,0,-9.9626,246.0694,189.455)"/>
<use data-text="i" xlink:href="#font_1_66" transform="matrix(9.963397,0,0,-9.9626,253.26297,189.455)"/>
<use data-text="n" xlink:href="#font_1_77" transform="matrix(9.963397,0,0,-9.9626,256.03279,189.455)"/>
<path transform="matrix(1.00008,0,0,-1,75.422519,15.972)" stroke-width=".3985" stroke-linecap="butt" stroke-miterlimit="10" stroke-linejoin="miter" fill="none" stroke="#000000" d="M61.35588-269.29475 0-238.65807-61.35588-269.29475 0-299.9314Z"/>
<use data-text="I" xlink:href="#font_1_65" transform="matrix(9.963397,0,0,-9.9626,33.87018,287.81199)"/>
<use data-text="s" xlink:href="#font_1_98" transform="matrix(9.963397,0,0,-9.9626,37.466966,287.81199)"/>
<use data-text="t" xlink:href="#font_1_105" transform="matrix(9.963397,0,0,-9.9626,44.710359,287.81199)"/>
<use data-text="h" xlink:href="#font_1_63" transform="matrix(9.963397,0,0,-9.9626,48.58612,287.81199)"/>
<use data-text="e" xlink:href="#font_1_50" transform="matrix(9.963397,0,0,-9.9626,54.125764,287.81199)"/>
<use data-text="c" xlink:href="#font_1_43" transform="matrix(9.963397,0,0,-9.9626,61.86734,287.81199)"/>
<use data-text="e" xlink:href="#font_1_50" transform="matrix(9.963397,0,0,-9.9626,66.29109,287.81199)"/>
<use data-text="n" xlink:href="#font_1_77" transform="matrix(9.963397,0,0,-9.9626,70.71484,287.81199)"/>
<use data-text="t" xlink:href="#font_1_105" transform="matrix(9.963397,0,0,-9.9626,75.98547,287.81199)"/>
<use data-text="e" xlink:href="#font_1_50" transform="matrix(9.963397,0,0,-9.9626,79.86124,287.81199)"/>
<use data-text="r" xlink:href="#font_1_96" transform="matrix(9.963397,0,0,-9.9626,84.28499,287.81199)"/>
<use data-text="o" xlink:href="#font_1_81" transform="matrix(9.963397,0,0,-9.9626,91.49849,287.81199)"/>
<use data-text="p" xlink:href="#font_1_84" transform="matrix(9.963397,0,0,-9.9626,96.48018,287.81199)"/>
<use data-text="e" xlink:href="#font_1_50" transform="matrix(9.963397,0,0,-9.9626,102.2988,287.81199)"/>
<use data-text="n" xlink:href="#font_1_77" transform="matrix(9.963397,0,0,-9.9626,106.72255,287.81199)"/>
<use data-text="?" xlink:href="#font_1_92" transform="matrix(9.963397,0,0,-9.9626,112.26219,287.81199)"/>
<path transform="matrix(1.00008,0,0,-1,75.422519,15.972)" stroke-width=".3985" stroke-linecap="butt" stroke-miterlimit="10" stroke-linejoin="miter" fill="none" stroke="#000000" d="M110.06671-283.46815H201.74829V-255.12136H110.06671Z"/>
<use data-text="P" xlink:href="#font_1_83" transform="matrix(9.963397,0,0,-9.9626,198.18534,287.70298)"/>
<use data-text="l" xlink:href="#font_1_72" transform="matrix(9.963397,0,0,-9.9626,204.97042,287.70298)"/>
<use data-text="a" xlink:href="#font_1_28" transform="matrix(9.963397,0,0,-9.9626,207.74024,287.70298)"/>
<use data-text="y" xlink:href="#font_1_118" transform="matrix(9.963397,0,0,-9.9626,212.45291,287.70298)"/>
<use data-text="t" xlink:href="#font_1_105" transform="matrix(9.963397,0,0,-9.9626,221.02144,287.70298)"/>
<use data-text="h" xlink:href="#font_1_63" transform="matrix(9.963397,0,0,-9.9626,224.8972,287.70298)"/>
<use data-text="e" xlink:href="#font_1_50" transform="matrix(9.963397,0,0,-9.9626,230.43685,287.70298)"/>
<use data-text="c" xlink:href="#font_1_43" transform="matrix(9.963397,0,0,-9.9626,238.17842,287.70298)"/>
<use data-text="e" xlink:href="#font_1_50" transform="matrix(9.963397,0,0,-9.9626,242.60218,287.70298)"/>
<use data-text="n" xlink:href="#font_1_77" transform="matrix(9.963397,0,0,-9.9626,247.02593,287.70298)"/>
<use data-text="t" xlink:href="#font_1_105" transform="matrix(9.963397,0,0,-9.9626,252.29656,287.70298)"/>
<use data-text="e" xlink:href="#font_1_50" transform="matrix(9.963397,0,0,-9.9626,256.1723,287.70298)"/>
<use data-text="r" xlink:href="#font_1_96" transform="matrix(9.963397,0,0,-9.9626,260.59608,287.70298)"/>
<path transform="matrix(1.00008,0,0,-1,75.422519,15.972)" stroke-width=".3985" stroke-linecap="butt" stroke-miterlimit="10" stroke-linejoin="miter" fill="none" stroke="#000000" d="M73.20163-368.50859 0-331.94905-73.20163-368.50859 0-405.06816Z"/>
<use data-text="I" xlink:href="#font_1_65" transform="matrix(9.963397,0,0,-9.9626,51.995637,380.994)"/>
<use data-text="s" xlink:href="#font_1_98" transform="matrix(9.963397,0,0,-9.9626,55.592424,380.994)"/>
<use data-text="t" xlink:href="#font_1_105" transform="matrix(9.963397,0,0,-9.9626,62.835817,380.994)"/>
<use data-text="h" xlink:href="#font_1_63" transform="matrix(9.963397,0,0,-9.9626,66.71158,380.994)"/>
<use data-text="e" xlink:href="#font_1_50" transform="matrix(9.963397,0,0,-9.9626,72.25122,380.994)"/>
<use data-text="r" xlink:href="#font_1_96" transform="matrix(9.963397,0,0,-9.9626,76.67497,380.994)"/>
<use data-text="e" xlink:href="#font_1_50" transform="matrix(9.963397,0,0,-9.9626,80.58063,380.994)"/>
<use data-text="a" xlink:href="#font_1_28" transform="matrix(9.963397,0,0,-9.9626,88.32219,380.994)"/>
<use data-text="n" xlink:href="#font_1_77" transform="matrix(9.963397,0,0,-9.9626,93.303897,380.994)"/>
<use data-text="o" xlink:href="#font_1_81" transform="matrix(9.963397,0,0,-9.9626,47.438264,392.95)"/>
<use data-text="p" xlink:href="#font_1_84" transform="matrix(9.963397,0,0,-9.9626,52.419954,392.95)"/>
<use data-text="e" xlink:href="#font_1_50" transform="matrix(9.963397,0,0,-9.9626,58.23857,392.95)"/>
<use data-text="n" xlink:href="#font_1_77" transform="matrix(9.963397,0,0,-9.9626,62.662324,392.95)"/>
<use data-text="c" xlink:href="#font_1_43" transform="matrix(9.963397,0,0,-9.9626,71.519779,392.95)"/>
<use data-text="o" xlink:href="#font_1_81" transform="matrix(9.963397,0,0,-9.9626,75.94354,392.95)"/>
<use data-text="r" xlink:href="#font_1_96" transform="matrix(9.963397,0,0,-9.9626,80.92523,392.95)"/>
<use data-text="n" xlink:href="#font_1_77" transform="matrix(9.963397,0,0,-9.9626,84.83087,392.95)"/>
<use data-text="e" xlink:href="#font_1_50" transform="matrix(9.963397,0,0,-9.9626,90.370517,392.95)"/>
<use data-text="r" xlink:href="#font_1_96" transform="matrix(9.963397,0,0,-9.9626,94.794269,392.95)"/>
<use data-text="?" xlink:href="#font_1_92" transform="matrix(9.963397,0,0,-9.9626,98.69992,392.95)"/>
<path transform="matrix(1.00008,0,0,-1,75.422519,15.972)" stroke-width=".3985" stroke-linecap="butt" stroke-miterlimit="10" stroke-linejoin="miter" fill="none" stroke="#000000" d="M110.06671-382.68199H201.74829V-354.33518H110.06671Z"/>
<use data-text="P" xlink:href="#font_1_83" transform="matrix(9.963397,0,0,-9.9626,214.66165,380.994)"/>
<use data-text="l" xlink:href="#font_1_72" transform="matrix(9.963397,0,0,-9.9626,221.44673,380.994)"/>
<use data-text="a" xlink:href="#font_1_28" transform="matrix(9.963397,0,0,-9.9626,224.21657,380.994)"/>
<use data-text="y" xlink:href="#font_1_118" transform="matrix(9.963397,0,0,-9.9626,228.91928,380.994)"/>
<use data-text="a" xlink:href="#font_1_28" transform="matrix(9.963397,0,0,-9.9626,237.49777,380.994)"/>
<use data-text="n" xlink:href="#font_1_77" transform="matrix(9.963397,0,0,-9.9626,242.47946,380.994)"/>
<use data-text="o" xlink:href="#font_1_81" transform="matrix(9.963397,0,0,-9.9626,205.70894,392.95)"/>
<use data-text="p" xlink:href="#font_1_84" transform="matrix(9.963397,0,0,-9.9626,210.69065,392.95)"/>
<use data-text="e" xlink:href="#font_1_50" transform="matrix(9.963397,0,0,-9.9626,216.50925,392.95)"/>
<use data-text="n" xlink:href="#font_1_77" transform="matrix(9.963397,0,0,-9.9626,220.933,392.95)"/>
<use data-text="c" xlink:href="#font_1_43" transform="matrix(9.963397,0,0,-9.9626,229.79047,392.95)"/>
<use data-text="o" xlink:href="#font_1_81" transform="matrix(9.963397,0,0,-9.9626,234.21422,392.95)"/>
<use data-text="r" xlink:href="#font_1_96" transform="matrix(9.963397,0,0,-9.9626,239.1959,392.95)"/>
<use data-text="n" xlink:href="#font_1_77" transform="matrix(9.963397,0,0,-9.9626,243.10157,392.95)"/>
<use data-text="e" xlink:href="#font_1_50" transform="matrix(9.963397,0,0,-9.9626,248.6412,392.95)"/>
<use data-text="r" xlink:href="#font_1_96" transform="matrix(9.963397,0,0,-9.9626,253.06496,392.95)"/>
<path transform="matrix(1.00008,0,0,-1,75.422519,15.972)" stroke-width=".3985" stroke-linecap="butt" stroke-miterlimit="10" stroke-linejoin="miter" fill="none" stroke="#000000" d="M-45.84079-467.72245H45.84079V-439.37565H-45.84079Z"/>
<use data-text="P" xlink:href="#font_1_83" transform="matrix(9.963397,0,0,-9.9626,35.3553,471.952)"/>
<use data-text="l" xlink:href="#font_1_72" transform="matrix(9.963397,0,0,-9.9626,42.140367,471.952)"/>
<use data-text="a" xlink:href="#font_1_28" transform="matrix(9.963397,0,0,-9.9626,44.910203,471.952)"/>
<use data-text="y" xlink:href="#font_1_118" transform="matrix(9.963397,0,0,-9.9626,49.61293,471.952)"/>
<use data-text="a" xlink:href="#font_1_28" transform="matrix(9.963397,0,0,-9.9626,58.19142,471.952)"/>
<use data-text="n" xlink:href="#font_1_77" transform="matrix(9.963397,0,0,-9.9626,63.17311,471.952)"/>
<use data-text="o" xlink:href="#font_1_81" transform="matrix(9.963397,0,0,-9.9626,72.03056,471.952)"/>
<use data-text="p" xlink:href="#font_1_84" transform="matrix(9.963397,0,0,-9.9626,77.01225,471.952)"/>
<use data-text="e" xlink:href="#font_1_50" transform="matrix(9.963397,0,0,-9.9626,82.83087,471.952)"/>
<use data-text="n" xlink:href="#font_1_77" transform="matrix(9.963397,0,0,-9.9626,87.25462,471.952)"/>
<use data-text="e" xlink:href="#font_1_50" transform="matrix(9.963397,0,0,-9.9626,96.112079,471.952)"/>
<use data-text="d" xlink:href="#font_1_47" transform="matrix(9.963397,0,0,-9.9626,100.53583,471.952)"/>
<use data-text="g" xlink:href="#font_1_59" transform="matrix(9.963397,0,0,-9.9626,106.075489,471.952)"/>
<use data-text="e" xlink:href="#font_1_50" transform="matrix(9.963397,0,0,-9.9626,111.057178,471.952)"/>
<path transform="matrix(1.00008,0,0,-1,75.422519,15.972)" stroke-width=".3985" stroke-linecap="butt" stroke-miterlimit="10" stroke-linejoin="miter" fill="none" stroke="#000000" d="M198.42772-453.54905C198.42772-445.7212 179.39107-439.37565 155.9075-439.37565 132.42394-439.37565 113.38728-445.7212 113.38728-453.54905 113.38728-461.3769 132.42394-467.72245 155.9075-467.72245 179.39107-467.72245 198.42772-461.3769 198.42772-453.54905ZM155.9075-453.54905"/>
<use data-text="S" xlink:href="#font_1_97" transform="matrix(9.963397,0,0,-9.9626,221.37419,472.067)"/>
<use data-text="t" xlink:href="#font_1_105" transform="matrix(9.963397,0,0,-9.9626,226.91384,472.067)"/>
<use data-text="o" xlink:href="#font_1_81" transform="matrix(9.963397,0,0,-9.9626,230.7896,472.067)"/>
<use data-text="p" xlink:href="#font_1_84" transform="matrix(9.963397,0,0,-9.9626,235.77129,472.067)"/>
<path transform="matrix(1.00008,0,0,-1,75.422519,15.972)" stroke-width=".3985" stroke-linecap="butt" stroke-miterlimit="10" stroke-linejoin="miter" fill="none" stroke="#000000" d="M0-14.37263V-30.3771"/>
<path transform="matrix(0,1,1.00008,0,75.422519,46.3491)" d="M3.58653 0C2.52383 .19925 .797 .797-.3985 1.49438V-1.49438C.797-.797 2.52383-.19925 3.58653 0"/>
<path transform="matrix(1.00008,0,0,-1,75.422519,15.972)" stroke-width=".3985" stroke-linecap="butt" stroke-miterlimit="10" stroke-linejoin="miter" fill="none" stroke="#000000" d="M73.61047-70.86702H106.28091"/>
<path transform="matrix(1.00008,0,0,-1,181.71192,86.83902)" d="M3.58653 0C2.52383 .19925 .797 .797-.3985 1.49438V-1.49438C.797-.797 2.52383-.19925 3.58653 0"/>
<use data-text="Y" xlink:href="#font_1_117" transform="matrix(9.963397,0,0,-9.9626,159.67125,83.21)"/>
<use data-text="e" xlink:href="#font_1_50" transform="matrix(9.963397,0,0,-9.9626,166.3268,83.21)"/>
<use data-text="s" xlink:href="#font_1_98" transform="matrix(9.963397,0,0,-9.9626,170.75055,83.21)"/>
<path transform="matrix(1.00008,0,0,-1,75.422519,15.972)" stroke-width=".3985" stroke-linecap="butt" stroke-miterlimit="10" stroke-linejoin="miter" fill="none" stroke="#000000" d="M0-107.77002V-129.59096"/>
<path transform="matrix(0,1,1.00008,0,75.422519,145.56296)" d="M3.58653 0C2.52383 .19925 .797 .797-.3985 1.49438V-1.49438C.797-.797 2.52383-.19925 3.58653 0"/>
<use data-text="N" xlink:href="#font_1_76" transform="matrix(9.963397,0,0,-9.9626,59.448244,139.793)"/>
<use data-text="o" xlink:href="#font_1_81" transform="matrix(9.963397,0,0,-9.9626,66.92079,139.793)"/>
<path transform="matrix(1.00008,0,0,-1,75.422519,15.972)" stroke-width=".3985" stroke-linecap="butt" stroke-miterlimit="10" stroke-linejoin="miter" fill="none" stroke="#000000" d="M73.61047-170.08089H106.28091"/>
<path transform="matrix(1.00008,0,0,-1,181.71192,186.05289)" d="M3.58653 0C2.52383 .19925 .797 .797-.3985 1.49438V-1.49438C.797-.797 2.52383-.19925 3.58653 0"/>
<use data-text="Y" xlink:href="#font_1_117" transform="matrix(9.963397,0,0,-9.9626,159.67125,182.423)"/>
<use data-text="e" xlink:href="#font_1_50" transform="matrix(9.963397,0,0,-9.9626,166.3268,182.423)"/>
<use data-text="s" xlink:href="#font_1_98" transform="matrix(9.963397,0,0,-9.9626,170.75055,182.423)"/>
<path transform="matrix(1.00008,0,0,-1,75.422519,15.972)" stroke-width=".3985" stroke-linecap="butt" stroke-miterlimit="10" stroke-linejoin="miter" fill="none" stroke="#000000" d="M0-206.98313V-234.78768"/>
<path transform="matrix(0,1,1.00008,0,75.422519,250.75968)" d="M3.58653 0C2.52383 .19925 .797 .797-.3985 1.49438V-1.49438C.797-.797 2.52383-.19925 3.58653 0"/>
<use data-text="N" xlink:href="#font_1_76" transform="matrix(9.963397,0,0,-9.9626,59.448244,241.998)"/>
<use data-text="o" xlink:href="#font_1_81" transform="matrix(9.963397,0,0,-9.9626,66.92079,241.998)"/>
<path transform="matrix(1.00008,0,0,-1,75.422519,15.972)" stroke-width=".3985" stroke-linecap="butt" stroke-miterlimit="10" stroke-linejoin="miter" fill="none" stroke="#000000" d="M61.64117-269.29475H106.28091"/>
<path transform="matrix(1.00008,0,0,-1,181.71192,285.26673)" d="M3.58653 0C2.52383 .19925 .797 .797-.3985 1.49438V-1.49438C.797-.797 2.52383-.19925 3.58653 0"/>
<use data-text="Y" xlink:href="#font_1_117" transform="matrix(9.963397,0,0,-9.9626,153.68578,281.637)"/>
<use data-text="e" xlink:href="#font_1_50" transform="matrix(9.963397,0,0,-9.9626,160.34133,281.637)"/>
<use data-text="s" xlink:href="#font_1_98" transform="matrix(9.963397,0,0,-9.9626,164.76508,281.637)"/>
<path transform="matrix(1.00008,0,0,-1,75.422519,15.972)" stroke-width=".3985" stroke-linecap="butt" stroke-miterlimit="10" stroke-linejoin="miter" fill="none" stroke="#000000" d="M0-300.21528V-328.07917"/>
<path transform="matrix(0,1,1.00008,0,75.422519,344.05116)" d="M3.58653 0C2.52383 .19925 .797 .797-.3985 1.49438V-1.49438C.797-.797 2.52383-.19925 3.58653 0"/>
<use data-text="N" xlink:href="#font_1_76" transform="matrix(9.963397,0,0,-9.9626,59.448244,335.25999)"/>
<use data-text="o" xlink:href="#font_1_81" transform="matrix(9.963397,0,0,-9.9626,66.92079,335.25999)"/>
<path transform="matrix(1.00008,0,0,-1,75.422519,15.972)" stroke-width=".3985" stroke-linecap="butt" stroke-miterlimit="10" stroke-linejoin="miter" fill="none" stroke="#000000" d="M73.49016-368.50859H106.28091"/>
<path transform="matrix(1.00008,0,0,-1,181.71192,384.4806)" d="M3.58653 0C2.52383 .19925 .797 .797-.3985 1.49438V-1.49438C.797-.797 2.52383-.19925 3.58653 0"/>
<use data-text="Y" xlink:href="#font_1_117" transform="matrix(9.963397,0,0,-9.9626,159.61125,380.85099)"/>
<use data-text="e" xlink:href="#font_1_50" transform="matrix(9.963397,0,0,-9.9626,166.2668,380.85099)"/>
<use data-text="s" xlink:href="#font_1_98" transform="matrix(9.963397,0,0,-9.9626,170.69055,380.85099)"/>
<path transform="matrix(1.00008,0,0,-1,75.422519,15.972)" stroke-width=".3985" stroke-linecap="butt" stroke-miterlimit="10" stroke-linejoin="miter" fill="none" stroke="#000000" d="M0-405.35224V-435.58985"/>
<path transform="matrix(0,1,1.00008,0,75.422519,451.56184)" d="M3.58653 0C2.52383 .19925 .797 .797-.3985 1.49438V-1.49438C.797-.797 2.52383-.19925 3.58653 0"/>
<use data-text="N" xlink:href="#font_1_76" transform="matrix(9.963397,0,0,-9.9626,59.448244,441.58399)"/>
<use data-text="o" xlink:href="#font_1_81" transform="matrix(9.963397,0,0,-9.9626,66.92079,441.58399)"/>
<path transform="matrix(1.00008,0,0,-1,75.422519,15.972)" stroke-width=".3985" stroke-linecap="butt" stroke-miterlimit="10" stroke-linejoin="miter" fill="none" stroke="#000000" d="M46.04004-453.54905H109.60149"/>
<path transform="matrix(1.00008,0,0,-1,185.03278,469.52107)" d="M3.58653 0C2.52383 .19925 .797 .797-.3985 1.49438V-1.49438C.797-.797 2.52383-.19925 3.58653 0"/>
<path transform="matrix(1.00008,0,0,-1,75.422519,15.972)" stroke-width=".3985" stroke-linecap="butt" stroke-miterlimit="10" stroke-linejoin="miter" fill="none" stroke="#000000" d="M155.9075-382.88124V-435.58985"/>
<path transform="matrix(0,1,1.00008,0,231.34249,451.56184)" d="M3.58653 0C2.52383 .19925 .797 .797-.3985 1.49438V-1.49438C.797-.797 2.52383-.19925 3.58653 0"/>
<path transform="matrix(1.00008,0,0,-1,75.422519,15.972)" stroke-width=".3985" stroke-linecap="butt" stroke-miterlimit="10" stroke-linejoin="miter" fill="none" stroke="#000000" d="M201.94754-70.86702H226.77452V-453.54896L202.21352-453.54905"/>
<path transform="matrix(-1.00008,-0,0,1,277.65223,469.52107)" d="M3.58653 0C2.52383 .19925 .797 .797-.3985 1.49438V-1.49438C.797-.797 2.52383-.19925 3.58653 0"/>
<path transform="matrix(1.00008,0,0,-1,75.422519,15.972)" stroke-width=".3985" stroke-linecap="butt" stroke-miterlimit="10" stroke-linejoin="miter" fill="none" stroke="#000000" d="M201.94754-170.08089H226.77452"/>
<path transform="matrix(1.00008,0,0,-1,75.422519,15.972)" stroke-width=".3985" stroke-linecap="butt" stroke-miterlimit="10" stroke-linejoin="miter" fill="none" stroke="#000000" d="M201.94754-269.29475H226.77452"/>
</svg>
