<svg xmlns="http://www.w3.org/2000/svg" xmlns:xlink="http://www.w3.org/1999/xlink" version="1.1" width="222" height="144" viewBox="0 0 222 144">
<defs>
<path id="font_1_1" d="M.33099366-.2400055C.33099366-.23701477 .33099366-.23500061 .31399537-.21800232 .18899536-.0920105 .15699768 .09700012 .15699768 .25 .15699768 .42399598 .19499207 .59799197 .31799317 .72299197 .33099366 .73498538 .33099366 .7369995 .33099366 .73999026 .33099366 .746994 .32699586 .75 .32099916 .75 .31098939 .75 .22099304 .6819916 .1619873 .5549927 .11099243 .44499208 .09899902 .33399964 .09899902 .25 .09899902 .17199707 .10998535 .050994874 .16499329-.06201172 .22499085-.18501282 .31098939-.25 .32099916-.25 .32699586-.25 .33099366-.24700928 .33099366-.2400055Z"/>
<path id="font_1_3" d="M.45999146 .31976319C.45999146 .39982606 .45498658 .47988893 .41999818 .5539398 .37399293 .65000918 .2919922 .6660156 .25 .6660156 .18998719 .6660156 .116989139 .64001467 .07598877 .54693606 .04399109 .47789 .038986207 .39982606 .038986207 .31976319 .038986207 .24472046 .042999269 .15464783 .083999637 .07859802 .1269989-.0024719239 .19999695-.022460938 .24899292-.022460938 .30299378-.022460938 .3789978-.0014648438 .4229889 .09359741 .45498658 .16265869 .45999146 .2407074 .45999146 .31976319M.24899292-.00047302247C.20999146-.00047302247 .15098572 .024551392 .1329956 .12062073 .12199402 .18066406 .12199402 .2727356 .12199402 .3317871 .12199402 .39582826 .12199402 .46188355 .12998963 .5159149 .14898682 .63500979 .22399903 .64401248 .24899292 .64401248 .28199769 .64401248 .34799195 .6259918 .36698915 .52693179 .3769989 .47088624 .3769989 .39482118 .3769989 .3317871 .3769989 .25672914 .3769989 .18867493 .3659973 .12461853 .35099793 .029556275 .2939911-.00047302247 .24899292-.00047302247Z"/>
<path id="font_2_1" d="M.20298767 .0009918213C.20298767 .066986087 .17799378 .10598755 .13899231 .10598755 .10598755 .10598755 .085998538 .08099365 .085998538 .052993776 .085998538 .025985718 .10598755 0 .13899231 0 .15098572 0 .1639862 .0039978029 .17399597 .0129852299 .1769867 .01499939 .17799378 .015991211 .1789856 .015991211 .17999268 .015991211 .18099976 .01499939 .18099976 .0009918213 .18099976-.07316589 .1459961-.13328552 .11299133-.16635132 .101989749-.17736817 .101989749-.17936707 .101989749-.18237305 .101989749-.18936157 .10699463-.19335938 .11199951-.19335938 .12298584-.19335938 .20298767-.116256717 .20298767 .0009918213Z"/>
<path id="font_1_2" d="M.2889862 .25C.2889862 .32798768 .27799989 .44898988 .22299195 .56199648 .16299439 .68499758 .07699585 .75 .066986087 .75 .06098938 .75 .056991579 .74598696 .056991579 .73999026 .056991579 .7369995 .056991579 .73498538 .07598877 .71699526 .17399597 .6179962 .23098755 .45899964 .23098755 .25 .23098755 .07899475 .19400025-.09700012 .069992069-.2230072 .056991579-.23500061 .056991579-.23701477 .056991579-.2400055 .056991579-.2460022 .06098938-.25 .066986087-.25 .07699585-.25 .16699219-.18200684 .22599793-.055007936 .2769928 .054992677 .2889862 .16600037 .2889862 .25Z"/>
<path id="font_1_4" d="M.2939911 .64004519C.2939911 .66400149 .2939911 .6660156 .2709961 .6660156 .20899964 .60227969 .12098694 .60227969 .08898926 .60227969V.57128909C.10899353 .57128909 .16799927 .57128909 .21998596 .5972748V.07902527C.21998596 .042999269 .21699524 .0309906 .1269989 .0309906H.09498596V0C.12998963 .0029907227 .21699524 .0029907227 .25698854 .0029907227 .29699708 .0029907227 .38398744 .0029907227 .4189911 0V.0309906H.3869934C.29699708 .0309906 .2939911 .041992189 .2939911 .07902527V.64004519Z"/>
<path id="font_1_5" d="M.1269989 .07699585 .23298645 .18003845C.3889923 .31811524 .44898988 .3721466 .44898988 .47216798 .44898988 .5860901 .35899354 .6660156 .23699951 .6660156 .12399292 .6660156 .049987794 .57411196 .049987794 .48516847 .049987794 .4291687 .099990848 .4291687 .102996829 .4291687 .11999512 .4291687 .15499878 .44117738 .15499878 .48217774 .15499878 .5081787 .13699341 .5341797 .101989749 .5341797 .09399414 .5341797 .09199524 .5341797 .08898926 .5331726 .11199951 .59806826 .1659851 .63500979 .22399903 .63500979 .31498719 .63500979 .35798646 .5541382 .35798646 .47216798 .35798646 .39215089 .30799867 .31311036 .25299073 .25108338L.06098938 .036987306C.049987794 .025985718 .049987794 .023986817 .049987794 0H.42099L.44898988 .17404175H.42399598C.4189911 .14402771 .4119873 .1000061 .4019928 .084991458 .394989 .07699585 .32899476 .07699585 .30699159 .07699585H.1269989Z"/>
<path id="font_1_6" d="M.2899933 .35191346C.37199403 .37893678 .42999269 .4490509 .42999269 .52809146 .42999269 .6100464 .34199525 .6660156 .24598694 .6660156 .14498902 .6660156 .068984989 .60606387 .068984989 .53009036 .068984989 .49710084 .09098816 .47808839 .11999512 .47808839 .15098572 .47808839 .17098999 .50009158 .17098999 .5290985 .17098999 .57910159 .12399292 .57910159 .10899353 .57910159 .13999939 .62802127 .20599365 .64100649 .24198914 .64100649 .2829895 .64100649 .33799745 .6190338 .33799745 .5290985 .33799745 .51708987 .33599855 .45906068 .30999757 .4149933 .27999879 .36691285 .24598694 .36390687 .22099304 .36291505 .21299744 .36190797 .18899536 .35990907 .18199158 .35990907 .17399597 .35890199 .16699219 .35791017 .16699219 .3479004 .16699219 .33691407 .17399597 .33691407 .19099427 .33691407H.23498535C.31698609 .33691407 .35398866 .2686615 .35398866 .17037964 .35398866 .034469606 .2849884 .0055389406 .24099732 .0055389406 .19799805 .0055389406 .12298584 .022491456 .08799744 .08137512 .12298584 .07637024 .1539917 .09837341 .1539917 .1363678 .1539917 .17237854 .1269989 .19238281 .09799194 .19238281 .07398987 .19238281 .041992189 .17837525 .041992189 .1343689 .041992189 .043441774 .1349945-.022460938 .24398804-.022460938 .3659973-.022460938 .45700074 .06838989 .45700074 .17037964 .45700074 .252594 .3939972 .33088685 .2899933 .35191346Z"/>
</defs>
<path transform="matrix(1.00002,0,0,-1.00008,25.876244,128.79827)" d="M1.4174 0C1.4174 .78282 .78282 1.4174 0 1.4174-.78282 1.4174-1.4174 .78282-1.4174 0-1.4174-.78282-.78282-1.4174 0-1.4174 .78282-1.4174 1.4174-.78282 1.4174 0ZM0 0"/>
<path transform="matrix(1.00002,0,0,-1.00008,25.876244,128.79827)" stroke-width=".3985" stroke-linecap="butt" stroke-miterlimit="10" stroke-linejoin="miter" fill="none" stroke="#000000" d="M1.4174 0C1.4174 .78282 .78282 1.4174 0 1.4174-.78282 1.4174-1.4174 .78282-1.4174 0-1.4174-.78282-.78282-1.4174 0-1.4174 .78282-1.4174 1.4174-.78282 1.4174 0ZM0 0"/>
<use data-text="(" xlink:href="#font_1_1" transform="matrix(9.962799,0,0,-9.963397,.21672821,139.79114)"/>
<use data-text="0" xlink:href="#font_1_3" transform="matrix(9.962799,0,0,-9.963397,4.0922548,139.79114)"/>
<use data-text="," xlink:href="#font_2_1" transform="matrix(9.962799,0,0,-9.963397,9.0729069,139.79114)"/>
<use data-text="0" xlink:href="#font_1_3" transform="matrix(9.962799,0,0,-9.963397,13.500999,139.79114)"/>
<use data-text=")" xlink:href="#font_1_2" transform="matrix(9.962799,0,0,-9.963397,18.482392,139.79114)"/>
<path transform="matrix(1.00002,0,0,-1.00008,25.876244,128.79827)" d="M58.11102 0C58.11102 .78282 57.47644 1.4174 56.69362 1.4174 55.91078 1.4174 55.2762 .78282 55.2762 0 55.2762-.78282 55.91078-1.4174 56.69362-1.4174 57.47644-1.4174 58.11102-.78282 58.11102 0ZM56.69362 0"/>
<path transform="matrix(1.00002,0,0,-1.00008,25.876244,128.79827)" stroke-width=".3985" stroke-linecap="butt" stroke-miterlimit="10" stroke-linejoin="miter" fill="none" stroke="#000000" d="M58.11102 0C58.11102 .78282 57.47644 1.4174 56.69362 1.4174 55.91078 1.4174 55.2762 .78282 55.2762 0 55.2762-.78282 55.91078-1.4174 56.69362-1.4174 57.47644-1.4174 58.11102-.78282 58.11102 0ZM56.69362 0"/>
<use data-text="(" xlink:href="#font_1_1" transform="matrix(9.962799,0,0,-9.963397,71.50116,139.79114)"/>
<use data-text="1" xlink:href="#font_1_4" transform="matrix(9.962799,0,0,-9.963397,75.376689,139.79114)"/>
<use data-text="," xlink:href="#font_2_1" transform="matrix(9.962799,0,0,-9.963397,80.35734,139.79114)"/>
<use data-text="0" xlink:href="#font_1_3" transform="matrix(9.962799,0,0,-9.963397,84.78543,139.79114)"/>
<use data-text=")" xlink:href="#font_1_2" transform="matrix(9.962799,0,0,-9.963397,89.76682,139.79114)"/>
<path transform="matrix(1.00002,0,0,-1.00008,25.876244,128.79827)" d="M114.80464 0C114.80464 .78282 114.17006 1.4174 113.38724 1.4174 112.6044 1.4174 111.96982 .78282 111.96982 0 111.96982-.78282 112.6044-1.4174 113.38724-1.4174 114.17006-1.4174 114.80464-.78282 114.80464 0ZM113.38724 0"/>
<path transform="matrix(1.00002,0,0,-1.00008,25.876244,128.79827)" stroke-width=".3985" stroke-linecap="butt" stroke-miterlimit="10" stroke-linejoin="miter" fill="none" stroke="#000000" d="M114.80464 0C114.80464 .78282 114.17006 1.4174 113.38724 1.4174 112.6044 1.4174 111.96982 .78282 111.96982 0 111.96982-.78282 112.6044-1.4174 113.38724-1.4174 114.17006-1.4174 114.80464-.78282 114.80464 0ZM113.38724 0"/>
<use data-text="(" xlink:href="#font_1_1" transform="matrix(9.962799,0,0,-9.963397,128.1953,139.79114)"/>
<use data-text="2" xlink:href="#font_1_5" transform="matrix(9.962799,0,0,-9.963397,132.07083,139.79114)"/>
<use data-text="," xlink:href="#font_2_1" transform="matrix(9.962799,0,0,-9.963397,137.05149,139.79114)"/>
<use data-text="0" xlink:href="#font_1_3" transform="matrix(9.962799,0,0,-9.963397,141.47957,139.79114)"/>
<use data-text=")" xlink:href="#font_1_2" transform="matrix(9.962799,0,0,-9.963397,146.46097,139.79114)"/>
<path transform="matrix(1.00002,0,0,-1.00008,25.876244,128.79827)" d="M171.49828 0C171.49828 .78282 170.86368 1.4174 170.08086 1.4174 169.29802 1.4174 168.66344 .78282 168.66344 0 168.66344-.78282 169.29802-1.4174 170.08086-1.4174 170.86368-1.4174 171.49828-.78282 171.49828 0ZM170.08086 0"/>
<path transform="matrix(1.00002,0,0,-1.00008,25.876244,128.79827)" stroke-width=".3985" stroke-linecap="butt" stroke-miterlimit="10" stroke-linejoin="miter" fill="none" stroke="#000000" d="M171.49828 0C171.49828 .78282 170.86368 1.4174 170.08086 1.4174 169.29802 1.4174 168.66344 .78282 168.66344 0 168.66344-.78282 169.29802-1.4174 170.08086-1.4174 170.86368-1.4174 171.49828-.78282 171.49828 0ZM170.08086 0"/>
<use data-text="(" xlink:href="#font_1_1" transform="matrix(9.962799,0,0,-9.963397,199.48072,139.79114)"/>
<use data-text="3" xlink:href="#font_1_6" transform="matrix(9.962799,0,0,-9.963397,203.35625,139.79114)"/>
<use data-text="," xlink:href="#font_2_1" transform="matrix(9.962799,0,0,-9.963397,208.3369,139.79114)"/>
<use data-text="0" xlink:href="#font_1_3" transform="matrix(9.962799,0,0,-9.963397,212.76499,139.79114)"/>
<use data-text=")" xlink:href="#font_1_2" transform="matrix(9.962799,0,0,-9.963397,217.74639,139.79114)"/>
<path transform="matrix(1.00002,0,0,-1.00008,25.876244,128.79827)" d="M1.4174 56.69362C1.4174 57.47644 .78282 58.11102 0 58.11102-.78282 58.11102-1.4174 57.47644-1.4174 56.69362-1.4174 55.91078-.78282 55.2762 0 55.2762 .78282 55.2762 1.4174 55.91078 1.4174 56.69362ZM0 56.69362"/>
<path transform="matrix(1.00002,0,0,-1.00008,25.876244,128.79827)" stroke-width=".3985" stroke-linecap="butt" stroke-miterlimit="10" stroke-linejoin="miter" fill="none" stroke="#000000" d="M1.4174 56.69362C1.4174 57.47644 .78282 58.11102 0 58.11102-.78282 58.11102-1.4174 57.47644-1.4174 56.69362-1.4174 55.91078-.78282 55.2762 0 55.2762 .78282 55.2762 1.4174 55.91078 1.4174 56.69362ZM0 56.69362"/>
<use data-text="(" xlink:href="#font_1_1" transform="matrix(9.962799,0,0,-9.963397,.21672821,74.59093)"/>
<use data-text="0" xlink:href="#font_1_3" transform="matrix(9.962799,0,0,-9.963397,4.0922548,74.59093)"/>
<use data-text="," xlink:href="#font_2_1" transform="matrix(9.962799,0,0,-9.963397,9.0729069,74.59093)"/>
<use data-text="1" xlink:href="#font_1_4" transform="matrix(9.962799,0,0,-9.963397,13.500999,74.59093)"/>
<use data-text=")" xlink:href="#font_1_2" transform="matrix(9.962799,0,0,-9.963397,18.482392,74.59093)"/>
<path transform="matrix(1.00002,0,0,-1.00008,25.876244,128.79827)" d="M58.11102 56.69362C58.11102 57.47644 57.47644 58.11102 56.69362 58.11102 55.91078 58.11102 55.2762 57.47644 55.2762 56.69362 55.2762 55.91078 55.91078 55.2762 56.69362 55.2762 57.47644 55.2762 58.11102 55.91078 58.11102 56.69362ZM56.69362 56.69362"/>
<path transform="matrix(1.00002,0,0,-1.00008,25.876244,128.79827)" stroke-width=".3985" stroke-linecap="butt" stroke-miterlimit="10" stroke-linejoin="miter" fill="none" stroke="#000000" d="M58.11102 56.69362C58.11102 57.47644 57.47644 58.11102 56.69362 58.11102 55.91078 58.11102 55.2762 57.47644 55.2762 56.69362 55.2762 55.91078 55.91078 55.2762 56.69362 55.2762 57.47644 55.2762 58.11102 55.91078 58.11102 56.69362ZM56.69362 56.69362"/>
<use data-text="(" xlink:href="#font_1_1" transform="matrix(9.962799,0,0,-9.963397,86.090457,83.092609)"/>
<use data-text="1" xlink:href="#font_1_4" transform="matrix(9.962799,0,0,-9.963397,89.96597,83.092609)"/>
<use data-text="," xlink:href="#font_2_1" transform="matrix(9.962799,0,0,-9.963397,94.946628,83.092609)"/>
<use data-text="1" xlink:href="#font_1_4" transform="matrix(9.962799,0,0,-9.963397,99.374729,83.092609)"/>
<use data-text=")" xlink:href="#font_1_2" transform="matrix(9.962799,0,0,-9.963397,104.35611,83.092609)"/>
<path transform="matrix(1.00002,0,0,-1.00008,25.876244,128.79827)" d="M114.80464 56.69362C114.80464 57.47644 114.17006 58.11102 113.38724 58.11102 112.6044 58.11102 111.96982 57.47644 111.96982 56.69362 111.96982 55.91078 112.6044 55.2762 113.38724 55.2762 114.17006 55.2762 114.80464 55.91078 114.80464 56.69362ZM113.38724 56.69362"/>
<path transform="matrix(1.00002,0,0,-1.00008,25.876244,128.79827)" stroke-width=".3985" stroke-linecap="butt" stroke-miterlimit="10" stroke-linejoin="miter" fill="none" stroke="#000000" d="M114.80464 56.69362C114.80464 57.47644 114.17006 58.11102 113.38724 58.11102 112.6044 58.11102 111.96982 57.47644 111.96982 56.69362 111.96982 55.91078 112.6044 55.2762 113.38724 55.2762 114.17006 55.2762 114.80464 55.91078 114.80464 56.69362ZM113.38724 56.69362"/>
<use data-text="(" xlink:href="#font_1_1" transform="matrix(9.962799,0,0,-9.963397,142.78559,83.092609)"/>
<use data-text="2" xlink:href="#font_1_5" transform="matrix(9.962799,0,0,-9.963397,146.6611,83.092609)"/>
<use data-text="," xlink:href="#font_2_1" transform="matrix(9.962799,0,0,-9.963397,151.64176,83.092609)"/>
<use data-text="1" xlink:href="#font_1_4" transform="matrix(9.962799,0,0,-9.963397,156.06986,83.092609)"/>
<use data-text=")" xlink:href="#font_1_2" transform="matrix(9.962799,0,0,-9.963397,161.05124,83.092609)"/>
<path transform="matrix(1.00002,0,0,-1.00008,25.876244,128.79827)" d="M171.49828 56.69362C171.49828 57.47644 170.86368 58.11102 170.08086 58.11102 169.29802 58.11102 168.66344 57.47644 168.66344 56.69362 168.66344 55.91078 169.29802 55.2762 170.08086 55.2762 170.86368 55.2762 171.49828 55.91078 171.49828 56.69362ZM170.08086 56.69362"/>
<path transform="matrix(1.00002,0,0,-1.00008,25.876244,128.79827)" stroke-width=".3985" stroke-linecap="butt" stroke-miterlimit="10" stroke-linejoin="miter" fill="none" stroke="#000000" d="M171.49828 56.69362C171.49828 57.47644 170.86368 58.11102 170.08086 58.11102 169.29802 58.11102 168.66344 57.47644 168.66344 56.69362 168.66344 55.91078 169.29802 55.2762 170.08086 55.2762 170.86368 55.2762 171.49828 55.91078 171.49828 56.69362ZM170.08086 56.69362"/>
<use data-text="(" xlink:href="#font_1_1" transform="matrix(9.962799,0,0,-9.963397,199.48072,74.59093)"/>
<use data-text="3" xlink:href="#font_1_6" transform="matrix(9.962799,0,0,-9.963397,203.35625,74.59093)"/>
<use data-text="," xlink:href="#font_2_1" transform="matrix(9.962799,0,0,-9.963397,208.3369,74.59093)"/>
<use data-text="1" xlink:href="#font_1_4" transform="matrix(9.962799,0,0,-9.963397,212.76499,74.59093)"/>
<use data-text=")" xlink:href="#font_1_2" transform="matrix(9.962799,0,0,-9.963397,217.74639,74.59093)"/>
<path transform="matrix(1.00002,0,0,-1.00008,25.876244,128.79827)" d="M1.4174 113.38724C1.4174 114.17006 .78282 114.80464 0 114.80464-.78282 114.80464-1.4174 114.17006-1.4174 113.38724-1.4174 112.6044-.78282 111.96982 0 111.96982 .78282 111.96982 1.4174 112.6044 1.4174 113.38724ZM0 113.38724"/>
<path transform="matrix(1.00002,0,0,-1.00008,25.876244,128.79827)" stroke-width=".3985" stroke-linecap="butt" stroke-miterlimit="10" stroke-linejoin="miter" fill="none" stroke="#000000" d="M1.4174 113.38724C1.4174 114.17006 .78282 114.80464 0 114.80464-.78282 114.80464-1.4174 114.17006-1.4174 113.38724-1.4174 112.6044-.78282 111.96982 0 111.96982 .78282 111.96982 1.4174 112.6044 1.4174 113.38724ZM0 113.38724"/>
<use data-text="(" xlink:href="#font_1_1" transform="matrix(9.962799,0,0,-9.963397,.21672821,9.390709)"/>
<use data-text="0" xlink:href="#font_1_3" transform="matrix(9.962799,0,0,-9.963397,4.0922548,9.390709)"/>
<use data-text="," xlink:href="#font_2_1" transform="matrix(9.962799,0,0,-9.963397,9.0729069,9.390709)"/>
<use data-text="2" xlink:href="#font_1_5" transform="matrix(9.962799,0,0,-9.963397,13.500999,9.390709)"/>
<use data-text=")" xlink:href="#font_1_2" transform="matrix(9.962799,0,0,-9.963397,18.482392,9.390709)"/>
<path transform="matrix(1.00002,0,0,-1.00008,25.876244,128.79827)" d="M58.11102 113.38724C58.11102 114.17006 57.47644 114.80464 56.69362 114.80464 55.91078 114.80464 55.2762 114.17006 55.2762 113.38724 55.2762 112.6044 55.91078 111.96982 56.69362 111.96982 57.47644 111.96982 58.11102 112.6044 58.11102 113.38724ZM56.69362 113.38724"/>
<path transform="matrix(1.00002,0,0,-1.00008,25.876244,128.79827)" stroke-width=".3985" stroke-linecap="butt" stroke-miterlimit="10" stroke-linejoin="miter" fill="none" stroke="#000000" d="M58.11102 113.38724C58.11102 114.17006 57.47644 114.80464 56.69362 114.80464 55.91078 114.80464 55.2762 114.17006 55.2762 113.38724 55.2762 112.6044 55.91078 111.96982 56.69362 111.96982 57.47644 111.96982 58.11102 112.6044 58.11102 113.38724ZM56.69362 113.38724"/>
<use data-text="(" xlink:href="#font_1_1" transform="matrix(9.962799,0,0,-9.963397,71.50116,9.390709)"/>
<use data-text="1" xlink:href="#font_1_4" transform="matrix(9.962799,0,0,-9.963397,75.376689,9.390709)"/>
<use data-text="," xlink:href="#font_2_1" transform="matrix(9.962799,0,0,-9.963397,80.35734,9.390709)"/>
<use data-text="2" xlink:href="#font_1_5" transform="matrix(9.962799,0,0,-9.963397,84.78543,9.390709)"/>
<use data-text=")" xlink:href="#font_1_2" transform="matrix(9.962799,0,0,-9.963397,89.76682,9.390709)"/>
<path transform="matrix(1.00002,0,0,-1.00008,25.876244,128.79827)" d="M114.80464 113.38724C114.80464 114.17006 114.17006 114.80464 113.38724 114.80464 112.6044 114.80464 111.96982 114.17006 111.96982 113.38724 111.96982 112.6044 112.6044 111.96982 113.38724 111.96982 114.17006 111.96982 114.80464 112.6044 114.80464 113.38724ZM113.38724 113.38724"/>
<path transform="matrix(1.00002,0,0,-1.00008,25.876244,128.79827)" stroke-width=".3985" stroke-linecap="butt" stroke-miterlimit="10" stroke-linejoin="miter" fill="none" stroke="#000000" d="M114.80464 113.38724C114.80464 114.17006 114.17006 114.80464 113.38724 114.80464 112.6044 114.80464 111.96982 114.17006 111.96982 113.38724 111.96982 112.6044 112.6044 111.96982 113.38724 111.96982 114.17006 111.96982 114.80464 112.6044 114.80464 113.38724ZM113.38724 113.38724"/>
<use data-text="(" xlink:href="#font_1_1" transform="matrix(9.962799,0,0,-9.963397,128.1953,9.390709)"/>
<use data-text="2" xlink:href="#font_1_5" transform="matrix(9.962799,0,0,-9.963397,132.07083,9.390709)"/>
<use data-text="," xlink:href="#font_2_1" transform="matrix(9.962799,0,0,-9.963397,137.05149,9.390709)"/>
<use data-text="2" xlink:href="#font_1_5" transform="matrix(9.962799,0,0,-9.963397,141.47957,9.390709)"/>
<use data-text=")" xlink:href="#font_1_2" transform="matrix(9.962799,0,0,-9.963397,146.46097,9.390709)"/>
<path transform="matrix(1.00002,0,0,-1.00008,25.876244,128.79827)" d="M171.49828 113.38724C171.49828 114.17006 170.86368 114.80464 170.08086 114.80464 169.29802 114.80464 168.66344 114.17006 168.66344 113.38724 168.66344 112.6044 169.29802 111.96982 170.08086 111.96982 170.86368 111.96982 171.49828 112.6044 171.49828 113.38724ZM170.08086 113.38724"/>
<path transform="matrix(1.00002,0,0,-1.00008,25.876244,128.79827)" stroke-width=".3985" stroke-linecap="butt" stroke-miterlimit="10" stroke-linejoin="miter" fill="none" stroke="#000000" d="M171.49828 113.38724C171.49828 114.17006 170.86368 114.80464 170.08086 114.80464 169.29802 114.80464 168.66344 114.17006 168.66344 113.38724 168.66344 112.6044 169.29802 111.96982 170.08086 111.96982 170.86368 111.96982 171.49828 112.6044 171.49828 113.38724ZM170.08086 113.38724"/>
<use data-text="(" xlink:href="#font_1_1" transform="matrix(9.962799,0,0,-9.963397,199.48072,9.390709)"/>
<use data-text="3" xlink:href="#font_1_6" transform="matrix(9.962799,0,0,-9.963397,203.35625,9.390709)"/>
<use data-text="," xlink:href="#font_2_1" transform="matrix(9.962799,0,0,-9.963397,208.3369,9.390709)"/>
<use data-text="2" xlink:href="#font_1_5" transform="matrix(9.962799,0,0,-9.963397,212.76499,9.390709)"/>
<use data-text=")" xlink:href="#font_1_2" transform="matrix(9.962799,0,0,-9.963397,217.74639,9.390709)"/>
<path transform="matrix(1.00002,0,0,-1.00008,25.876244,128.79827)" stroke-width=".3985" stroke-linecap="butt" stroke-miterlimit="10" stroke-linejoin="miter" fill="none" stroke="#000000" d="M56.69362 0H0"/>
<path transform="matrix(1.00002,0,0,-1.00008,25.876244,128.79827)" stroke-width=".3985" stroke-linecap="butt" stroke-miterlimit="10" stroke-linejoin="miter" fill="none" stroke="#000000" d="M56.69362 56.69362H0"/>
<path transform="matrix(1.00002,0,0,-1.00008,25.876244,128.79827)" stroke-width=".3985" stroke-linecap="butt" stroke-miterlimit="10" stroke-linejoin="miter" fill="none" stroke="#000000" d="M56.69362 113.38724H0"/>
<path transform="matrix(1.00002,0,0,-1.00008,25.876244,128.79827)" stroke-width=".3985" stroke-linecap="butt" stroke-miterlimit="10" stroke-linejoin="miter" fill="none" stroke="#000000" d="M113.38724 0H56.69362"/>
<path transform="matrix(1.00002,0,0,-1.00008,25.876244,128.79827)" stroke-width=".3985" stroke-linecap="butt" stroke-miterlimit="10" stroke-linejoin="miter" fill="none" stroke="#000000" d="M113.38724 56.69362H56.69362"/>
<path transform="matrix(1.00002,0,0,-1.00008,25.876244,128.79827)" stroke-width=".3985" stroke-linecap="butt" stroke-miterlimit="10" stroke-linejoin="miter" fill="none" stroke="#000000" d="M113.38724 113.38724H56.69362"/>
<path transform="matrix(1.00002,0,0,-1.00008,25.876244,128.79827)" stroke-width=".3985" stroke-linecap="butt" stroke-miterlimit="10" stroke-linejoin="miter" fill="none" stroke="#000000" d="M170.08086 0H113.38724"/>
<path transform="matrix(1.00002,0,0,-1.00008,25.876244,128.79827)" stroke-width=".3985" stroke-linecap="butt" stroke-miterlimit="10" stroke-linejoin="miter" fill="none" stroke="#000000" d="M170.08086 56.69362H113.38724"/>
<path transform="matrix(1.00002,0,0,-1.00008,25.876244,128.79827)" stroke-width=".3985" stroke-linecap="butt" stroke-miterlimit="10" stroke-linejoin="miter" fill="none" stroke="#000000" d="M170.08086 113.38724H113.38724"/>
<path transform="matrix(1.00002,0,0,-1.00008,25.876244,128.79827)" stroke-width=".3985" stroke-linecap="butt" stroke-miterlimit="10" stroke-linejoin="miter" fill="none" stroke="#000000" d="M0 56.69362V0"/>
<path transform="matrix(1.00002,0,0,-1.00008,25.876244,128.79827)" stroke-width=".3985" stroke-linecap="butt" stroke-miterlimit="10" stroke-linejoin="miter" fill="none" stroke="#000000" d="M0 113.38724V56.69362"/>
<path transform="matrix(1.00002,0,0,-1.00008,25.876244,128.79827)" stroke-width=".3985" stroke-linecap="butt" stroke-miterlimit="10" stroke-linejoin="miter" fill="none" stroke="#000000" d="M56.69362 56.69362V0"/>
<path transform="matrix(1.00002,0,0,-1.00008,25.876244,128.79827)" stroke-width=".3985" stroke-linecap="butt" stroke-miterlimit="10" stroke-linejoin="miter" fill="none" stroke="#000000" d="M56.69362 113.38724V56.69362"/>
<path transform="matrix(1.00002,0,0,-1.00008,25.876244,128.79827)" stroke-width=".3985" stroke-linecap="butt" stroke-miterlimit="10" stroke-linejoin="miter" fill="none" stroke="#000000" d="M113.38724 56.69362V0"/>
<path transform="matrix(1.00002,0,0,-1.00008,25.876244,128.79827)" stroke-width=".3985" stroke-linecap="butt" stroke-miterlimit="10" stroke-linejoin="miter" fill="none" stroke="#000000" d="M113.38724 113.38724V56.69362"/>
<path transform="matrix(1.00002,0,0,-1.00008,25.876244,128.79827)" stroke-width=".3985" stroke-linecap="butt" stroke-miterlimit="10" stroke-linejoin="miter" fill="none" stroke="#000000" d="M170.08086 56.69362V0"/>
<path transform="matrix(1.00002,0,0,-1.00008,25.876244,128.79827)" stroke-width=".3985" stroke-linecap="butt" stroke-miterlimit="10" stroke-linejoin="miter" fill="none" stroke="#000000" d="M170.08086 113.38724V56.69362"/>
<path transform="matrix(1.00002,0,0,-1.00008,25.876244,128.79827)" stroke-width=".3985" stroke-linecap="butt" stroke-miterlimit="10" stroke-linejoin="miter" fill="none" stroke="#000000" d="M56.69362 56.69362 0 0"/>
<path transform="matrix(1.00002,0,0,-1.00008,25.876244,128.79827)" stroke-width=".3985" stroke-linecap="butt" stroke-miterlimit="10" stroke-linejoin="miter" fill="none" stroke="#000000" d="M113.38724 56.69362 56.69362 0"/>
<path transform="matrix(1.00002,0,0,-1.00008,25.876244,128.79827)" stroke-width=".3985" stroke-linecap="butt" stroke-miterlimit="10" stroke-linejoin="miter" fill="none" stroke="#000000" d="M113.38724 113.38724 56.69362 56.69362"/>
<path transform="matrix(1.00002,0,0,-1.00008,25.876244,128.79827)" stroke-width=".3985" stroke-linecap="butt" stroke-miterlimit="10" stroke-linejoin="miter" fill="none" stroke="#000000" d="M170.08086 113.38724 113.38724 56.69362"/>
<path transform="matrix(1.00002,0,0,-1.00008,25.876244,128.79827)" stroke-width=".3985" stroke-linecap="butt" stroke-miterlimit="10" stroke-linejoin="miter" fill="none" stroke="#000000" d="M56.69362 113.38724 0 56.69362"/>
<path transform="matrix(1.00002,0,0,-1.00008,25.876244,128.79827)" stroke-width=".3985" stroke-linecap="butt" stroke-miterlimit="10" stroke-linejoin="miter" fill="none" stroke="#000000" d="M170.08086 56.69362 113.38724 0"/>
<path transform="matrix(1.00002,0,0,-1.00008,25.876244,128.79827)" stroke-width=".3985" stroke-linecap="butt" stroke-miterlimit="10" stroke-linejoin="miter" fill="none" stroke="#000000" d="M113.38724 0C70.67618 11.4444 42.71104 11.4444 0 0"/>
<path transform="matrix(1.00002,0,0,-1.00008,25.876244,128.79827)" stroke-width=".3985" stroke-linecap="butt" stroke-miterlimit="10" stroke-linejoin="miter" fill="none" stroke="#000000" d="M170.08086 0C107.75394 22.6854 62.3269 22.6854 0 0"/>
<path transform="matrix(1.00002,0,0,-1.00008,25.876244,128.79827)" stroke-width=".3985" stroke-linecap="butt" stroke-miterlimit="10" stroke-linejoin="miter" fill="none" stroke="#000000" d="M113.38724 56.69362C70.67618 68.13802 42.71104 68.13802 0 56.69362"/>
<path transform="matrix(1.00002,0,0,-1.00008,25.876244,128.79827)" stroke-width=".3985" stroke-linecap="butt" stroke-miterlimit="10" stroke-linejoin="miter" fill="none" stroke="#000000" d="M170.08086 56.69362C107.75394 79.37901 62.3269 79.37901 0 56.69362"/>
<path transform="matrix(1.00002,0,0,-1.00008,25.876244,128.79827)" stroke-width=".3985" stroke-linecap="butt" stroke-miterlimit="10" stroke-linejoin="miter" fill="none" stroke="#000000" d="M113.38724 113.38724C70.67618 101.94283 42.71104 101.94283 0 113.38724"/>
<path transform="matrix(1.00002,0,0,-1.00008,25.876244,128.79827)" stroke-width=".3985" stroke-linecap="butt" stroke-miterlimit="10" stroke-linejoin="miter" fill="none" stroke="#000000" d="M170.08086 113.38724C107.75394 90.70184 62.3269 90.70184 0 113.38724"/>
<path transform="matrix(1.00002,0,0,-1.00008,25.876244,128.79827)" stroke-width=".3985" stroke-linecap="butt" stroke-miterlimit="10" stroke-linejoin="miter" fill="none" stroke="#000000" d="M0 113.38724C18.6874 73.31226 18.6874 40.07497 0 0"/>
<path transform="matrix(1.00002,0,0,-1.00008,25.876244,128.79827)" stroke-width=".3985" stroke-linecap="butt" stroke-miterlimit="10" stroke-linejoin="miter" fill="none" stroke="#000000" d="M56.69362 113.38724C38.00621 73.31226 38.00621 40.07497 56.69362 0"/>
<path transform="matrix(1.00002,0,0,-1.00008,25.876244,128.79827)" stroke-width=".3985" stroke-linecap="butt" stroke-miterlimit="10" stroke-linejoin="miter" fill="none" stroke="#000000" d="M113.38724 113.38724C94.69983 73.31226 94.69983 40.07497 113.38724 0"/>
<path transform="matrix(1.00002,0,0,-1.00008,25.876244,128.79827)" stroke-width=".3985" stroke-linecap="butt" stroke-miterlimit="10" stroke-linejoin="miter" fill="none" stroke="#000000" d="M170.08086 113.38724C151.39345 73.31226 151.39345 40.07497 170.08086 0"/>
<path transform="matrix(1.00002,0,0,-1.00008,25.876244,128.79827)" stroke-width=".3985" stroke-linecap="butt" stroke-miterlimit="10" stroke-linejoin="miter" fill="none" stroke="#000000" d="M113.38724 113.38724C59.01424 81.99506 36.0117 51.42998 0 0"/>
<path transform="matrix(1.00002,0,0,-1.00008,25.876244,128.79827)" stroke-width=".3985" stroke-linecap="butt" stroke-miterlimit="10" stroke-linejoin="miter" fill="none" stroke="#000000" d="M170.08086 113.38724C115.70786 81.99506 92.70532 51.42998 56.69362 0"/>
</svg>
