<svg xmlns="http://www.w3.org/2000/svg" xmlns:xlink="http://www.w3.org/1999/xlink" version="1.1" width="192" height="135" viewBox="0 0 192 135">
<defs>
<path id="font_1_83" d="M.6409912 .49668885C.6409912 .5956421 .5379944 .6826172 .39898683 .6826172H.039993287V.6516113H.06298828C.13999939 .6516113 .14199829 .64060977 .14199829 .6036377V.0789032C.14199829 .041915895 .13999939 .030929566 .06298828 .030929566H.039993287V0C.084991458 .0029296876 .14099121 .0029296876 .18699646 .0029296876 .23298645 .0029907227 .2889862 .0029907227 .33399964 0V.0309906H.31098939C.23399353 .0309906 .23199463 .041992189 .23199463 .07896423V.31378175H.39898683C.5389862 .31378175 .6409912 .40075685 .6409912 .4967041V.49668885M.5389862 .4967041C.5389862 .4517212 .5389862 .34179688 .37298585 .34179688H.22898865V.6106262C.22898865 .64460757 .23098755 .6516113 .27799989 .6516113H.37399293C.5389862 .6516113 .5389862 .54167178 .5389862 .4967041Z"/>
<path id="font_1_76" d="M.7319946 .6516113V.6826172C.6779938 .680603 .6629944 .6796112 .61499026 .6796112 .56599429 .6796112 .5529938 .680603 .49699403 .6826172V.6516113C.598999 .6516113 .598999 .6036377 .598999 .5766449V.1499176L.23599243 .6706085C.22799683 .6826172 .22499085 .6826172 .20599365 .6826172H.037994386V.6516113H.06599426C.11399841 .6516113 .13999939 .64460757 .13999939 .64460757V.10594177C.13999939 .07896423 .13999939 .0309906 .037994386 .0309906V0C.09298706 .0019989014 .10699463 .0029907227 .1559906 .0029907227 .20399475 .0029907227 .21899414 .0019989014 .272995 0V.0309906C.17098999 .0309906 .17098999 .07896423 .17098999 .10594177V.6216278L.59599307 .011993408C.60398867 0 .60899356 0 .6139984 0 .6299896 0 .6299896 .0079956059 .6299896 .026992798V.5766449C.6299896 .6036377 .6299896 .6516113 .7319946 .6516113Z"/>
</defs>
<path transform="matrix(1.00005,0,0,-1.00005,11.373619,124.46842)" stroke-width=".3985" stroke-linecap="butt" stroke-miterlimit="10" stroke-linejoin="miter" fill="none" stroke="#000000" d="M0 0"/>
<path transform="matrix(1.00005,0,0,-1.00005,11.373619,124.46842)" stroke-width=".3985" stroke-linecap="butt" stroke-miterlimit="10" stroke-linejoin="miter" fill="none" stroke="#000000" d="M9.07861 0C9.07861 5.01404 5.01404 9.07861 0 9.07861-5.01404 9.07861-9.07861 5.01404-9.07861 0-9.07861-5.01404-5.01404-9.07861 0-9.07861 5.01404-9.07861 9.07861-5.01404 9.07861 0ZM0 0"/>
<use data-text="P" xlink:href="#font_1_83" transform="matrix(8.966848,0,0,-8.966848,8.239464,127.53058)"/>
<path transform="matrix(1.00005,0,0,-1.00005,11.373619,124.46842)" stroke-width=".3985" stroke-linecap="butt" stroke-miterlimit="10" stroke-linejoin="miter" fill="none" stroke="#000000" d="M0 56.69362"/>
<path transform="matrix(1.00005,0,0,-1.00005,11.373619,124.46842)" stroke-width=".3985" stroke-linecap="butt" stroke-miterlimit="10" stroke-linejoin="miter" fill="none" stroke="#000000" d="M9.27757 56.69362C9.27757 61.81755 5.12393 65.97119 0 65.97119-5.12393 65.97119-9.27757 61.81755-9.27757 56.69362-9.27757 51.56967-5.12393 47.41603 0 47.41603 5.12393 47.41603 9.27757 51.56967 9.27757 56.69362ZM0 56.69362"/>
<use data-text="N" xlink:href="#font_1_76" transform="matrix(8.966848,0,0,-8.966848,7.916443,70.83374)"/>
<path transform="matrix(1.00005,0,0,-1.00005,11.373619,124.46842)" stroke-width=".3985" stroke-linecap="butt" stroke-miterlimit="10" stroke-linejoin="miter" fill="none" stroke="#000000" d="M56.69362 0"/>
<path transform="matrix(1.00005,0,0,-1.00005,11.373619,124.46842)" stroke-width=".3985" stroke-linecap="butt" stroke-miterlimit="10" stroke-linejoin="miter" fill="none" stroke="#000000" d="M65.97119 0C65.97119 5.12393 61.81755 9.27757 56.69362 9.27757 51.56967 9.27757 47.41603 5.12393 47.41603 0 47.41603-5.12393 51.56967-9.27757 56.69362-9.27757 61.81755-9.27757 65.97119-5.12393 65.97119 0ZM56.69362 0"/>
<use data-text="N" xlink:href="#font_1_76" transform="matrix(8.966848,0,0,-8.966848,64.61328,127.53058)"/>
<path transform="matrix(1.00005,0,0,-1.00005,11.373619,124.46842)" stroke-width=".3985" stroke-linecap="butt" stroke-miterlimit="10" stroke-linejoin="miter" fill="none" stroke="#000000" d="M113.38724 0"/>
<path transform="matrix(1.00005,0,0,-1.00005,11.373619,124.46842)" stroke-width=".3985" stroke-linecap="butt" stroke-miterlimit="10" stroke-linejoin="miter" fill="none" stroke="#000000" d="M122.66481 0C122.66481 5.12393 118.51117 9.27757 113.38724 9.27757 108.2633 9.27757 104.10965 5.12393 104.10965 0 104.10965-5.12393 108.2633-9.27757 113.38724-9.27757 118.51117-9.27757 122.66481-5.12393 122.66481 0ZM113.38724 0"/>
<use data-text="N" xlink:href="#font_1_76" transform="matrix(8.966848,0,0,-8.966848,121.31011,127.53058)"/>
<path transform="matrix(1.00005,0,0,-1.00005,11.373619,124.46842)" stroke-width=".3985" stroke-linecap="butt" stroke-miterlimit="10" stroke-linejoin="miter" fill="none" stroke="#000000" d="M56.69362 56.69362"/>
<path transform="matrix(1.00005,0,0,-1.00005,11.373619,124.46842)" stroke-width=".3985" stroke-linecap="butt" stroke-miterlimit="10" stroke-linejoin="miter" fill="none" stroke="#000000" d="M65.97119 56.69362C65.97119 61.81755 61.81755 65.97119 56.69362 65.97119 51.56967 65.97119 47.41603 61.81755 47.41603 56.69362 47.41603 51.56967 51.56967 47.41603 56.69362 47.41603 61.81755 47.41603 65.97119 51.56967 65.97119 56.69362ZM56.69362 56.69362"/>
<use data-text="N" xlink:href="#font_1_76" transform="matrix(8.966848,0,0,-8.966848,64.61328,70.83374)"/>
<path transform="matrix(1.00005,0,0,-1.00005,11.373619,124.46842)" stroke-width=".3985" stroke-linecap="butt" stroke-miterlimit="10" stroke-linejoin="miter" fill="none" stroke="#000000" d="M0 113.38724"/>
<path transform="matrix(1.00005,0,0,-1.00005,11.373619,124.46842)" stroke-width=".3985" stroke-linecap="butt" stroke-miterlimit="10" stroke-linejoin="miter" fill="none" stroke="#000000" d="M9.27757 113.38724C9.27757 118.51117 5.12393 122.66481 0 122.66481-5.12393 122.66481-9.27757 118.51117-9.27757 113.38724-9.27757 108.2633-5.12393 104.10965 0 104.10965 5.12393 104.10965 9.27757 108.2633 9.27757 113.38724ZM0 113.38724"/>
<use data-text="N" xlink:href="#font_1_76" transform="matrix(8.966848,0,0,-8.966848,7.916443,14.137917)"/>
<path transform="matrix(1.00005,0,0,-1.00005,11.373619,124.46842)" stroke-width=".3985" stroke-linecap="butt" stroke-miterlimit="10" stroke-linejoin="miter" fill="none" stroke="#000000" d="M56.69362 113.38724"/>
<path transform="matrix(1.00005,0,0,-1.00005,11.373619,124.46842)" stroke-width=".3985" stroke-linecap="butt" stroke-miterlimit="10" stroke-linejoin="miter" fill="none" stroke="#000000" d="M65.77223 113.38724C65.77223 118.40128 61.70766 122.46585 56.69362 122.46585 51.67958 122.46585 47.61499 118.40128 47.61499 113.38724 47.61499 108.3732 51.67958 104.30861 56.69362 104.30861 61.70766 104.30861 65.77223 108.3732 65.77223 113.38724ZM56.69362 113.38724"/>
<use data-text="P" xlink:href="#font_1_83" transform="matrix(8.966848,0,0,-8.966848,64.936298,14.137917)"/>
<path transform="matrix(1.00005,0,0,-1.00005,11.373619,124.46842)" stroke-width=".3985" stroke-linecap="butt" stroke-miterlimit="10" stroke-linejoin="miter" fill="none" stroke="#000000" d="M113.38724 56.69362"/>
<path transform="matrix(1.00005,0,0,-1.00005,11.373619,124.46842)" stroke-width=".3985" stroke-linecap="butt" stroke-miterlimit="10" stroke-linejoin="miter" fill="none" stroke="#000000" d="M122.46585 56.69362C122.46585 61.70766 118.40128 65.77223 113.38724 65.77223 108.3732 65.77223 104.30861 61.70766 104.30861 56.69362 104.30861 51.67958 108.3732 47.61499 113.38724 47.61499 118.40128 47.61499 122.46585 51.67958 122.46585 56.69362ZM113.38724 56.69362"/>
<use data-text="P" xlink:href="#font_1_83" transform="matrix(8.966848,0,0,-8.966848,121.632129,70.83374)"/>
<path transform="matrix(1.00005,0,0,-1.00005,11.373619,124.46842)" stroke-width=".3985" stroke-linecap="butt" stroke-miterlimit="10" stroke-linejoin="miter" fill="none" stroke="#000000" d="M170.08086 0"/>
<path transform="matrix(1.00005,0,0,-1.00005,11.373619,124.46842)" stroke-width=".3985" stroke-linecap="butt" stroke-miterlimit="10" stroke-linejoin="miter" fill="none" stroke="#000000" d="M179.35843 0C179.35843 5.12393 175.20479 9.27757 170.08086 9.27757 164.95693 9.27757 160.80327 5.12393 160.80327 0 160.80327-5.12393 164.95693-9.27757 170.08086-9.27757 175.20479-9.27757 179.35843-5.12393 179.35843 0ZM170.08086 0"/>
<use data-text="N" xlink:href="#font_1_76" transform="matrix(8.966848,0,0,-8.966848,178.00592,127.53058)"/>
<path transform="matrix(1.00005,0,0,-1.00005,11.373619,124.46842)" stroke-width=".3985" stroke-linecap="butt" stroke-miterlimit="10" stroke-linejoin="miter" fill="none" stroke="#000000" d="M170.08086 56.69362"/>
<path transform="matrix(1.00005,0,0,-1.00005,11.373619,124.46842)" stroke-width=".3985" stroke-linecap="butt" stroke-miterlimit="10" stroke-linejoin="miter" fill="none" stroke="#000000" d="M179.35843 56.69362C179.35843 61.81755 175.20479 65.97119 170.08086 65.97119 164.95693 65.97119 160.80327 61.81755 160.80327 56.69362 160.80327 51.56967 164.95693 47.41603 170.08086 47.41603 175.20479 47.41603 179.35843 51.56967 179.35843 56.69362ZM170.08086 56.69362"/>
<use data-text="N" xlink:href="#font_1_76" transform="matrix(8.966848,0,0,-8.966848,178.00592,70.83374)"/>
<path transform="matrix(1.00005,0,0,-1.00005,11.373619,124.46842)" stroke-width=".3985" stroke-linecap="butt" stroke-miterlimit="10" stroke-linejoin="miter" fill="none" stroke="#000000" d="M113.38724 113.38724"/>
<path transform="matrix(1.00005,0,0,-1.00005,11.373619,124.46842)" stroke-width=".3985" stroke-linecap="butt" stroke-miterlimit="10" stroke-linejoin="miter" fill="none" stroke="#000000" d="M122.66481 113.38724C122.66481 118.51117 118.51117 122.66481 113.38724 122.66481 108.2633 122.66481 104.10965 118.51117 104.10965 113.38724 104.10965 108.2633 108.2633 104.10965 113.38724 104.10965 118.51117 104.10965 122.66481 108.2633 122.66481 113.38724ZM113.38724 113.38724"/>
<use data-text="N" xlink:href="#font_1_76" transform="matrix(8.966848,0,0,-8.966848,121.31011,14.137917)"/>
<path transform="matrix(1.00005,0,0,-1.00005,11.373619,124.46842)" stroke-width=".3985" stroke-linecap="butt" stroke-miterlimit="10" stroke-linejoin="miter" fill="none" stroke="#000000" d="M170.08086 113.38724"/>
<path transform="matrix(1.00005,0,0,-1.00005,11.373619,124.46842)" stroke-width=".3985" stroke-linecap="butt" stroke-miterlimit="10" stroke-linejoin="miter" fill="none" stroke="#000000" d="M179.35843 113.38724C179.35843 118.51117 175.20479 122.66481 170.08086 122.66481 164.95693 122.66481 160.80327 118.51117 160.80327 113.38724 160.80327 108.2633 164.95693 104.10965 170.08086 104.10965 175.20479 104.10965 179.35843 108.2633 179.35843 113.38724ZM170.08086 113.38724"/>
<use data-text="N" xlink:href="#font_1_76" transform="matrix(8.966848,0,0,-8.966848,178.00592,14.137917)"/>
<path transform="matrix(1.00005,0,0,-1.00005,11.373619,124.46842)" stroke-width=".3985" stroke-linecap="butt" stroke-miterlimit="10" stroke-linejoin="miter" fill="none" stroke="#000000" d="M106.6861 106.6861 63.39474 63.39474"/>
<path transform="matrix(1.00005,0,0,-1.00005,11.373619,124.46842)" stroke-width=".3985" stroke-linecap="butt" stroke-miterlimit="10" stroke-linejoin="miter" fill="none" stroke="#000000" d="M163.37972 106.6861 119.94768 63.25406"/>
<path transform="matrix(1.00005,0,0,-1.00005,11.373619,124.46842)" stroke-width=".3985" stroke-linecap="butt" stroke-miterlimit="10" stroke-linejoin="miter" fill="none" stroke="#000000" d="M56.69362 104.10936V66.17046"/>
<path transform="matrix(1.00005,0,0,-1.00005,11.373619,124.46842)" stroke-width=".3985" stroke-linecap="butt" stroke-miterlimit="10" stroke-linejoin="miter" fill="none" stroke="#000000" d="M113.38724 103.9104V65.97148"/>
<path transform="matrix(1.00005,0,0,-1.00005,11.373619,124.46842)" stroke-width=".3985" stroke-linecap="butt" stroke-miterlimit="10" stroke-linejoin="miter" fill="none" stroke="#000000" d="M170.08086 103.9104V66.17046"/>
<path transform="matrix(1.00005,0,0,-1.00005,11.373619,124.46842)" stroke-width=".3985" stroke-linecap="butt" stroke-miterlimit="10" stroke-linejoin="miter" fill="none" stroke="#000000" d="M160.60402 0H122.86407"/>
<path transform="matrix(1.00005,0,0,-1.00005,11.373619,124.46842)" stroke-width=".3985" stroke-linecap="butt" stroke-miterlimit="10" stroke-linejoin="miter" fill="none" stroke="#000000" d="M160.60402 56.69362H122.6651"/>
<path transform="matrix(1.00005,0,0,-1.00005,11.373619,124.46842)" stroke-width=".3985" stroke-linecap="butt" stroke-miterlimit="10" stroke-linejoin="miter" fill="none" stroke="#000000" d="M160.60402 113.38724H122.86407"/>
<path transform="matrix(1.00005,0,0,-1.00005,11.373619,124.46842)" stroke-width=".3985" stroke-linecap="butt" stroke-miterlimit="10" stroke-linejoin="miter" fill="none" stroke="#000000" d="M56.69362 47.21678V9.47684"/>
<path transform="matrix(1.00005,0,0,-1.00005,11.373619,124.46842)" stroke-width=".3985" stroke-linecap="butt" stroke-miterlimit="10" stroke-linejoin="miter" fill="none" stroke="#000000" d="M113.38724 47.41574V9.47684"/>
<path transform="matrix(1.00005,0,0,-1.00005,11.373619,124.46842)" stroke-width=".3985" stroke-linecap="butt" stroke-miterlimit="10" stroke-linejoin="miter" fill="none" stroke="#000000" d="M170.08086 47.21678V9.47684"/>
<path transform="matrix(1.00005,0,0,-1.00005,11.373619,124.46842)" stroke-width=".3985" stroke-linecap="butt" stroke-miterlimit="10" stroke-linejoin="miter" fill="none" stroke="#000000" d="M103.9104 113.38724H65.97148"/>
<path transform="matrix(1.00005,0,0,-1.00005,11.373619,124.46842)" stroke-width=".3985" stroke-linecap="butt" stroke-miterlimit="10" stroke-linejoin="miter" fill="none" stroke="#000000" d="M104.10936 56.69362H66.17046"/>
<path transform="matrix(1.00005,0,0,-1.00005,11.373619,124.46842)" stroke-width=".3985" stroke-linecap="butt" stroke-miterlimit="10" stroke-linejoin="miter" fill="none" stroke="#000000" d="M103.9104 0H66.17046"/>
<path transform="matrix(1.00005,0,0,-1.00005,11.373619,124.46842)" stroke-width=".3985" stroke-linecap="butt" stroke-miterlimit="10" stroke-linejoin="miter" fill="none" stroke="#000000" d="M49.99248 49.99248 6.56044 6.56044"/>
<path transform="matrix(1.00005,0,0,-1.00005,11.373619,124.46842)" stroke-width=".3985" stroke-linecap="butt" stroke-miterlimit="10" stroke-linejoin="miter" fill="none" stroke="#000000" d="M0 103.9104V66.17046"/>
<path transform="matrix(1.00005,0,0,-1.00005,11.373619,124.46842)" stroke-width=".3985" stroke-linecap="butt" stroke-miterlimit="10" stroke-linejoin="miter" fill="none" stroke="#000000" d="M47.21678 56.69362H9.47684"/>
<path transform="matrix(1.00005,0,0,-1.00005,11.373619,124.46842)" stroke-width=".3985" stroke-linecap="butt" stroke-miterlimit="10" stroke-linejoin="miter" fill="none" stroke="#000000" d="M47.41574 113.38724H9.47684"/>
<path transform="matrix(1.00005,0,0,-1.00005,11.373619,124.46842)" stroke-width=".3985" stroke-linecap="butt" stroke-miterlimit="10" stroke-linejoin="miter" fill="none" stroke="#000000" d="M47.21678 0H9.27786"/>
<path transform="matrix(1.00005,0,0,-1.00005,11.373619,124.46842)" stroke-width=".3985" stroke-linecap="butt" stroke-miterlimit="10" stroke-linejoin="miter" fill="none" stroke="#000000" d="M0 47.21678V9.27786"/>
<path transform="matrix(1.00005,0,0,-1.00005,11.373619,124.46842)" stroke-width=".3985" stroke-linecap="butt" stroke-miterlimit="10" stroke-linejoin="miter" fill="none" stroke="#000000" d="M50.13316 106.82678 6.70113 63.39474"/>
<path transform="matrix(1.00005,0,0,-1.00005,11.373619,124.46842)" stroke-width=".3985" stroke-linecap="butt" stroke-miterlimit="10" stroke-linejoin="miter" fill="none" stroke="#000000" d="M163.37972 49.99248 120.08836 6.70113"/>
<path transform="matrix(1.00005,0,0,-1.00005,11.373619,124.46842)" stroke-width=".3985" stroke-linecap="butt" stroke-miterlimit="10" stroke-linejoin="miter" fill="none" stroke="#000000" d="M104.2333 2.45248C68.34616 12.06847 44.84888 12.01697 8.96175 2.40099"/>
<path transform="matrix(1.00005,0,0,-1.00005,11.373619,124.46842)" stroke-width=".3985" stroke-linecap="butt" stroke-miterlimit="10" stroke-linejoin="miter" fill="none" stroke="#000000" d="M161.17565 3.24117C105.30684 23.57564 64.58704 23.50758 8.71823 3.17311"/>
<path transform="matrix(1.00005,0,0,-1.00005,11.373619,124.46842)" stroke-width=".3985" stroke-linecap="butt" stroke-miterlimit="10" stroke-linejoin="miter" fill="none" stroke="#000000" d="M104.42548 59.09462C68.53835 68.71059 45.04106 68.76208 9.15393 59.1461"/>
<path transform="matrix(1.00005,0,0,-1.00005,11.373619,124.46842)" stroke-width=".3985" stroke-linecap="butt" stroke-miterlimit="10" stroke-linejoin="miter" fill="none" stroke="#000000" d="M161.17565 59.93478C105.37538 80.24431 64.70546 80.24431 8.90521 59.93478"/>
<path transform="matrix(1.00005,0,0,-1.00005,11.373619,124.46842)" stroke-width=".3985" stroke-linecap="butt" stroke-miterlimit="10" stroke-linejoin="miter" fill="none" stroke="#000000" d="M104.2333 110.93474C68.41855 101.33817 44.96867 101.33817 9.15393 110.93474"/>
<path transform="matrix(1.00005,0,0,-1.00005,11.373619,124.46842)" stroke-width=".3985" stroke-linecap="butt" stroke-miterlimit="10" stroke-linejoin="miter" fill="none" stroke="#000000" d="M161.17565 110.14606C105.37538 89.83653 64.70546 89.83653 8.90521 110.14606"/>
<path transform="matrix(1.00005,0,0,-1.00005,11.373619,124.46842)" stroke-width=".3985" stroke-linecap="butt" stroke-miterlimit="10" stroke-linejoin="miter" fill="none" stroke="#000000" d="M4.00497 104.79842C19.89084 70.73082 19.80676 42.47609 3.92088 8.40848"/>
<path transform="matrix(1.00005,0,0,-1.00005,11.373619,124.46842)" stroke-width=".3985" stroke-linecap="butt" stroke-miterlimit="10" stroke-linejoin="miter" fill="none" stroke="#000000" d="M52.77272 104.97874C36.88684 70.91115 36.80276 42.6564 52.68863 8.5888"/>
<path transform="matrix(1.00005,0,0,-1.00005,11.373619,124.46842)" stroke-width=".3985" stroke-linecap="butt" stroke-miterlimit="10" stroke-linejoin="miter" fill="none" stroke="#000000" d="M109.38225 104.79842C93.5261 70.79451 93.5261 42.59271 109.38225 8.5888"/>
<path transform="matrix(1.00005,0,0,-1.00005,11.373619,124.46842)" stroke-width=".3985" stroke-linecap="butt" stroke-miterlimit="10" stroke-linejoin="miter" fill="none" stroke="#000000" d="M166.07588 104.79842C150.21971 70.79451 150.21971 42.59271 166.07588 8.5888"/>
<path transform="matrix(1.00005,0,0,-1.00005,11.373619,124.46842)" stroke-width=".3985" stroke-linecap="butt" stroke-miterlimit="10" stroke-linejoin="miter" fill="none" stroke="#000000" d="M105.18019 108.64897C56.9899 80.8266 37.23802 53.18176 5.32143 7.59984"/>
<path transform="matrix(1.00005,0,0,-1.00005,11.373619,124.46842)" stroke-width=".3985" stroke-linecap="butt" stroke-miterlimit="10" stroke-linejoin="miter" fill="none" stroke="#000000" d="M161.87381 108.64897C113.76118 80.87144 93.99432 53.27127 62.12917 7.76282"/>
<path transform="matrix(1.00005,0,0,-1.00005,11.373619,124.46842)" stroke-width=".3985" stroke-linecap="butt" stroke-miterlimit="10" stroke-linejoin="miter" fill="none" stroke="#000000" d="M106.82678 50.13316 63.39474 6.70113"/>
</svg>
