<svg xmlns="http://www.w3.org/2000/svg" xmlns:xlink="http://www.w3.org/1999/xlink" version="1.1" width="132" height="132" viewBox="0 0 132 132">
<defs>
<path id="font_1_82" d="M.55400088 0V.04399109H.5039978C.397995 .04399109 .397995 .054977418 .397995 .08596802V.6358185C.397995 .6660156 .394989 .6660156 .3619995 .6660156 .29100038 .6016083 .17999268 .6016083 .1599884 .6016083H.14299011V.5576172H.1599884C.18299866 .5576172 .24798584 .5606079 .30599977 .58561709V.08596802C.30599977 .054977418 .30599977 .04399109 .19999695 .04399109H.1499939V0C.20498657 .0039978029 .2939911 .0039978029 .35198976 .0039978029 .4099884 .0039978029 .49899293 .0039978029 .55400088 0Z"/>
<path id="font_1_107" d="M.58898928 .19299317H.5469971C.5439911 .17399597 .5339966 .11199951 .5179901 .101989749 .5099945 .09599304 .42599488 .09599304 .41099549 .09599304H.21499634C.2809906 .14498902 .35499574 .20098877 .4149933 .24099732 .5049896 .30300904 .58898928 .3610077 .58898928 .4670105 .58898928 .5950012 .46798707 .6660156 .32499696 .6660156 .18998719 .6660156 .09098816 .58795168 .09098816 .48986817 .09098816 .4378662 .1349945 .42886354 .14898682 .42886354 .17599488 .42886354 .20799256 .4468689 .20799256 .48786927 .20799256 .52386477 .18199158 .543869 .15098572 .546875 .1789856 .59194949 .23699951 .6220093 .3039856 .6220093 .40098573 .6220093 .48199464 .5639038 .48199464 .4658661 .48199464 .3818817 .42399598 .31791688 .34700013 .2529297L.102996829 .04598999C.09298706 .036987306 .09199524 .036987306 .09098816 .02999878V0H.55599978L.58898928 .19299317Z"/>
<path id="font_1_106" d="M.59999087 .17382813C.59999087 .25582887 .5269928 .32583619 .41299439 .35183717 .5329895 .39083863 .5649872 .46684266 .5649872 .5228424 .5649872 .60491946 .46299745 .6660156 .33699037 .6660156 .21398926 .6660156 .114990238 .61395266 .114990238 .5238342 .114990238 .47683717 .15299988 .46484376 .17199707 .46484376 .20098877 .46484376 .22898865 .48583985 .22898865 .5218353 .22898865 .5448303 .21699524 .5728302 .18099976 .57884219 .22399903 .625 .31298829 .628006 .33399964 .628006 .40699769 .628006 .45899964 .5908661 .45899964 .5228424 .45899964 .46484376 .42099 .37384034 .31599427 .36782838 .28799439 .36683656 .28399659 .36582948 .2579956 .36483766 .24699402 .36383058 .23599243 .36283876 .23599243 .34783937 .23599243 .3310547 .24598694 .3310547 .2639923 .3310547H.32998658C.42199708 .3310547 .48298646 .2737732 .48298646 .17437744 .48298646 .07237244 .41999818 .01852417 .33099366 .01852417 .31999208 .01852417 .20098877 .01852417 .1499939 .070373538 .19099427 .07637024 .20298767 .1073761 .20298767 .13137818 .20298767 .16838074 .1749878 .19238281 .14199829 .19238281 .10998535 .19238281 .07998657 .17137146 .07998657 .12937927 .07998657 .025512696 .19799805-.022460938 .33399964-.022460938 .49798585-.022460938 .59999087 .07637024 .59999087 .17337036V.17382813Z"/>
</defs>
<path transform="matrix(1.00005,0,0,-1.00002,2.4941788,129.75928)" d="M0 14.17339V28.3468H127.56062V14.17339ZM127.56062 28.3468" fill="#cbcbcb"/>
<path transform="matrix(1.00005,0,0,-1.00002,2.4941788,129.75928)" stroke-width=".3985" stroke-linecap="butt" stroke-miterlimit="10" stroke-linejoin="miter" fill="none" stroke="#000000" d="M0 14.17339V28.3468H127.56062V14.17339ZM127.56062 28.3468"/>
<path transform="matrix(1.00005,0,0,-1.00002,2.4941788,129.75928)" d="M0 99.21382V113.38724H127.56062V99.21382ZM127.56062 113.38724" fill="#cbcbcb"/>
<path transform="matrix(1.00005,0,0,-1.00002,2.4941788,129.75928)" stroke-width=".3985" stroke-linecap="butt" stroke-miterlimit="10" stroke-linejoin="miter" fill="none" stroke="#000000" d="M0 99.21382V113.38724H127.56062V99.21382ZM127.56062 113.38724"/>
<path transform="matrix(1.00005,0,0,-1.00002,2.4941788,129.75928)" d="M14.17339 14.17339V28.3468H28.3468V14.17339ZM28.3468 28.3468" fill="#8080ff"/>
<path transform="matrix(1.00005,0,0,-1.00002,2.4941788,129.75928)" stroke-width=".3985" stroke-linecap="butt" stroke-miterlimit="10" stroke-linejoin="miter" fill="none" stroke="#000000" d="M14.17339 14.17339V28.3468H28.3468V14.17339ZM28.3468 28.3468"/>
<path transform="matrix(1.00005,0,0,-1.00002,2.4941788,129.75928)" d="M99.21382 14.17339V28.3468H113.38724V14.17339ZM113.38724 28.3468" fill="#8080ff"/>
<path transform="matrix(1.00005,0,0,-1.00002,2.4941788,129.75928)" stroke-width=".3985" stroke-linecap="butt" stroke-miterlimit="10" stroke-linejoin="miter" fill="none" stroke="#000000" d="M99.21382 14.17339V28.3468H113.38724V14.17339ZM113.38724 28.3468"/>
<path transform="matrix(1.00005,0,0,-1.00002,2.4941788,129.75928)" d="M14.17339 99.21382V113.38724H28.3468V99.21382ZM28.3468 113.38724" fill="#8080ff"/>
<path transform="matrix(1.00005,0,0,-1.00002,2.4941788,129.75928)" stroke-width=".3985" stroke-linecap="butt" stroke-miterlimit="10" stroke-linejoin="miter" fill="none" stroke="#000000" d="M14.17339 99.21382V113.38724H28.3468V99.21382ZM28.3468 113.38724"/>
<path transform="matrix(1.00005,0,0,-1.00002,2.4941788,129.75928)" d="M99.21382 99.21382V113.38724H113.38724V99.21382ZM113.38724 113.38724" fill="#8080ff"/>
<path transform="matrix(1.00005,0,0,-1.00002,2.4941788,129.75928)" stroke-width=".3985" stroke-linecap="butt" stroke-miterlimit="10" stroke-linejoin="miter" fill="none" stroke="#000000" d="M99.21382 99.21382V113.38724H113.38724V99.21382ZM113.38724 113.38724"/>
<path transform="matrix(1.00005,0,0,-1.00002,2.4941788,129.75928)" stroke-width=".3985" stroke-linecap="butt" stroke-miterlimit="10" stroke-linejoin="miter" fill="none" stroke="#000000" d="M0 0H127.56062M0 14.17339H127.56062M0 28.3468H127.56062M0 42.5202H127.56062M0 56.69362H127.56062M0 70.867H127.56062M0 85.04042H127.56062M0 99.21382H127.56062M0 113.38724H127.56062M0 127.55566H127.56062M0 0V127.56062M14.17339 0V127.56062M28.3468 0V127.56062M42.5202 0V127.56062M56.69362 0V127.56062M70.867 0V127.56062M85.04042 0V127.56062M99.21382 0V127.56062M113.38724 0V127.56062M127.55566 0V127.56062M127.56062 127.56062"/>
<path transform="matrix(1.00005,0,0,-1.00002,2.4941788,129.75928)" stroke-width="1.19553" stroke-linecap="butt" stroke-miterlimit="10" stroke-linejoin="miter" fill="none" stroke="#000000" d="M0 0V42.5202H42.5202V0ZM42.5202 42.5202"/>
<path transform="matrix(1.00005,0,0,-1.00002,2.4941788,129.75928)" stroke-width="1.19553" stroke-linecap="butt" stroke-miterlimit="10" stroke-linejoin="miter" fill="none" stroke="#000000" d="M0 42.5202V85.04042H42.5202V42.5202ZM42.5202 85.04042"/>
<path transform="matrix(1.00005,0,0,-1.00002,2.4941788,129.75928)" stroke-width="1.19553" stroke-linecap="butt" stroke-miterlimit="10" stroke-linejoin="miter" fill="none" stroke="#000000" d="M0 85.04042V127.56062H42.5202V85.04042ZM42.5202 127.56062"/>
<path transform="matrix(1.00005,0,0,-1.00002,2.4941788,129.75928)" stroke-width="1.19553" stroke-linecap="butt" stroke-miterlimit="10" stroke-linejoin="miter" fill="none" stroke="#000000" d="M42.5202 0V42.5202H85.04042V0ZM85.04042 42.5202"/>
<path transform="matrix(1.00005,0,0,-1.00002,2.4941788,129.75928)" stroke-width="1.19553" stroke-linecap="butt" stroke-miterlimit="10" stroke-linejoin="miter" fill="none" stroke="#000000" d="M42.5202 42.5202V85.04042H85.04042V42.5202ZM85.04042 85.04042"/>
<path transform="matrix(1.00005,0,0,-1.00002,2.4941788,129.75928)" stroke-width="1.19553" stroke-linecap="butt" stroke-miterlimit="10" stroke-linejoin="miter" fill="none" stroke="#000000" d="M42.5202 85.04042V127.56062H85.04042V85.04042ZM85.04042 127.56062"/>
<path transform="matrix(1.00005,0,0,-1.00002,2.4941788,129.75928)" stroke-width="1.19553" stroke-linecap="butt" stroke-miterlimit="10" stroke-linejoin="miter" fill="none" stroke="#000000" d="M85.04042 0V42.5202H127.56062V0ZM127.56062 42.5202"/>
<path transform="matrix(1.00005,0,0,-1.00002,2.4941788,129.75928)" stroke-width="1.19553" stroke-linecap="butt" stroke-miterlimit="10" stroke-linejoin="miter" fill="none" stroke="#000000" d="M85.04042 42.5202V85.04042H127.56062V42.5202ZM127.56062 85.04042"/>
<path transform="matrix(1.00005,0,0,-1.00002,2.4941788,129.75928)" stroke-width="1.19553" stroke-linecap="butt" stroke-miterlimit="10" stroke-linejoin="miter" fill="none" stroke="#000000" d="M85.04042 85.04042V127.56062H127.56062V85.04042ZM127.56062 127.56062"/>
<path transform="matrix(1.00005,0,0,-1.00002,2.4941788,129.75928)" stroke-width="1.59404" stroke-linecap="butt" stroke-miterlimit="10" stroke-linejoin="miter" fill="none" stroke="#0000ff" d="M21.2601 21.2601 106.30052 106.30052"/>
<path transform="matrix(1.00005,0,0,-1.00002,2.4941788,129.75928)" stroke-width="1.59404" stroke-linecap="butt" stroke-miterlimit="10" stroke-linejoin="miter" fill="none" stroke="#0000ff" d="M21.2601 106.30052 106.30052 21.2601"/>
<path transform="matrix(1.00005,0,0,-1.00002,2.4941788,129.75928)" stroke-width=".3985" stroke-linecap="butt" stroke-miterlimit="10" stroke-linejoin="miter" fill="none" stroke="#000000" d="M21.2601 21.2601"/>
<use data-text="1" xlink:href="#font_1_82" transform="matrix(4.981549,0,0,-4.9813997,20.363072,110.15788)"/>
<use data-text="2" xlink:href="#font_1_107" transform="matrix(4.981549,0,0,-4.9813997,23.755505,110.15788)"/>
<path transform="matrix(1.00005,0,0,-1.00002,2.4941788,129.75928)" stroke-width=".3985" stroke-linecap="butt" stroke-miterlimit="10" stroke-linejoin="miter" fill="none" stroke="#000000" d="M21.2601 106.30052"/>
<use data-text="1" xlink:href="#font_1_82" transform="matrix(4.981549,0,0,-4.9813997,20.363072,25.115181)"/>
<use data-text="2" xlink:href="#font_1_107" transform="matrix(4.981549,0,0,-4.9813997,23.755505,25.115181)"/>
<path transform="matrix(1.00005,0,0,-1.00002,2.4941788,129.75928)" stroke-width=".3985" stroke-linecap="butt" stroke-miterlimit="10" stroke-linejoin="miter" fill="none" stroke="#000000" d="M106.30052 21.2601"/>
<use data-text="1" xlink:href="#font_1_82" transform="matrix(4.981549,0,0,-4.9813997,105.40732,110.10288)"/>
<use data-text="3" xlink:href="#font_1_106" transform="matrix(4.981549,0,0,-4.9813997,108.79975,110.10288)"/>
<path transform="matrix(1.00005,0,0,-1.00002,2.4941788,129.75928)" stroke-width=".3985" stroke-linecap="butt" stroke-miterlimit="10" stroke-linejoin="miter" fill="none" stroke="#000000" d="M106.30052 106.30052"/>
<use data-text="1" xlink:href="#font_1_82" transform="matrix(4.981549,0,0,-4.9813997,105.40732,25.06018)"/>
<use data-text="3" xlink:href="#font_1_106" transform="matrix(4.981549,0,0,-4.9813997,108.79975,25.06018)"/>
</svg>
